<?xml version="1.0" encoding="utf-8"?>
<!-- Generator: Adobe Illustrator 16.0.1, SVG Export Plug-In . SVG Version: 6.00 Build 0)  -->
<!DOCTYPE svg PUBLIC "-//W3C//DTD SVG 1.1//EN" "http://www.w3.org/Graphics/SVG/1.1/DTD/svg11.dtd">
<svg version="1.1" id="Layer_1" xmlns="http://www.w3.org/2000/svg" xmlns:xlink="http://www.w3.org/1999/xlink" x="0px" y="0px"
	 width="32px" height="32px" viewBox="0 0 32 32" enable-background="new 0 0 32 32" xml:space="preserve">
<path d="M0.5,27.625h3.875V31.5H8.25v-3.875h15.5V31.5h3.875v-3.875H31.5v-1.938h-31V27.625z M25.688,10.188H16H6.312L0.5,23.75h31
	L25.688,10.188z M11.156,8.25C13.831,8.25,16,9.117,16,10.188c0-1.071,2.169-1.938,4.844-1.938s4.844,0.867,4.844,1.938v-7.75
	c0-1.071-0.866-1.938-1.938-1.938H8.25c-1.071,0-1.938,0.867-1.938,1.938v7.75C6.312,9.117,8.482,8.25,11.156,8.25z"/>
</svg>
