<?xml version="1.0" encoding="utf-8"?>
<!-- Generator: Adobe Illustrator 16.0.1, SVG Export Plug-In . SVG Version: 6.00 Build 0)  -->
<!DOCTYPE svg PUBLIC "-//W3C//DTD SVG 1.1//EN" "http://www.w3.org/Graphics/SVG/1.1/DTD/svg11.dtd">
<svg version="1.1" id="Layer_1" xmlns="http://www.w3.org/2000/svg" xmlns:xlink="http://www.w3.org/1999/xlink" x="0px" y="0px"
	 width="32px" height="32px" viewBox="0 0 32 32" enable-background="new 0 0 32 32" xml:space="preserve">
<path d="M5.833,17.979v4.646c0,2,4.477,5,10,5c5.522,0,9.999-3,9.999-5v-4.646l-9.999,5.001L5.833,17.979z M15.833,3.625l-16,8l16,8
	l12.981-6.491l-0.981,8.491h2v-9l1.999-1L15.833,3.625z M16.832,12.075c-0.8,0-1.449-0.649-1.449-1.45
	c0-0.801,0.649-1.451,1.449-1.451c0.802,0,1.45,0.649,1.45,1.451C18.282,11.426,17.634,12.075,16.832,12.075z"/>
</svg>
