<?xml version="1.0" encoding="utf-8"?>
<!-- Generator: Adobe Illustrator 16.0.1, SVG Export Plug-In . SVG Version: 6.00 Build 0)  -->
<!DOCTYPE svg PUBLIC "-//W3C//DTD SVG 1.1//EN" "http://www.w3.org/Graphics/SVG/1.1/DTD/svg11.dtd">
<svg version="1.1" id="Layer_1" xmlns="http://www.w3.org/2000/svg" xmlns:xlink="http://www.w3.org/1999/xlink" x="0px" y="0px"
	 width="32px" height="32px" viewBox="0 0 32 32" enable-background="new 0 0 32 32" xml:space="preserve">
<path d="M32,13.414c0-6.279-1.837-11.373-4.109-11.413C27.9,2.001,27.909,2,27.918,2h-2.592c0,0-5.838,4.573-14.602,6.367
	c-0.268,1.415-0.438,3.102-0.438,5.047s0.171,3.631,0.438,5.047c8.764,1.794,14.602,6.367,14.602,6.367h2.592
	c-0.009,0-0.018-0.001-0.027-0.001C30.163,24.787,32,19.693,32,13.414z M27.864,23.744c-0.298,0-0.621-0.325-0.787-0.518
	c-0.401-0.47-0.788-1.199-1.119-2.11c-0.739-2.04-1.147-4.776-1.147-7.702c0-2.926,0.407-5.661,1.147-7.702
	c0.33-0.912,0.717-1.642,1.119-2.11c0.166-0.194,0.488-0.518,0.787-0.518c0.298,0,0.621,0.325,0.787,0.518
	c0.401,0.469,0.788,1.198,1.118,2.11c0.739,2.04,1.147,4.776,1.147,7.702c0,2.926-0.407,5.661-1.147,7.702
	c-0.329,0.911-0.717,1.642-1.118,2.11C28.485,23.42,28.162,23.744,27.864,23.744z M8.119,13.414c0-1.623,0.119-3.201,0.345-4.659
	C6.984,8.96,5.435,9.078,3.828,9.078c-2.096,0-2.096,0-2.096,0L0,12.037v2.755l1.733,2.959c0,0,0,0,2.096,0
	c1.605,0,3.155,0.118,4.636,0.323C8.238,16.615,8.119,15.038,8.119,13.414z M26.43,8.411c-0.283,1.522-0.434,3.228-0.434,5.004
	s0.15,3.481,0.434,5.004c1.479-0.037,2.673-2.263,2.673-5.004C29.104,10.673,27.91,8.447,26.43,8.411z M11.505,20.068l-4-0.767
	l2.558,10.048c0.133,0.521,0.648,0.782,1.146,0.584l3.705-1.483c0.498-0.199,0.698-0.749,0.444-1.222L11.505,20.068z"/>
</svg>
