<?xml version="1.0" encoding="utf-8"?>
<!-- Generator: Adobe Illustrator 16.0.1, SVG Export Plug-In . SVG Version: 6.00 Build 0)  -->
<!DOCTYPE svg PUBLIC "-//W3C//DTD SVG 1.1//EN" "http://www.w3.org/Graphics/SVG/1.1/DTD/svg11.dtd">
<svg version="1.1" id="Layer_1" xmlns="http://www.w3.org/2000/svg" xmlns:xlink="http://www.w3.org/1999/xlink" x="0px" y="0px"
	 width="32px" height="32px" viewBox="0 0 32 32" enable-background="new 0 0 32 32" xml:space="preserve">
<path d="M25.661,10.995L20.103,3.76c0.099-0.236,0.152-0.494,0.152-0.766c0-1.105-0.895-2-2-2s-2,0.895-2,2s0.895,2,2,2
	c0.089,0,0.176-0.006,0.262-0.018l4.622,6.018H9.371l4.622-6.018c0.086,0.012,0.172,0.018,0.262,0.018c1.105,0,2-0.895,2-2
	s-0.894-2-2-2s-2,0.895-2,2c0,0.271,0.054,0.529,0.152,0.766l-5.559,7.234H0.255v4h2l2,16.001h24l2-16.001h2v-4H25.661z
	 M10.255,26.994h-4v-3.999h4V26.994z M10.255,18.994h-4v-4h4V18.994z M18.255,26.994h-4v-3.999h4V26.994z M18.255,18.994h-4v-4h4
	V18.994z M26.255,26.994h-4v-3.999h4V26.994z M26.255,18.994h-4v-4h4V18.994z"/>
</svg>
