<?xml version="1.0" encoding="utf-8"?>
<!-- Generator: Adobe Illustrator 16.0.1, SVG Export Plug-In . SVG Version: 6.00 Build 0)  -->
<!DOCTYPE svg PUBLIC "-//W3C//DTD SVG 1.1//EN" "http://www.w3.org/Graphics/SVG/1.1/DTD/svg11.dtd">
<svg version="1.1" id="Layer_1" xmlns="http://www.w3.org/2000/svg" xmlns:xlink="http://www.w3.org/1999/xlink" x="0px" y="0px"
	 width="32px" height="32px" viewBox="0 0 32 32" enable-background="new 0 0 32 32" xml:space="preserve">
<g>
	<path d="M7.781,14.931c0.181-0.134,0.272-0.352,0.272-0.654c0-0.167-0.03-0.305-0.091-0.412s-0.141-0.191-0.242-0.251
		c-0.101-0.061-0.216-0.102-0.347-0.125c-0.131-0.024-0.267-0.036-0.408-0.036H5.487v1.68h1.6C7.369,15.132,7.6,15.065,7.781,14.931
		z"/>
	<path d="M7.208,16.208h-1.72v1.972h1.69c0.154,0,0.302-0.015,0.442-0.046c0.141-0.029,0.265-0.08,0.373-0.15
		c0.107-0.07,0.193-0.166,0.256-0.287c0.064-0.12,0.096-0.274,0.096-0.463c0-0.368-0.104-0.631-0.312-0.789
		S7.55,16.208,7.208,16.208z"/>
	<path d="M30.595,18.713c0.191-0.964,1.513-1.839,1.513-2.857c0-1.019-1.321-1.893-1.513-2.856c-0.198-0.993,0.68-2.3,0.3-3.213
		c-0.389-0.928-1.947-1.238-2.505-2.063c-0.561-0.831-0.257-2.376-0.968-3.079c-0.711-0.708-2.271-0.404-3.108-0.959
		c-0.833-0.555-1.144-2.1-2.08-2.486c-0.167-0.069-0.351-0.097-0.54-0.097c-0.745,0-1.628,0.423-2.384,0.423
		c-0.108,0-0.215-0.009-0.318-0.028c-0.972-0.191-1.855-1.501-2.883-1.501c-1.029,0-1.913,1.31-2.884,1.501
		c-0.103,0.019-0.208,0.028-0.317,0.028c-0.758,0-1.64-0.423-2.385-0.423c-0.19,0-0.372,0.028-0.54,0.097
		c-0.937,0.386-1.248,1.931-2.08,2.483c-0.84,0.555-2.396,0.251-3.107,0.957c-0.712,0.705-0.408,2.25-0.97,3.082
		C3.269,8.545,1.71,8.855,1.321,9.783C0.94,10.696,1.816,12.006,1.619,13c-0.191,0.963-1.512,1.837-1.512,2.856
		c0,1.019,1.321,1.894,1.512,2.857c0.197,0.992-0.681,2.299-0.299,3.212c0.388,0.928,1.949,1.237,2.505,2.062
		c0.562,0.834,0.256,2.376,0.966,3.078c0.712,0.71,2.271,0.405,3.109,0.96c0.832,0.555,1.143,2.101,2.08,2.485
		c0.167,0.069,0.349,0.099,0.539,0.099c0.747,0,1.629-0.424,2.385-0.424c0.109,0,0.215,0.009,0.318,0.027
		c0.972,0.191,1.856,1.502,2.886,1.502c1.028,0,1.911-1.311,2.883-1.502c0.104-0.019,0.21-0.027,0.316-0.027
		c0.758,0,1.641,0.424,2.385,0.424c0.189,0,0.372-0.029,0.54-0.099c0.935-0.385,1.247-1.931,2.081-2.482
		c0.838-0.555,2.395-0.25,3.105-0.956c0.712-0.705,0.409-2.251,0.97-3.082c0.559-0.824,2.113-1.135,2.504-2.062
		C31.272,21.016,30.396,19.705,30.595,18.713z M9.713,18.267c-0.141,0.265-0.331,0.48-0.569,0.648s-0.51,0.292-0.815,0.372
		c-0.305,0.081-0.619,0.121-0.941,0.121H3.908v-7.184h3.38c0.342,0,0.654,0.03,0.936,0.091c0.282,0.06,0.523,0.159,0.724,0.297
		c0.201,0.137,0.357,0.32,0.468,0.548c0.11,0.228,0.166,0.51,0.166,0.845c0,0.363-0.083,0.664-0.247,0.905
		c-0.165,0.242-0.408,0.44-0.729,0.594c0.443,0.127,0.773,0.35,0.991,0.669c0.218,0.318,0.328,0.703,0.328,1.152
		C9.925,17.688,9.854,18.001,9.713,18.267z M16.444,19.408h-5.453v-7.184h5.373v1.328H12.57v1.54h3.481v1.228H12.57v1.761h3.874
		V19.408z M20.68,13.552v5.856h-1.579v-5.856h-2.153v-1.328h5.886v1.328H20.68z M27.36,19.408l-0.543-1.6h-2.687l-0.563,1.6h-1.589
		l2.717-7.184h1.619l2.687,7.184H27.36z"/>
	<polygon points="25.479,13.995 24.544,16.631 26.404,16.631 25.5,13.995 	"/>
</g>
</svg>
