<?xml version="1.0" encoding="utf-8"?>
<!-- Generator: Adobe Illustrator 16.0.1, SVG Export Plug-In . SVG Version: 6.00 Build 0)  -->
<!DOCTYPE svg PUBLIC "-//W3C//DTD SVG 1.1//EN" "http://www.w3.org/Graphics/SVG/1.1/DTD/svg11.dtd">
<svg version="1.1" id="Layer_1" xmlns="http://www.w3.org/2000/svg" xmlns:xlink="http://www.w3.org/1999/xlink" x="0px" y="0px"
	 width="32px" height="32px" viewBox="0 0 32 32" enable-background="new 0 0 32 32" xml:space="preserve">
<path d="M25.831,9.658h-6.414c-0.489-0.818-1.25-1.662-2.304-2.55c-0.028-0.024-0.045-0.06-0.045-0.097
	c0-0.037,0.017-0.073,0.046-0.096c2.051-1.698,2.991-3.612,2.98-6.12c-0.058,0.185-0.132,0.394-0.226,0.622
	c-0.024,0.06-0.088,0.089-0.15,0.074c-0.037-0.01-0.069-0.019-0.099-0.019h-2.652c-0.174,0-0.315,0.12-0.315,0.268
	c0,0.147,0.141,0.268,0.315,0.268h2.42c0.044,0,0.085,0.023,0.108,0.062c0.022,0.038,0.023,0.085,0.003,0.124
	c-0.115,0.215-0.227,0.408-0.342,0.591C19.13,2.828,19.08,2.851,19.027,2.84c-0.002,0-0.031-0.007-0.032-0.007
	c-0.016-0.004-0.029-0.007-0.038-0.007h-1.989c-0.174,0-0.315,0.121-0.315,0.268c0,0.148,0.141,0.268,0.315,0.268h1.54
	c0.048,0,0.092,0.027,0.113,0.07c0.021,0.043,0.016,0.094-0.014,0.132c-0.185,0.241-0.385,0.48-0.596,0.71
	c-0.023,0.026-0.058,0.041-0.093,0.041h-0.95c-0.174,0-0.315,0.12-0.315,0.268c0,0.147,0.142,0.268,0.315,0.268h0.157
	c0.053,0,0.1,0.032,0.118,0.081c0.019,0.048,0.005,0.104-0.033,0.138c-0.392,0.355-0.781,0.671-1.19,0.965l-0.069,0.052
	c-0.044,0.032-0.104,0.031-0.148-0.001l-0.067-0.051c-0.408-0.292-0.796-0.608-1.19-0.965c-0.039-0.035-0.052-0.09-0.033-0.138
	c0.019-0.049,0.065-0.081,0.118-0.081h0.157c0.174,0,0.315-0.12,0.315-0.268c0-0.148-0.141-0.268-0.315-0.268h-0.95
	c-0.036,0-0.069-0.015-0.093-0.041c-0.208-0.229-0.409-0.467-0.596-0.71c-0.029-0.038-0.034-0.089-0.013-0.132
	c0.021-0.043,0.065-0.07,0.113-0.07h1.54c0.173,0,0.314-0.12,0.314-0.268c0-0.147-0.141-0.268-0.314-0.268H12.8
	c-0.008,0-0.021,0.003-0.036,0.007c-0.001,0-0.031,0.007-0.033,0.007c-0.05,0.011-0.103-0.013-0.131-0.057
	c-0.118-0.187-0.229-0.38-0.342-0.591c-0.021-0.039-0.02-0.086,0.003-0.125c0.023-0.038,0.063-0.061,0.108-0.061h2.42
	c0.173,0,0.314-0.12,0.314-0.268c0-0.148-0.141-0.268-0.314-0.268h-2.651c-0.029,0-0.059,0.008-0.098,0.019
	c-0.061,0.018-0.126-0.014-0.151-0.073c-0.095-0.229-0.169-0.438-0.227-0.624c-0.011,2.509,0.931,4.423,2.981,6.121
	c0.029,0.023,0.045,0.059,0.046,0.096c0,0.038-0.017,0.073-0.045,0.097c-1.14,0.96-1.859,1.8-2.307,2.55H5.926
	c-3.334,0-6.047,2.713-6.047,6.047v0.589c0,3.335,2.712,6.048,6.047,6.048h6.413c0.447,0.749,1.166,1.589,2.306,2.55
	c0.028,0.024,0.045,0.06,0.044,0.097c0,0.038-0.017,0.073-0.045,0.097c-2.05,1.698-2.992,3.612-2.981,6.121
	c0.058-0.185,0.132-0.395,0.227-0.623c0.024-0.06,0.089-0.093,0.15-0.073c0.035,0.01,0.067,0.019,0.098,0.019h2.651
	c0.174,0,0.314-0.12,0.314-0.268c0-0.148-0.141-0.269-0.314-0.269h-2.42c-0.044,0-0.085-0.022-0.108-0.061s-0.024-0.085-0.003-0.124
	c0.112-0.211,0.224-0.404,0.342-0.591c0.028-0.044,0.078-0.065,0.13-0.058c0.002,0.001,0.034,0.008,0.036,0.009
	c0.014,0.003,0.027,0.006,0.035,0.006h1.989c0.174,0,0.314-0.12,0.314-0.268c0-0.148-0.141-0.268-0.314-0.268h-1.54
	c-0.048,0-0.092-0.027-0.113-0.071c-0.021-0.042-0.016-0.094,0.013-0.132c0.186-0.242,0.387-0.48,0.596-0.711
	c0.024-0.025,0.058-0.041,0.093-0.041h0.95c0.174,0,0.315-0.12,0.315-0.268s-0.141-0.268-0.315-0.268h-0.157
	c-0.052,0-0.099-0.032-0.118-0.081c-0.019-0.048-0.005-0.104,0.033-0.139c0.396-0.359,0.786-0.675,1.189-0.964l0.067-0.051
	c0.043-0.033,0.103-0.033,0.148-0.001l0.069,0.053c0.407,0.291,0.796,0.606,1.189,0.963c0.038,0.035,0.052,0.091,0.033,0.139
	c-0.019,0.049-0.065,0.081-0.118,0.081h-0.157c-0.174,0-0.316,0.12-0.316,0.268s0.142,0.268,0.316,0.268h0.95
	c0.035,0,0.069,0.016,0.093,0.041c0.213,0.232,0.413,0.472,0.596,0.711c0.029,0.038,0.034,0.09,0.014,0.132
	c-0.021,0.044-0.065,0.071-0.113,0.071h-1.54c-0.174,0-0.315,0.119-0.315,0.268c0,0.147,0.141,0.268,0.315,0.268h1.989
	c0.009,0,0.021-0.003,0.036-0.007c0.002,0,0.033-0.007,0.035-0.007c0.05-0.012,0.103,0.012,0.13,0.057
	c0.116,0.184,0.228,0.377,0.342,0.59c0.021,0.04,0.02,0.087-0.003,0.125c-0.023,0.038-0.064,0.061-0.108,0.061h-2.42
	c-0.174,0-0.315,0.12-0.315,0.269c0,0.147,0.141,0.268,0.315,0.268h2.652c0.029,0,0.062-0.009,0.099-0.02
	c0.062-0.016,0.126,0.016,0.15,0.074c0.094,0.228,0.168,0.438,0.226,0.622c0.011-2.508-0.93-4.423-2.98-6.12
	c-0.029-0.023-0.046-0.059-0.046-0.097c0-0.037,0.017-0.072,0.045-0.097c1.052-0.887,1.815-1.73,2.306-2.55h6.412
	c3.335,0,6.048-2.713,6.048-6.048v-0.589C31.879,12.371,29.166,9.658,25.831,9.658z M14.789,9.13h-0.226
	c-0.053,0-0.1-0.033-0.118-0.083c-0.018-0.049-0.003-0.105,0.037-0.139c0.369-0.312,0.814-0.655,1.324-1.019
	c0.043-0.031,0.102-0.031,0.146,0c0.511,0.364,0.956,0.707,1.325,1.019c0.039,0.034,0.054,0.09,0.036,0.139
	c-0.019,0.05-0.065,0.083-0.118,0.083h-0.226c-0.174,0-0.315,0.12-0.315,0.268c0,0.134,0.119,0.24,0.27,0.26h-2.088
	c0.15-0.02,0.269-0.126,0.269-0.26C15.103,9.25,14.962,9.13,14.789,9.13z M16.969,22.87h0.225c0.053,0,0.1,0.033,0.118,0.083
	c0.018,0.049,0.003,0.104-0.036,0.139c-0.37,0.313-0.815,0.655-1.325,1.019c-0.044,0.031-0.103,0.031-0.146,0
	c-0.509-0.362-0.954-0.705-1.324-1.019c-0.04-0.034-0.055-0.09-0.037-0.139c0.018-0.05,0.065-0.083,0.118-0.083h0.226
	c0.174,0,0.314-0.12,0.314-0.269c0-0.134-0.118-0.24-0.269-0.26h2.089c-0.151,0.02-0.27,0.126-0.27,0.26
	C16.653,22.75,16.795,22.87,16.969,22.87z M29.863,16.294c0,2.224-1.809,4.032-4.032,4.032h-9.952v-8.652h9.952
	c2.224,0,4.032,1.809,4.032,4.031V16.294z"/>
</svg>
