<?xml version="1.0" encoding="utf-8"?>
<!-- Generator: Adobe Illustrator 16.0.1, SVG Export Plug-In . SVG Version: 6.00 Build 0)  -->
<!DOCTYPE svg PUBLIC "-//W3C//DTD SVG 1.1//EN" "http://www.w3.org/Graphics/SVG/1.1/DTD/svg11.dtd">
<svg version="1.1" id="Layer_1" xmlns="http://www.w3.org/2000/svg" xmlns:xlink="http://www.w3.org/1999/xlink" x="0px" y="0px"
	 width="32px" height="32px" viewBox="0 0 32 32" enable-background="new 0 0 32 32" xml:space="preserve">
<path fill="#010101" d="M28.056,3.944h-1.551v3.444h-5.511V3.944h-9.989v3.444H5.494V3.944h-1.55C2.05,3.944,0.5,5.495,0.5,7.389
	v20.667c0,1.895,1.55,3.444,3.444,3.444h24.111c1.895,0,3.444-1.55,3.444-3.444V7.389C31.5,5.495,29.95,3.944,28.056,3.944z
	 M28.056,28.056H3.944V14.277h24.111V28.056z M9.455,0.5H7.044v5.855h2.411V0.5z M24.955,0.5h-2.411v5.855h2.411V0.5z"/>
</svg>
