<?xml version="1.0" encoding="utf-8"?>
<!-- Generator: Adobe Illustrator 16.0.1, SVG Export Plug-In . SVG Version: 6.00 Build 0)  -->
<!DOCTYPE svg PUBLIC "-//W3C//DTD SVG 1.1//EN" "http://www.w3.org/Graphics/SVG/1.1/DTD/svg11.dtd">
<svg version="1.1" id="Layer_1" xmlns="http://www.w3.org/2000/svg" xmlns:xlink="http://www.w3.org/1999/xlink" x="0px" y="0px"
	 width="32px" height="32px" viewBox="0 0 32 32" enable-background="new 0 0 32 32" xml:space="preserve">
<path d="M28.179,7.775c-3.835-2.181-9.32-2.4-12.175-2.4C16.002,5.377,16.001,5.379,16,5.38c-0.002-0.001-0.003-0.002-0.005-0.004
	c-2.855,0-8.338,0.219-12.175,2.4C0.597,9.61,0.5,11.573,0.5,12.943v0.206c0,0.313,0.27,0.57,0.601,0.57h7.274
	c0.331,0,0.601-0.257,0.601-0.57v-0.694c0-1.732,1.656-2.009,2.57-2.155s3.186-0.29,4.449-0.29c0.002,0,0.003,0,0.005,0
	c0.001,0,0.003,0,0.004,0c1.264,0,3.534,0.142,4.45,0.29c0.913,0.147,2.569,0.425,2.569,2.155v0.694c0,0.313,0.271,0.57,0.602,0.57
	h7.273c0.33,0,0.602-0.257,0.602-0.57v-0.206C31.5,11.573,31.403,9.61,28.179,7.775z M16,13.5c-1.717,0-5.294-0.247-7.111,1.957
	c-1.817,2.202-6.363,13.168-2.31,13.168c4.054,0,7.596,0,9.421,0c1.824,0,5.367,0,9.421,0s-0.492-10.966-2.31-13.168
	C21.294,13.254,17.718,13.5,16,13.5z M16,25.719c-2.675,0-4.844-2.17-4.844-4.844c0-2.675,2.169-4.844,4.844-4.844
	c2.676,0,4.844,2.169,4.844,4.844C20.844,23.549,18.676,25.719,16,25.719z"/>
</svg>
