<?xml version="1.0" encoding="utf-8"?>
<!-- Generator: Adobe Illustrator 16.0.1, SVG Export Plug-In . SVG Version: 6.00 Build 0)  -->
<!DOCTYPE svg PUBLIC "-//W3C//DTD SVG 1.1//EN" "http://www.w3.org/Graphics/SVG/1.1/DTD/svg11.dtd">
<svg version="1.1" id="Layer_1" xmlns="http://www.w3.org/2000/svg" xmlns:xlink="http://www.w3.org/1999/xlink" x="0px" y="0px"
	 width="32px" height="32px" viewBox="0 0 32 32" enable-background="new 0 0 32 32" xml:space="preserve">
<g>
	<ellipse cx="15.972" cy="3.804" rx="14" ry="3.803"/>
	<path d="M15.972,12C9.451,12,3.988,11.043,2.431,9.75c-0.289,0.4-0.459,0.818-0.459,1.25c0,2.76,6.268,5,14,5c7.732,0,14-2.24,14-5
		c0-0.432-0.171-0.85-0.459-1.25C27.955,11.043,22.492,12,15.972,12z"/>
</g>
<g>
	<path d="M15.972,28c-6.521,0-11.984-0.957-13.541-2.25c-0.289,0.4-0.459,0.818-0.459,1.25c0,2.565,5.417,4.682,12.392,4.967
		c0.011,0,0.021,0.001,0.033,0.001C14.914,31.988,15.439,32,15.972,32s1.058-0.012,1.575-0.032c0.011,0,0.021-0.001,0.032-0.001
		c6.975-0.285,12.393-2.401,12.393-4.967c0-0.432-0.171-0.85-0.459-1.25C27.955,27.043,22.492,28,15.972,28z"/>
	<path d="M15.972,24.25c7.732,0,14-2.24,14-5c0-0.432-0.171-0.85-0.459-1.25c-1.558,1.293-7.021,2.25-13.541,2.25
		S3.988,19.293,2.431,18c-0.289,0.4-0.459,0.818-0.459,1.25C1.972,22.01,8.24,24.25,15.972,24.25z"/>
</g>
</svg>
