<?xml version="1.0" encoding="utf-8"?>
<!-- Generator: Adobe Illustrator 16.0.1, SVG Export Plug-In . SVG Version: 6.00 Build 0)  -->
<!DOCTYPE svg PUBLIC "-//W3C//DTD SVG 1.1//EN" "http://www.w3.org/Graphics/SVG/1.1/DTD/svg11.dtd">
<svg version="1.1" id="Layer_1" xmlns="http://www.w3.org/2000/svg" xmlns:xlink="http://www.w3.org/1999/xlink" x="0px" y="0px"
	 width="32px" height="32px" viewBox="0 0 32 32" enable-background="new 0 0 32 32" xml:space="preserve">
<path d="M31.504,18.634c0-2.077-1.708-3.869-4.173-4.702c-0.249,3.78-3.321,7.03-7.747,8.7c0.822,0.488,1.796,0.85,2.864,1.041
	c0.772,1.805,1.993,3.535,3.489,4.672c-0.81-1.59-0.857-3.179-0.572-4.578C28.844,23.377,31.504,21.228,31.504,18.634z
	 M25.269,13.438c0-4.591-5.584-8.313-12.47-8.313s-12.47,3.722-12.47,8.313c0,3.419,3.095,6.354,7.52,7.632
	c0.692,1.712,1.083,3.972-0.069,6.232c1.75-1.327,3.123-3.47,3.842-5.589c0.387,0.025,0.78,0.038,1.177,0.038
	C19.685,21.752,25.269,18.029,25.269,13.438z"/>
</svg>
