<?xml version="1.0" encoding="utf-8"?>
<!-- Generator: Adobe Illustrator 16.0.1, SVG Export Plug-In . SVG Version: 6.00 Build 0)  -->
<!DOCTYPE svg PUBLIC "-//W3C//DTD SVG 1.1//EN" "http://www.w3.org/Graphics/SVG/1.1/DTD/svg11.dtd">
<svg version="1.1" id="Layer_1" xmlns="http://www.w3.org/2000/svg" xmlns:xlink="http://www.w3.org/1999/xlink" x="0px" y="0px"
	 width="32px" height="32px" viewBox="0 0 32 32" enable-background="new 0 0 32 32" xml:space="preserve">
<path d="M13.869,11.868h11.999v2H13.869V11.868z M13.869,15.868h11.999v1.999H13.869V15.868z M13.869,19.867h11.999v2H13.869V19.867
	z M13.869,23.867h7.999v2h-7.999V23.867z M29.867,5.868h-6v-4c0-1.1-0.9-2-2-2h-20c-1.1,0-2,0.9-2,2v22c0,1.1,0.9,2,2,2h6v4
	c0,1.101,0.901,2,2,2h19.999c1.101,0,2-0.899,2-2v-22C31.867,6.768,30.968,5.868,29.867,5.868z M7.868,7.868v15h-5v-20h18v3H9.868
	C8.769,5.868,7.868,6.768,7.868,7.868z M28.868,28.868h-18v-20h18V28.868z"/>
</svg>
