<?xml version="1.0" encoding="utf-8"?>
<!-- Generator: Adobe Illustrator 16.0.1, SVG Export Plug-In . SVG Version: 6.00 Build 0)  -->
<!DOCTYPE svg PUBLIC "-//W3C//DTD SVG 1.1//EN" "http://www.w3.org/Graphics/SVG/1.1/DTD/svg11.dtd">
<svg version="1.1" id="Layer_1" xmlns="http://www.w3.org/2000/svg" xmlns:xlink="http://www.w3.org/1999/xlink" x="0px" y="0px"
	 width="32px" height="32px" viewBox="0 0 32 32" enable-background="new 0 0 32 32" xml:space="preserve">
<path d="M28.484,0c-1.269,0-2.299,1.028-2.299,2.299c0,0.397,0.102,0.769,0.279,1.098c-0.229,0.113-0.763,0.379-1.508,0.769
	c-0.277-0.569-0.862-0.962-1.537-0.962c-0.946,0-1.712,0.765-1.712,1.71c0,0.315,0.087,0.611,0.237,0.865
	c-0.383,0.211-0.782,0.433-1.191,0.665c-0.24-0.367-0.653-0.608-1.124-0.608c-0.741,0-1.344,0.602-1.344,1.346
	c0,0.219,0.055,0.425,0.146,0.609c-0.422,0.252-0.848,0.509-1.272,0.772c-0.172-0.144-0.393-0.231-0.634-0.231
	c-0.542,0-0.982,0.439-0.982,0.983c0,0.087,0.012,0.168,0.035,0.25c-1.719,1.117-3.363,2.287-4.695,3.423
	C9.331,9.516,7.042,5.704,3.854,2.601c-0.003-0.004-0.005-0.006-0.009-0.01C3.474,2.226,3.164,2.386,3.592,2.844
	c0.006,0.007,0.012,0.012,0.017,0.018c2.705,2.91,4.83,7.123,6.277,10.962C4.395,18.516-1.662,27.604,4.975,30.459
	c0.967,0.416,1.407-0.38,0.991-0.625c-0.073-0.042-3.03-1.641-1.151-6.548h4.73c0.253,0,0.458-0.208,0.458-0.46
	c0-0.254-0.206-0.46-0.458-0.46H5.206c0.254-0.544,0.565-1.12,0.937-1.737h3.401c0.253,0,0.458-0.203,0.458-0.456
	c0-0.254-0.206-0.461-0.458-0.461H6.727c0.352-0.524,0.747-1.075,1.189-1.65h1.629c0.253,0,0.458-0.207,0.458-0.459
	c0-0.253-0.206-0.458-0.458-0.458H8.643c0.515-0.628,1.081-1.284,1.708-1.97c0.006-0.005,0.012-0.012,0.017-0.019
	c1.248,3.613,1.85,6.693,1.717,7.72c-0.072,0.559-0.432,0.792-0.578,0.86c-0.233,0.11-0.328,0.434,0.037,0.538
	c1.162,0.344,1.877-0.811,2.006-1.737c0.129-0.932-0.506-4.352-2.185-8.427c1.403-1.395,3.021-2.727,4.67-3.949
	c0.145,0.084,0.312,0.132,0.49,0.132c0.542,0,0.984-0.438,0.984-0.979c0-0.069-0.01-0.134-0.021-0.194
	c0.437-0.307,0.873-0.602,1.304-0.889c0.231,0.183,0.521,0.292,0.837,0.292c0.744,0,1.346-0.601,1.346-1.343
	c0-0.113-0.018-0.221-0.042-0.324c0.432-0.269,0.849-0.522,1.25-0.762c0.312,0.326,0.75,0.53,1.236,0.53
	c0.943,0,1.711-0.766,1.711-1.711c0-0.167-0.023-0.328-0.068-0.478c0.73-0.408,1.264-0.694,1.521-0.843
	C27,4.198,27.695,4.596,28.484,4.596c1.271,0,2.298-1.028,2.298-2.297C30.782,1.028,29.755,0,28.484,0z"/>
</svg>
