<?xml version="1.0" encoding="utf-8"?>
<!-- Generator: Adobe Illustrator 16.0.1, SVG Export Plug-In . SVG Version: 6.00 Build 0)  -->
<!DOCTYPE svg PUBLIC "-//W3C//DTD SVG 1.1//EN" "http://www.w3.org/Graphics/SVG/1.1/DTD/svg11.dtd">
<svg version="1.1" xmlns="http://www.w3.org/2000/svg" xmlns:xlink="http://www.w3.org/1999/xlink" x="0px" y="0px"
	 width="30.047px" height="30px" viewBox="0 0 30.047 30" enable-background="new 0 0 30.047 30" xml:space="preserve">
<g id="Layer_1">
	<g>
		<path fill="#64AF55" d="M13.936,1.415c0-0.699,0.568-1.265,1.267-1.265c0.696,0,1.266,0.566,1.266,1.265s-0.569,1.266-1.266,1.266
			C14.504,2.681,13.936,2.114,13.936,1.415L13.936,1.415z"/>
		<path fill="#64AF55" d="M13.936,1.415c0-0.699,0.568-1.265,1.267-1.265c0.696,0,1.266,0.566,1.266,1.265s-0.569,1.266-1.266,1.266
			C14.504,2.681,13.936,2.114,13.936,1.415L13.936,1.415z"/>
		<path fill="#64AF55" d="M13.936,28.588c0-0.701,0.568-1.268,1.267-1.268c0.696,0,1.266,0.566,1.266,1.268
			c0,0.697-0.569,1.264-1.266,1.264C14.504,29.852,13.936,29.285,13.936,28.588L13.936,28.588z"/>
		<path fill="#64AF55" d="M13.936,28.588c0-0.701,0.568-1.268,1.267-1.268c0.696,0,1.266,0.566,1.266,1.268
			c0,0.697-0.569,1.264-1.266,1.264C14.504,29.852,13.936,29.285,13.936,28.588L13.936,28.588z"/>
		<path fill="#64AF55" d="M16.956,3.114c0-0.7,0.567-1.266,1.266-1.266c0.699,0,1.266,0.565,1.266,1.266
			c0,0.698-0.566,1.265-1.266,1.265C17.523,4.379,16.956,3.812,16.956,3.114L16.956,3.114z"/>
		<path fill="#64AF55" d="M10.916,3.114c0-0.7,0.566-1.266,1.265-1.266c0.699,0,1.267,0.565,1.267,1.266
			c0,0.698-0.567,1.265-1.267,1.265C11.482,4.379,10.916,3.812,10.916,3.114L10.916,3.114z"/>
		<path fill="#64AF55" d="M16.956,26.888c0-0.698,0.567-1.265,1.266-1.265c0.699,0,1.266,0.566,1.266,1.265
			c0,0.7-0.566,1.267-1.266,1.267C17.523,28.154,16.956,27.588,16.956,26.888L16.956,26.888z"/>
		<path fill="#64AF55" d="M10.916,26.888c0-0.698,0.566-1.265,1.265-1.265c0.699,0,1.267,0.566,1.267,1.265
			c0,0.7-0.567,1.267-1.267,1.267C11.482,28.154,10.916,27.588,10.916,26.888L10.916,26.888z"/>
		<path fill="#64AF55" d="M13.936,4.812c0-0.699,0.568-1.266,1.267-1.266c0.696,0,1.266,0.567,1.266,1.266s-0.569,1.266-1.266,1.266
			C14.504,6.077,13.936,5.51,13.936,4.812L13.936,4.812z"/>
		<path fill="#64AF55" d="M19.977,4.812c0-0.699,0.567-1.266,1.267-1.266c0.698,0,1.265,0.567,1.265,1.266s-0.566,1.266-1.265,1.266
			C20.544,6.077,19.977,5.51,19.977,4.812L19.977,4.812z"/>
		<path fill="#64AF55" d="M7.895,4.812c0-0.699,0.566-1.266,1.265-1.266c0.7,0,1.267,0.567,1.267,1.266S9.859,6.077,9.159,6.077
			C8.461,6.077,7.895,5.51,7.895,4.812L7.895,4.812z"/>
		<path fill="#64AF55" d="M13.936,25.191c0-0.701,0.568-1.268,1.267-1.268c0.696,0,1.266,0.566,1.266,1.268
			c0,0.696-0.569,1.266-1.266,1.266C14.504,26.457,13.936,25.888,13.936,25.191L13.936,25.191z"/>
		<path fill="#64AF55" d="M19.977,25.191c0-0.701,0.567-1.268,1.267-1.268c0.698,0,1.265,0.566,1.265,1.268
			c0,0.696-0.566,1.266-1.265,1.266C20.544,26.457,19.977,25.888,19.977,25.191L19.977,25.191z"/>
		<path fill="#64AF55" d="M7.895,25.191c0-0.701,0.566-1.268,1.265-1.268c0.7,0,1.267,0.566,1.267,1.268
			c0,0.696-0.566,1.266-1.267,1.266C8.461,26.457,7.895,25.888,7.895,25.191L7.895,25.191z"/>
		<path fill="#64AF55" d="M16.956,6.51c0-0.699,0.567-1.266,1.266-1.266c0.699,0,1.266,0.566,1.266,1.266
			c0,0.698-0.566,1.264-1.266,1.264C17.523,7.774,16.956,7.208,16.956,6.51L16.956,6.51z"/>
		<path fill="#64AF55" d="M22.998,6.51c0-0.699,0.566-1.266,1.265-1.266c0.7,0,1.267,0.566,1.267,1.266
			c0,0.698-0.566,1.264-1.267,1.264C23.564,7.774,22.998,7.208,22.998,6.51L22.998,6.51z"/>
		<path fill="#64AF55" d="M10.916,6.51c0-0.699,0.566-1.266,1.265-1.266c0.699,0,1.267,0.566,1.267,1.266
			c0,0.698-0.567,1.264-1.267,1.264C11.482,7.774,10.916,7.208,10.916,6.51L10.916,6.51z"/>
		<path fill="#64AF55" d="M4.873,6.51c0-0.699,0.567-1.266,1.267-1.266c0.698,0,1.265,0.566,1.265,1.266
			c0,0.698-0.566,1.264-1.265,1.264C5.44,7.774,4.873,7.208,4.873,6.51L4.873,6.51z"/>
		<path fill="#64AF55" d="M16.956,9.906c0-0.698,0.567-1.266,1.266-1.266c0.699,0,1.266,0.567,1.266,1.266
			c0,0.699-0.566,1.266-1.266,1.266C17.523,11.172,16.956,10.605,16.956,9.906L16.956,9.906z"/>
		<path fill="#64AF55" d="M22.998,9.906c0-0.698,0.566-1.265,1.265-1.265c0.7,0,1.267,0.567,1.267,1.265
			c0,0.699-0.566,1.266-1.267,1.266C23.564,11.172,22.998,10.605,22.998,9.906L22.998,9.906z"/>
		<path fill="#64AF55" d="M10.916,9.906c0-0.698,0.566-1.266,1.265-1.266c0.699,0,1.267,0.567,1.267,1.266
			c0,0.699-0.567,1.266-1.267,1.266C11.482,11.172,10.916,10.605,10.916,9.906L10.916,9.906z"/>
		<path fill="#64AF55" d="M4.873,9.906c0-0.698,0.567-1.265,1.267-1.265c0.698,0,1.265,0.567,1.265,1.265
			c0,0.699-0.566,1.266-1.265,1.266C5.44,11.172,4.873,10.605,4.873,9.906L4.873,9.906z"/>
		<path fill="#64AF55" d="M16.956,13.303c0-0.699,0.567-1.266,1.266-1.266c0.699,0,1.266,0.566,1.266,1.266
			s-0.566,1.266-1.266,1.266C17.523,14.569,16.956,14.002,16.956,13.303L16.956,13.303z"/>
		<path fill="#64AF55" d="M22.998,13.303c0-0.699,0.566-1.266,1.265-1.266c0.7,0,1.267,0.566,1.267,1.266s-0.566,1.266-1.267,1.266
			C23.564,14.569,22.998,14.002,22.998,13.303L22.998,13.303z"/>
		<path fill="#64AF55" d="M10.916,13.303c0-0.699,0.566-1.266,1.265-1.266c0.699,0,1.267,0.566,1.267,1.266
			s-0.567,1.266-1.267,1.266C11.482,14.569,10.916,14.002,10.916,13.303L10.916,13.303z"/>
		<path fill="#64AF55" d="M4.873,13.303c0-0.699,0.567-1.266,1.267-1.266c0.698,0,1.265,0.566,1.265,1.266s-0.566,1.266-1.265,1.266
			C5.44,14.569,4.873,14.002,4.873,13.303L4.873,13.303z"/>
		<path fill="#64AF55" d="M16.956,16.699c0-0.699,0.567-1.265,1.266-1.265c0.699,0,1.266,0.566,1.266,1.265
			c0,0.698-0.566,1.265-1.266,1.265C17.523,17.964,16.956,17.397,16.956,16.699L16.956,16.699z"/>
		<path fill="#64AF55" d="M22.998,16.699c0-0.699,0.566-1.265,1.265-1.265c0.7,0,1.267,0.566,1.267,1.265
			c0,0.698-0.566,1.265-1.267,1.265C23.564,17.964,22.998,17.397,22.998,16.699L22.998,16.699z"/>
		<path fill="#64AF55" d="M10.916,16.699c0-0.699,0.566-1.265,1.265-1.265c0.699,0,1.267,0.566,1.267,1.265
			c0,0.698-0.567,1.265-1.267,1.265C11.482,17.964,10.916,17.397,10.916,16.699L10.916,16.699z"/>
		<path fill="#64AF55" d="M4.873,16.699c0-0.699,0.567-1.265,1.267-1.265c0.698,0,1.265,0.566,1.265,1.265
			c0,0.698-0.566,1.265-1.265,1.265C5.44,17.964,4.873,17.397,4.873,16.699L4.873,16.699z"/>
		<path fill="#64AF55" d="M16.956,20.097c0-0.702,0.567-1.267,1.266-1.267c0.699,0,1.266,0.564,1.266,1.267
			c0,0.698-0.566,1.265-1.266,1.265C17.523,21.361,16.956,20.795,16.956,20.097L16.956,20.097z"/>
		<path fill="#64AF55" d="M22.998,20.097c0-0.702,0.566-1.267,1.265-1.267c0.7,0,1.267,0.564,1.267,1.267
			c0,0.698-0.566,1.265-1.267,1.265C23.564,21.361,22.998,20.795,22.998,20.097L22.998,20.097z"/>
		<path fill="#64AF55" d="M10.916,20.097c0-0.702,0.566-1.267,1.265-1.267c0.699,0,1.267,0.564,1.267,1.267
			c0,0.698-0.567,1.265-1.267,1.265C11.482,21.361,10.916,20.795,10.916,20.097L10.916,20.097z"/>
		<path fill="#64AF55" d="M4.873,20.097c0-0.702,0.567-1.267,1.267-1.267c0.698,0,1.265,0.564,1.265,1.267
			c0,0.698-0.566,1.265-1.265,1.265C5.44,21.361,4.873,20.795,4.873,20.097L4.873,20.097z"/>
		<path fill="#64AF55" d="M16.956,23.492c0-0.699,0.567-1.267,1.266-1.267c0.699,0,1.266,0.567,1.266,1.267
			c0,0.698-0.566,1.265-1.266,1.265C17.523,24.757,16.956,24.19,16.956,23.492L16.956,23.492z"/>
		<path fill="#64AF55" d="M22.998,23.492c0-0.699,0.566-1.267,1.265-1.267c0.7,0,1.267,0.567,1.267,1.267
			c0,0.698-0.566,1.265-1.267,1.265C23.564,24.757,22.998,24.19,22.998,23.492L22.998,23.492z"/>
		<path fill="#64AF55" d="M10.916,23.492c0-0.699,0.566-1.267,1.265-1.267c0.699,0,1.267,0.567,1.267,1.267
			c0,0.698-0.567,1.265-1.267,1.265C11.482,24.757,10.916,24.19,10.916,23.492L10.916,23.492z"/>
		<path fill="#64AF55" d="M4.873,23.492c0-0.699,0.567-1.267,1.267-1.267c0.698,0,1.265,0.567,1.265,1.267
			c0,0.698-0.566,1.265-1.265,1.265C5.44,24.757,4.873,24.19,4.873,23.492L4.873,23.492z"/>
		<path fill="#64AF55" d="M13.936,8.208c0-0.699,0.568-1.265,1.267-1.265c0.696,0,1.266,0.566,1.266,1.265
			c0,0.7-0.569,1.266-1.266,1.266C14.504,9.474,13.936,8.907,13.936,8.208L13.936,8.208z"/>
		<g>
			<path fill="#64AF55" d="M19.977,8.208c0-0.699,0.567-1.265,1.267-1.265c0.698,0,1.265,0.566,1.265,1.265
				c0,0.7-0.566,1.266-1.265,1.266C20.544,9.474,19.977,8.907,19.977,8.208L19.977,8.208z"/>
			<path fill="#64AF55" d="M26.02,8.208c0-0.699,0.565-1.265,1.266-1.265c0.696,0,1.266,0.566,1.266,1.265
				c0,0.7-0.569,1.266-1.266,1.266C26.585,9.474,26.02,8.907,26.02,8.208L26.02,8.208z"/>
		</g>
		<path fill="#64AF55" d="M7.895,8.208c0-0.699,0.566-1.265,1.265-1.265c0.7,0,1.267,0.566,1.267,1.265
			c0,0.7-0.566,1.266-1.267,1.266C8.461,9.474,7.895,8.907,7.895,8.208L7.895,8.208z"/>
		<path fill="#64AF55" d="M1.854,8.208c0-0.699,0.567-1.265,1.266-1.265s1.265,0.566,1.265,1.265c0,0.7-0.566,1.266-1.265,1.266
			S1.854,8.907,1.854,8.208L1.854,8.208z"/>
		<path fill="#64AF55" d="M13.936,11.604c0-0.699,0.568-1.266,1.267-1.266c0.696,0,1.266,0.566,1.266,1.266
			s-0.569,1.266-1.266,1.266C14.504,12.871,13.936,12.304,13.936,11.604L13.936,11.604z"/>
		<g>
			<path fill="#64AF55" d="M19.977,11.604c0-0.699,0.567-1.266,1.267-1.266c0.698,0,1.265,0.566,1.265,1.266
				s-0.566,1.266-1.265,1.266C20.544,12.871,19.977,12.304,19.977,11.604L19.977,11.604z"/>
			<path fill="#64AF55" d="M26.02,11.604c0-0.699,0.565-1.266,1.266-1.266c0.696,0,1.266,0.566,1.266,1.266
				s-0.569,1.266-1.266,1.266C26.585,12.871,26.02,12.304,26.02,11.604L26.02,11.604z"/>
		</g>
		<path fill="#64AF55" d="M7.895,11.604c0-0.699,0.566-1.266,1.265-1.266c0.7,0,1.267,0.566,1.267,1.266s-0.566,1.266-1.267,1.266
			C8.461,12.871,7.895,12.304,7.895,11.604L7.895,11.604z"/>
		<path fill="#64AF55" d="M1.854,11.604c0-0.699,0.567-1.266,1.266-1.266s1.265,0.566,1.265,1.266s-0.566,1.266-1.265,1.266
			S1.854,12.304,1.854,11.604L1.854,11.604z"/>
		<path fill="#64AF55" d="M13.936,15.001c0-0.699,0.568-1.266,1.267-1.266c0.696,0,1.266,0.566,1.266,1.266
			c0,0.698-0.569,1.265-1.266,1.265C14.504,16.267,13.936,15.699,13.936,15.001L13.936,15.001z"/>
		<g>
			<path fill="#64AF55" d="M19.977,15.001c0-0.699,0.567-1.266,1.267-1.266c0.698,0,1.265,0.566,1.265,1.266
				c0,0.698-0.566,1.265-1.265,1.265C20.544,16.267,19.977,15.699,19.977,15.001L19.977,15.001z"/>
			<path fill="#64AF55" d="M26.02,15.001c0-0.699,0.565-1.266,1.266-1.266c0.696,0,1.266,0.566,1.266,1.266
				c0,0.698-0.569,1.265-1.266,1.265C26.585,16.267,26.02,15.699,26.02,15.001L26.02,15.001z"/>
		</g>
		<path fill="#64AF55" d="M7.895,15.001c0-0.699,0.566-1.266,1.265-1.266c0.7,0,1.267,0.566,1.267,1.266
			c0,0.698-0.566,1.265-1.267,1.265C8.461,16.267,7.895,15.699,7.895,15.001L7.895,15.001z"/>
		<path fill="#64AF55" d="M1.854,15.001c0-0.699,0.567-1.266,1.266-1.266s1.265,0.566,1.265,1.266c0,0.698-0.566,1.265-1.265,1.265
			S1.854,15.699,1.854,15.001L1.854,15.001z"/>
		<path fill="#64AF55" d="M13.936,18.396c0-0.697,0.568-1.264,1.267-1.264c0.696,0,1.266,0.566,1.266,1.264
			c0,0.699-0.569,1.266-1.266,1.266C14.504,19.662,13.936,19.096,13.936,18.396L13.936,18.396z"/>
		<g>
			<path fill="#64AF55" d="M19.977,18.396c0-0.697,0.567-1.264,1.267-1.264c0.698,0,1.265,0.566,1.265,1.264
				c0,0.699-0.566,1.266-1.265,1.266C20.544,19.662,19.977,19.096,19.977,18.396L19.977,18.396z"/>
			<path fill="#64AF55" d="M26.02,18.396c0-0.697,0.565-1.264,1.266-1.264c0.696,0,1.266,0.566,1.266,1.264
				c0,0.699-0.569,1.266-1.266,1.266C26.585,19.662,26.02,19.096,26.02,18.396L26.02,18.396z"/>
		</g>
		<path fill="#E11A2C" d="M7.895,18.396c0-0.697,0.566-1.264,1.265-1.264c0.7,0,1.267,0.566,1.267,1.264
			c0,0.699-0.566,1.266-1.267,1.266C8.461,19.662,7.895,19.096,7.895,18.396L7.895,18.396z"/>
		<path fill="#64AF55" d="M1.854,18.396c0-0.697,0.567-1.264,1.266-1.264s1.265,0.566,1.265,1.264c0,0.699-0.566,1.266-1.265,1.266
			S1.854,19.096,1.854,18.396L1.854,18.396z"/>
		<path fill="#64AF55" d="M13.936,21.795c0-0.7,0.568-1.268,1.267-1.268c0.696,0,1.266,0.567,1.266,1.268
			c0,0.699-0.569,1.264-1.266,1.264C14.504,23.059,13.936,22.494,13.936,21.795L13.936,21.795z"/>
		<g>
			<path fill="#64AF55" d="M19.977,21.795c0-0.7,0.567-1.268,1.267-1.268c0.698,0,1.265,0.567,1.265,1.268
				c0,0.699-0.566,1.264-1.265,1.264C20.544,23.059,19.977,22.494,19.977,21.795L19.977,21.795z"/>
			<path fill="#64AF55" d="M26.02,21.795c0-0.7,0.565-1.268,1.266-1.268c0.696,0,1.266,0.567,1.266,1.268
				c0,0.699-0.569,1.264-1.266,1.264C26.585,23.059,26.02,22.494,26.02,21.795L26.02,21.795z"/>
		</g>
		<path fill="#64AF55" d="M7.895,21.795c0-0.7,0.566-1.268,1.265-1.268c0.7,0,1.267,0.567,1.267,1.268
			c0,0.699-0.566,1.264-1.267,1.264C8.461,23.059,7.895,22.494,7.895,21.795L7.895,21.795z"/>
		<g>
			<path fill="#64AF55" d="M1.854,21.795c0-0.7,0.567-1.268,1.266-1.268s1.265,0.567,1.265,1.268c0,0.699-0.566,1.264-1.265,1.264
				S1.854,22.494,1.854,21.795L1.854,21.795z"/>
		</g>
	</g>
</g>
<g id="Layer_2">
</g>
</svg>
