<?xml version="1.0" encoding="utf-8"?>
<!-- Generator: Adobe Illustrator 16.0.1, SVG Export Plug-In . SVG Version: 6.00 Build 0)  -->
<!DOCTYPE svg PUBLIC "-//W3C//DTD SVG 1.1//EN" "http://www.w3.org/Graphics/SVG/1.1/DTD/svg11.dtd">
<svg version="1.1" id="Layer_1" xmlns="http://www.w3.org/2000/svg" xmlns:xlink="http://www.w3.org/1999/xlink" x="0px" y="0px"
	 width="32px" height="32px" viewBox="0 0 32 32" enable-background="new 0 0 32 32" xml:space="preserve">
<path d="M17.894,6.163H1.949C0.872,6.163,0,7.035,0,8.111v21.94C0,31.128,0.872,32,1.949,32h21.942c1.076,0,1.948-0.872,1.948-1.948
	V14.016l-3.896,3.897v10.19H3.897V10.06h10.099L17.894,6.163z"/>
<path d="M32,9.782V0.43c0.001-0.25-0.203-0.454-0.452-0.453h-9.354c-0.248,0-0.309,0.145-0.132,0.321l2.244,2.244l0.604,0.604
	L10.083,17.974c-0.231,0.231-0.231,0.605,0,0.836l3.083,3.083c0.231,0.231,0.605,0.231,0.836,0L28.831,7.065l0.604,0.604
	l2.244,2.245C31.856,10.09,31.999,10.033,32,9.782z"/>
</svg>
