<?xml version="1.0" encoding="utf-8"?>
<!-- Generator: Adobe Illustrator 16.0.1, SVG Export Plug-In . SVG Version: 6.00 Build 0)  -->
<!DOCTYPE svg PUBLIC "-//W3C//DTD SVG 1.1//EN" "http://www.w3.org/Graphics/SVG/1.1/DTD/svg11.dtd">
<svg version="1.1" id="Layer_1" xmlns="http://www.w3.org/2000/svg" xmlns:xlink="http://www.w3.org/1999/xlink" x="0px" y="0px"
	 width="32px" height="32px" viewBox="0 0 32 32" enable-background="new 0 0 32 32" xml:space="preserve">
<path fill="#010101" d="M16,0C7.177,0,0,7.179,0,16c0,8.822,7.177,16,16,16c8.823,0,16-7.178,16-16C32,7.179,24.822,0,16,0z
	 M29.646,16c0,3.121-1.059,6-2.826,8.302c-0.5-0.394-1.032-1.447-0.532-2.54c0.504-1.101,0.637-3.646,0.521-4.637
	c-0.11-0.991-0.625-3.377-2.024-3.4c-1.396-0.021-2.354-0.483-3.185-2.139c-1.722-3.446,3.233-4.107,1.512-6.017
	c-0.483-0.535-2.972,2.206-3.337-1.448C19.75,3.863,20,3.472,20.333,3.066C25.739,4.882,29.646,9.992,29.646,16z M14.125,2.49
	c-0.326,0.635-1.188,0.894-1.711,1.372C11.274,4.893,10.785,4.75,10.17,5.74C9.552,6.729,7.559,8.156,7.559,8.872
	c0,0.714,1.008,1.561,1.511,1.396c0.503-0.166,1.83-0.156,2.611,0.118c0.781,0.276,6.524,0.552,4.694,5.406
	c-0.58,1.543-3.121,1.282-3.798,3.84c-0.101,0.374-0.452,1.977-0.476,2.501c-0.042,0.809,0.572,3.862-0.208,3.862
	c-0.785,0-2.896-2.73-2.896-3.226c0-0.494-0.548-2.231-0.548-3.717c0-1.486-2.528-1.463-2.528-3.438
	c0-1.783,1.372-2.669,1.062-3.523c-0.302-0.849-2.711-0.88-3.715-0.983C5.021,6.558,9.149,3.177,14.125,2.49z M11.708,28.95
	c0.819-0.433,0.902-0.991,1.646-1.021c0.851-0.039,1.542-0.334,2.5-0.543c0.851-0.186,2.372-1.049,3.711-1.16
	c1.128-0.092,3.357,0.06,3.959,1.149c-2.16,1.434-4.747,2.271-7.525,2.271C14.5,29.646,13.059,29.399,11.708,28.95z"/>
</svg>
