<?xml version="1.0" encoding="utf-8"?>
<!-- Generator: Adobe Illustrator 16.0.1, SVG Export Plug-In . SVG Version: 6.00 Build 0)  -->
<!DOCTYPE svg PUBLIC "-//W3C//DTD SVG 1.1//EN" "http://www.w3.org/Graphics/SVG/1.1/DTD/svg11.dtd">
<svg version="1.1" id="Layer_1" xmlns="http://www.w3.org/2000/svg" xmlns:xlink="http://www.w3.org/1999/xlink" x="0px" y="0px"
	 width="32px" height="32px" viewBox="0 0 32 32" enable-background="new 0 0 32 32" xml:space="preserve">
<g>
	<g>
		<path d="M13.612,22.868c-0.539-0.137-1.778-0.545-1.923-1.232c0.02-2.367,0.957-2.403,1.437-3.382
			c0.479-0.977,1.304-3.394,0.479-7.337C12.997,8.009,8.97,7.981,8.822,7.981c-0.002,0-0.004,0-0.004,0s-0.001,0-0.004,0
			c-0.147,0-4.175,0.027-4.782,2.935c-0.825,3.943,0,6.361,0.479,7.337c0.478,0.979,1.415,1.015,1.435,3.382
			c-0.144,0.688-1.382,1.096-1.921,1.232c-2.096,0.534-2.253,0.966-3.069,1.746c-0.781,0.746-1.436,2.446-0.478,3.426
			c0.957,0.979,3.554,1.956,8.34,1.956c4.788,0,7.384-0.978,8.342-1.956c0.957-0.979,0.304-2.68-0.479-3.426
			C15.864,23.834,15.708,23.402,13.612,22.868z"/>
		<g>
			<path d="M31.044,24.614c-0.816-0.78-0.972-1.212-3.067-1.746c-0.539-0.137-1.778-0.545-1.923-1.232
				c0.02-2.367,0.957-2.403,1.437-3.382c0.479-0.977,1.304-3.394,0.479-7.337c-0.607-2.908-4.635-2.935-4.782-2.935
				c-0.003,0-0.005,0-0.005,0s-0.001,0-0.004,0c-0.147,0-4.175,0.027-4.782,2.935c-0.825,3.943,0,6.361,0.479,7.337
				c0.478,0.979,1.415,1.015,1.435,3.382c-0.144,0.688-1.383,1.096-1.921,1.232c-0.646,0.165-1.107,0.32-1.462,0.479
				c0.063,0.062,0.127,0.125,0.191,0.19c0.093,0.095,0.191,0.194,0.303,0.301c0.765,0.729,1.27,1.869,1.288,2.903
				c0.014,0.803-0.257,1.512-0.782,2.049c-0.179,0.183-0.385,0.355-0.618,0.517c1.392,0.409,3.317,0.689,5.873,0.689
				c4.787,0,7.384-0.978,8.342-1.956C32.48,27.061,31.826,25.36,31.044,24.614z"/>
		</g>
	</g>
</g>
</svg>
