<?xml version="1.0" encoding="utf-8"?>
<!-- Generator: Adobe Illustrator 16.0.1, SVG Export Plug-In . SVG Version: 6.00 Build 0)  -->
<!DOCTYPE svg PUBLIC "-//W3C//DTD SVG 1.1//EN" "http://www.w3.org/Graphics/SVG/1.1/DTD/svg11.dtd">
<svg version="1.1" id="Layer_1" xmlns="http://www.w3.org/2000/svg" xmlns:xlink="http://www.w3.org/1999/xlink" x="0px" y="0px"
	 width="32px" height="32px" viewBox="0 0 32 32" enable-background="new 0 0 32 32" xml:space="preserve">
<path fill="#010101" d="M14.036,2.05h-1.396c-0.341,0-0.62,0.279-0.62,0.62v5.89h-5.48c-0.256,0-0.574,0.059-0.879,0.152
	c-0.306,0.094-0.6,0.224-0.808,0.366l-3.681,2.527c-0.208,0.142-0.312,0.331-0.312,0.519c0,0.188,0.104,0.376,0.312,0.519
	l3.681,2.526c0.208,0.143,0.502,0.272,0.808,0.367c0.305,0.094,0.623,0.152,0.879,0.152h5.48v13.64c0,0.342,0.279,0.62,0.62,0.62
	h1.396c0.34,0,0.62-0.278,0.62-0.62V2.67C14.656,2.329,14.376,2.05,14.036,2.05z M31.549,8.506l-3.681-2.527
	c-0.209-0.143-0.502-0.272-0.808-0.367c-0.307-0.094-0.623-0.152-0.879-0.152H15.586l1.241,7.13h9.354
	c0.256,0,0.572-0.059,0.879-0.152c0.306-0.094,0.599-0.224,0.808-0.367l3.681-2.527c0.208-0.143,0.312-0.331,0.312-0.519
	C31.861,8.836,31.757,8.649,31.549,8.506z"/>
</svg>
