<?xml version="1.0" encoding="utf-8"?>
<!-- Generator: Adobe Illustrator 16.0.1, SVG Export Plug-In . SVG Version: 6.00 Build 0)  -->
<!DOCTYPE svg PUBLIC "-//W3C//DTD SVG 1.1//EN" "http://www.w3.org/Graphics/SVG/1.1/DTD/svg11.dtd">
<svg version="1.1" id="Layer_1" xmlns="http://www.w3.org/2000/svg" xmlns:xlink="http://www.w3.org/1999/xlink" x="0px" y="0px"
	 width="32px" height="32px" viewBox="0 0 32 32" enable-background="new 0 0 32 32" xml:space="preserve">
<path d="M27.968,24.077c-0.542,0-1.061,0.199-1.463,0.562c-2.14,1.932-4.907,2.995-7.793,2.995c-1.728,0-3.367-0.38-4.841-1.061
	v-0.006c-0.995-0.457-1.914-1.051-2.735-1.756c-1.075-0.929-1.965-2.059-2.645-3.318h16.949c1.182,0,2.139-0.957,2.139-2.139
	s-0.957-2.139-2.139-2.139H7.144c-0.038-0.355-0.058-0.716-0.062-1.08c0.006,0.162,0.018,0.322,0.026,0.484L7.1,15.526
	c-0.006,0.141-0.018,0.28-0.021,0.421c0.001-0.391,0.023-0.779,0.064-1.164H25.44c1.182,0,2.139-0.958,2.139-2.139
	s-0.957-2.139-2.139-2.139H8.475c1.965-3.648,5.811-6.14,10.237-6.14c2.886,0,5.653,1.063,7.792,2.994
	c0.402,0.363,0.921,0.563,1.464,0.563c0.616,0,1.207-0.262,1.62-0.72c0.391-0.433,0.59-0.992,0.561-1.574
	c-0.029-0.582-0.285-1.118-0.718-1.509C26.487,1.463,22.681,0,18.712,0C14.084,0,9.917,1.982,6.993,5.135
	C6.939,5.184,6.881,5.227,6.832,5.282C5.575,6.674,4.588,8.261,3.894,9.966C3.893,9.968,3.892,9.971,3.891,9.973
	c-0.071,0.175-0.128,0.355-0.193,0.533H1.812c-1.181,0-2.139,0.958-2.139,2.139s0.958,2.139,2.139,2.139h0.946
	c-0.023,0.302-0.03,0.607-0.036,0.911l0-0.168C2.717,15.684,2.71,15.841,2.71,16c0,0.208,0.008,0.414,0.016,0.62l-0.001-0.268
	c0.006,0.289,0.013,0.578,0.035,0.863H1.812c-1.181,0-2.139,0.957-2.139,2.139s0.958,2.139,2.139,2.139h1.887
	c0.074,0.198,0.142,0.4,0.223,0.596c0.011,0.026,0.02,0.055,0.031,0.081c0.146,0.35,0.308,0.69,0.478,1.026
	c0.019,0.035,0.034,0.073,0.052,0.109c0.166,0.321,0.346,0.635,0.533,0.944c0.028,0.046,0.053,0.095,0.081,0.141
	c0.182,0.294,0.376,0.577,0.576,0.856c0.041,0.059,0.078,0.118,0.12,0.177c0.193,0.263,0.398,0.516,0.606,0.768
	c0.057,0.067,0.109,0.14,0.167,0.206c0.2,0.234,0.412,0.457,0.625,0.678c0.074,0.078,0.145,0.159,0.22,0.234
	c0.205,0.204,0.419,0.398,0.635,0.592c0.093,0.083,0.182,0.171,0.277,0.253c0.208,0.178,0.424,0.344,0.641,0.511
	c0.112,0.086,0.221,0.178,0.335,0.262c0.209,0.152,0.426,0.294,0.643,0.436c0.131,0.087,0.259,0.178,0.393,0.26
	c0.21,0.129,0.426,0.247,0.643,0.367c0.149,0.083,0.295,0.17,0.447,0.248c0.21,0.107,0.426,0.205,0.642,0.303
	c0.166,0.077,0.329,0.156,0.498,0.228c0.211,0.088,0.428,0.165,0.645,0.244c0.179,0.066,0.357,0.136,0.54,0.196
	c0.042,0.014,0.082,0.031,0.124,0.044v-0.009C15.399,31.73,17.024,32,18.712,32c3.969,0,7.775-1.463,10.718-4.119
	c0.434-0.391,0.689-0.927,0.719-1.51c0.029-0.582-0.17-1.142-0.561-1.573C29.176,24.34,28.586,24.077,27.968,24.077z"/>
</svg>
