<?xml version="1.0" encoding="utf-8"?>
<!-- Generator: Adobe Illustrator 16.0.1, SVG Export Plug-In . SVG Version: 6.00 Build 0)  -->
<!DOCTYPE svg PUBLIC "-//W3C//DTD SVG 1.1//EN" "http://www.w3.org/Graphics/SVG/1.1/DTD/svg11.dtd">
<svg version="1.1" id="Layer_1" xmlns="http://www.w3.org/2000/svg" xmlns:xlink="http://www.w3.org/1999/xlink" x="0px" y="0px"
	 width="32px" height="32px" viewBox="0 0 32 32" enable-background="new 0 0 32 32" xml:space="preserve">
<g>
	<path d="M18.002,24.498h4c0.553,0,1-0.447,1-1v-7.999c0-0.552-0.447-1-1-1h-4c-0.553,0-1,0.448-1,1v7.999
		C17.002,24.051,17.449,24.498,18.002,24.498z"/>
	<path d="M26.004,24.498h4c0.553,0,1-0.447,1-1v-20c0-0.552-0.447-1-1-1h-4c-0.553,0-1,0.448-1,1v20
		C25.004,24.051,25.451,24.498,26.004,24.498z"/>
	<path d="M10,24.498h4c0.552,0,1-0.447,1-1v-14c0-0.552-0.448-1-1-1h-4c-0.552,0-1,0.448-1,1v14C9,24.051,9.448,24.498,10,24.498z"
		/>
	<path d="M1.999,24.498h4c0.552,0,1-0.447,1-1v-6c0-0.552-0.448-1-1-1h-4c-0.552,0-1,0.448-1,1v6
		C0.999,24.051,1.447,24.498,1.999,24.498z"/>
	<rect y="25.498" width="32" height="4"/>
</g>
</svg>
