<?xml version="1.0" encoding="utf-8"?>
<!-- Generator: Adobe Illustrator 16.0.1, SVG Export Plug-In . SVG Version: 6.00 Build 0)  -->
<!DOCTYPE svg PUBLIC "-//W3C//DTD SVG 1.1//EN" "http://www.w3.org/Graphics/SVG/1.1/DTD/svg11.dtd">
<svg version="1.1" id="Layer_1" xmlns="http://www.w3.org/2000/svg" xmlns:xlink="http://www.w3.org/1999/xlink" x="0px" y="0px"
	 width="32px" height="32px" viewBox="0 0 32 32" enable-background="new 0 0 32 32" xml:space="preserve">
<path d="M24.873,29.799c1.076-1.1,0.342-3.012-0.538-3.854c-0.779-0.742-2.802-1.207-4.839-1.697
	c-0.07-0.018-0.141-0.035-0.212-0.051c-0.056-0.014-0.111-0.027-0.168-0.041c-0.233-0.059-0.467-0.115-0.697-0.174
	c-0.604-0.154-1.999-0.615-2.162-1.389c0.024-2.664,1.079-2.701,1.616-3.803c0.539-1.1,1.467-3.818,0.539-8.256
	c-0.698-3.333-5.383-3.301-5.383-3.301s-0.015,0-0.021,0c-0.005,0-0.021,0-0.021,0s-0.659-0.004-1.519,0.166
	c-1.435,0.284-3.429,1.052-3.866,3.136c-0.927,4.438,0,7.156,0.54,8.256c0.173,0.355,0.401,0.602,0.63,0.859
	c0.481,0.541,0.969,1.141,0.985,2.943c-0.162,0.773-1.557,1.234-2.162,1.389c-0.009,0.002-0.018,0.004-0.027,0.006
	c-0.219,0.057-0.44,0.111-0.662,0.166c-0.062,0.014-0.124,0.029-0.186,0.045c-0.05,0.012-0.1,0.023-0.15,0.035
	c-2.053,0.496-4.105,0.963-4.891,1.711c-0.879,0.842-1.614,2.754-0.538,3.854c0.865,0.885,4.509,1.764,8.699,2.078
	c0.035,0.002,0.069,0.004,0.104,0.006c0.482,0.035,0.97,0.064,1.462,0.084c0,0,0.001,0,0.001,0c0.01,0,0.021,0,0.03,0
	c0.01,0.002,0.02,0.002,0.03,0.002C11.973,31.986,12.479,32,12.987,32c0.007,0,0.014,0,0.021,0c0.007,0,0.015,0,0.021,0
	c0.508,0,1.014-0.014,1.518-0.031c0.02,0,0.04-0.002,0.06-0.002c0.493-0.02,0.981-0.049,1.464-0.084
	c0.034-0.002,0.068-0.004,0.103-0.006C20.363,31.562,24.008,30.684,24.873,29.799z"/>
<path d="M24.869,0c-3.938,0-7.131,2.411-7.131,5.383c0,2.323,1.949,4.303,4.679,5.057c0.04,0.226,0.091,0.547,0.091,0.746
	c0,0.937-0.358,1.825-0.997,2.626c0.988-0.416,2.381-1.752,3.244-3.048c0.038,0,0.076,0.002,0.114,0.002
	c3.939,0,7.131-2.411,7.131-5.384C32,2.411,28.808,0,24.869,0z"/>
</svg>
