<?xml version="1.0" encoding="utf-8"?>
<!-- Generator: Adobe Illustrator 16.0.1, SVG Export Plug-In . SVG Version: 6.00 Build 0)  -->
<!DOCTYPE svg PUBLIC "-//W3C//DTD SVG 1.1//EN" "http://www.w3.org/Graphics/SVG/1.1/DTD/svg11.dtd">
<svg version="1.1" id="Layer_1" xmlns="http://www.w3.org/2000/svg" xmlns:xlink="http://www.w3.org/1999/xlink" x="0px" y="0px"
	 width="32px" height="32px" viewBox="0 0 32 32" enable-background="new 0 0 32 32" xml:space="preserve">
<path d="M27.625,7.282h-5.812V3.407c0-1.065-0.872-1.938-1.938-1.938h-7.75c-1.065,0-1.938,0.872-1.938,1.938v3.875H4.375
	c-2.131,0-3.875,1.744-3.875,3.875v15.5c0,2.132,1.744,3.875,3.875,3.875h23.25c2.132,0,3.875-1.743,3.875-3.875v-15.5
	C31.5,9.025,29.757,7.282,27.625,7.282z M12.125,3.407h7.75v3.875h-7.75V3.407z M23.75,20.845h-5.812v5.812h-3.875v-5.812H8.25
	v-3.875h5.812v-5.812h3.875v5.812h5.812V20.845z"/>
</svg>
