<?xml version="1.0" encoding="utf-8"?>
<!-- Generator: Adobe Illustrator 16.0.1, SVG Export Plug-In . SVG Version: 6.00 Build 0)  -->
<!DOCTYPE svg PUBLIC "-//W3C//DTD SVG 1.1//EN" "http://www.w3.org/Graphics/SVG/1.1/DTD/svg11.dtd">
<svg version="1.1" id="Layer_1" xmlns="http://www.w3.org/2000/svg" xmlns:xlink="http://www.w3.org/1999/xlink" x="0px" y="0px"
	 width="32px" height="32px" viewBox="0 0 32 32" enable-background="new 0 0 32 32" xml:space="preserve">
<g>
	<path d="M32,13.022l-5.768-9.678c0,0-3.012,2.308-4.037,2.211s-4.903-0.929-5.544-0.673c-0.332,0.133-1.006,0.866-1.65,1.645
		c-0.628-0.101-2.663-0.624-7.319-3.36c-0.259-0.152-0.59-0.08-0.764,0.165l-6.312,8.941c-0.107,0.151-0.134,0.346-0.074,0.521
		c0.055,0.158,1.288,3.647,4.056,6.751l0.771-0.871c-2.127-2.429-3.298-5.135-3.634-5.986l5.831-8.259
		c3.514,2.032,5.542,2.809,6.645,3.102c-0.271,0.353-0.495,0.657-0.626,0.845c-0.513,0.737-2.659,2.691-2.852,3.525
		c-0.084,0.363,0.737,1.377,2.275,1.346c1.538-0.033,3.013-0.865,3.525-1.314s1.987-1.57,2.627-0.833s2.948,2.729,4.07,3.365
		c0.776,0.44,2.664,1.485,3.877,2.154c0.789,0.871,1.453,1.895,1.066,2.449c-0.1,0.14-0.287,0.325-0.786,0.325
		c-1.153,0-2.89-0.999-3.465-1.385c0,0,0,0,0-0.001c-0.001,0-0.001,0-0.001,0c-0.265-0.178-0.623-0.108-0.801,0.154
		s-0.109,0.622,0.152,0.801c1.191,0.81,3.131,2.476,3.266,3.498c0.022,0.17-0.01,0.292-0.109,0.407
		c-0.219,0.256-0.549,0.379-1.011,0.379c-1.384,0-3.18-1.105-3.198-1.118c-0.268-0.166-0.616-0.087-0.787,0.176
		c-0.172,0.263-0.102,0.614,0.158,0.79c0.784,0.536,2.07,1.688,2.18,2.491c0.023,0.18-0.017,0.321-0.133,0.458
		c-0.216,0.255-0.502,0.374-0.896,0.374c-1.023,0-2.219-0.807-2.231-0.814c-0.22-0.15-0.514-0.129-0.711,0.048
		c-0.196,0.179-0.248,0.469-0.122,0.703c0.281,0.521,0.548,1.418,0.293,1.674c-0.008,0.007-0.064,0.034-0.2,0.034
		c-0.407,0-1.032-0.237-1.543-0.482l-0.813,0.884c0.514,0.271,1.539,0.752,2.356,0.752c0.426,0,0.769-0.124,1.015-0.372
		c0.438-0.438,0.49-1.044,0.402-1.602c0.471,0.182,1.018,0.329,1.555,0.329c0.729,0,1.343-0.271,1.777-0.782
		c0.326-0.385,0.463-0.855,0.395-1.358c-0.053-0.391-0.229-0.776-0.465-1.143c0.324,0.07,0.651,0.112,0.97,0.112
		c0.806,0,1.44-0.263,1.886-0.781c0.312-0.363,0.443-0.817,0.378-1.31c-0.079-0.6-0.46-1.233-0.949-1.823
		c0.222,0.039,0.442,0.062,0.654,0.062c0.958,0,1.47-0.445,1.73-0.819c0.646-0.922,0.222-2.044-0.458-3.018L32,13.022z"/>
	<path d="M7.313,21.988L7.313,21.988l0.052-0.059l2.937-3.317c0.557-0.629,0.499-1.591-0.131-2.148
		c-0.628-0.558-1.59-0.499-2.147,0.131l-2.249,2.538l0,0l-0.371,0.419L4.476,20.6c-0.557,0.63-0.499,1.591,0.13,2.148
		c0.629,0.558,1.592,0.5,2.149-0.129L7.313,21.988z"/>
	<path d="M18.35,24.236c-0.63-0.557-1.591-0.498-2.148,0.131l-1.212,1.319l0,0l-0.251,0.271l-0.584,0.636
		c-0.557,0.629-0.499,1.591,0.13,2.147c0.629,0.558,1.592,0.499,2.149-0.129l2.048-2.227C19.037,25.757,18.979,24.794,18.35,24.236z
		"/>
	<path d="M10.406,24.149l0.096-0.108l2.396-2.705c0.558-0.629,0.499-1.592-0.13-2.149c-0.628-0.558-1.591-0.499-2.148,0.131
		L8.651,21.54l0,0l-0.768,0.868l0,0l-0.811,0.915c-0.557,0.63-0.499,1.591,0.13,2.148c0.629,0.557,1.591,0.5,2.148-0.13
		L10.406,24.149L10.406,24.149z"/>
	<path d="M14.166,25.522l1.687-1.859c0.557-0.63,0.499-1.593-0.131-2.149c-0.629-0.558-1.591-0.499-2.148,0.13l-1.82,2.007l0,0
		l-0.787,0.867l0,0l-0.371,0.408c-0.557,0.63-0.499,1.593,0.131,2.149c0.629,0.558,1.591,0.499,2.148-0.13l0.7-0.771l0,0
		L14.166,25.522z"/>
</g>
</svg>
