<?xml version="1.0" encoding="utf-8"?>
<!-- Generator: Adobe Illustrator 16.0.1, SVG Export Plug-In . SVG Version: 6.00 Build 0)  -->
<!DOCTYPE svg PUBLIC "-//W3C//DTD SVG 1.1//EN" "http://www.w3.org/Graphics/SVG/1.1/DTD/svg11.dtd">
<svg version="1.1" id="Layer_1" xmlns="http://www.w3.org/2000/svg" xmlns:xlink="http://www.w3.org/1999/xlink" x="0px" y="0px"
	 width="32px" height="32px" viewBox="0 0 32 32" enable-background="new 0 0 32 32" xml:space="preserve">
<path d="M29.363,2.759l-0.122-0.122c-2.85-2.851-7.514-2.851-10.363,0L12.274,9.24c-2.851,2.85-2.851,7.513,0,10.362l0.121,0.122
	c0.238,0.237,0.49,0.451,0.749,0.65l2.417-2.418c-0.282-0.166-0.548-0.365-0.79-0.607l-0.123-0.121
	c-1.547-1.547-1.547-4.065,0-5.612l6.604-6.604c1.548-1.547,4.064-1.547,5.611,0l0.122,0.122c1.547,1.547,1.547,4.066,0,5.612
	l-2.987,2.988c0.519,1.281,0.765,2.645,0.742,4.008l4.621-4.62C32.212,10.271,32.212,5.608,29.363,2.759z M19.604,12.273
	c-0.238-0.237-0.49-0.451-0.749-0.649l-2.417,2.416c0.282,0.167,0.548,0.365,0.79,0.607l0.123,0.123
	c1.547,1.547,1.547,4.064,0,5.612l-6.603,6.604c-1.547,1.548-4.065,1.548-5.612,0l-0.122-0.122c-1.547-1.547-1.547-4.064,0-5.611
	l2.988-2.988c-0.519-1.28-0.765-2.645-0.743-4.007l-4.62,4.62c-2.85,2.851-2.85,7.515,0,10.364l0.122,0.122
	c2.85,2.851,7.514,2.851,10.364,0l6.604-6.603c2.85-2.851,2.85-7.515,0-10.364L19.604,12.273z"/>
</svg>
