<?xml version="1.0" encoding="utf-8"?>
<!-- Generator: Adobe Illustrator 16.0.1, SVG Export Plug-In . SVG Version: 6.00 Build 0)  -->
<!DOCTYPE svg PUBLIC "-//W3C//DTD SVG 1.1//EN" "http://www.w3.org/Graphics/SVG/1.1/DTD/svg11.dtd">
<svg version="1.1" id="Layer_1" xmlns="http://www.w3.org/2000/svg" xmlns:xlink="http://www.w3.org/1999/xlink" x="0px" y="0px"
	 width="32px" height="32px" viewBox="0 0 32 32" enable-background="new 0 0 32 32" xml:space="preserve">
<path d="M16.062,0.217c-5.069,0-9.18,4.11-9.18,9.18c0,0.125,0.004,0.254,0.01,0.386c0.004,0.077,0.009,0.152,0.014,0.229
	c0.003,0.048,0.007,0.097,0.011,0.146c0.005,0.081,0.012,0.162,0.022,0.242C7.701,17.815,16.062,32,16.062,32
	s8.362-14.185,9.123-21.6c0.01-0.081,0.016-0.162,0.022-0.242c0.004-0.05,0.008-0.099,0.011-0.146
	c0.005-0.077,0.01-0.152,0.014-0.229c0.006-0.132,0.01-0.261,0.01-0.386C25.242,4.327,21.132,0.217,16.062,0.217z M20.035,10.149
	c0,2.194-1.778,3.973-3.973,3.973c-2.194,0-3.973-1.779-3.973-3.973c0-2.194,1.779-3.973,3.973-3.973
	C18.257,6.176,20.035,7.955,20.035,10.149z"/>
</svg>
