<?xml version="1.0" encoding="utf-8"?>
<!-- Generator: Adobe Illustrator 16.0.1, SVG Export Plug-In . SVG Version: 6.00 Build 0)  -->
<!DOCTYPE svg PUBLIC "-//W3C//DTD SVG 1.1//EN" "http://www.w3.org/Graphics/SVG/1.1/DTD/svg11.dtd">
<svg version="1.1" id="Layer_1" xmlns="http://www.w3.org/2000/svg" xmlns:xlink="http://www.w3.org/1999/xlink" x="0px" y="0px"
	 width="32px" height="32px" viewBox="0 0 32 32" enable-background="new 0 0 32 32" xml:space="preserve">
<path d="M31.438,29.156c1.392-1.422,0.442-3.893-0.694-4.979c-1.007-0.959-3.62-1.559-6.252-2.193
	c-0.091-0.021-0.182-0.045-0.273-0.066c-0.072-0.018-0.145-0.035-0.217-0.053c-0.302-0.074-0.604-0.148-0.901-0.223
	c-0.782-0.201-2.583-0.795-2.793-1.795c0.031-3.443,1.394-3.492,2.087-4.915c0.697-1.421,1.896-4.934,0.697-10.668
	C22.188-0.042,16.134,0,16.134,0s-0.02,0-0.028,0c-0.007,0-0.027,0-0.027,0s-0.851-0.006-1.963,0.214
	C12.262,0.58,9.685,1.573,9.121,4.265c-1.198,5.734,0,9.247,0.697,10.669c0.224,0.459,0.519,0.776,0.814,1.11
	c0.621,0.698,1.252,1.474,1.273,3.804c-0.209,1-2.011,1.594-2.794,1.795c-0.012,0.002-0.023,0.006-0.035,0.008
	c-0.283,0.072-0.568,0.143-0.854,0.213c-0.08,0.02-0.16,0.039-0.24,0.059c-0.065,0.016-0.129,0.031-0.194,0.047
	c-2.653,0.641-5.304,1.242-6.319,2.209c-1.136,1.086-2.086,3.557-0.695,4.979c1.118,1.143,5.826,2.279,11.24,2.684
	c0.044,0.004,0.089,0.006,0.134,0.01c0.623,0.045,1.253,0.082,1.89,0.107c0,0,0.001,0,0.002,0c0.013,0.002,0.026,0.002,0.039,0.002
	s0.026,0.002,0.039,0.002C14.769,31.984,15.423,32,16.079,32c0.009,0,0.018,0,0.027,0s0.019,0,0.028,0
	c0.656,0,1.31-0.016,1.961-0.039c0.026-0.002,0.052-0.002,0.078-0.004c0.638-0.023,1.269-0.062,1.893-0.107
	c0.044-0.004,0.089-0.006,0.133-0.01C25.611,31.436,30.32,30.299,31.438,29.156z"/>
</svg>
