<?xml version="1.0" encoding="utf-8"?>
<!-- Generator: Adobe Illustrator 16.0.1, SVG Export Plug-In . SVG Version: 6.00 Build 0)  -->
<!DOCTYPE svg PUBLIC "-//W3C//DTD SVG 1.1//EN" "http://www.w3.org/Graphics/SVG/1.1/DTD/svg11.dtd">
<svg version="1.1" id="Layer_1" xmlns="http://www.w3.org/2000/svg" xmlns:xlink="http://www.w3.org/1999/xlink" x="0px" y="0px"
	 width="32px" height="32px" viewBox="0 0 32 32" enable-background="new 0 0 32 32" xml:space="preserve">
<path fill="#010101" d="M22.372,0.5H10.351c-1.74,0-3.163,1.423-3.163,3.163v24.674c0,1.739,1.423,3.163,3.163,3.163h12.021
	c1.739,0,3.163-1.424,3.163-3.163V3.663C25.535,1.923,24.111,0.5,22.372,0.5z M16.361,30.234c-1.223,0-2.215-0.708-2.215-1.581
	c0-0.874,0.992-1.582,2.215-1.582c1.223,0,2.214,0.708,2.214,1.582C18.575,29.526,17.584,30.234,16.361,30.234z M23.004,25.489
	H9.718V4.612h13.286V25.489z"/>
</svg>
