<?xml version="1.0" encoding="utf-8"?>
<!-- Generator: Adobe Illustrator 16.0.1, SVG Export Plug-In . SVG Version: 6.00 Build 0)  -->
<!DOCTYPE svg PUBLIC "-//W3C//DTD SVG 1.1//EN" "http://www.w3.org/Graphics/SVG/1.1/DTD/svg11.dtd">
<svg version="1.1" id="Layer_1" xmlns="http://www.w3.org/2000/svg" xmlns:xlink="http://www.w3.org/1999/xlink" x="0px" y="0px"
	 width="32px" height="32px" viewBox="0 0 32 32" enable-background="new 0 0 32 32" xml:space="preserve">
<path d="M30.488,18.856C30.68,17.894,32,17.018,32,16c0-1.019-1.32-1.893-1.512-2.855c-0.198-0.994,0.68-2.301,0.3-3.213
	c-0.389-0.928-1.948-1.238-2.505-2.062c-0.562-0.831-0.258-2.376-0.968-3.079c-0.712-0.708-2.271-0.404-3.109-0.959
	c-0.832-0.555-1.144-2.101-2.08-2.486c-0.167-0.069-0.35-0.097-0.539-0.097c-0.746,0-1.628,0.423-2.384,0.423
	c-0.109,0-0.215-0.009-0.318-0.028c-0.972-0.191-1.855-1.501-2.884-1.501c-1.029,0-1.913,1.31-2.884,1.501
	C13.014,1.661,12.908,1.67,12.8,1.67c-0.758,0-1.641-0.423-2.385-0.423c-0.19,0-0.372,0.028-0.54,0.097
	c-0.937,0.385-1.248,1.931-2.08,2.482C6.956,4.382,5.399,4.078,4.688,4.783C3.976,5.488,4.28,7.034,3.718,7.865
	C3.162,8.689,1.604,9,1.215,9.928C0.834,10.84,1.71,12.15,1.512,13.144C1.321,14.106,0,14.981,0,16c0,1.018,1.32,1.894,1.512,2.857
	c0.198,0.993-0.68,2.3-0.299,3.213c0.388,0.928,1.948,1.237,2.505,2.062c0.562,0.834,0.256,2.376,0.966,3.078
	c0.712,0.71,2.271,0.405,3.109,0.959c0.832,0.556,1.143,2.101,2.08,2.486c0.167,0.069,0.349,0.098,0.54,0.098
	c0.746,0,1.628-0.423,2.385-0.423c0.109,0,0.214,0.009,0.318,0.027c0.971,0.191,1.856,1.502,2.885,1.502
	c1.028,0,1.911-1.311,2.884-1.502c0.104-0.019,0.209-0.027,0.316-0.027c0.758,0,1.64,0.423,2.385,0.423
	c0.189,0,0.371-0.028,0.539-0.098c0.936-0.386,1.248-1.931,2.081-2.483c0.839-0.554,2.395-0.249,3.106-0.955
	c0.711-0.705,0.408-2.251,0.97-3.082c0.558-0.824,2.113-1.135,2.504-2.062C31.166,21.16,30.29,19.85,30.488,18.856z M11.025,19.552
	h-1.58l-2.988-4.809h-0.02v4.809H4.958v-7.184h1.569l2.999,4.819h0.02v-4.819h1.479V19.552z M17.866,19.552h-5.453v-7.184h5.373
	v1.329h-3.793v1.539h3.482v1.228h-3.482v1.761h3.874V19.552z M25.775,19.552h-1.57l-1.217-4.889h-0.021l-1.197,4.889h-1.6
	l-1.902-7.184h1.58l1.137,4.891h0.021l1.248-4.891h1.479l1.228,4.95h0.021l1.177-4.95h1.55L25.775,19.552z"/>
</svg>
