<?xml version="1.0" encoding="utf-8"?>
<!-- Generator: Adobe Illustrator 16.0.1, SVG Export Plug-In . SVG Version: 6.00 Build 0)  -->
<!DOCTYPE svg PUBLIC "-//W3C//DTD SVG 1.1//EN" "http://www.w3.org/Graphics/SVG/1.1/DTD/svg11.dtd">
<svg version="1.1" id="Layer_1" xmlns="http://www.w3.org/2000/svg" xmlns:xlink="http://www.w3.org/1999/xlink" x="0px" y="0px"
	 width="32px" height="32px" viewBox="0 0 32 32" enable-background="new 0 0 32 32" xml:space="preserve">
<g>
	<path d="M7.524,28.927h16.952V9.552h-2.663V5.677c0-1.065-0.872-1.938-1.938-1.938h-7.75c-1.065,0-1.938,0.872-1.938,1.938v3.875
		H7.524V28.927z M12.125,5.681c0.001-0.001,0.002-0.003,0.004-0.004h7.743c0.001,0.001,0.003,0.002,0.004,0.004l-0.001,3.871h-7.75
		V5.681z"/>
	<path d="M28.594,9.552h-2.362v19.375h2.362c1.599,0,2.906-1.308,2.906-2.906V12.458C31.5,10.859,30.192,9.552,28.594,9.552z"/>
	<path d="M5.768,9.552H3.406c-1.599,0-2.906,1.308-2.906,2.906v13.562c0,1.599,1.308,2.906,2.906,2.906h2.362V9.552z"/>
</g>
</svg>
