<?xml version="1.0" encoding="utf-8"?>
<!-- Generator: Adobe Illustrator 16.0.1, SVG Export Plug-In . SVG Version: 6.00 Build 0)  -->
<!DOCTYPE svg PUBLIC "-//W3C//DTD SVG 1.1//EN" "http://www.w3.org/Graphics/SVG/1.1/DTD/svg11.dtd">
<svg version="1.1" id="Layer_1" xmlns="http://www.w3.org/2000/svg" xmlns:xlink="http://www.w3.org/1999/xlink" x="0px" y="0px"
	 width="32px" height="32px" viewBox="0 0 32 32" enable-background="new 0 0 32 32" xml:space="preserve">
<path d="M16,1C7.716,1,1,7.716,1,16s6.716,15,15,15s15-6.716,15-15S24.284,1,16,1z M24.487,21c0.268-1.264,0.437-2.605,0.491-4
	h3.983c-0.104,1.381-0.426,2.722-0.959,4H24.487z M7.513,11c-0.268,1.264-0.437,2.605-0.491,4H3.038
	c0.104-1.381,0.426-2.722,0.959-4H7.513z M22.439,11c0.3,1.28,0.48,2.62,0.539,4H17v-4H22.439z M17,9V3.146
	c0.456,0.133,0.908,0.354,1.351,0.668c0.831,0.586,1.625,1.487,2.299,2.608c0.465,0.775,0.866,1.638,1.202,2.578L17,9z
	 M11.351,6.422c0.674-1.121,1.468-2.022,2.299-2.609C14.092,3.5,14.544,3.278,15,3.145V9h-4.852
	C10.484,8.061,10.886,7.197,11.351,6.422z M15,11v4H9.021c0.059-1.38,0.239-2.72,0.539-4H15z M3.997,21
	c-0.533-1.278-0.854-2.619-0.959-4h3.983c0.055,1.395,0.224,2.736,0.491,4H3.997z M9.021,17H15v4H9.561
	C9.261,19.72,9.08,18.38,9.021,17z M15,23v5.854c-0.456-0.133-0.908-0.354-1.351-0.668c-0.831-0.586-1.625-1.487-2.299-2.608
	c-0.465-0.775-0.866-1.638-1.202-2.578L15,23z M20.649,25.578c-0.674,1.121-1.468,2.022-2.299,2.609
	c-0.442,0.312-0.895,0.534-1.351,0.668V23h4.852C21.516,23.939,21.114,24.802,20.649,25.578z M17,21v-4h5.979
	c-0.059,1.38-0.239,2.72-0.539,4H17z M24.98,15c-0.056-1.395-0.225-2.736-0.492-4h3.516c0.533,1.278,0.855,2.619,0.959,4H24.98z
	 M26.958,9h-2.997c-0.582-1.836-1.387-3.447-2.354-4.732c1.328,0.637,2.532,1.488,3.585,2.54C25.864,7.479,26.454,8.212,26.958,9z
	 M6.808,6.808c1.053-1.052,2.257-1.903,3.585-2.54C9.426,5.553,8.622,7.164,8.039,9H5.042C5.546,8.212,6.136,7.479,6.808,6.808z
	 M5.042,23h2.997c0.583,1.836,1.387,3.447,2.354,4.732c-1.328-0.637-2.532-1.488-3.585-2.54C6.136,24.521,5.546,23.788,5.042,23z
	 M25.192,25.192c-1.053,1.052-2.257,1.903-3.585,2.54c0.967-1.285,1.771-2.896,2.354-4.732h2.997
	C26.454,23.788,25.864,24.521,25.192,25.192z"/>
</svg>
