<?xml version="1.0" encoding="utf-8"?>
<!-- Generator: Adobe Illustrator 16.0.1, SVG Export Plug-In . SVG Version: 6.00 Build 0)  -->
<!DOCTYPE svg PUBLIC "-//W3C//DTD SVG 1.1//EN" "http://www.w3.org/Graphics/SVG/1.1/DTD/svg11.dtd">
<svg version="1.1" id="Layer_1" xmlns="http://www.w3.org/2000/svg" xmlns:xlink="http://www.w3.org/1999/xlink" x="0px" y="0px"
	 width="32px" height="32px" viewBox="0 0 32 32" enable-background="new 0 0 32 32" xml:space="preserve">
<g>
	<path d="M21.609,3.994c-1.408,0-2.55,1.142-2.55,2.55v7.649h2.04v8.162h3.06V6.544C24.159,5.136,23.018,3.994,21.609,3.994z
		 M14.47,3.994c-0.281,0-0.51,0.229-0.51,0.51v3.569c0,0.141-0.229,0.255-0.51,0.255s-0.51-0.114-0.51-0.255V4.504
		c0-0.282-0.229-0.51-0.51-0.51s-0.51,0.229-0.51,0.51v3.569c0,0.141-0.229,0.255-0.51,0.255c-0.281,0-0.51-0.114-0.51-0.255V4.504
		c0-0.282-0.229-0.51-0.51-0.51c-0.282,0-0.51,0.229-0.51,0.51v3.569c0,0.141-0.229,0.255-0.51,0.255S8.86,8.215,8.86,8.074V4.504
		c0-0.282-0.229-0.51-0.51-0.51s-0.51,0.229-0.51,0.51v3.569v1.02c0,0.451,0.399,0.703,0.844,1.02
		c0.562,0.399,1.195,0.902,1.195,2.04v10.202h3.06V12.154c0-1.138,0.634-1.641,1.195-2.04c0.445-0.317,0.845-0.569,0.845-1.02v-1.02
		V4.504C14.98,4.223,14.751,3.994,14.47,3.994z"/>
</g>
<path d="M31.49,24.099H0.51c-0.281,0-0.51,0.228-0.51,0.51v1.146c0,0.282,0.229,0.51,0.51,0.51h2.156
	c-0.013,0.057-0.031,0.112-0.031,0.17c0,0.728,1.61,1.828,2.338,1.828h22.056c0.728,0,2.338-1.101,2.338-1.828
	c0-0.058-0.019-0.113-0.031-0.17h2.155c0.281,0,0.51-0.228,0.51-0.51v-1.146C32,24.326,31.771,24.099,31.49,24.099z"/>
</svg>
