<?xml version="1.0" encoding="utf-8"?>
<!-- Generator: Adobe Illustrator 16.0.1, SVG Export Plug-In . SVG Version: 6.00 Build 0)  -->
<!DOCTYPE svg PUBLIC "-//W3C//DTD SVG 1.1//EN" "http://www.w3.org/Graphics/SVG/1.1/DTD/svg11.dtd">
<svg version="1.1" id="Layer_1" xmlns="http://www.w3.org/2000/svg" xmlns:xlink="http://www.w3.org/1999/xlink" x="0px" y="0px"
	 width="32px" height="32px" viewBox="0 0 32 32" enable-background="new 0 0 32 32" xml:space="preserve">
<path d="M30.974,24.004L26.417,2.441c-0.121-0.577-0.637-0.979-1.231-0.963L8.481,2.085C7.945,2.105,7.486,2.473,7.35,2.991
	L1.352,25.845c-0.085,0.324-0.033,0.669,0.145,0.953c0.177,0.284,0.464,0.481,0.792,0.548l1.519,0.303
	c0.602,0.124,1.198-0.227,1.391-0.807l0.656-1.967l11.103,1.955l-0.662,3.258c-0.132,0.646,0.275,1.277,0.917,1.426l1.974,0.455
	C19.275,31.989,19.367,32,19.458,32c0.233,0,0.464-0.067,0.662-0.196c0.277-0.179,0.469-0.464,0.532-0.788l1.765-9.168l4.535,0.421
	l0.428,2.079c0.104,0.511,0.521,0.896,1.038,0.962l1.215,0.151c0.39,0.046,0.779-0.095,1.046-0.383
	C30.944,24.788,31.054,24.389,30.974,24.004z M15.573,20.202l-0.596,2.894l-6.31-0.956l0.654-2.908l1.514,0.211l1.181-5.249
	l-1.566-0.218l0.77-2.52l4.592,0.191l-1.857,8.258L15.573,20.202z M17.093,8.661c-0.279,1.234-1.385,2.129-2.632,2.129
	c-0.114,0-0.23-0.008-0.345-0.024c-0.662-0.092-1.23-0.438-1.602-0.975c-0.382-0.553-0.508-1.233-0.354-1.917
	c0.303-1.346,1.608-2.3,2.976-2.104c0.661,0.092,1.229,0.438,1.601,0.975C17.118,7.297,17.245,7.978,17.093,8.661z M23.027,19.321
	l1.897-9.72l1.67,10.175L23.027,19.321z"/>
</svg>
