<?xml version="1.0" encoding="utf-8"?>
<!-- Generator: Adobe Illustrator 16.0.1, SVG Export Plug-In . SVG Version: 6.00 Build 0)  -->
<!DOCTYPE svg PUBLIC "-//W3C//DTD SVG 1.1//EN" "http://www.w3.org/Graphics/SVG/1.1/DTD/svg11.dtd">
<svg version="1.1" id="Layer_1" xmlns="http://www.w3.org/2000/svg" xmlns:xlink="http://www.w3.org/1999/xlink" x="0px" y="0px"
	 width="32px" height="32px" viewBox="0 0 32 32" enable-background="new 0 0 32 32" xml:space="preserve">
<circle cx="8.085" cy="4.877" r="2.569"/>
<path d="M14.934,29.707h-1.711L8.085,19.362L2.948,29.707H1.235l3.63-11.987v-6.849c0,0-6.204-1.866-4.602-8.082l1.47-0.487
	c-1.399,7.03,6.351,6.856,6.351,6.856s2.355-0.116,3.441,0.533c1.565,0.935,4.621,8.135,4.621,8.135l-1.225,1.184l-3.618-6.178
	v4.888L14.934,29.707z"/>
<path d="M25.591,4.41H17.34v22.894h8.299L32,29.388V2.762L25.591,4.41z M19.216,17.144c-0.547,0-0.991-0.443-0.991-0.991
	c0-0.547,0.444-0.991,0.991-0.991c0.548,0,0.991,0.444,0.991,0.991C20.207,16.7,19.764,17.144,19.216,17.144z M30.975,27.973
	l-4.807-1.574V5.321l4.807-1.236V27.973z"/>
</svg>
