<?xml version="1.0" encoding="utf-8"?>
<!-- Generator: Adobe Illustrator 16.0.1, SVG Export Plug-In . SVG Version: 6.00 Build 0)  -->
<!DOCTYPE svg PUBLIC "-//W3C//DTD SVG 1.1//EN" "http://www.w3.org/Graphics/SVG/1.1/DTD/svg11.dtd">
<svg version="1.1" id="Layer_1" xmlns="http://www.w3.org/2000/svg" xmlns:xlink="http://www.w3.org/1999/xlink" x="0px" y="0px"
	 width="32px" height="32px" viewBox="0 0 32 32" enable-background="new 0 0 32 32" xml:space="preserve">
<path d="M24,5c-3.074,0-5.877,1.156-8,3.057C13.877,6.156,11.074,5,8,5S2.123,6.156,0,8.057v0.536v2.406v12v2.532v0.41
	C0.021,25.961,0.042,25.98,0.064,26c0.513,0.453,1.064,0.861,1.649,1.223C2.303,26.746,2.948,26.335,3.637,26
	C4.956,25.359,6.436,25,8,25s3.045,0.359,4.363,1c0.688,0.335,1.333,0.746,1.923,1.223c0.115,0.094,0.228,0.189,0.339,0.287
	c0.507,0.449,0.968,0.947,1.375,1.489c0.407-0.542,0.868-1.041,1.375-1.489c0.111-0.098,0.224-0.193,0.339-0.287
	c0.589-0.477,1.234-0.888,1.923-1.223c1.319-0.641,2.799-1,4.363-1c1.563,0,3.045,0.359,4.363,1
	c0.688,0.335,1.333,0.746,1.923,1.223c0.585-0.361,1.137-0.77,1.649-1.223c0.021-0.02,0.042-0.039,0.064-0.059v-0.41v-2.532v-12
	V8.594V8.057C29.877,6.156,27.074,5,24,5z M8,23c-2.186,0-4.235,0.585-6,1.607V9c1.671-1.256,3.749-2,6-2
	c2.252,0,4.329,0.745,6,2.001v15.606C12.235,23.585,10.186,23,8,23z M24,23c-2.186,0-4.235,0.585-6,1.607V9.001
	C19.671,7.745,21.748,7,24,7c2.251,0,4.329,0.744,6,2v15.607C28.235,23.585,26.186,23,24,23z"/>
</svg>
