<?xml version="1.0" encoding="utf-8"?>
<!-- Generator: Adobe Illustrator 16.0.1, SVG Export Plug-In . SVG Version: 6.00 Build 0)  -->
<!DOCTYPE svg PUBLIC "-//W3C//DTD SVG 1.1//EN" "http://www.w3.org/Graphics/SVG/1.1/DTD/svg11.dtd">
<svg version="1.1" id="Layer_1" xmlns="http://www.w3.org/2000/svg" xmlns:xlink="http://www.w3.org/1999/xlink" x="0px" y="0px"
	 width="32px" height="32px" viewBox="0 0 32 32" enable-background="new 0 0 32 32" xml:space="preserve">
<path d="M21.763,7.84h7.297c-0.307-0.668-0.694-1.282-1.122-1.71l-4.466-4.465c-0.427-0.428-1.041-0.816-1.709-1.123V7.84z"/>
<g>
	<polygon fill="#010101" points="6.443,32.102 0,27.269 2.82,23.511 5.776,25.727 12.565,17.968 16.103,21.062 	"/>
	<g>
		<path d="M29.672,9.897h-7.909h-1.885h-0.173v-9.966c-0.172-0.021-0.341-0.034-0.5-0.034h-15c-1.375,0-2.5,1.125-2.5,2.5v19.267
			l0.715-0.952l1.6,1.198l1.472,1.104l5.569-6.363l1.317-1.505l1.505,1.317l3.538,3.095l1.505,1.316l-1.317,1.506L9.28,31.897
			h17.925c1.375,0,2.5-1.125,2.5-2.5v-19C29.705,10.238,29.692,10.069,29.672,9.897z"/>
	</g>
</g>
</svg>
