<?xml version="1.0" encoding="utf-8"?>
<!-- Generator: Adobe Illustrator 16.0.1, SVG Export Plug-In . SVG Version: 6.00 Build 0)  -->
<!DOCTYPE svg PUBLIC "-//W3C//DTD SVG 1.1//EN" "http://www.w3.org/Graphics/SVG/1.1/DTD/svg11.dtd">
<svg version="1.1" id="Layer_1" xmlns="http://www.w3.org/2000/svg" xmlns:xlink="http://www.w3.org/1999/xlink" x="0px" y="0px"
	 width="32px" height="32px" viewBox="0 0 32 32" enable-background="new 0 0 32 32" xml:space="preserve">
<g>
	<g>
		<polygon fill="#010101" points="8.003,30.514 1.56,25.681 4.379,21.923 7.335,24.139 14.125,16.38 17.662,19.475 		"/>
		<g>
			<polygon points="8.003,30.514 8.631,29.796 7.046,29.796 			"/>
			<polygon points="1.705,25.79 3.705,27.29 3.705,22.821 1.705,25.487 			"/>
			<path d="M27.937,6.028l-4.465-4.465c-0.971-0.973-2.893-1.768-4.268-1.768h-15c-1.375,0-2.5,1.125-2.5,2.5v19.837l1.064-1.418
				l0.936-1.248V2.296c0-0.271,0.229-0.5,0.5-0.5h15c0.151,0,0.321,0.02,0.5,0.052v7.948h7.948c0.033,0.18,0.052,0.35,0.052,0.5v19
				c0,0.271-0.229,0.5-0.5,0.5H11.305l-1.75,2h17.649c1.376,0,2.501-1.125,2.501-2.5v-19C29.705,8.921,28.908,7,27.937,6.028z
				 M21.704,7.796V2.688c0.136,0.095,0.256,0.191,0.354,0.289l4.465,4.464c0.097,0.098,0.193,0.218,0.289,0.354H21.704z"/>
		</g>
	</g>
</g>
</svg>
