<?xml version="1.0" encoding="utf-8"?>
<!-- Generator: Adobe Illustrator 16.0.1, SVG Export Plug-In . SVG Version: 6.00 Build 0)  -->
<!DOCTYPE svg PUBLIC "-//W3C//DTD SVG 1.1//EN" "http://www.w3.org/Graphics/SVG/1.1/DTD/svg11.dtd">
<svg version="1.1" id="Layer_1" xmlns="http://www.w3.org/2000/svg" xmlns:xlink="http://www.w3.org/1999/xlink" x="0px" y="0px"
	 width="32px" height="32px" viewBox="0 0 32 32" enable-background="new 0 0 32 32" xml:space="preserve">
<path fill="#010101" d="M15.793,0.502C7.233,0.616,0.387,7.647,0.501,16.207c0.115,8.561,7.146,15.406,15.706,15.291
	c8.56-0.113,15.405-7.146,15.292-15.705C31.384,7.232,24.352,0.387,15.793,0.502z M15.819,2.523
	c2.309-0.031,4.489,0.521,6.402,1.519l-2.086,3.477C18.887,6.909,17.483,6.565,16,6.565s-2.887,0.343-4.136,0.954L9.779,4.044
	C11.589,3.101,13.639,2.552,15.819,2.523z M7.519,20.136l-3.474,2.085c-0.943-1.81-1.492-3.86-1.521-6.041
	c-0.031-2.308,0.522-4.488,1.519-6.401l3.477,2.086C6.909,13.113,6.565,14.517,6.565,16C6.565,17.484,6.909,18.887,7.519,20.136z
	 M16.181,29.477c-2.309,0.031-4.49-0.521-6.402-1.519l2.086-3.477c1.249,0.609,2.652,0.953,4.136,0.953
	c1.483,0,2.887-0.343,4.135-0.953l2.085,3.475C20.41,28.899,18.36,29.447,16.181,29.477z M16,23.413
	c-4.094,0-7.413-3.318-7.413-7.413c0-4.094,3.319-7.413,7.413-7.413c4.094,0,7.413,3.319,7.413,7.413
	C23.413,20.095,20.094,23.413,16,23.413z M24.48,20.136c0.61-1.249,0.954-2.651,0.954-4.136c0-1.483-0.344-2.887-0.954-4.135
	l3.476-2.085c0.943,1.81,1.492,3.86,1.521,6.04c0.031,2.309-0.521,4.489-1.519,6.402L24.48,20.136z"/>
</svg>
