<?xml version="1.0" encoding="utf-8"?>
<!-- Generator: Adobe Illustrator 16.0.1, SVG Export Plug-In . SVG Version: 6.00 Build 0)  -->
<!DOCTYPE svg PUBLIC "-//W3C//DTD SVG 1.1//EN" "http://www.w3.org/Graphics/SVG/1.1/DTD/svg11.dtd">
<svg version="1.1" id="Layer_1" xmlns="http://www.w3.org/2000/svg" xmlns:xlink="http://www.w3.org/1999/xlink" x="0px" y="0px"
	 width="32px" height="32px" viewBox="0 0 32 32" enable-background="new 0 0 32 32" xml:space="preserve">
<g>
	<path d="M26,28.999c0,0.543-0.458,1-1,1H3c-0.542,0-1-0.457-1-1V6h15.086l6-6H3C1.35,0,0,1.35,0,3v25.999C0,30.65,1.35,32,3,32h22
		c1.65,0,3-1.35,3-3.001V12.43l-2,2V28.999z"/>
	<path d="M7.545,19.004l-0.351,0.352c-0.001,0.002-0.002,0.002-0.002,0.002L7.149,19.4c-0.002,0.002-0.003,0.004-0.004,0.006
		l-0.008,0.008v0.004c-0.189,0.197-0.371,0.564-0.405,0.832l-0.667,5.254c-0.035,0.273,0.16,0.469,0.433,0.434l5.256-0.668
		c0.227-0.029,0.51-0.17,0.718-0.326l0.038,0.006l0.487-0.49l-5.098-5.102L7.545,19.004z"/>
	<path d="M31.471,3.417L28.592,0.53c-0.705-0.708-1.866-0.708-2.575,0.004l-2.568,2.568L28.9,8.553l2.572-2.57
		C32.178,5.273,32.176,4.122,31.471,3.417z"/>
	<rect x="14.097" y="4.46" transform="matrix(0.707 0.7072 -0.7072 0.707 15.1987 -8.5797)" width="7.713" height="19.184"/>
</g>
</svg>
