<?xml version="1.0" encoding="utf-8"?>
<!-- Generator: Adobe Illustrator 16.0.1, SVG Export Plug-In . SVG Version: 6.00 Build 0)  -->
<!DOCTYPE svg PUBLIC "-//W3C//DTD SVG 1.1//EN" "http://www.w3.org/Graphics/SVG/1.1/DTD/svg11.dtd">
<svg version="1.1" xmlns="http://www.w3.org/2000/svg" xmlns:xlink="http://www.w3.org/1999/xlink" x="0px" y="0px" width="32px"
	 height="32px" viewBox="0 0 32 32" enable-background="new 0 0 32 32" xml:space="preserve">
<g id="Layer_1" display="none">
	<path display="inline" d="M26.114-11.621c1.085,0,1.974,0.886,1.974,1.973s-0.889,1.973-1.974,1.973h-1.973V5.573
		c0,2.169,0.915,5.468,2.035,7.325L37.891,32.35c1.12,1.857,1.241,4.969,0.27,6.91l-0.415,0.832
		c-0.972,1.941-3.542,3.529-5.711,3.529H0.466c-2.169,0-4.739-1.588-5.71-3.529l-0.416-0.832c-0.971-1.941-0.85-5.053,0.27-6.91
		L6.323,12.898c1.12-1.857,2.035-5.156,2.035-7.325V-7.675H6.385c-1.085,0-1.973-0.886-1.973-1.973s0.888-1.973,1.973-1.973h5.919
		h7.891H26.114 M26.114-15.795h-5.919h-7.891H6.385c-3.39,0-6.147,2.758-6.147,6.147c0,2.614,1.64,4.853,3.946,5.74v9.481
		c0,1.408-0.711,3.969-1.436,5.17L-8.967,30.197c-1.866,3.096-2.046,7.693-0.426,10.93l0.414,0.83
		c1.692,3.385,5.664,5.838,9.445,5.838h31.568c3.78,0,7.753-2.453,9.444-5.836l0.416-0.834c1.618-3.236,1.438-7.832-0.43-10.93
		L29.752,10.745c-0.726-1.203-1.437-3.764-1.437-5.172v-9.481c2.307-0.887,3.947-3.125,3.947-5.74
		C32.263-13.038,29.505-15.795,26.114-15.795L26.114-15.795z"/>
	<path display="inline" d="M34.548,33.078l-9.795-15.631H16.25H7.747l-9.795,15.631c0,0-0.833,1.576-0.833,2.501
		c0,2.062,1.583,3.737,3.596,3.923l0.016,0.037h15.52h15.521l0.015-0.037c2.014-0.186,3.598-1.86,3.598-3.923
		C35.383,34.654,34.548,33.078,34.548,33.078z"/>
</g>
<g id="Layer_2">
	<path d="M30.568,17.918l-12-11.01c2.787-2.663,5.723-4.526,7.939-5.026c0.217-0.049,0.387-0.219,0.455-0.433
		c0.068-0.214,0.01-0.456-0.141-0.623c-0.045-0.05-0.092-0.101-0.139-0.142C26.189,0.23,25.527,0,24.721,0
		c-2.213,0-5.451,1.792-8.548,4.71l-0.212-0.195c-0.651-0.595-1.753-0.546-2.348,0.101L12.83,5.471
		c-0.619,0.675-0.573,1.729,0.102,2.348l0.211,0.193c-0.924,1.168-1.72,2.36-2.355,3.514h-4.53L0,32h4.799l1.458-5.255h5.863
		L13.699,32h4.982l-5.633-18.165c0.686-1.192,1.526-2.425,2.49-3.626l11.999,11.01c0.309,0.282,0.707,0.438,1.125,0.438
		c0.463,0,0.91-0.195,1.223-0.537l0.785-0.854C31.287,19.591,31.242,18.538,30.568,17.918z M6.926,23.282l1.215-4.344
		c0.333-1.185,0.638-2.734,0.941-3.949h0.061c0.304,1.215,0.668,2.735,1.033,3.949l1.276,4.344H6.926z"/>
</g>
</svg>
