<?xml version="1.0" encoding="utf-8"?>
<!-- Generator: Adobe Illustrator 16.0.1, SVG Export Plug-In . SVG Version: 6.00 Build 0)  -->
<!DOCTYPE svg PUBLIC "-//W3C//DTD SVG 1.1//EN" "http://www.w3.org/Graphics/SVG/1.1/DTD/svg11.dtd">
<svg version="1.1" id="Layer_1" xmlns="http://www.w3.org/2000/svg" xmlns:xlink="http://www.w3.org/1999/xlink" x="0px" y="0px"
	 width="32px" height="32px" viewBox="0 0 32 32" enable-background="new 0 0 32 32" xml:space="preserve">
<g>
	<path d="M6.573,16.603l1.608,1.609h5.582l-4.4-4.401c0.042-0.124,0.071-0.249,0.071-0.356v-2.255c0-0.276-0.203-0.605-0.451-0.727
		L5.536,8.747C5.288,8.625,4.927,8.683,4.731,8.878L4.354,9.253c-0.196,0.197-0.196,0.518,0,0.711l2.007,2.006
		c0.196,0.195,0.196,0.515,0,0.711l-0.92,0.92c-0.195,0.195-0.515,0.195-0.71,0l-2.007-2.006c-0.195-0.195-0.516-0.195-0.711,0
		l-0.375,0.375c-0.196,0.195-0.255,0.56-0.131,0.804l1.724,3.449c0.125,0.246,0.453,0.449,0.729,0.449l2.255,0.001
		C6.323,16.674,6.448,16.645,6.573,16.603z"/>
</g>
<g>
	<path d="M30.544,15.072l-0.877-0.878c-0.244-0.239-0.636-0.239-0.877,0l-0.147,0.147l-0.294-0.293
		c-0.157-0.16-0.348-0.468-0.42-0.682l-0.323-0.971c-0.069-0.214-0.263-0.523-0.423-0.682l-2.338-2.34
		c-0.161-0.159-0.474-0.335-0.693-0.391c0,0-4.276-1.069-5.443,0.101c0,0,0.072,0.327,0.297,0.361c0,0,2.356-0.579,3.209,1.976
		v0.755c0.001,0.229,0.132,0.545,0.292,0.705l1.754,1.756c0.161,0.157,0.468,0.35,0.685,0.421l0.969,0.323
		c0.216,0.07,0.523,0.263,0.685,0.422l0.293,0.293l-0.146,0.147c-0.242,0.239-0.242,0.634-0.002,0.873l0.878,0.879
		c0.242,0.242,0.635,0.241,0.875,0l2.048-2.045C30.784,15.708,30.784,15.315,30.544,15.072z"/>
	<path d="M28.916,14.111c-0.043,0.025-0.089,0.046-0.126,0.083l-0.147,0.147l-0.294-0.293c-0.157-0.16-0.348-0.468-0.42-0.682
		l-0.323-0.971c-0.037-0.114-0.11-0.254-0.193-0.386c-0.311-0.139-0.683-0.229-1.134-0.229h-4.064v0.396
		c0.001,0.229,0.132,0.545,0.292,0.705l0.911,0.913h2.861c0.245,0,0.536,0.052,0.601,0.461c0.056,0.356,0.899,2.106,1.682,3.676
		l1.462-1.46C29.512,15.458,29.063,14.53,28.916,14.111z"/>
</g>
<g>
	<path d="M21.441,18.212c1.028-1.029,2.265-2.253,2.279-2.27l-1.682-1.682l-2.918,2.89c-0.382,0.379-0.876,0.787-1.281,1.062H21.441
		z"/>
</g>
<g>
	<path d="M6.17,11.779l0.191,0.191c0.195,0.195,0.195,0.515,0,0.711l-0.92,0.92c-0.098,0.099-0.227,0.147-0.355,0.147
		c-0.129,0-0.257-0.048-0.356-0.147l-0.97-0.969c-0.514,0.604-0.627,1.308-0.627,1.308c-0.024,0.156-0.208,0.583-0.473,1.143
		l0.57,1.141c0.125,0.246,0.453,0.449,0.729,0.449h0.1c0.555-1.143,1.022-2.158,1.063-2.419c0.064-0.409,0.355-0.461,0.601-0.461
		h3.646c0.038-0.118,0.066-0.236,0.066-0.338v-1.675H6.17z"/>
	<path d="M20.704,12.175v-0.396h-3.237h-2.933h-3.59v1.478l0.535,0.536h3.055h2.933h3.847
		C20.947,13.353,20.707,12.748,20.704,12.175z"/>
</g>
<path d="M30.746,17.881l-1.18,1.179c-0.096,0.096-0.199,0.18-0.31,0.255c0.2,0.394,0.367,0.722,0.483,0.947H2.26
	c0.222-0.433,0.642-1.254,1.097-2.167c-0.621-0.179-1.184-0.618-1.478-1.196L1.82,16.78C0.962,18.467,0,20.262,0,20.262l0,0
	c0,0.104,0,0.213,0,0.301v10c0,0.551,0.45,1,1,1h30c0.551,0,1-0.449,1-1v-10c0-0.088,0-0.197,0-0.301
	C32,20.262,31.412,19.165,30.746,17.881z M22.29,25.409c0,1.525-1.241,2.768-2.768,2.768h-7.045c-1.526,0-2.768-1.242-2.768-2.768
	v-1.51c0-0.139,0.112-0.252,0.251-0.252h2.013c0.139,0,0.251,0.113,0.251,0.252v1.51c0,0.134,0.117,0.252,0.251,0.252h7.045
	c0.135,0,0.252-0.118,0.252-0.252v-1.51c0-0.139,0.112-0.252,0.251-0.252h2.014c0.139,0,0.251,0.113,0.251,0.252V25.409z"/>
</svg>
