<?xml version="1.0" encoding="utf-8"?>
<!-- Generator: Adobe Illustrator 16.0.1, SVG Export Plug-In . SVG Version: 6.00 Build 0)  -->
<!DOCTYPE svg PUBLIC "-//W3C//DTD SVG 1.1//EN" "http://www.w3.org/Graphics/SVG/1.1/DTD/svg11.dtd">
<svg version="1.1" id="Layer_1" xmlns="http://www.w3.org/2000/svg" xmlns:xlink="http://www.w3.org/1999/xlink" x="0px" y="0px"
	 width="32px" height="32px" viewBox="0 0 32 32" enable-background="new 0 0 32 32" xml:space="preserve">
<path d="M26.631,0h-0.688H5.37C2.588,0,0.302,2.113,0.026,4.822C0.01,5.001,0,5.188,0,5.372V26.63c0,0.186,0.01,0.37,0.026,0.55
	C0.302,29.888,2.588,32,5.37,32h20.464h0.797C29.594,32,32,29.597,32,26.63V6.169V5.372C32,2.406,29.594,0,26.631,0z M5.843,22.744
	c-0.548-0.486-0.599-1.324-0.113-1.873l0.81-0.914l0.323-0.365l1.961-2.214c0.486-0.549,1.325-0.6,1.873-0.114
	c0.548,0.486,0.6,1.326,0.114,1.875l-2.562,2.893l-0.045,0.051l-0.487,0.55C7.231,23.181,6.392,23.23,5.843,22.744z M8.106,25.119
	c-0.548-0.486-0.599-1.324-0.113-1.873L8.7,22.448l0.67-0.757l1.716-1.939c0.486-0.549,1.326-0.6,1.874-0.113
	c0.549,0.486,0.6,1.326,0.114,1.875l-2.09,2.358l-0.083,0.094l-0.921,1.041C9.494,25.556,8.655,25.605,8.106,25.119z M13.054,26.404
	c-0.485,0.549-1.323,0.6-1.873,0.113c-0.549-0.484-0.6-1.325-0.114-1.874l0.324-0.355l0.686-0.757l1.587-1.75
	c0.486-0.548,1.325-0.6,1.874-0.113c0.548,0.486,0.6,1.324,0.114,1.875l-1.472,1.621l-0.515,0.568L13.054,26.404z M14.282,27.971
	c-0.547-0.486-0.599-1.324-0.113-1.873l0.51-0.554l0.219-0.237l1.057-1.15c0.486-0.548,1.325-0.6,1.874-0.114
	c0.549,0.486,0.6,1.325,0.113,1.874l-1.786,1.942C15.67,28.405,14.831,28.457,14.282,27.971z M29.731,14.263
	c-0.249,0.385-2.921,3.216-2.921,3.216c0.592,0.849,0.963,1.827,0.399,2.632c-0.228,0.326-0.673,0.715-1.509,0.715
	c-0.186,0-0.377-0.021-0.571-0.055c0.427,0.515,0.759,1.068,0.828,1.59c0.058,0.43-0.058,0.826-0.329,1.143
	c-0.389,0.453-0.942,0.682-1.645,0.682c-0.278,0-0.562-0.037-0.846-0.098c0.206,0.319,0.359,0.654,0.404,0.996
	c0.061,0.439-0.059,0.848-0.344,1.184c-0.379,0.447-0.914,0.684-1.55,0.684c-0.468,0-0.945-0.129-1.355-0.287
	c0.077,0.485,0.03,1.014-0.351,1.396c-0.215,0.217-0.514,0.324-0.885,0.324c-0.713,0-1.607-0.42-2.055-0.656l0.709-0.77
	c0.445,0.213,0.99,0.42,1.346,0.42c0.118,0,0.168-0.023,0.174-0.03c0.223-0.223-0.01-1.005-0.255-1.46
	c-0.11-0.203-0.065-0.457,0.106-0.613c0.172-0.154,0.428-0.172,0.619-0.041c0.012,0.007,1.055,0.711,1.946,0.711
	c0.345,0,0.594-0.105,0.782-0.326c0.102-0.119,0.137-0.243,0.115-0.4c-0.096-0.701-1.217-1.705-1.9-2.172
	c-0.227-0.153-0.287-0.461-0.138-0.689c0.148-0.229,0.453-0.298,0.687-0.152c0.016,0.011,1.582,0.975,2.789,0.975
	c0.402,0,0.69-0.107,0.881-0.33c0.087-0.101,0.115-0.207,0.096-0.355c-0.117-0.892-1.809-2.345-2.848-3.051
	c-0.229-0.155-0.288-0.273-0.133-0.503c0.154-0.229,0.377,0.06,0.608,0.06H22v-0.389c1,0.337,2.355,1.207,3.361,1.207
	c0.435,0,0.768-0.161,0.855-0.283c0.337-0.483-0.157-1.375-0.846-2.135c-1.058-0.584-2.661-1.495-3.338-1.88
	c-0.979-0.555-2.97-2.291-3.527-2.935c-0.56-0.643-1.835,0.335-2.281,0.727c-0.447,0.392-1.728,1.117-3.069,1.146
	c-1.341,0.027-2.055-0.857-1.981-1.174c0.169-0.727,2.042-2.431,2.488-3.074c0.115-0.164,0.311-0.43,0.547-0.737
	c-0.962-0.255-2.73-0.933-5.794-2.705L3.33,13.972c0.294,0.743,1.314,3.103,3.17,5.22l-0.673,0.761
	c-2.414-2.706-3.489-5.75-3.537-5.888c-0.053-0.153-0.028-0.322,0.064-0.455l5.505-7.797C8.011,5.6,8.3,5.536,8.525,5.669
	c4.06,2.386,5.835,2.842,6.382,2.93c0.562-0.679,1.151-1.318,1.439-1.434c0.559-0.224,3.94,0.503,4.835,0.587
	c0.894,0.084,2.952-1.895,3.521-1.928C25.781,5.76,30.335,13.33,29.731,14.263z"/>
</svg>
