<?xml version="1.0" encoding="utf-8"?>
<!-- Generator: Adobe Illustrator 16.0.1, SVG Export Plug-In . SVG Version: 6.00 Build 0)  -->
<!DOCTYPE svg PUBLIC "-//W3C//DTD SVG 1.1//EN" "http://www.w3.org/Graphics/SVG/1.1/DTD/svg11.dtd">
<svg version="1.1" id="Layer_1" xmlns="http://www.w3.org/2000/svg" xmlns:xlink="http://www.w3.org/1999/xlink" x="0px" y="0px"
	 width="32px" height="32px" viewBox="0 0 32 32" enable-background="new 0 0 32 32" xml:space="preserve">
<path d="M32,5.381c0-2.962-2.403-5.364-5.365-5.364H5.399c-2.962,0-5.364,2.403-5.364,5.365v21.236c0,2.963,2.402,5.364,5.364,5.364
	h0h1.835h2.392h2.657h3.961h9.71h0.68c0.778,0,1.516-0.169,2.184-0.467h0.001c0.003-0.002,0.007-0.004,0.01-0.006
	c0.185-0.082,0.362-0.177,0.535-0.279c0.023-0.014,0.046-0.027,0.069-0.042c0.166-0.102,0.326-0.212,0.479-0.33
	c0.01-0.008,0.113-0.014,0.122-0.021c0.901-0.707,1.466-1.694,1.965-2.833l0,0c0-0.001,0-0.001,0-0.001
	c0-0.205,0.004-0.414,0.034-0.627c0.004-0.028-0.038-0.055-0.034-0.082c0.027-0.221,0-0.444,0-0.673c0-0.001,0-0.002,0-0.003v-0.001
	v-8.45v-4.963v-0.933V10.82V5.382V5.381L32,5.381z M9.111,24.671c-1.51,0-2.737-1.224-2.737-2.738c0-1.511,1.227-2.736,2.737-2.736
	c1.509,0,2.736,1.226,2.736,2.736C11.847,23.447,10.62,24.671,9.111,24.671z M6.63,30.983c-0.656-1.557-0.471-3.695,0.438-6.101
	c0.361,0.252,0.769,0.433,1.208,0.538c-0.902,2.438-0.937,4.427-0.132,5.562H6.63z M31.001,26.617c0,0.688-0.164,1.337-0.449,1.917
	c-0.22-0.692-0.555-1.477-1.009-2.334c-0.577-1.09-1.316-2.248-2.182-3.436c-0.839,1.062-1.768,2.109-2.777,3.12
	c-0.799,0.798-1.622,1.544-2.457,2.238c1.852,1.326,3.533,2.274,4.916,2.841c-0.135,0.012-0.271,0.02-0.408,0.02h-2.597
	c-0.962-0.558-1.971-1.222-3.006-1.983c-0.98,0.749-1.968,1.406-2.944,1.983h-2.796c2.682-1.211,5.65-3.318,8.362-6.03
	c1.062-1.06,2.027-2.159,2.89-3.275c-1.171-1.497-2.526-3.027-4.02-4.52c-1.086-1.086-2.147-2.058-3.171-2.922
	c-0.357,0.23-0.78,0.368-1.237,0.368c-1.264,0-2.29-1.024-2.29-2.289c0-0.236,0.046-0.459,0.112-0.673
	c-2.82-1.898-5.112-2.804-6.443-2.804c-0.484,0-0.84,0.113-1.062,0.333c-1.007,1.008,0.118,4.303,3.099,8.41
	c0.695-0.835,1.446-1.667,2.264-2.484c0.491-0.491,0.995-0.955,1.502-1.408c0.197,0.403,0.477,0.75,0.819,1.035
	c-0.467,0.419-0.936,0.849-1.391,1.305c-0.878,0.878-1.669,1.758-2.383,2.63c1.008,1.295,2.187,2.654,3.53,4.037
	c-0.365,0.273-0.665,0.616-0.893,1.014c-1.568-1.61-3.031-3.308-4.278-4.979c-0.021-0.01-0.042-0.023-0.064-0.034
	c0.006-0.008,0.014-0.017,0.02-0.025c-3.271-4.4-5.023-8.602-3.179-10.45c0.486-0.482,1.163-0.729,2.016-0.729
	c1.782,0,4.356,1.124,7.199,3.042c0.391-0.312,0.882-0.507,1.421-0.507c1.264,0,2.291,1.025,2.291,2.289
	c0,0.32-0.066,0.625-0.186,0.901c1.086,0.915,2.179,1.913,3.255,2.989c1.396,1.396,2.719,2.873,3.896,4.35
	c0.447-0.635,0.86-1.271,1.231-1.902c0.355,0.255,0.763,0.443,1.199,0.554c-0.471,0.812-1.003,1.626-1.59,2.436
	c1.144,1.531,2.097,3.035,2.789,4.432V26.617z M15.796,25.382c0-1.161,0.943-2.105,2.104-2.105s2.104,0.944,2.104,2.105
	s-0.943,2.102-2.104,2.102S15.796,26.543,15.796,25.382z M31.001,18.463c-0.095,0.01-0.189,0.018-0.287,0.018
	c-1.546,0-2.796-1.25-2.796-2.793c0-1.546,1.25-2.798,2.796-2.798c0.098,0,0.192,0.008,0.287,0.018V18.463z M31.001,12.062
	c-0.059-0.004-0.114-0.018-0.174-0.02c-0.017-1.005-0.292-1.814-0.836-2.354c-0.553-0.561-1.379-0.842-2.448-0.842
	c-1.831,0-4.125,0.827-6.529,2.245c-0.172-0.408-0.435-0.767-0.753-1.065c2.654-1.575,5.218-2.499,7.282-2.499
	c1.429,0,2.569,0.415,3.383,1.228c0.027,0.027,0.049,0.06,0.075,0.088V12.062z"/>
</svg>
