<?xml version="1.0" encoding="utf-8"?>
<!-- Generator: Adobe Illustrator 16.0.1, SVG Export Plug-In . SVG Version: 6.00 Build 0)  -->
<!DOCTYPE svg PUBLIC "-//W3C//DTD SVG 1.1//EN" "http://www.w3.org/Graphics/SVG/1.1/DTD/svg11.dtd">
<svg version="1.1" id="Layer_1" xmlns="http://www.w3.org/2000/svg" xmlns:xlink="http://www.w3.org/1999/xlink" x="0px" y="0px"
	 width="32px" height="32px" viewBox="0 0 32 32" enable-background="new 0 0 32 32" xml:space="preserve">
<g>
	<path d="M14.993,7.786c-1.125-0.161-2.2,0.624-2.45,1.732c-0.126,0.563-0.023,1.123,0.292,1.578
		c0.306,0.442,0.774,0.727,1.319,0.803c0.095,0.013,0.19,0.02,0.284,0.02c1.026,0,1.938-0.737,2.167-1.752
		c0.126-0.562,0.021-1.123-0.293-1.577C16.005,8.147,15.537,7.862,14.993,7.786z"/>
	<polygon points="11.77,12.466 11.136,14.541 12.425,14.72 11.453,19.041 10.208,18.867 9.669,21.261 14.863,22.048 15.353,19.666 
		14.021,19.421 15.55,12.624 	"/>
	<polygon points="21.489,18.94 24.427,19.315 23.052,10.94 	"/>
	<path d="M26.487,0h-0.686H5.229C2.448,0,0.161,2.113-0.114,4.822c-0.018,0.18-0.028,0.363-0.028,0.549v20.029v1.23
		c0,0.186,0.01,0.368,0.028,0.549c0.275,2.708,2.562,4.82,5.343,4.82h19.16h1.087h0.213h0.799c2.966,0,5.37-2.403,5.37-5.369v-3.215
		V6.168V5.371C31.858,2.405,29.453,0,26.487,0z M27.788,23.68c-0.219,0.237-0.54,0.354-0.86,0.315l-1-0.125
		c-0.426-0.053-0.77-0.371-0.855-0.791l-0.352-1.712l-3.733-0.347l-1.453,7.547c-0.052,0.267-0.209,0.501-0.438,0.648
		c-0.163,0.106-0.353,0.162-0.545,0.162c-0.075,0-0.15-0.009-0.225-0.025l-1.625-0.375c-0.528-0.122-0.863-0.643-0.755-1.174
		l0.545-2.682l-9.14-1.609l-0.54,1.619c-0.159,0.478-0.65,0.767-1.145,0.664l-1.25-0.25c-0.27-0.054-0.506-0.217-0.652-0.45
		c-0.146-0.234-0.189-0.518-0.119-0.784L8.584,5.499c0.112-0.427,0.49-0.729,0.931-0.746l13.75-0.5
		c0.49-0.013,0.915,0.318,1.015,0.793l3.75,17.75C28.097,23.112,28.007,23.441,27.788,23.68z"/>
</g>
</svg>
