<?xml version="1.0" encoding="utf-8"?>
<!-- Generator: Adobe Illustrator 16.0.1, SVG Export Plug-In . SVG Version: 6.00 Build 0)  -->
<!DOCTYPE svg PUBLIC "-//W3C//DTD SVG 1.1//EN" "http://www.w3.org/Graphics/SVG/1.1/DTD/svg11.dtd">
<svg version="1.1" id="Layer_1" xmlns="http://www.w3.org/2000/svg" xmlns:xlink="http://www.w3.org/1999/xlink" x="0px" y="0px"
	 width="32px" height="32px" viewBox="0 0 32 32" enable-background="new 0 0 32 32" xml:space="preserve">
<path d="M32,6V5.37C32,2.404,29.595,0,26.629,0h-0.687H5.371C2.59,0,0.302,2.113,0.027,4.821C0.009,5.002,0,5.186,0,5.37v21.259
	c0,0.186,0.009,0.369,0.027,0.549C0.302,29.887,2.59,32,5.371,32h20.46h0.798C29.596,32,32,29.596,32,26.629V6L32,6z M11.5,27h-3v-4
	h-4v-2.5h4v-4h3v4h4V23h-4V27z M16.714,27.231c-1.47,0-2.714-0.122-4.214-0.334V24.5h4.326c4.458,0,8.194-0.655,9.258-1.54
	c0.197,0.274,0.258,0.559,0.258,0.854C26.342,25.7,22.001,27.231,16.714,27.231z M17,21.934v-2.736c4.5,0,8.106-0.653,9.172-1.537
	c0.197,0.273,0.357,0.559,0.357,0.854C26.529,20.4,22,21.934,17,21.934z M16.826,16.292c-5.287,0-9.572-1.531-9.572-3.418
	c0-0.296,0.116-0.582,0.314-0.855c1.064,0.884,4.799,1.539,9.258,1.539c4.458,0,8.194-0.655,9.258-1.539
	c0.197,0.273,0.314,0.56,0.314,0.855C26.398,14.761,22.113,16.292,16.826,16.292z M16.826,10.554c-5.287,0-9.572-1.165-9.572-2.6
	c0-1.437,4.285-2.601,9.572-2.601c5.288,0,9.573,1.165,9.573,2.601C26.398,9.389,22.113,10.554,16.826,10.554z"/>
</svg>
