<?xml version="1.0" encoding="utf-8"?>
<!-- Generator: Adobe Illustrator 16.0.1, SVG Export Plug-In . SVG Version: 6.00 Build 0)  -->
<!DOCTYPE svg PUBLIC "-//W3C//DTD SVG 1.1//EN" "http://www.w3.org/Graphics/SVG/1.1/DTD/svg11.dtd">
<svg version="1.1" id="Layer_1" xmlns="http://www.w3.org/2000/svg" xmlns:xlink="http://www.w3.org/1999/xlink" x="0px" y="0px"
	 width="32px" height="32px" viewBox="0 0 32 32" enable-background="new 0 0 32 32" xml:space="preserve">
<g>
	<polygon points="28.782,5.98 24.615,7.052 24.615,25.323 28.782,26.688 	"/>
	<path d="M26.487,0h-0.686H5.229C2.448,0,0.161,2.113-0.114,4.822c-0.018,0.18-0.028,0.363-0.028,0.549v20.029v1.23
		c0,0.186,0.01,0.368,0.028,0.549c0.275,2.708,2.562,4.82,5.343,4.82h19.16h1.087h0.213h0.799c2.966,0,5.37-2.403,5.37-5.369v-3.215
		V6.168V5.371C31.858,2.405,29.453,0,26.487,0z M8.939,4.44c1.231,0,2.227,0.997,2.227,2.227S10.17,8.894,8.939,8.894
		c-1.229,0-2.226-0.997-2.226-2.227S7.709,4.44,8.939,4.44z M14.876,28.191h-1.484l-4.454-8.968l-4.453,8.968H3.001l3.147-10.391
		v-5.938c0,0-5.378-1.618-3.989-7.006l1.274-0.422c-1.213,6.094,5.505,5.944,5.505,5.944s2.042-0.1,2.983,0.462
		c1.357,0.81,4.006,7.052,4.006,7.052l-1.062,1.025l-3.136-5.355v4.238L14.876,28.191z M29.671,27.915l-5.515-1.807h-7.194V6.263
		h7.152l5.557-1.429V27.915z"/>
</g>
<path d="M18.566,17.313c-0.474,0-0.859-0.384-0.859-0.859c0-0.478,0.386-0.864,0.859-0.864c0.477,0,0.863,0.386,0.863,0.864
	C19.43,16.93,19.043,17.313,18.566,17.313z"/>
</svg>
