<?xml version="1.0" encoding="utf-8"?>
<!-- Generator: Adobe Illustrator 16.0.1, SVG Export Plug-In . SVG Version: 6.00 Build 0)  -->
<!DOCTYPE svg PUBLIC "-//W3C//DTD SVG 1.1//EN" "http://www.w3.org/Graphics/SVG/1.1/DTD/svg11.dtd">
<svg version="1.1" id="Layer_1" xmlns="http://www.w3.org/2000/svg" xmlns:xlink="http://www.w3.org/1999/xlink" x="0px" y="0px"
	 width="32px" height="32px" viewBox="0 0 32 32" enable-background="new 0 0 32 32" xml:space="preserve">
<g>
	<polygon points="13.051,22.994 12.629,26.196 19.371,26.196 18.949,22.994 	"/>
	<path d="M26.63,0H5.371C2.404,0,0,2.404,0,5.371V26.63c0,2.966,2.404,5.371,5.371,5.371H26.63c2.965,0,5.37-2.405,5.37-5.371V5.371
		C32,2.404,29.595,0,26.63,0z M5.888,5.888c0-0.926,0.759-1.685,1.686-1.685h16.853c0.926,0,1.685,0.759,1.685,1.685V16
		c0,0.927-0.759,1.686-1.685,1.686H7.574c-0.927,0-1.686-0.759-1.686-1.686V5.888z M29.481,27.238c0,0.308-0.266,0.56-0.59,0.56
		H3.108c-0.324,0-0.59-0.252-0.59-0.56v-0.483c0-0.309,0.099-0.793,0.219-1.08l2.933-6.962c0.12-0.287,0.484-0.522,0.809-0.522
		h19.043c0.324,0,0.688,0.235,0.81,0.522l2.932,6.962c0.121,0.287,0.219,0.771,0.219,1.08V27.238z"/>
	<rect x="7.574" y="5.888" width="16.853" height="10.113"/>
</g>
</svg>
