<?xml version="1.0" encoding="utf-8"?>
<!-- Generator: Adobe Illustrator 16.0.1, SVG Export Plug-In . SVG Version: 6.00 Build 0)  -->
<!DOCTYPE svg PUBLIC "-//W3C//DTD SVG 1.1//EN" "http://www.w3.org/Graphics/SVG/1.1/DTD/svg11.dtd">
<svg version="1.1" id="Layer_1" xmlns="http://www.w3.org/2000/svg" xmlns:xlink="http://www.w3.org/1999/xlink" x="0px" y="0px"
	 width="32px" height="32px" viewBox="0 0 32 32" enable-background="new 0 0 32 32" xml:space="preserve">
<path d="M32,5.37C32,2.404,29.595,0,26.629,0H5.371C2.404,0,0,2.405,0,5.371V26.63C0,29.596,2.404,32,5.371,32l0,0h0h20.461h0.797
	C29.596,32,32,29.596,32,26.629v-0.687V5.37L32,5.37L32,5.37z M26.629,31h-1.016l-8.741-8.742c-0.236,0.081-0.472,0.136-0.677,0.136
	l-4.258-0.002c-0.522,0-1.14-0.383-1.376-0.848L7.305,15.03c-0.235-0.463-0.123-1.152,0.248-1.519l0.708-0.708
	c0.369-0.367,0.975-0.367,1.343,0l3.791,3.79c0.369,0.369,0.972,0.369,1.341,0l1.737-1.738c0.37-0.371,0.37-0.976,0-1.343
	l-3.79-3.79c-0.37-0.366-0.37-0.973,0-1.344l0.711-0.708c0.369-0.37,1.052-0.479,1.52-0.248l6.624,3.259
	c0.468,0.229,0.962,0.851,0.962,1.374v4.259c0,0.203-0.167,0.438-0.245,0.672L31,25.846v0.783C31,29.039,29.039,31,26.629,31z"/>
</svg>
