<?xml version="1.0" encoding="utf-8"?>
<!-- Generator: Adobe Illustrator 16.0.1, SVG Export Plug-In . SVG Version: 6.00 Build 0)  -->
<!DOCTYPE svg PUBLIC "-//W3C//DTD SVG 1.1//EN" "http://www.w3.org/Graphics/SVG/1.1/DTD/svg11.dtd">
<svg version="1.1" id="Layer_1" xmlns="http://www.w3.org/2000/svg" xmlns:xlink="http://www.w3.org/1999/xlink" x="0px" y="0px"
	 width="32px" height="32px" viewBox="0 0 32 32" enable-background="new 0 0 32 32" xml:space="preserve">
<g>
	<rect x="9.5" y="17.5" width="13" height="3"/>
	<rect x="9.5" y="23.5" width="13" height="3"/>
	<path d="M26.63,0H5.37C2.403,0,0,2.5,0,5.464v21.261C0,29.209,1.692,31.5,3.989,32h1.909H6.5h2.51H9.5h13h0.509H25.5h0.62h1.885
		C30.302,31.5,32,29.209,32,26.725V5.464C32,2.5,29.594,0,26.63,0z M22.5,31.5v-2h-13v2h-3v-23c0-0.552,0.448-1,1-1h1
		c0.552,0,1,0.448,1,1v6h13v-6c0-0.552,0.447-1,1-1h1c0.553,0,1,0.448,1,1v23H22.5z"/>
</g>
</svg>
