<?xml version="1.0" encoding="utf-8"?>
<!-- Generator: Adobe Illustrator 16.0.1, SVG Export Plug-In . SVG Version: 6.00 Build 0)  -->
<!DOCTYPE svg PUBLIC "-//W3C//DTD SVG 1.1//EN" "http://www.w3.org/Graphics/SVG/1.1/DTD/svg11.dtd">
<svg version="1.1" id="Layer_1" xmlns="http://www.w3.org/2000/svg" xmlns:xlink="http://www.w3.org/1999/xlink" x="0px" y="0px"
	 width="32px" height="32px" viewBox="0 0 32 32" enable-background="new 0 0 32 32" xml:space="preserve">
<path d="M26.63,0h-0.688H5.371C2.59,0,0.303,2.113,0.028,4.821C0.01,5.002,0,5.186,0,5.371v21.258c0,0.186,0.01,0.369,0.028,0.549
	C0.303,29.887,2.59,32,5.371,32h20.461h0.798c2.966,0,5.37-2.405,5.37-5.371V6.168V5.371C32,2.405,29.596,0,26.63,0z M27.042,6.972
	c-0.703,0-1.322-0.355-1.69-0.895c-0.232,0.133-0.706,0.389-1.356,0.75c0.039,0.136,0.062,0.278,0.062,0.426
	c0,0.841-0.682,1.523-1.523,1.523c-0.432,0-0.822-0.182-1.1-0.472c-0.357,0.214-0.729,0.44-1.112,0.679
	c0.022,0.092,0.036,0.188,0.036,0.287c0,0.661-0.536,1.197-1.197,1.197c-0.281,0-0.54-0.099-0.744-0.262
	c-0.385,0.256-0.772,0.521-1.162,0.792c0.01,0.056,0.016,0.114,0.016,0.171c0,0.484-0.391,0.874-0.873,0.874
	c-0.159,0-0.308-0.042-0.436-0.117c-1.468,1.087-2.909,2.272-4.157,3.515c1.494,3.628,2.06,6.671,1.943,7.502
	c-0.113,0.824-0.751,1.851-1.785,1.546c-0.324-0.095-0.239-0.38-0.032-0.479c0.129-0.061,0.449-0.27,0.515-0.767
	c0.117-0.914-0.419-3.655-1.529-6.871c-0.005,0.006-0.01-0.06-0.014-0.054C10.342,16.928,9.838,18,9.38,18h0.802
	c0.225,0,0.408,0.275,0.408,0.5c0,0.227-0.184,0.5-0.408,0.5h-1.45c-0.395,0-0.745,1-1.058,1h2.508c0.225,0,0.408,0.273,0.408,0.5
	c0,0.225-0.184,0.5-0.408,0.5H7.154c-0.332,1-0.608,1-0.833,2h3.861c0.225,0,0.408,0.275,0.408,0.5S10.407,24,10.183,24h-4.21
	c-1.673,4,0.958,5.594,1.025,5.635c0.37,0.217-0.022,0.826-0.882,0.456c-5.908-2.541-0.518-10.682,4.372-14.855
	C9.197,11.817,7.307,8.042,4.9,5.452C4.894,5.447,4.889,5.429,4.885,5.425C4.503,5.017,4.778,4.867,5.11,5.194
	c0.003,0.003,0.006,0.001,0.009,0.004c2.836,2.762,4.875,6.154,6.256,9.244c1.185-1.012,2.647-2.054,4.177-3.048
	c-0.018-0.071-0.029-0.146-0.029-0.225c0-0.482,0.393-0.874,0.874-0.874c0.215,0,0.412,0.079,0.564,0.208
	c0.378-0.235,0.759-0.465,1.134-0.689c-0.082-0.163-0.13-0.348-0.13-0.543c0-0.661,0.536-1.197,1.195-1.197
	c0.419,0,0.787,0.216,1,0.542c0.364-0.206,0.719-0.404,1.061-0.593c-0.133-0.225-0.21-0.488-0.21-0.769
	c0-0.84,0.682-1.522,1.522-1.522c0.602,0,1.121,0.349,1.368,0.856c0.664-0.345,1.139-0.583,1.342-0.685
	c-0.157-0.29-0.247-0.623-0.247-0.977c0-1.13,0.916-2.046,2.046-2.046c1.129,0,2.046,0.916,2.046,2.046S28.171,6.972,27.042,6.972z"
	/>
</svg>
