<?xml version="1.0" encoding="utf-8"?>
<!-- Generator: Adobe Illustrator 16.0.1, SVG Export Plug-In . SVG Version: 6.00 Build 0)  -->
<!DOCTYPE svg PUBLIC "-//W3C//DTD SVG 1.1//EN" "http://www.w3.org/Graphics/SVG/1.1/DTD/svg11.dtd">
<svg version="1.1" id="Layer_1" xmlns="http://www.w3.org/2000/svg" xmlns:xlink="http://www.w3.org/1999/xlink" x="0px" y="0px"
	 width="32px" height="32px" viewBox="0 0 32 32" enable-background="new 0 0 32 32" xml:space="preserve">
<g>
	<path d="M6,18h20c1.1,0,2-0.9,2-2V4c0-1.1-0.9-2-2-2H6C4.901,2,4,2.9,4,4v12C4,17.1,4.901,18,6,18z M6,4h20v12H6V4z"/>
	<path d="M31.74,27.48l-3.48-8.262c-0.143-0.34-0.575-0.619-0.96-0.619H4.7c-0.385,0-0.817,0.279-0.96,0.619L0.26,27.48
		C0.118,27.82,0,28.396,0,28.762v0.574C0,29.701,0.316,30,0.7,30h30.6c0.385,0,0.7-0.299,0.7-0.664v-0.574
		C32,28.396,31.883,27.82,31.74,27.48z M12,28.1l0.5-3.801h7L20,28.1H12z"/>
</g>
</svg>
