<?xml version="1.0" encoding="utf-8"?>
<!-- Generator: Adobe Illustrator 16.0.1, SVG Export Plug-In . SVG Version: 6.00 Build 0)  -->
<!DOCTYPE svg PUBLIC "-//W3C//DTD SVG 1.1//EN" "http://www.w3.org/Graphics/SVG/1.1/DTD/svg11.dtd">
<svg version="1.1" id="Layer_1" xmlns="http://www.w3.org/2000/svg" xmlns:xlink="http://www.w3.org/1999/xlink" x="0px" y="0px"
	 width="32px" height="32px" viewBox="0 0 32 32" enable-background="new 0 0 32 32" xml:space="preserve">
<g>
	<path d="M25.23,14.566l-4.475-3.36c-0.088-0.065-0.191-0.204-0.23-0.308l-1.656-4.417c-0.04-0.104-0.15-0.231-0.247-0.284
		l-2.944-1.607c-0.097-0.053-0.259-0.061-0.36-0.016L7.353,8.01c-0.101,0.045-0.184,0.17-0.184,0.28v6.795
		c0,0.11,0.09,0.2,0.201,0.2h1.097c0.111,0,0.209-0.09,0.22-0.2l0.561-5.597c0.011-0.109,0.109-0.2,0.22-0.2h1.938
		c0.111,0,0.182,0.088,0.159,0.196l-1.413,6.501c-0.022,0.108,0.008,0.27,0.069,0.362l0.377,0.567
		c0.061,0.093,0.085,0.252,0.055,0.358L6.693,30.996c-0.03,0.105,0.026,0.229,0.127,0.274l1.605,0.712
		c0.101,0.045,0.219,0,0.264-0.102l4.935-11.317c0.044-0.102,0.14-0.118,0.213-0.034l2.132,2.396
		c0.074,0.082,0.158,0.234,0.188,0.34l2.287,8.009c0.03,0.105,0.144,0.176,0.252,0.158l1.402-0.235
		c0.109-0.018,0.188-0.123,0.173-0.232l-1.149-9.489c-0.014-0.11-0.066-0.28-0.117-0.378l-2.81-5.337
		c-0.051-0.098-0.057-0.26-0.012-0.362l1.47-3.295c0.045-0.102,0.148-0.125,0.232-0.051l1.467,1.288
		c0.084,0.074,0.232,0.172,0.33,0.223l4.693,2.329c0.098,0.051,0.229,0.013,0.288-0.079l0.618-0.959
		C25.342,14.762,25.318,14.631,25.23,14.566z"/>
	<circle cx="18.049" cy="2.547" r="2.547"/>
</g>
</svg>
