<?xml version="1.0" encoding="utf-8"?>
<!-- Generator: Adobe Illustrator 16.0.1, SVG Export Plug-In . SVG Version: 6.00 Build 0)  -->
<!DOCTYPE svg PUBLIC "-//W3C//DTD SVG 1.1//EN" "http://www.w3.org/Graphics/SVG/1.1/DTD/svg11.dtd">
<svg version="1.1" id="Layer_1" xmlns="http://www.w3.org/2000/svg" xmlns:xlink="http://www.w3.org/1999/xlink" x="0px" y="0px"
	 width="32px" height="32px" viewBox="0 0 32 32" enable-background="new 0 0 32 32" xml:space="preserve">
<path d="M31.595,12.705l-0.747-0.537c-0.223-0.162-0.63-0.293-0.905-0.293h-0.577c-0.113-0.367-0.235-0.711-0.369-0.992
	l-2.889-6.076C25.636,3.812,24.349,3,23.249,3H8.83c-1.1,0-2.387,0.812-2.858,1.807l-2.89,6.076
	c-0.133,0.281-0.256,0.625-0.369,0.992H2.058c-0.275,0-0.683,0.131-0.905,0.293l-0.748,0.537C0.183,12.867,0,13.223,0,13.498v0.562
	c0,0.275,0.216,0.561,0.481,0.635l0.595,0.168C1.341,14.939,1.782,15,2.058,15h0.167v8c0,1.02,0.786,1.838,1.776,1.955V27.5
	C4,28.324,4.675,29,5.5,29h1C7.325,29,8,28.324,8,27.5V25h16v2.5c0,0.824,0.675,1.5,1.5,1.5h1c0.825,0,1.5-0.676,1.5-1.5v-2.529
	c1.029-0.08,1.854-0.922,1.854-1.971v-8h0.088c0.275,0,0.717-0.061,0.981-0.137l0.595-0.168C31.783,14.621,32,14.336,32,14.061
	v-0.562C32,13.223,31.817,12.867,31.595,12.705z M26,20.75c-0.967,0-1.75-0.785-1.75-1.75s0.783-1.75,1.75-1.75
	s1.75,0.785,1.75,1.75S26.967,20.75,26,20.75z M4.767,11.992c0.03-0.078,0.06-0.172,0.091-0.238l2.894-6.082
	C7.895,5.369,8.475,5,8.804,5h14.471c0.33,0,0.909,0.369,1.054,0.67l2.893,6.086c0.028,0.059,0.054,0.143,0.081,0.211
	c0.117,0.295,0.229,0.648,0.325,1.033h-0.611H4.984H4.452C4.544,12.625,4.652,12.283,4.767,11.992z M6,17.25
	c0.967,0,1.75,0.785,1.75,1.75S6.967,20.75,6,20.75S4.25,19.965,4.25,19S5.033,17.25,6,17.25z"/>
</svg>
