<?xml version="1.0" encoding="utf-8"?>
<!-- Generator: Adobe Illustrator 16.0.1, SVG Export Plug-In . SVG Version: 6.00 Build 0)  -->
<!DOCTYPE svg PUBLIC "-//W3C//DTD SVG 1.1//EN" "http://www.w3.org/Graphics/SVG/1.1/DTD/svg11.dtd">
<svg version="1.1" id="Layer_1" xmlns="http://www.w3.org/2000/svg" xmlns:xlink="http://www.w3.org/1999/xlink" x="0px" y="0px"
	 width="32px" height="32px" viewBox="0 0 32 32" enable-background="new 0 0 32 32" xml:space="preserve">
<path d="M29.759,10.348l-1.018-8.363C28.608,0.893,27.6,0,26.5,0h-21C4.4,0,3.392,0.893,3.259,1.984l-1.018,8.363
	C2.108,11.439,2,13.232,2,14.332V26c0,1.1,0.9,2,2,2v2.5C4,31.324,4.675,32,5.5,32h1C7.325,32,8,31.324,8,30.5V28h16v2.5
	c0,0.824,0.675,1.5,1.5,1.5h1c0.825,0,1.5-0.676,1.5-1.5V28c1.1,0,2-0.9,2-2V14.332C30,13.232,29.892,11.439,29.759,10.348z M6,3
	c0-0.55,0.45-1,1-1h18c0.55,0,1,0.45,1,1v0.4c0,0.551-0.45,1-1,1H7c-0.55,0-1-0.45-1-1V3z M6.146,21.75
	c-0.967,0-1.75-0.785-1.75-1.75s0.783-1.75,1.75-1.75s1.75,0.785,1.75,1.75S7.112,21.75,6.146,21.75z M26.146,21.75
	c-0.967,0-1.75-0.785-1.75-1.75s0.783-1.75,1.75-1.75s1.75,0.785,1.75,1.75S27.112,21.75,26.146,21.75z M28,16H4v-1.668
	c0-1.02,0.104-2.732,0.227-3.742L4.785,6h22.43l0.559,4.59C27.896,11.6,28,13.312,28,14.332V16z"/>
</svg>
