<?xml version="1.0" encoding="utf-8"?>
<!-- Generator: Adobe Illustrator 16.0.1, SVG Export Plug-In . SVG Version: 6.00 Build 0)  -->
<!DOCTYPE svg PUBLIC "-//W3C//DTD SVG 1.1//EN" "http://www.w3.org/Graphics/SVG/1.1/DTD/svg11.dtd">
<svg version="1.1" id="Layer_1" xmlns="http://www.w3.org/2000/svg" xmlns:xlink="http://www.w3.org/1999/xlink" x="0px" y="0px"
	 width="32px" height="32px" viewBox="0 0 32 32" enable-background="new 0 0 32 32" xml:space="preserve">
<g>
	<g>
		<path d="M18.315,18.476L11.8,14.74c-0.243-0.139-0.291-0.425-0.108-0.638l3.124-3.61l6.846,3.873
			c0.243,0.137,0.448,0.022,0.454-0.258l0.006-0.336c0.006-0.28-0.168-0.652-0.387-0.827l-5.548-4.433
			c-0.017-0.014-0.039-0.006-0.057-0.016c-0.022-0.072-0.022-0.151-0.07-0.208l-2.026-2.476c-0.177-0.216-0.448-0.203-0.603,0.03
			l-5.345,8.079c-0.155,0.235-0.223,0.646-0.151,0.918l0.433,1.637c0.072,0.272,0.345,0.572,0.608,0.668l6.251,2.301
			c0.263,0.096,0.404,0.392,0.314,0.656l-2.238,6.561c-0.09,0.265,0.008,0.632,0.218,0.816l0.318,0.282
			c0.209,0.186,0.481,0.13,0.603-0.121l4.093-8.452C18.657,18.935,18.558,18.615,18.315,18.476z"/>
		<circle cx="17.018" cy="3.678" r="3.052"/>
	</g>
	<path d="M6.573,30.909C2.949,30.909,0,27.961,0,24.337s2.948-6.572,6.572-6.572s6.573,2.948,6.573,6.572
		S10.197,30.909,6.573,30.909z M6.573,19.301c-2.777,0-5.037,2.259-5.037,5.036s2.259,5.036,5.037,5.036s5.037-2.259,5.037-5.036
		S9.35,19.301,6.573,19.301z"/>
	<path d="M25.428,30.909c-3.624,0-6.573-2.948-6.573-6.572s2.949-6.572,6.573-6.572c3.625,0,6.572,2.948,6.572,6.572
		S29.053,30.909,25.428,30.909z M25.428,19.301c-2.777,0-5.037,2.259-5.037,5.036s2.26,5.036,5.037,5.036s5.037-2.259,5.037-5.036
		S28.205,19.301,25.428,19.301z"/>
</g>
</svg>
