<?xml version="1.0" encoding="utf-8"?>
<!-- Generator: Adobe Illustrator 16.0.1, SVG Export Plug-In . SVG Version: 6.00 Build 0)  -->
<!DOCTYPE svg PUBLIC "-//W3C//DTD SVG 1.1//EN" "http://www.w3.org/Graphics/SVG/1.1/DTD/svg11.dtd">
<svg version="1.1" id="Layer_1" xmlns="http://www.w3.org/2000/svg" xmlns:xlink="http://www.w3.org/1999/xlink" x="0px" y="0px"
	 width="32px" height="32px" viewBox="0 0 32 32" enable-background="new 0 0 32 32" xml:space="preserve">
<path d="M29.961,30.782l-1.823-1.836h1.598v-1.148h-2.738l-1.792-1.805c1.135-0.345,1.973-1.392,1.973-2.635L26.716,6.31
	c0-0.175-0.018-0.346-0.05-0.513c-0.168-2.231-4.569-5.018-10.547-5.018c-5.985,0-10.391,2.793-10.548,5.026
	C5.54,5.969,5.521,6.138,5.521,6.31L5.061,23.358c0,1.243,0.837,2.289,1.973,2.635l-1.777,1.805H2.559v1.148h1.568l-1.806,1.836
	H0.147v1.439h0.757h2.579H28.77h2.62h0.758v-1.439H29.961z M6.903,11.375V8.613c0-0.507,0.415-0.921,0.922-0.921h16.588
	c0.506,0,0.921,0.414,0.921,0.921v2.762c0,0.507-0.415,0.921-0.921,0.921H7.825C7.318,12.297,6.903,11.883,6.903,11.375z
	 M18.26,17.867c0,1.166-0.946,2.111-2.113,2.111c-1.166,0-2.112-0.945-2.112-2.111c0-1.167,0.946-2.112,2.112-2.112
	C17.313,15.755,18.26,16.7,18.26,17.867z M9.509,26.123h13.218l1.66,1.675H7.854L9.509,26.123z M4.905,30.782l1.813-1.836h18.807
	l1.818,1.836H4.905z"/>
</svg>
