<?xml version="1.0" encoding="utf-8"?>
<!-- Generator: Adobe Illustrator 16.0.1, SVG Export Plug-In . SVG Version: 6.00 Build 0)  -->
<!DOCTYPE svg PUBLIC "-//W3C//DTD SVG 1.1//EN" "http://www.w3.org/Graphics/SVG/1.1/DTD/svg11.dtd">
<svg version="1.1" id="Layer_1" xmlns="http://www.w3.org/2000/svg" xmlns:xlink="http://www.w3.org/1999/xlink" x="0px" y="0px"
	 width="32px" height="32px" viewBox="0 0 32 32" enable-background="new 0 0 32 32" xml:space="preserve">
<path d="M11,6c0,2.762,2.238,5,5,5s5-2.238,5-5s-2.238-5-5-5S11,3.238,11,6z M31.562,23.751l-8-10
	c-0.396-0.493-0.976-0.75-1.562-0.75V13H10l0,0c-0.586,0-1.167,0.257-1.562,0.75l-8,10c-0.524,0.656-0.584,1.57-0.146,2.289
	c0.368,0.604,1.02,0.96,1.708,0.96c0.13,0,0.262-0.013,0.393-0.039L8,25.84v6.159h16V25.84l5.608,1.122
	c0.131,0.026,0.262,0.039,0.393,0.039c0.688,0,1.341-0.356,1.708-0.96C32.145,25.322,32.087,24.407,31.562,23.751z M22,21.359
	l-1.608-0.321c-1.083-0.218-2.137,0.485-2.353,1.569c-0.217,1.082,0.486,2.137,1.569,2.353L22,25.439V27l-6,2l-6-2v-1.561
	l2.392-0.478c1.083-0.217,1.786-1.271,1.569-2.353c-0.217-1.084-1.27-1.785-2.353-1.569L10,21.359V17l6,2l6-2V21.359z"/>
</svg>
