<?xml version="1.0" encoding="utf-8"?>
<!-- Generator: Adobe Illustrator 16.0.1, SVG Export Plug-In . SVG Version: 6.00 Build 0)  -->
<!DOCTYPE svg PUBLIC "-//W3C//DTD SVG 1.1//EN" "http://www.w3.org/Graphics/SVG/1.1/DTD/svg11.dtd">
<svg version="1.1" id="Layer_1" xmlns="http://www.w3.org/2000/svg" xmlns:xlink="http://www.w3.org/1999/xlink" x="0px" y="0px"
	 width="32px" height="32px" viewBox="0 0 32 32" enable-background="new 0 0 32 32" xml:space="preserve">
<g>
	<path d="M21.834,7.942h7.297c-0.307-0.668-0.694-1.282-1.122-1.71l-4.466-4.465c-0.427-0.428-1.041-0.816-1.709-1.123V7.942z"/>
	<path d="M21.834,10h-1.885h-0.173V0.034C19.604,0.013,19.436,0,19.276,0h-15c-1.375,0-2.5,1.125-2.5,2.5v27
		c0,1.375,1.125,2.5,2.5,2.5h23c1.375,0,2.5-1.125,2.5-2.5v-19c0-0.16-0.013-0.328-0.033-0.5H21.834z"/>
</g>
</svg>
