<?xml version="1.0" encoding="utf-8"?>
<!-- Generator: Adobe Illustrator 16.0.1, SVG Export Plug-In . SVG Version: 6.00 Build 0)  -->
<!DOCTYPE svg PUBLIC "-//W3C//DTD SVG 1.1//EN" "http://www.w3.org/Graphics/SVG/1.1/DTD/svg11.dtd">
<svg version="1.1" id="Layer_1" xmlns="http://www.w3.org/2000/svg" xmlns:xlink="http://www.w3.org/1999/xlink" x="0px" y="0px"
	 width="32px" height="32px" viewBox="0 0 32 32" enable-background="new 0 0 32 32" xml:space="preserve">
<path d="M29.496,12.125h-1.702H27.76c-1.065,0-1.998-0.9-2.071-1.938l0,0C25.688,4.658,21.229,0.5,15.661,0.5H10.58
	C5.017,0.5,0.504,4.98,0.5,10.51v10.983c0,5.53,4.517,10.007,10.081,10.007h10.852c5.568,0,10.067-4.477,10.067-10.006v-7.097
	C31.5,13.293,30.608,12.125,29.496,12.125z M10.188,8.25H16c1.065,0,1.938,0.872,1.938,1.938S17.065,12.125,16,12.125h-5.812
	c-1.066,0-1.938-0.872-1.938-1.938S9.122,8.25,10.188,8.25z M21.812,23.75H10.188c-1.066,0-1.938-0.872-1.938-1.938
	s0.872-1.938,1.938-1.938h11.625c1.065,0,1.938,0.872,1.938,1.938S22.878,23.75,21.812,23.75z"/>
</svg>
