<?xml version="1.0" encoding="utf-8"?>
<!-- Generator: Adobe Illustrator 16.0.1, SVG Export Plug-In . SVG Version: 6.00 Build 0)  -->
<!DOCTYPE svg PUBLIC "-//W3C//DTD SVG 1.1//EN" "http://www.w3.org/Graphics/SVG/1.1/DTD/svg11.dtd">
<svg version="1.1" id="Layer_1" xmlns="http://www.w3.org/2000/svg" xmlns:xlink="http://www.w3.org/1999/xlink" x="0px" y="0px"
	 width="32px" height="32px" viewBox="0 0 32 32" enable-background="new 0 0 32 32" xml:space="preserve">
<path d="M17.425,2.904c0,0-6.083,0-8.111,0c-3.637,0-7.06,2.755-7.06,5.946c0,3.261,2.479,5.893,6.18,5.893
	c0.257,0,0.507-0.005,0.751-0.022c-0.24,0.459-0.412,0.977-0.412,1.514c0,0.907,0.487,1.642,1.104,2.241
	c-0.465,0-0.915,0.014-1.407,0.014C3.967,18.49,0.5,21.358,0.5,24.334c0,2.929,3.8,4.762,8.305,4.762
	c5.135,0,7.971-2.913,7.971-5.844c0-2.349-0.693-3.756-2.836-5.271c-0.733-0.52-2.135-1.782-2.135-2.523
	c0-0.869,0.248-1.298,1.557-2.32c1.342-1.048,2.291-2.522,2.291-4.235c0-2.041-0.908-4.029-2.614-4.686h2.571L17.425,2.904z
	 M14.591,22.746c0.064,0.271,0.1,0.552,0.1,0.837c0,2.367-1.526,4.217-5.903,4.217c-3.113,0-5.361-1.971-5.361-4.338
	c0-2.32,2.789-4.252,5.902-4.218c0.727,0.008,1.404,0.125,2.018,0.323C13.038,20.743,14.25,21.408,14.591,22.746z M9.607,13.917
	c-2.09-0.063-4.075-2.338-4.437-5.083C4.81,6.09,6.21,3.99,8.3,4.051c2.09,0.063,4.075,2.265,4.437,5.009
	C13.098,11.806,11.695,13.98,9.607,13.917z M25.688,8.716V2.904H23.75v5.812h-5.812v1.938h5.812v5.812h1.938v-5.812H31.5V8.716
	H25.688z"/>
</svg>
