<?xml version="1.0" encoding="utf-8"?>
<!-- Generator: Adobe Illustrator 16.0.1, SVG Export Plug-In . SVG Version: 6.00 Build 0)  -->
<!DOCTYPE svg PUBLIC "-//W3C//DTD SVG 1.1//EN" "http://www.w3.org/Graphics/SVG/1.1/DTD/svg11.dtd">
<svg version="1.1" id="Layer_1" xmlns="http://www.w3.org/2000/svg" xmlns:xlink="http://www.w3.org/1999/xlink" x="0px" y="0px"
	 width="32px" height="32px" viewBox="0 0 32 32" enable-background="new 0 0 32 32" xml:space="preserve">
<path d="M26.666,0H5.334C2.4,0,0,2.4,0,5.334v21.332C0,29.602,2.4,32,5.334,32h21.332C29.6,32,32,29.602,32,26.666V5.334
	C32,2.4,29.6,0,26.666,0z M9.837,26.79H4.998V12.229h4.839V26.79z M7.418,10.242H7.386c-1.624,0-2.674-1.119-2.674-2.518
	c0-1.428,1.082-2.515,2.738-2.515c1.655,0,2.674,1.087,2.706,2.515C10.155,9.123,9.105,10.242,7.418,10.242z M27.288,26.79h-4.839
	V19c0-1.957-0.7-3.292-2.451-3.292c-1.337,0-2.135,0.899-2.482,1.771c-0.129,0.311-0.16,0.744-0.16,1.18v8.132h-4.839
	c0,0,0.064-13.194,0-14.56h4.839v2.062c0.644-0.992,1.793-2.405,4.362-2.405c3.185,0,5.572,2.082,5.572,6.554L27.288,26.79
	L27.288,26.79z"/>
</svg>
