<?xml version="1.0" encoding="utf-8"?>
<!-- Generator: Adobe Illustrator 16.0.1, SVG Export Plug-In . SVG Version: 6.00 Build 0)  -->
<!DOCTYPE svg PUBLIC "-//W3C//DTD SVG 1.1//EN" "http://www.w3.org/Graphics/SVG/1.1/DTD/svg11.dtd">
<svg version="1.1" id="Layer_1" xmlns="http://www.w3.org/2000/svg" xmlns:xlink="http://www.w3.org/1999/xlink" x="0px" y="0px"
	 width="32px" height="32px" viewBox="0 0 32 32" enable-background="new 0 0 32 32" xml:space="preserve">
<path d="M4.625,23.233c-2.276,0-4.125,1.857-4.125,4.119c0,2.276,1.85,4.111,4.125,4.111c2.285,0,4.131-1.835,4.131-4.111
	C8.759,25.09,6.911,23.233,4.625,23.233z M0.505,11.033v5.941c3.868,0,7.507,1.514,10.247,4.254
	c2.737,2.733,4.247,6.389,4.247,10.271h5.968C20.965,20.214,11.784,11.033,0.505,11.033z M0.512,0.5v5.944
	C14.31,6.444,25.54,17.686,25.54,31.5h5.96C31.5,14.412,17.597,0.5,0.512,0.5z"/>
</svg>
