<?xml version="1.0" encoding="utf-8"?>
<!-- Generator: Adobe Illustrator 16.0.1, SVG Export Plug-In . SVG Version: 6.00 Build 0)  -->
<!DOCTYPE svg PUBLIC "-//W3C//DTD SVG 1.1//EN" "http://www.w3.org/Graphics/SVG/1.1/DTD/svg11.dtd">
<svg version="1.1" id="Layer_1" xmlns="http://www.w3.org/2000/svg" xmlns:xlink="http://www.w3.org/1999/xlink" x="0px" y="0px"
	 width="32px" height="32px" viewBox="0 0 32 32" enable-background="new 0 0 32 32" xml:space="preserve">
<path d="M31.5,7.012c-1.14,0.505-2.366,0.848-3.653,1.001c1.313-0.787,2.322-2.033,2.798-3.519
	c-1.229,0.729-2.592,1.259-4.039,1.543c-1.16-1.235-2.813-2.007-4.643-2.007c-3.512,0-6.359,2.847-6.359,6.359
	c0,0.5,0.057,0.985,0.165,1.45C10.483,11.573,5.796,9.041,2.66,5.193C2.112,6.133,1.798,7.225,1.798,8.391
	c0,2.206,1.123,4.153,2.83,5.293c-1.042-0.033-2.022-0.318-2.88-0.795c-0.001,0.026-0.001,0.054-0.001,0.081
	c0,3.082,2.192,5.651,5.101,6.237c-0.533,0.145-1.095,0.222-1.676,0.222c-0.41,0-0.808-0.039-1.196-0.113
	c0.81,2.526,3.158,4.365,5.941,4.416c-2.176,1.706-4.918,2.723-7.898,2.723c-0.513,0-1.019-0.03-1.517-0.09
	c2.814,1.805,6.157,2.858,9.749,2.858c11.698,0,18.095-9.691,18.095-18.096c0-0.276-0.006-0.551-0.02-0.823
	C29.569,9.406,30.648,8.287,31.5,7.012z"/>
</svg>
