<?xml version="1.0" encoding="utf-8"?>
<!-- Generator: Adobe Illustrator 16.0.1, SVG Export Plug-In . SVG Version: 6.00 Build 0)  -->
<!DOCTYPE svg PUBLIC "-//W3C//DTD SVG 1.1//EN" "http://www.w3.org/Graphics/SVG/1.1/DTD/svg11.dtd">
<svg version="1.1" id="Layer_1" xmlns="http://www.w3.org/2000/svg" xmlns:xlink="http://www.w3.org/1999/xlink" x="0px" y="0px"
	 width="32px" height="32px" viewBox="0 0 32 32" enable-background="new 0 0 32 32" xml:space="preserve">
<path d="M0.5,11.875l1.259,1.651c0,0,2.597-2.046,3.462-1.022c0.865,1.022,4.169,13.379,5.273,15.659
	c0.962,1.998,3.618,4.641,6.529,2.754c2.911-1.888,12.589-10.15,14.321-19.908c1.731-9.756-11.646-7.711-13.062,0.787
	c3.541-2.126,5.431,0.864,3.619,4.25c-1.809,3.382-3.462,5.588-4.327,5.588c-0.864,0-1.529-2.264-2.519-6.219
	C14.033,11.325,14.04,3.958,9.786,4.792C5.773,5.578,0.5,11.875,0.5,11.875z"/>
</svg>
