<?xml version="1.0" encoding="utf-8"?>
<!-- Generator: Adobe Illustrator 16.0.1, SVG Export Plug-In . SVG Version: 6.00 Build 0)  -->
<!DOCTYPE svg PUBLIC "-//W3C//DTD SVG 1.1//EN" "http://www.w3.org/Graphics/SVG/1.1/DTD/svg11.dtd">
<svg version="1.1" id="Layer_1" xmlns="http://www.w3.org/2000/svg" xmlns:xlink="http://www.w3.org/1999/xlink" x="0px" y="0px"
	 width="32px" height="32px" viewBox="0 0 32 32" enable-background="new 0 0 32 32" xml:space="preserve">
<g>
	<path fill="#010101" d="M9.355,5.584h0.026l1.302-4.639h2.03l-2.407,7.279v4.723H8.431V8.224L6.023,0.945h2.108L9.355,5.584z"/>
	<path fill="#010101" d="M12.934,6.375c0.096-0.594,0.252-1.09,0.469-1.488c0.216-0.397,0.5-0.7,0.853-0.908
		c0.351-0.208,0.782-0.311,1.295-0.311c0.538-0.011,0.984,0.082,1.34,0.277c0.356,0.196,0.637,0.496,0.846,0.899
		c0.208,0.403,0.355,0.902,0.442,1.496c0.086,0.594,0.13,1.289,0.13,2.084c0,0.773-0.048,1.457-0.144,2.051
		c-0.095,0.594-0.252,1.09-0.468,1.488c-0.217,0.398-0.502,0.692-0.853,0.882c-0.352,0.191-0.783,0.286-1.295,0.286
		c-0.539,0.011-0.985-0.075-1.341-0.261c-0.356-0.185-0.638-0.476-0.846-0.874c-0.208-0.398-0.356-0.896-0.442-1.496
		c-0.087-0.6-0.13-1.292-0.13-2.076C12.791,7.652,12.839,6.969,12.934,6.375z M14.613,9.703c0.018,0.393,0.059,0.729,0.124,1.009
		c0.065,0.28,0.163,0.499,0.292,0.655c0.131,0.157,0.304,0.235,0.521,0.235c0.364,0,0.616-0.246,0.755-0.74
		c0.138-0.492,0.208-1.305,0.208-2.437s-0.07-1.944-0.208-2.438c-0.139-0.492-0.391-0.739-0.755-0.739
		c-0.218,0-0.391,0.079-0.521,0.235C14.9,5.64,14.802,5.859,14.737,6.139s-0.106,0.616-0.124,1.008
		c-0.018,0.393-0.026,0.818-0.026,1.278C14.587,8.884,14.596,9.311,14.613,9.703z"/>
	<path fill="#010101" d="M23.489,11.888c-0.19,0.448-0.438,0.768-0.741,0.958c-0.304,0.191-0.651,0.286-1.041,0.286
		c-0.572,0-1.014-0.193-1.321-0.58c-0.309-0.387-0.462-1.034-0.462-1.941V3.903h1.796v6.237c0,0.471,0.061,0.799,0.183,0.984
		c0.121,0.185,0.316,0.277,0.585,0.277c0.634,0,0.95-0.499,0.95-1.497V3.903h1.796v9.044h-1.718v-1.059H23.489z"/>
	<g>
		<path fill="#010101" d="M25.354,22.145c-0.058-0.163-0.138-0.287-0.241-0.371s-0.235-0.127-0.396-0.127s-0.293,0.048-0.396,0.142
			c-0.104,0.095-0.186,0.218-0.247,0.371c-0.061,0.153-0.104,0.323-0.132,0.512s-0.04,0.376-0.04,0.564v0.312h1.619
			c-0.007-0.307-0.022-0.576-0.045-0.809C25.451,22.506,25.411,22.308,25.354,22.145z"/>
		<path fill="#010101" d="M18.764,21.825c-0.353,0-0.58,0.22-0.684,0.66s-0.155,1.096-0.155,1.967c0,0.87,0.052,1.526,0.155,1.967
			c0.104,0.439,0.331,0.659,0.684,0.659c0.345,0,0.568-0.22,0.672-0.659c0.104-0.44,0.155-1.097,0.155-1.967
			c0-0.871-0.052-1.526-0.155-1.967S19.108,21.825,18.764,21.825z"/>
		<path fill="#010101" d="M26.885,15.749H5.391c-2.901,0-5.253,2.352-5.253,5.253v5.429c0,2.9,2.352,5.253,5.253,5.253h21.494
			c2.901,0,5.254-2.353,5.254-5.253v-5.429C32.139,18.101,29.786,15.749,26.885,15.749z M9.858,19.6H8.066v8.845H6.411V19.6H4.619
			v-1.752h5.239V19.6z M14.822,28.444h-1.516v-0.936h-0.023c-0.169,0.396-0.387,0.679-0.655,0.846
			c-0.268,0.168-0.574,0.252-0.919,0.252c-0.506,0-0.895-0.171-1.167-0.511c-0.272-0.342-0.408-0.913-0.408-1.715v-5.922h1.585
			v5.507c0,0.415,0.054,0.704,0.161,0.868c0.106,0.163,0.279,0.244,0.517,0.244c0.559,0,0.839-0.439,0.839-1.32v-5.299h1.585V28.444
			z M20.718,27.643c-0.307,0.643-0.786,0.964-1.437,0.964c-0.322,0-0.592-0.073-0.811-0.223c-0.218-0.147-0.415-0.41-0.591-0.786
			h-0.023v0.847h-1.517V17.848h1.585v3.354h0.023c0.168-0.315,0.357-0.554,0.569-0.711c0.21-0.158,0.464-0.238,0.764-0.238
			c0.65,0,1.13,0.33,1.437,0.987c0.306,0.657,0.459,1.729,0.459,3.213C21.177,25.936,21.023,27,20.718,27.643z M27.037,24.764H23.9
			v0.638c0,0.237,0.013,0.468,0.04,0.69s0.071,0.421,0.132,0.594c0.062,0.173,0.142,0.312,0.241,0.415s0.223,0.156,0.368,0.156
			c0.268,0,0.463-0.124,0.586-0.371c0.122-0.247,0.207-0.623,0.252-1.128h1.425c-0.03,0.93-0.222,1.638-0.574,2.122
			c-0.352,0.485-0.907,0.727-1.665,0.727c-0.575,0-1.023-0.123-1.346-0.37c-0.321-0.247-0.559-0.574-0.712-0.979
			s-0.247-0.861-0.281-1.365c-0.035-0.505-0.052-1.009-0.052-1.514c0-0.534,0.028-1.049,0.086-1.544
			c0.058-0.494,0.173-0.935,0.345-1.32c0.173-0.386,0.419-0.692,0.741-0.921c0.321-0.228,0.751-0.341,1.287-0.341
			c0.459,0,0.836,0.097,1.132,0.29c0.295,0.192,0.526,0.465,0.695,0.815c0.168,0.352,0.283,0.776,0.344,1.276
			c0.062,0.5,0.093,1.057,0.093,1.67V24.764z"/>
	</g>
</g>
</svg>
