<svg xmlns="http://www.w3.org/2000/svg" xmlns:xlink="http://www.w3.org/1999/xlink" viewBox="0 0 586.8 181.4" enable-background="new 0 0 586.8 181.4">
  <defs>
    <circle id="a" r="7.5" fill="#6DAB49"/>
    <circle id="b" r="7.5" fill="#DA0F21"/>
  </defs>
  <use xlink:href="#a" transform="translate(466.85 28.088)"/>
  <use xlink:href="#a" transform="translate(466.85 48.687)"/>
  <use xlink:href="#a" transform="translate(466.85 69.186)"/>
  <use xlink:href="#a" transform="translate(466.85 89.738)"/>
  <use xlink:href="#a" transform="translate(466.85 130.86)"/>
  <use xlink:href="#a" transform="translate(466.85 151.486)"/>
  <use xlink:href="#a" transform="translate(430.2 48.65)"/>
  <use xlink:href="#a" transform="translate(430.2 69.25)"/>
  <use xlink:href="#a" transform="translate(430.2 89.75)"/>
  <use xlink:href="#a" transform="translate(430.2 110.3)"/>
  <use xlink:href="#a" transform="translate(430.2 130.8)"/>
  <use xlink:href="#a" transform="translate(448.5 38.377)"/>
  <use xlink:href="#a" transform="translate(448.5 58.976)"/>
  <use xlink:href="#a" transform="translate(448.5 79.475)"/>
  <use xlink:href="#a" transform="translate(448.5 100.026)"/>
  <use xlink:href="#a" transform="translate(448.5 120.525)"/>
  <use xlink:href="#a" transform="translate(448.5 141.15)"/>
  <use xlink:href="#a" transform="translate(576.7 48.65)"/>
  <use xlink:href="#a" transform="translate(576.7 69.25)"/>
  <use xlink:href="#a" transform="translate(576.7 89.75)"/>
  <use xlink:href="#a" transform="translate(576.7 110.3)"/>
  <use xlink:href="#a" transform="translate(576.7 130.8)"/>
  <use xlink:href="#a" transform="translate(558.25 38.377)"/>
  <use xlink:href="#a" transform="translate(558.25 58.976)"/>
  <use xlink:href="#a" transform="translate(558.25 79.475)"/>
  <use xlink:href="#a" transform="translate(558.25 100.026)"/>
  <use xlink:href="#a" transform="translate(558.25 120.525)"/>
  <use xlink:href="#a" transform="translate(558.25 141.15)"/>
  <use xlink:href="#a" transform="translate(539.95 28.088)"/>
  <use xlink:href="#a" transform="translate(539.95 48.687)"/>
  <use xlink:href="#a" transform="translate(539.95 69.186)"/>
  <use xlink:href="#a" transform="translate(539.95 89.738)"/>
  <use xlink:href="#a" transform="translate(539.95 110.237)"/>
  <use xlink:href="#a" transform="translate(539.95 130.86)"/>
  <use xlink:href="#a" transform="translate(539.95 151.486)"/>
  <use xlink:href="#b" transform="translate(466.8 110.3)"/>
  <use xlink:href="#a" transform="translate(521.8 17.75)"/>
  <use xlink:href="#a" transform="translate(521.8 38.35)"/>
  <use xlink:href="#a" transform="translate(521.8 58.85)"/>
  <use xlink:href="#a" transform="translate(521.8 79.4)"/>
  <use xlink:href="#a" transform="translate(521.8 99.9)"/>
  <use xlink:href="#a" transform="translate(521.8 120.524)"/>
  <use xlink:href="#a" transform="translate(521.8 141.15)"/>
  <use xlink:href="#a" transform="translate(521.8 161.65)"/>
  <use xlink:href="#a" transform="translate(503.5 7.525)"/>
  <use xlink:href="#a" transform="translate(503.5 28.124)"/>
  <use xlink:href="#a" transform="translate(503.5 48.623)"/>
  <use xlink:href="#a" transform="translate(503.5 69.175)"/>
  <use xlink:href="#a" transform="translate(503.5 89.674)"/>
  <use xlink:href="#a" transform="translate(503.5 110.298)"/>
  <use xlink:href="#a" transform="translate(503.5 130.923)"/>
  <use xlink:href="#a" transform="translate(503.5 151.424)"/>
  <use xlink:href="#a" transform="translate(485.174 17.724)"/>
  <use xlink:href="#a" transform="translate(485.174 38.323)"/>
  <use xlink:href="#a" transform="translate(485.174 58.822)"/>
  <use xlink:href="#a" transform="translate(485.174 79.374)"/>
  <use xlink:href="#a" transform="translate(485.174 99.873)"/>
  <use xlink:href="#a" transform="translate(485.174 120.497)"/>
  <use xlink:href="#a" transform="translate(485.174 141.122)"/>
  <use xlink:href="#a" transform="translate(485.174 161.623)"/>
  <use xlink:href="#a" transform="translate(503.5 171.9)"/>
  <path d="M3.4 58.8h44.8v7.6H11.5v18.8h33.9v7.1H11.5v20.9h37.3v7.4H3.4V58.8zm52.9 0h12L86.1 111l17.6-52.2h11.9v61.8h-8V84.1c0-1.3 0-3.3.1-6.3.1-2.9.1-6 .1-9.4l-17.6 52.1h-8.3L64.1 68.4v1.9c0 1.5 0 3.8.1 6.9.1 3.1.1 5.4.1 6.8v36.5h-8V58.8zm75.2 0h26.7c7.3 0 12.5 2.2 15.5 6.5 1.8 2.6 2.7 5.5 2.7 8.8 0 3.9-1.1 7.1-3.3 9.6-1.1 1.3-2.8 2.5-5 3.6 3.2 1.2 5.5 2.6 7.1 4.1 2.8 2.7 4.2 6.4 4.2 11.1 0 4-1.3 7.6-3.8 10.8-3.8 4.8-9.7 7.2-17.9 7.2h-26.3V58.8zm23.6 26.1c3.6 0 6.3-.5 8.3-1.5 3.1-1.5 4.7-4.3 4.7-8.3 0-4-1.7-6.8-5-8.2-1.9-.8-4.6-1.2-8.3-1.2h-15.1v19.1h15.4zm2.8 28.5c5.2 0 8.9-1.5 11.1-4.5 1.4-1.9 2.1-4.1 2.1-6.8 0-4.5-2-7.5-6.1-9.2-2.2-.9-5-1.3-8.5-1.3h-16.8v21.7h18.2zm31.3-54.6h8.4v54.4h31v7.4h-39.4V58.8zm46.4 26.8h24.6V92h-24.6v-6.4zm35.9-26.8h44.8v7.6h-36.7v18.8h33.9v7.1h-33.9v20.9H317v7.4h-45.5V58.8zm53 0h26.7c7.3 0 12.5 2.2 15.5 6.5 1.8 2.6 2.7 5.5 2.7 8.8 0 3.9-1.1 7.1-3.3 9.6-1.1 1.3-2.8 2.5-5 3.6 3.2 1.2 5.5 2.6 7.1 4.1 2.8 2.7 4.2 6.4 4.2 11.1 0 4-1.3 7.6-3.8 10.8-3.8 4.8-9.7 7.2-17.9 7.2h-26.3V58.8zm23.6 26.1c3.6 0 6.3-.5 8.3-1.5 3.1-1.5 4.7-4.3 4.7-8.3 0-4-1.7-6.8-5-8.2-1.9-.8-4.6-1.2-8.3-1.2h-15.1v19.1h15.4zm2.8 28.5c5.2 0 8.9-1.5 11.1-4.5 1.4-1.9 2.1-4.1 2.1-6.8 0-4.5-2-7.5-6.1-9.2-2.2-.9-5-1.3-8.5-1.3h-16.8v21.7h18.2zm29.7-54.6h8.5v61.8h-8.5V58.8z"/>
</svg>
