<svg id="Layer_1" xmlns="http://www.w3.org/2000/svg" viewBox="0 0 586.8 181.4"><style>.st0{fill:#FFFFFF;} .st1{fill:#DA0F21;} .st2{fill:#6DAB49;}</style><path class="st0" d="M86.3 110.7c1.4-3.7 2.7-7.1 3.9-10.5 5-13.4 10.1-26.8 15.1-40.2.3-.8.7-1.2 1.6-1.1 3 .1 6 .1 9 0 .8 0 1 .3 1 1v59.5c0 .7-.1 1.1-1 1-1.9-.1-3.8-.1-5.6 0-.9 0-1.1-.2-1.1-1.1v-18.1-30.6-1.2c-.5.3-.6.8-.7 1.2-6.1 16.2-12.2 32.4-18.2 48.6-.4.9-.8 1.3-1.8 1.2-1.4-.1-2.9-.1-4.3 0-1 .1-1.4-.3-1.8-1.2-4.6-12.2-9.2-24.5-13.8-36.7-1.6-4.4-3.3-8.7-5-13.2-.4.5-.2.9-.2 1.3v48.2c0 1.8.2 1.6-1.6 1.6h-5.3c-.6 0-.9-.2-.8-.8v-.7-58.6c0-1.1.2-1.5 1.4-1.5 2.8.1 5.7.1 8.5 0 .9 0 1.4.3 1.7 1.2 6 16.1 12.1 32.3 18.1 48.4.3.7.5 1.3.9 2.3zM360.5 87.9c1.1.4 2.1.6 2.9 1 5.8 2.3 9.1 7.6 8.9 14.3-.3 9.3-6.8 16.2-16 17.1-1.1.1-2.2.2-3.3.2h-27.7c-1 0-1.4-.2-1.4-1.3v-59c0-.7-.1-1.3 1-1.3 9.4.1 18.8-.2 28.2.2 3.5.1 7.1.4 10.1 2.5 4.9 3.4 7 8.1 6.5 13.9-.5 5.5-3.2 9.5-8.3 11.9-.2.1-.4.2-.9.5zm-17 25.7c0-.1 0-.1 0 0h9.9c5.7-.1 9.6-3.5 10.5-8.9.8-4.8-1-8.8-4.9-10.8-1.8-.9-3.8-1.4-5.8-1.5-6.8-.3-13.7-.1-20.5-.2-.9 0-.9.4-.8 1.1v19.2c0 1 .3 1.1 1.2 1.1 3.5-.1 7 0 10.4 0zm-.8-47.8h-9.6c-.9 0-1.1.3-1.1 1.1v17.4c0 .9.3 1.1 1.2 1.1h15.7c2.3 0 4.5-.2 6.7-1 3.2-1.1 5.3-3.3 5.8-6.7.1-.9.1-1.8.1-2.7-.1-5.1-2.5-7.9-7.5-8.8-4-.7-7.9-.3-11.3-.4zM167.3 87.9c1.7.4 3.1.9 4.4 1.6 4.8 2.7 7.1 6.9 7.3 12.3.3 10.7-7.3 18.5-18.2 18.6h-29c-.9 0-1.2-.2-1.2-1.1V60c0-.9.2-1.2 1.1-1.2 9.3.1 18.6-.1 28 .2 2 .1 4 .3 5.9.7 5.8 1.3 10.3 6.6 10.8 12.6.6 7.3-2.8 12.7-8.6 15.2-.1.1-.2.2-.5.4zm-17 25.7c0-.1 0-.1 0 0h9.8c5.9-.1 9.9-3.6 10.7-9.3.8-5.8-2-10-7.7-11.4-1.3-.3-2.6-.5-3.9-.5-6.5 0-12.9 0-19.4-.1-.8 0-1 .3-1 1.1v19.2c0 .8.2 1.1 1.1 1.1 3.4-.2 6.9-.1 10.4-.1zm-.7-47.8H140c-.9 0-1.2.2-1.2 1.2v17.3c0 1 .3 1.2 1.2 1.2h15.7c2.2 0 4.5-.2 6.6-.9 3.3-1.1 5.4-3.3 5.9-6.9.1-.9.1-1.9.1-2.9-.2-4.9-2.6-7.6-7.5-8.5-3.9-.8-7.9-.4-11.2-.5zM271.2 89.7V60.2c0-1 .2-1.3 1.3-1.3h40c1 0 1.4.2 1.3 1.2-.1 1.5-.1 3 0 4.6.1.9-.3 1.1-1.2 1.1h-31.8c-1.2 0-1.5.3-1.4 1.4.1 5.7.1 11.4 0 17 0 .9.2 1.2 1.2 1.2h29.5c1.1 0 1.4.3 1.3 1.3-.1 1.5-.1 3 0 4.4.1.9-.3 1.1-1.2 1.1h-29.3c-1.8 0-1.6-.2-1.6 1.5v18.6c0 1 .3 1.2 1.3 1.2h32c1 0 1.4.2 1.3 1.3-.1 1.5-.1 3 0 4.6 0 .8-.2 1.1-1.1 1.1h-40.3c-1.2 0-1.4-.3-1.4-1.5.1-9.7.1-19.5.1-29.3zM2.9 89.6V60.2c0-1.1.3-1.3 1.3-1.3h40c1 0 1.3.2 1.3 1.3-.1 1.5-.1 3 0 4.4 0 .9-.2 1.2-1.2 1.2H12.2c-.9 0-1.2.2-1.2 1.1 0 5.8.1 11.6 0 17.4 0 1 .4 1.2 1.2 1.2h29.4c1.1 0 1.5.3 1.4 1.4-.1 1.4-.1 2.9 0 4.3.1 1-.3 1.2-1.2 1.2h-30c-.6 0-.8.2-.8.8V113c0 1.1.7.8 1.2.8h31.7c2 0 1.7-.3 1.7 1.7 0 1.3-.1 2.6 0 4 .1 1-.3 1.2-1.3 1.2H5.8c-3 0-3 0-3-3 .1-9.5.1-18.8.1-28.1zM189.7 89.7V60.2c0-1 .3-1.3 1.3-1.3 1.9.1 3.8.1 5.8 0 .9 0 1.1.3 1.1 1.1v52.1c0 1.1.2 1.5 1.4 1.5 10-.1 20 0 30-.1 1 0 1.3.3 1.3 1.3-.1 1.5-.1 3 0 4.4.1 1-.3 1.3-1.3 1.3h-36.5c-1 0-2.2.4-2.8-.2-.7-.6-.2-1.9-.2-2.9-.1-9.2-.1-18.5-.1-27.7zM391.5 89.8v29.4c0 1.1-.2 1.4-1.3 1.3-2-.1-3.9-.1-5.9 0-.8 0-1-.2-1-1v-8.2-51c0-1.1.3-1.5 1.4-1.5 1.8.1 3.7.1 5.5 0 1 0 1.3.2 1.3 1.3-.1 9.9 0 19.8 0 29.7zM247.8 85.4H259c.9 0 1.3.2 1.2 1.2-.1 1.6 0 3.3 0 4.9 0 .6-.2.8-.8.8h-23.3c-.7 0-.9-.3-.8-.9v-5c0-.7.2-.9.9-.9 3.8-.1 7.7-.1 11.6-.1z"/><path class="st1" d="M466.8 102.6c4.3 0 7.7 3.4 7.7 7.7 0 4.3-3.4 7.7-7.7 7.7-4.2 0-7.6-3.4-7.7-7.6 0-4.2 3.5-7.7 7.7-7.8z"/><path class="st2" d="M558.3 87.1c-4.2 0-7.7-3.4-7.7-7.6s3.5-7.8 7.7-7.7c4.2 0 7.6 3.4 7.6 7.6 0 4.3-3.4 7.7-7.6 7.7zM558.3 92.4c4.2 0 7.6 3.4 7.7 7.6 0 4.3-3.4 7.7-7.7 7.7-4.2 0-7.6-3.5-7.6-7.7-.1-4.1 3.4-7.6 7.6-7.6zM448.6 87.1c-4.2 0-7.7-3.5-7.7-7.6 0-4.2 3.5-7.7 7.6-7.7 4.2 0 7.7 3.5 7.7 7.7s-3.4 7.6-7.6 7.6zM456.3 100c0 4.2-3.5 7.7-7.7 7.7-4.1 0-7.6-3.6-7.6-7.7 0-4.2 3.5-7.6 7.7-7.6 4.1 0 7.6 3.4 7.6 7.6zM584.2 89.8c0 4.2-3.4 7.6-7.6 7.7-4.2 0-7.7-3.5-7.7-7.7.1-4.2 3.5-7.6 7.7-7.6 4.2-.1 7.6 3.3 7.6 7.6zM521.7 87.1c-4.2 0-7.6-3.5-7.6-7.7s3.5-7.6 7.7-7.6c4.1 0 7.7 3.5 7.7 7.6-.1 4.3-3.6 7.8-7.8 7.7zM521.7 92.4c4.2 0 7.7 3.5 7.7 7.7 0 4.1-3.5 7.6-7.7 7.6s-7.6-3.5-7.6-7.6c0-4.3 3.4-7.7 7.6-7.7zM456.3 38.4c0 4.2-3.4 7.6-7.6 7.7-4.2 0-7.7-3.4-7.7-7.6s3.5-7.7 7.7-7.7c4.1 0 7.6 3.4 7.6 7.6zM456.3 141.1c0 4.2-3.4 7.6-7.6 7.7-4.2 0-7.7-3.5-7.7-7.7 0-4.1 3.5-7.6 7.7-7.6 4.1 0 7.6 3.4 7.6 7.6zM438 110.3c0 4.2-3.5 7.7-7.6 7.7-4.2 0-7.7-3.5-7.7-7.7s3.5-7.6 7.7-7.6 7.6 3.4 7.6 7.6zM540 143.8c4.2 0 7.6 3.4 7.6 7.6 0 4.2-3.4 7.7-7.6 7.7-4.2 0-7.7-3.5-7.7-7.7.1-4.3 3.5-7.6 7.7-7.6zM540 35.8c-4.2 0-7.6-3.4-7.6-7.6 0-4.1 3.4-7.6 7.6-7.7 4.2 0 7.7 3.5 7.7 7.7s-3.5 7.6-7.7 7.6zM430.3 76.8c-4.2 0-7.6-3.4-7.6-7.6s3.5-7.7 7.6-7.7c4.3 0 7.7 3.5 7.7 7.7 0 4.3-3.5 7.7-7.7 7.6zM495.8 89.7c0-4.2 3.4-7.6 7.6-7.6 4.1 0 7.6 3.5 7.7 7.6 0 4.2-3.5 7.7-7.6 7.7-4.3 0-7.7-3.4-7.7-7.7zM521.7 46.1c-4.2 0-7.6-3.5-7.6-7.7s3.5-7.6 7.6-7.6c4.2 0 7.6 3.5 7.7 7.6 0 4.2-3.5 7.7-7.7 7.7zM565.9 38.4c0 4.2-3.4 7.6-7.6 7.6-4.2 0-7.7-3.5-7.7-7.7s3.6-7.6 7.7-7.6c4.2.1 7.6 3.5 7.6 7.7zM514.1 141.1c0-4.2 3.5-7.6 7.7-7.6s7.6 3.5 7.7 7.6c0 4.2-3.5 7.7-7.7 7.7-4.3-.1-7.7-3.5-7.7-7.7zM565.9 141.1c0 4.3-3.4 7.7-7.7 7.7-4.2 0-7.6-3.5-7.6-7.7s3.5-7.6 7.6-7.6c4.3 0 7.7 3.4 7.7 7.6zM539.9 76.8c-4.2 0-7.6-3.5-7.5-7.7s3.5-7.6 7.7-7.5c4.3 0 7.6 3.5 7.6 7.8-.1 4.1-3.6 7.5-7.8 7.4zM430.4 41c4.2 0 7.6 3.5 7.6 7.7s-3.5 7.7-7.7 7.6c-4.2 0-7.7-3.5-7.7-7.8.1-4.1 3.6-7.5 7.8-7.5zM430.3 138.5c-4.2 0-7.6-3.4-7.6-7.6 0-4.2 3.5-7.7 7.7-7.7 4.1 0 7.6 3.5 7.6 7.7s-3.5 7.6-7.7 7.6zM492.8 141.1c0 4.2-3.3 7.7-7.5 7.7s-7.7-3.4-7.7-7.5c0-4.3 3.3-7.8 7.6-7.8 4.2 0 7.6 3.4 7.6 7.6zM539.9 138.5c-4.2 0-7.6-3.5-7.6-7.7 0-4.1 3.6-7.7 7.7-7.6 4.3.1 7.7 3.5 7.6 7.8 0 4.1-3.5 7.5-7.7 7.5zM492.8 38.4c0 4.2-3.4 7.6-7.6 7.6s-7.6-3.5-7.6-7.7 3.5-7.6 7.7-7.6c4.1.1 7.5 3.5 7.5 7.7zM474.5 151.3c0 4.3-3.4 7.8-7.7 7.7-4.1 0-7.7-3.6-7.6-7.7 0-4.2 3.5-7.6 7.7-7.6 4.2.1 7.6 3.4 7.6 7.6zM474.5 28.2c0 4.2-3.4 7.6-7.6 7.6s-7.6-3.4-7.7-7.6c0-4.1 3.6-7.7 7.7-7.7 4.2 0 7.6 3.4 7.6 7.7zM495.8 48.6c0-4.2 3.4-7.6 7.6-7.6s7.6 3.5 7.7 7.6c0 4.2-3.6 7.7-7.7 7.7-4.2 0-7.6-3.5-7.6-7.7zM503.5 76.8c-4.2 0-7.6-3.3-7.7-7.6 0-4.2 3.4-7.7 7.5-7.7 4.3 0 7.8 3.4 7.8 7.7 0 4.2-3.4 7.6-7.6 7.6zM540.1 41c4.2 0 7.6 3.5 7.6 7.7s-3.6 7.7-7.8 7.6c-4.1-.1-7.6-3.6-7.5-7.8 0-4.1 3.5-7.5 7.7-7.5zM540.1 117.9c-4.2 0-7.7-3.3-7.7-7.5s3.4-7.7 7.7-7.7c4.2 0 7.6 3.4 7.6 7.6 0 4.2-3.4 7.6-7.6 7.6zM503.5 179.5c-4.3 0-7.7-3.3-7.7-7.6 0-4.2 3.5-7.6 7.6-7.6 4.2 0 7.7 3.5 7.7 7.6 0 4.2-3.4 7.6-7.6 7.6zM495.8 110.3c0-4.2 3.4-7.6 7.6-7.6 4.3 0 7.8 3.4 7.7 7.7 0 4.2-3.5 7.6-7.7 7.6-4.1 0-7.6-3.5-7.6-7.7zM495.8 151.3c0-4.3 3.5-7.6 7.8-7.5 4.1.1 7.5 3.5 7.5 7.7 0 4.1-3.6 7.6-7.7 7.6-4.2 0-7.6-3.5-7.6-7.8zM565.9 120.6c0 4.2-3.5 7.6-7.7 7.6s-7.6-3.4-7.6-7.6 3.6-7.7 7.8-7.6c4.2 0 7.5 3.4 7.5 7.6zM474.5 130.9c0 4.2-3.5 7.6-7.7 7.6s-7.6-3.5-7.6-7.7 3.6-7.7 7.8-7.7c4.2.2 7.5 3.6 7.5 7.8zM495.8 130.8c0-4.2 3.5-7.6 7.7-7.6 4.2.1 7.7 3.6 7.6 7.7 0 4.2-3.6 7.7-7.8 7.6-4.1-.1-7.5-3.5-7.5-7.7zM558.3 51.3c4.2 0 7.6 3.4 7.6 7.6s-3.4 7.7-7.6 7.7c-4.2 0-7.8-3.5-7.7-7.7.1-4.2 3.5-7.6 7.7-7.6zM503.4 35.8c-4.2 0-7.6-3.4-7.6-7.6s3.4-7.6 7.6-7.7c4.1 0 7.7 3.5 7.7 7.6.1 4.2-3.4 7.7-7.7 7.7zM474.5 89.7c0 4.2-3.4 7.7-7.6 7.7s-7.8-3.5-7.8-7.7 3.5-7.6 7.7-7.6c4.3 0 7.7 3.4 7.7 7.6zM474.5 48.7c0 4.2-3.4 7.7-7.6 7.7s-7.8-3.6-7.7-7.7c.1-4.2 3.5-7.6 7.7-7.6s7.6 3.4 7.6 7.6zM584.2 69.2c0 4.2-3.4 7.6-7.6 7.6-4.3 0-7.7-3.5-7.7-7.7s3.6-7.6 7.7-7.6c4.2.1 7.6 3.5 7.6 7.7zM503.5 0c4.2 0 7.6 3.4 7.6 7.6s-3.5 7.7-7.7 7.7-7.6-3.5-7.5-7.7c-.1-4.3 3.3-7.6 7.6-7.6zM514.1 59c0-4.2 3.4-7.6 7.6-7.6 4.3 0 7.7 3.4 7.7 7.7 0 4.1-3.5 7.6-7.7 7.6-4.1-.1-7.6-3.6-7.6-7.7zM448.7 51.3c4.2 0 7.6 3.5 7.6 7.6 0 4.2-3.5 7.7-7.6 7.6-4.2 0-7.7-3.6-7.7-7.7s3.4-7.5 7.7-7.5zM448.6 128.2c-4.2 0-7.7-3.4-7.6-7.6 0-4.2 3.6-7.7 7.8-7.7 4.2 0 7.6 3.5 7.6 7.7-.2 4.2-3.6 7.6-7.8 7.6zM521.7 128.2c-4.2 0-7.6-3.4-7.6-7.6s3.5-7.7 7.6-7.7c4.2 0 7.7 3.4 7.7 7.6s-3.4 7.7-7.7 7.7zM477.6 59c0-4.3 3.3-7.6 7.6-7.6s7.7 3.4 7.6 7.7c0 4.2-3.5 7.6-7.6 7.6-4.3-.1-7.6-3.5-7.6-7.7zM584.2 48.6c0 4.2-3.3 7.7-7.5 7.7-4.1.1-7.7-3.4-7.7-7.6-.1-4.2 3.4-7.7 7.6-7.7 4.2 0 7.6 3.4 7.6 7.6zM466.8 76.8c-4.2 0-7.7-3.5-7.6-7.7s3.5-7.6 7.7-7.6 7.7 3.5 7.6 7.8c0 4.2-3.4 7.6-7.7 7.5zM584.2 130.9c0 4.2-3.4 7.6-7.6 7.6-4.2 0-7.7-3.5-7.7-7.7.1-4.2 3.6-7.6 7.7-7.6 4.3 0 7.6 3.4 7.6 7.7zM438 89.9c0 4.2-3.6 7.6-7.7 7.6-4.2 0-7.6-3.5-7.6-7.7s3.6-7.7 7.8-7.6c4.1 0 7.5 3.5 7.5 7.7zM540 97.4c-4.2 0-7.6-3.5-7.6-7.7s3.5-7.7 7.8-7.6c4.2.1 7.6 3.5 7.6 7.7-.2 4.2-3.7 7.6-7.8 7.6zM477.6 120.6c0-4.2 3.4-7.6 7.6-7.6s7.6 3.4 7.6 7.6c0 4.3-3.4 7.7-7.7 7.7-4.2-.1-7.5-3.5-7.5-7.7zM521.8 25.5c-4.2 0-7.7-3.4-7.7-7.5 0-4.3 3.4-7.7 7.7-7.7 4.2 0 7.6 3.5 7.6 7.6 0 4.2-3.4 7.6-7.6 7.6zM521.8 169.3c-4.2 0-7.6-3.4-7.7-7.6 0-4.3 3.4-7.7 7.7-7.7 4.2 0 7.6 3.4 7.6 7.6 0 4.2-3.5 7.7-7.6 7.7zM492.8 79.5c0 4.2-3.4 7.6-7.6 7.6-4.3 0-7.7-3.4-7.7-7.7 0-4.2 3.4-7.6 7.6-7.6 4.3 0 7.7 3.5 7.7 7.7zM492.8 100c0 4.2-3.4 7.6-7.6 7.7-4.2 0-7.6-3.4-7.7-7.6 0-4.3 3.4-7.7 7.6-7.7 4.3 0 7.7 3.4 7.7 7.6zM584.2 110.3c0 4.2-3.4 7.7-7.6 7.7-4.2 0-7.7-3.5-7.7-7.6 0-4.2 3.4-7.6 7.6-7.6 4.3-.1 7.7 3.2 7.7 7.5zM477.6 161.6c0-4.2 3.4-7.6 7.6-7.6 4.3 0 7.6 3.3 7.6 7.6s-3.4 7.7-7.7 7.7c-4.2 0-7.5-3.4-7.5-7.7zM492.8 17.9c0 4.3-3.3 7.6-7.6 7.6s-7.6-3.3-7.7-7.5c0-4.3 3.4-7.7 7.6-7.7 4.3-.1 7.7 3.3 7.7 7.6z"/></svg>