<?xml version="1.0" encoding="utf-8"?>
<!-- Generator: Adobe Illustrator 16.0.1, SVG Export Plug-In . SVG Version: 6.00 Build 0)  -->
<!DOCTYPE svg PUBLIC "-//W3C//DTD SVG 1.1//EN" "http://www.w3.org/Graphics/SVG/1.1/DTD/svg11.dtd">
<svg version="1.1" id="Layer_1" xmlns="http://www.w3.org/2000/svg" xmlns:xlink="http://www.w3.org/1999/xlink" x="0px" y="0px"
	 width="64px" height="64px" viewBox="0 0 64 64" enable-background="new 0 0 64 64" xml:space="preserve">
<path d="M56.085,12.385l-8.874-8.873C45.282,1.58,41.464,0,38.731,0H8.923C6.191,0,3.956,2.235,3.956,4.968v53.655
	c0,2.732,2.235,4.969,4.968,4.969h45.706c2.733,0,4.969-2.236,4.969-4.969V20.866C59.598,18.133,58.016,14.316,56.085,12.385z
	 M53.275,15.195c0.193,0.195,0.385,0.433,0.575,0.703H43.699V5.748c0.27,0.188,0.509,0.38,0.703,0.575L53.275,15.195z
	 M55.623,58.623c0,0.539-0.455,0.994-0.994,0.994H8.923c-0.539,0-0.993-0.455-0.993-0.994V4.968c0-0.54,0.454-0.994,0.993-0.994
	h29.808c0.301,0,0.637,0.039,0.993,0.104v15.793h15.794c0.067,0.357,0.104,0.695,0.104,0.994V58.623z"/>
<g>
	<path d="M20.459,26.239v10.71h-2.355v-10.71H20.459z"/>
	<path d="M25.844,26.239l2.505,7.365h0.03l2.37-7.365h3.314v10.71h-2.204v-7.59h-0.03l-2.625,7.59h-1.815l-2.625-7.515h-0.03v7.515
		h-2.205v-10.71H25.844z"/>
	<path d="M42.479,36.867c-0.51,0.215-1.024,0.322-1.545,0.322c-0.819,0-1.558-0.143-2.212-0.428
		c-0.655-0.285-1.208-0.678-1.658-1.178c-0.449-0.5-0.795-1.087-1.034-1.763c-0.24-0.675-0.36-1.402-0.36-2.182
		c0-0.801,0.12-1.543,0.36-2.228c0.239-0.686,0.585-1.283,1.034-1.793c0.45-0.51,1.003-0.91,1.658-1.2
		c0.654-0.29,1.393-0.435,2.212-0.435c0.55,0,1.083,0.082,1.598,0.247s0.98,0.408,1.396,0.728c0.414,0.32,0.757,0.715,1.027,1.186
		c0.27,0.47,0.435,1.01,0.495,1.62h-2.25c-0.141-0.601-0.41-1.051-0.811-1.351c-0.399-0.3-0.885-0.45-1.455-0.45
		c-0.53,0-0.979,0.103-1.35,0.308s-0.67,0.48-0.9,0.825c-0.229,0.345-0.397,0.737-0.502,1.178c-0.105,0.44-0.158,0.895-0.158,1.365
		c0,0.449,0.053,0.887,0.158,1.312c0.104,0.425,0.272,0.808,0.502,1.147c0.23,0.34,0.53,0.612,0.9,0.817s0.819,0.308,1.35,0.308
		c0.78,0,1.383-0.197,1.808-0.593s0.673-0.968,0.742-1.718h-2.369v-1.755h4.5v5.79h-1.5l-0.24-1.215
		C43.454,36.274,42.989,36.651,42.479,36.867z"/>
</g>
</svg>
