<?xml version="1.0" encoding="utf-8"?>
<!-- Generator: Adobe Illustrator 16.0.1, SVG Export Plug-In . SVG Version: 6.00 Build 0)  -->
<!DOCTYPE svg PUBLIC "-//W3C//DTD SVG 1.1//EN" "http://www.w3.org/Graphics/SVG/1.1/DTD/svg11.dtd">
<svg version="1.1" id="Layer_1" xmlns="http://www.w3.org/2000/svg" xmlns:xlink="http://www.w3.org/1999/xlink" x="0px" y="0px"
	 width="64px" height="64px" viewBox="0 0 64 64" enable-background="new 0 0 64 64" xml:space="preserve">
<path d="M56.085,12.385l-8.874-8.873C45.282,1.58,41.464,0,38.731,0H8.923C6.191,0,3.956,2.235,3.956,4.968v53.655
	c0,2.732,2.235,4.969,4.968,4.969h45.706c2.733,0,4.969-2.236,4.969-4.969V20.866C59.598,18.133,58.016,14.316,56.085,12.385z
	 M53.275,15.195c0.193,0.195,0.385,0.433,0.575,0.703H43.699V5.748c0.27,0.188,0.509,0.38,0.703,0.575L53.275,15.195z
	 M55.623,58.623c0,0.539-0.455,0.994-0.994,0.994H8.923c-0.539,0-0.993-0.455-0.993-0.994V4.968c0-0.54,0.454-0.994,0.993-0.994
	h29.808c0.301,0,0.637,0.039,0.993,0.104v15.793h15.794c0.067,0.357,0.104,0.695,0.104,0.994V58.623z"/>
<g>
	<path d="M17.272,26.239v1.979h-5.175v2.476h4.485v1.83h-4.485v4.425H9.742v-10.71H17.272z"/>
	<path d="M23.152,26.239l4.005,10.71h-2.445l-0.81-2.385h-4.005l-0.84,2.385h-2.37l4.05-10.71H23.152z M23.287,32.81l-1.35-3.931
		h-0.03l-1.395,3.931H23.287z"/>
	<path d="M29.887,34.31c0.13,0.25,0.302,0.452,0.518,0.607c0.215,0.155,0.467,0.27,0.757,0.345s0.59,0.112,0.9,0.112
		c0.21,0,0.435-0.018,0.675-0.053c0.24-0.034,0.464-0.102,0.674-0.202c0.21-0.1,0.385-0.237,0.525-0.412
		c0.14-0.175,0.21-0.397,0.21-0.668c0-0.29-0.093-0.524-0.277-0.705c-0.186-0.18-0.428-0.33-0.728-0.45
		c-0.3-0.119-0.64-0.225-1.02-0.314s-0.765-0.19-1.155-0.3c-0.4-0.101-0.79-0.223-1.17-0.368c-0.38-0.145-0.72-0.332-1.02-0.562
		c-0.3-0.229-0.542-0.518-0.728-0.862s-0.277-0.763-0.277-1.252c0-0.55,0.117-1.028,0.352-1.433
		c0.235-0.405,0.542-0.743,0.923-1.013c0.38-0.271,0.81-0.47,1.29-0.6s0.96-0.195,1.44-0.195c0.56,0,1.097,0.062,1.612,0.188
		c0.516,0.125,0.973,0.327,1.373,0.607c0.399,0.28,0.717,0.638,0.952,1.072c0.235,0.436,0.353,0.963,0.353,1.583h-2.28
		c-0.02-0.32-0.087-0.585-0.202-0.795s-0.268-0.375-0.457-0.495c-0.19-0.12-0.408-0.205-0.653-0.255
		c-0.245-0.051-0.512-0.075-0.802-0.075c-0.19,0-0.38,0.02-0.57,0.06s-0.362,0.11-0.517,0.21c-0.155,0.101-0.283,0.226-0.383,0.375
		c-0.1,0.15-0.15,0.34-0.15,0.57c0,0.21,0.04,0.38,0.12,0.51c0.08,0.13,0.237,0.25,0.472,0.36s0.56,0.22,0.975,0.33
		s0.958,0.25,1.627,0.42c0.2,0.04,0.478,0.112,0.833,0.218c0.354,0.104,0.707,0.272,1.058,0.502c0.35,0.23,0.652,0.538,0.907,0.923
		s0.383,0.877,0.383,1.478c0,0.49-0.096,0.944-0.285,1.364c-0.19,0.421-0.473,0.783-0.848,1.088
		c-0.375,0.306-0.84,0.543-1.395,0.713c-0.556,0.17-1.198,0.255-1.928,0.255c-0.59,0-1.163-0.073-1.717-0.218
		c-0.555-0.145-1.045-0.372-1.47-0.683c-0.425-0.31-0.763-0.705-1.012-1.185c-0.25-0.48-0.37-1.05-0.36-1.71h2.28
		C29.692,33.754,29.757,34.06,29.887,34.31z"/>
	<path d="M36.981,28.219v-1.979h8.775v1.979h-3.211v8.73h-2.354v-8.73H36.981z"/>
	<path d="M50.946,26.239l4.005,10.71h-2.445l-0.81-2.385h-4.005l-0.84,2.385h-2.37l4.05-10.71H50.946z M51.081,32.81l-1.35-3.931
		h-0.03l-1.395,3.931H51.081z"/>
</g>
</svg>
