<?xml version="1.0" encoding="utf-8"?>
<!-- Generator: Adobe Illustrator 16.0.1, SVG Export Plug-In . SVG Version: 6.00 Build 0)  -->
<!DOCTYPE svg PUBLIC "-//W3C//DTD SVG 1.1//EN" "http://www.w3.org/Graphics/SVG/1.1/DTD/svg11.dtd">
<svg version="1.1" id="Layer_1" xmlns="http://www.w3.org/2000/svg" xmlns:xlink="http://www.w3.org/1999/xlink" x="0px" y="0px"
	 width="64px" height="64px" viewBox="0 0 64 64" enable-background="new 0 0 64 64" xml:space="preserve">
<path d="M56.085,12.385l-8.874-8.873C45.282,1.58,41.464,0,38.731,0H8.923C6.191,0,3.956,2.235,3.956,4.968v53.655
	c0,2.732,2.235,4.969,4.968,4.969h45.706c2.733,0,4.969-2.236,4.969-4.969V20.866C59.598,18.133,58.016,14.316,56.085,12.385z
	 M53.275,15.195c0.193,0.195,0.385,0.433,0.575,0.703H43.699V5.748c0.27,0.188,0.509,0.38,0.703,0.575L53.275,15.195z
	 M55.623,58.623c0,0.539-0.455,0.994-0.994,0.994H8.923c-0.539,0-0.993-0.455-0.993-0.994V4.968c0-0.54,0.454-0.994,0.993-0.994
	h29.808c0.301,0,0.637,0.039,0.993,0.104v15.793h15.794c0.067,0.357,0.104,0.695,0.104,0.994V58.623z"/>
<g>
	<path d="M22.875,29.097c-0.14-0.225-0.315-0.422-0.525-0.593c-0.21-0.17-0.448-0.302-0.712-0.397
		c-0.265-0.095-0.542-0.143-0.833-0.143c-0.53,0-0.98,0.103-1.35,0.308s-0.67,0.48-0.9,0.825s-0.397,0.737-0.502,1.178
		s-0.158,0.895-0.158,1.365c0,0.449,0.053,0.887,0.158,1.312c0.105,0.425,0.272,0.808,0.502,1.147s0.53,0.612,0.9,0.817
		s0.82,0.308,1.35,0.308c0.72,0,1.283-0.221,1.688-0.66c0.405-0.44,0.652-1.021,0.743-1.74h2.28c-0.06,0.67-0.215,1.275-0.465,1.815
		s-0.58,1-0.99,1.38s-0.89,0.67-1.44,0.87c-0.55,0.199-1.155,0.3-1.815,0.3c-0.82,0-1.558-0.143-2.212-0.428
		c-0.655-0.285-1.208-0.678-1.658-1.178c-0.45-0.5-0.795-1.087-1.035-1.763c-0.24-0.675-0.36-1.402-0.36-2.182
		c0-0.801,0.12-1.543,0.36-2.228c0.24-0.686,0.585-1.283,1.035-1.793c0.45-0.51,1.002-0.91,1.658-1.2
		c0.655-0.29,1.393-0.435,2.212-0.435c0.59,0,1.147,0.085,1.672,0.255c0.525,0.17,0.995,0.418,1.41,0.742
		c0.415,0.325,0.757,0.728,1.027,1.208c0.27,0.479,0.44,1.03,0.51,1.649h-2.28C23.104,29.569,23.015,29.321,22.875,29.097z"/>
	<path d="M30.435,26.239l2.505,7.365h0.03l2.37-7.365h3.315v10.71h-2.205v-7.59h-0.03l-2.625,7.59h-1.814l-2.625-7.515h-0.03v7.515
		H27.12v-10.71H30.435z"/>
	<path d="M43.079,26.239v8.729h5.22v1.98h-7.574v-10.71H43.079z"/>
</g>
</svg>
