<?xml version="1.0" encoding="utf-8"?>
<!-- Generator: Adobe Illustrator 16.0.1, SVG Export Plug-In . SVG Version: 6.00 Build 0)  -->
<!DOCTYPE svg PUBLIC "-//W3C//DTD SVG 1.1//EN" "http://www.w3.org/Graphics/SVG/1.1/DTD/svg11.dtd">
<svg version="1.1" id="Layer_1" xmlns="http://www.w3.org/2000/svg" xmlns:xlink="http://www.w3.org/1999/xlink" x="0px" y="0px"
	 width="64px" height="64px" viewBox="0 0 64 64" enable-background="new 0 0 64 64" xml:space="preserve">
<path d="M56.085,12.385l-8.874-8.873C45.282,1.58,41.464,0,38.731,0H8.923C6.191,0,3.956,2.235,3.956,4.968v53.655
	c0,2.732,2.235,4.969,4.968,4.969h45.706c2.733,0,4.969-2.236,4.969-4.969V20.866C59.598,18.133,58.016,14.316,56.085,12.385z
	 M53.275,15.195c0.193,0.195,0.385,0.433,0.575,0.703H43.699V5.748c0.27,0.188,0.509,0.38,0.703,0.575L53.275,15.195z
	 M55.623,58.623c0,0.539-0.455,0.994-0.994,0.994H8.923c-0.539,0-0.993-0.455-0.993-0.994V4.968c0-0.54,0.454-0.994,0.993-0.994
	h29.808c0.301,0,0.637,0.039,0.993,0.104v15.793h15.794c0.067,0.357,0.104,0.695,0.104,0.994V58.623z"/>
<g>
	<path d="M20.632,26.239c0.51,0,0.975,0.045,1.395,0.135c0.42,0.09,0.78,0.238,1.08,0.442c0.3,0.205,0.533,0.478,0.698,0.817
		c0.165,0.341,0.248,0.761,0.248,1.261c0,0.54-0.123,0.989-0.368,1.35s-0.607,0.655-1.087,0.885c0.66,0.19,1.152,0.523,1.478,0.998
		c0.325,0.475,0.487,1.048,0.487,1.717c0,0.54-0.105,1.008-0.315,1.403c-0.21,0.395-0.493,0.718-0.848,0.967
		c-0.355,0.25-0.76,0.436-1.215,0.556s-0.922,0.18-1.402,0.18h-5.19v-10.71H20.632z M20.332,30.574c0.42,0,0.765-0.1,1.035-0.3
		s0.405-0.525,0.405-0.976c0-0.249-0.045-0.454-0.135-0.614s-0.21-0.285-0.36-0.375c-0.15-0.091-0.323-0.152-0.518-0.188
		c-0.195-0.035-0.397-0.053-0.607-0.053h-2.205v2.505H20.332z M20.467,35.119c0.23,0,0.45-0.022,0.66-0.067s0.395-0.12,0.555-0.225
		c0.16-0.105,0.287-0.248,0.382-0.428c0.095-0.181,0.143-0.41,0.143-0.69c0-0.55-0.155-0.942-0.465-1.178
		c-0.31-0.234-0.72-0.352-1.23-0.352h-2.565v2.939H20.467z"/>
	<path d="M31.492,26.239l4.005,10.71h-2.445l-0.81-2.385h-4.005l-0.84,2.385h-2.37l4.05-10.71H31.492z M31.627,32.81l-1.35-3.931
		h-0.03l-1.395,3.931H31.627z"/>
	<path d="M39.742,26.239l2.505,7.365h0.029l2.37-7.365h3.315v10.71h-2.205v-7.59h-0.03l-2.625,7.59h-1.814l-2.625-7.515h-0.03v7.515
		h-2.205v-10.71H39.742z"/>
</g>
</svg>
