<?xml version="1.0" encoding="utf-8"?>
<!-- Generator: Adobe Illustrator 16.0.1, SVG Export Plug-In . SVG Version: 6.00 Build 0)  -->
<!DOCTYPE svg PUBLIC "-//W3C//DTD SVG 1.1//EN" "http://www.w3.org/Graphics/SVG/1.1/DTD/svg11.dtd">
<svg version="1.1" id="Layer_1" xmlns="http://www.w3.org/2000/svg" xmlns:xlink="http://www.w3.org/1999/xlink" x="0px" y="0px"
	 width="32px" height="32px" viewBox="0 0 32 32" enable-background="new 0 0 32 32" xml:space="preserve">
<path d="M28.009,6.028l-4.466-4.465c-0.97-0.973-2.892-1.768-4.267-1.768h-15c-1.375,0-2.5,1.125-2.5,2.5v27
	c0,1.375,1.125,2.5,2.5,2.5h23c1.375,0,2.5-1.125,2.5-2.5v-19C29.776,8.921,28.98,7,28.009,6.028z M26.595,7.442
	c0.098,0.098,0.194,0.218,0.29,0.354h-5.108V2.688c0.136,0.095,0.256,0.191,0.354,0.289L26.595,7.442z M27.776,29.296
	c0,0.271-0.229,0.5-0.5,0.5h-23c-0.271,0-0.5-0.229-0.5-0.5v-27c0-0.271,0.229-0.5,0.5-0.5h15c0.151,0,0.32,0.02,0.5,0.052v7.948
	h7.947c0.034,0.18,0.053,0.35,0.053,0.5V29.296z"/>
<g>
	<path d="M10.201,11.13c0.36,0,0.666,0.052,0.918,0.157c0.252,0.104,0.458,0.243,0.616,0.415c0.159,0.172,0.274,0.367,0.346,0.587
		c0.073,0.22,0.109,0.448,0.109,0.685c0,0.231-0.036,0.458-0.109,0.68c-0.072,0.223-0.188,0.42-0.346,0.592
		c-0.158,0.172-0.364,0.31-0.616,0.415c-0.252,0.105-0.558,0.157-0.918,0.157H8.873v2.061H7.609V11.13H10.201z M9.855,13.835
		c0.145,0,0.285-0.011,0.418-0.032c0.134-0.021,0.252-0.063,0.354-0.125c0.102-0.061,0.184-0.149,0.246-0.261
		c0.062-0.113,0.092-0.26,0.092-0.443c0-0.182-0.031-0.33-0.092-0.443c-0.062-0.113-0.144-0.2-0.246-0.262
		c-0.102-0.062-0.22-0.103-0.354-0.125C10.14,12.123,10,12.112,9.855,12.112H8.873v1.723H9.855z"/>
	<path d="M12.882,13.896c0.102-0.271,0.247-0.501,0.435-0.692c0.188-0.19,0.414-0.338,0.676-0.443
		c0.263-0.104,0.559-0.157,0.886-0.157s0.624,0.053,0.89,0.157c0.266,0.105,0.493,0.252,0.68,0.443
		c0.188,0.191,0.333,0.421,0.435,0.692c0.102,0.271,0.152,0.573,0.152,0.906s-0.051,0.633-0.152,0.902
		c-0.103,0.268-0.248,0.498-0.435,0.688c-0.188,0.19-0.415,0.336-0.68,0.439c-0.266,0.102-0.562,0.153-0.89,0.153
		s-0.623-0.051-0.886-0.153c-0.263-0.103-0.488-0.249-0.676-0.439c-0.188-0.191-0.333-0.42-0.435-0.688
		c-0.102-0.269-0.153-0.569-0.153-0.902S12.78,14.167,12.882,13.896z M13.921,15.288c0.032,0.158,0.087,0.301,0.165,0.427
		c0.078,0.126,0.181,0.227,0.31,0.302c0.128,0.075,0.29,0.112,0.483,0.112s0.355-0.037,0.487-0.112
		c0.131-0.075,0.236-0.176,0.314-0.302c0.078-0.126,0.133-0.269,0.165-0.427s0.048-0.32,0.048-0.487s-0.016-0.33-0.048-0.491
		c-0.032-0.162-0.087-0.303-0.165-0.427c-0.078-0.124-0.183-0.224-0.314-0.302c-0.132-0.078-0.294-0.117-0.487-0.117
		s-0.354,0.039-0.483,0.117c-0.129,0.078-0.232,0.178-0.31,0.302c-0.078,0.124-0.133,0.266-0.165,0.427
		c-0.032,0.161-0.048,0.324-0.048,0.491S13.889,15.13,13.921,15.288z"/>
	<path d="M18.739,15.844c0.051,0.088,0.117,0.161,0.197,0.217c0.081,0.057,0.173,0.098,0.278,0.125
		c0.104,0.027,0.213,0.041,0.326,0.041c0.08,0,0.164-0.01,0.253-0.028c0.089-0.019,0.169-0.048,0.241-0.089
		c0.073-0.04,0.134-0.094,0.182-0.161c0.048-0.067,0.072-0.152,0.072-0.253c0-0.172-0.114-0.301-0.342-0.387
		c-0.229-0.085-0.547-0.172-0.954-0.258c-0.166-0.037-0.329-0.082-0.487-0.133s-0.3-0.118-0.423-0.201s-0.223-0.188-0.298-0.314
		c-0.075-0.126-0.112-0.281-0.112-0.463c0-0.269,0.052-0.489,0.157-0.661c0.104-0.171,0.242-0.307,0.414-0.406
		s0.365-0.169,0.58-0.209c0.214-0.04,0.435-0.061,0.66-0.061s0.444,0.022,0.656,0.064c0.212,0.043,0.401,0.116,0.567,0.218
		c0.166,0.102,0.305,0.237,0.415,0.406c0.109,0.169,0.176,0.382,0.196,0.64h-1.086c-0.017-0.22-0.1-0.369-0.25-0.447
		c-0.15-0.078-0.328-0.117-0.531-0.117c-0.064,0-0.135,0.004-0.21,0.012c-0.075,0.009-0.144,0.026-0.205,0.053
		c-0.062,0.026-0.114,0.066-0.157,0.117c-0.042,0.051-0.064,0.119-0.064,0.205c0,0.103,0.038,0.186,0.113,0.25
		c0.075,0.064,0.173,0.116,0.294,0.157c0.12,0.04,0.259,0.077,0.414,0.109c0.156,0.032,0.314,0.067,0.476,0.104
		c0.166,0.038,0.329,0.083,0.487,0.137c0.158,0.054,0.299,0.125,0.422,0.213c0.124,0.089,0.223,0.199,0.298,0.33
		c0.075,0.132,0.113,0.294,0.113,0.487c0,0.273-0.055,0.503-0.165,0.688c-0.11,0.185-0.254,0.334-0.431,0.447
		s-0.38,0.192-0.608,0.238c-0.228,0.045-0.46,0.068-0.696,0.068c-0.241,0-0.478-0.024-0.708-0.072
		c-0.23-0.049-0.437-0.129-0.616-0.242c-0.18-0.112-0.327-0.261-0.442-0.446c-0.116-0.186-0.179-0.417-0.189-0.697h1.087
		C18.663,15.649,18.688,15.755,18.739,15.844z"/>
	<path d="M24.388,12.716v0.765H23.55v2.061c0,0.193,0.032,0.322,0.097,0.387s0.193,0.096,0.387,0.096
		c0.064,0,0.126-0.002,0.185-0.008c0.06-0.005,0.116-0.013,0.17-0.024v0.885c-0.097,0.016-0.204,0.027-0.322,0.033
		c-0.118,0.005-0.233,0.008-0.347,0.008c-0.177,0-0.345-0.012-0.503-0.037c-0.158-0.024-0.298-0.071-0.419-0.141
		c-0.12-0.069-0.216-0.169-0.285-0.298c-0.07-0.128-0.105-0.297-0.105-0.507v-2.456h-0.692v-0.765h0.692v-1.248h1.144v1.248H24.388z
		"/>
	<path d="M5.894,23.513c0.07,0.135,0.162,0.243,0.278,0.326c0.115,0.083,0.251,0.145,0.406,0.186
		c0.156,0.04,0.317,0.061,0.483,0.061c0.112,0,0.233-0.01,0.362-0.029c0.128-0.019,0.25-0.055,0.362-0.108
		c0.112-0.054,0.207-0.127,0.282-0.221s0.113-0.214,0.113-0.358c0-0.156-0.05-0.282-0.149-0.379c-0.1-0.097-0.229-0.177-0.391-0.241
		s-0.344-0.121-0.547-0.169c-0.204-0.049-0.411-0.102-0.62-0.161c-0.215-0.054-0.424-0.12-0.628-0.197
		c-0.204-0.078-0.387-0.179-0.548-0.303c-0.161-0.123-0.291-0.277-0.39-0.463c-0.1-0.185-0.149-0.408-0.149-0.672
		c0-0.295,0.063-0.552,0.189-0.769c0.126-0.218,0.292-0.398,0.495-0.543c0.204-0.146,0.435-0.253,0.692-0.323
		c0.258-0.069,0.516-0.104,0.773-0.104c0.301,0,0.589,0.034,0.866,0.101c0.276,0.067,0.522,0.177,0.737,0.327
		c0.214,0.149,0.385,0.342,0.511,0.575c0.126,0.233,0.189,0.517,0.189,0.85H7.987c-0.011-0.172-0.047-0.314-0.109-0.427
		c-0.062-0.113-0.144-0.201-0.246-0.266c-0.102-0.064-0.218-0.11-0.35-0.138c-0.131-0.026-0.275-0.04-0.431-0.04
		c-0.102,0-0.204,0.011-0.306,0.032s-0.194,0.06-0.277,0.113c-0.083,0.053-0.152,0.12-0.206,0.201
		c-0.054,0.08-0.081,0.183-0.081,0.306c0,0.113,0.021,0.204,0.064,0.273c0.043,0.07,0.127,0.135,0.253,0.193
		c0.126,0.06,0.301,0.118,0.523,0.178c0.223,0.059,0.514,0.134,0.874,0.226c0.107,0.021,0.256,0.06,0.447,0.116
		c0.19,0.057,0.379,0.146,0.567,0.27c0.188,0.124,0.35,0.288,0.487,0.495c0.137,0.207,0.206,0.471,0.206,0.794
		c0,0.263-0.051,0.507-0.153,0.732c-0.102,0.225-0.254,0.42-0.455,0.583c-0.201,0.164-0.451,0.292-0.749,0.383
		c-0.298,0.091-0.643,0.137-1.035,0.137c-0.317,0-0.624-0.039-0.922-0.116c-0.298-0.078-0.561-0.2-0.789-0.367
		c-0.229-0.166-0.409-0.378-0.543-0.636s-0.199-0.563-0.193-0.918h1.224C5.789,23.215,5.824,23.379,5.894,23.513z"/>
	<path d="M12.021,21.516c-0.183,0-0.335,0.042-0.459,0.125c-0.124,0.084-0.224,0.19-0.302,0.322
		c-0.078,0.132-0.133,0.276-0.165,0.435c-0.032,0.159-0.049,0.315-0.049,0.472c0,0.15,0.017,0.303,0.049,0.459
		c0.032,0.155,0.084,0.296,0.157,0.422c0.073,0.127,0.17,0.229,0.294,0.311c0.124,0.08,0.274,0.12,0.451,0.12
		c0.274,0,0.484-0.076,0.632-0.229c0.147-0.152,0.24-0.358,0.278-0.615h1.103c-0.075,0.553-0.29,0.974-0.645,1.264
		c-0.354,0.29-0.808,0.435-1.36,0.435c-0.312,0-0.597-0.053-0.857-0.156c-0.261-0.104-0.482-0.251-0.665-0.439
		c-0.182-0.188-0.325-0.412-0.426-0.672c-0.102-0.261-0.153-0.547-0.153-0.857c0-0.322,0.047-0.622,0.141-0.897
		c0.094-0.277,0.232-0.516,0.415-0.717s0.405-0.358,0.668-0.472c0.263-0.112,0.563-0.169,0.901-0.169
		c0.247,0,0.484,0.032,0.713,0.097c0.228,0.064,0.432,0.162,0.612,0.294c0.18,0.132,0.326,0.296,0.438,0.491
		c0.113,0.196,0.177,0.428,0.193,0.696h-1.119C12.791,21.755,12.509,21.516,12.021,21.516z"/>
	<path d="M15.741,20.767v0.773h0.016c0.054-0.129,0.126-0.248,0.217-0.358c0.091-0.109,0.196-0.204,0.314-0.281
		c0.118-0.078,0.244-0.139,0.378-0.182s0.273-0.064,0.418-0.064c0.075,0,0.158,0.014,0.25,0.04v1.063
		c-0.054-0.011-0.118-0.021-0.193-0.028s-0.148-0.012-0.218-0.012c-0.209,0-0.386,0.034-0.531,0.104
		c-0.145,0.069-0.262,0.165-0.35,0.285c-0.088,0.121-0.152,0.262-0.189,0.423c-0.038,0.161-0.056,0.336-0.056,0.523v1.876h-1.144
		v-4.163H15.741z"/>
	<path d="M17.817,20.123v-0.941h1.144v0.941H17.817z M18.961,20.767v4.163h-1.144v-4.163H18.961z"/>
	<path d="M20.949,20.767v0.532h0.017c0.139-0.226,0.316-0.39,0.531-0.491s0.45-0.153,0.709-0.153c0.327,0,0.608,0.062,0.845,0.186
		s0.432,0.287,0.588,0.491c0.155,0.204,0.271,0.441,0.347,0.712c0.074,0.271,0.112,0.555,0.112,0.85
		c0,0.279-0.038,0.548-0.112,0.806c-0.075,0.258-0.189,0.485-0.343,0.685c-0.152,0.198-0.344,0.356-0.571,0.475
		c-0.229,0.118-0.495,0.177-0.801,0.177c-0.258,0-0.496-0.053-0.713-0.156c-0.218-0.104-0.396-0.259-0.536-0.464h-0.016v1.974
		h-1.144v-5.621H20.949z M22.436,24.068c0.125-0.075,0.228-0.173,0.306-0.294c0.077-0.121,0.133-0.262,0.165-0.423
		s0.048-0.324,0.048-0.491c0-0.166-0.018-0.33-0.052-0.491c-0.035-0.161-0.093-0.305-0.173-0.431
		c-0.081-0.126-0.185-0.228-0.311-0.306c-0.126-0.077-0.28-0.117-0.463-0.117c-0.188,0-0.345,0.04-0.472,0.117
		c-0.125,0.078-0.228,0.179-0.306,0.302c-0.078,0.124-0.133,0.266-0.165,0.427s-0.048,0.328-0.048,0.499
		c0,0.167,0.018,0.33,0.052,0.491c0.035,0.161,0.092,0.302,0.169,0.423c0.078,0.121,0.182,0.219,0.311,0.294
		s0.284,0.112,0.467,0.112C22.151,24.181,22.309,24.144,22.436,24.068z"/>
	<path d="M27.068,20.767v0.766H26.23v2.061c0,0.193,0.033,0.323,0.097,0.387c0.064,0.064,0.193,0.097,0.388,0.097
		c0.063,0,0.125-0.002,0.185-0.008c0.059-0.006,0.115-0.014,0.169-0.024v0.886c-0.097,0.017-0.203,0.027-0.322,0.032
		c-0.118,0.005-0.233,0.008-0.346,0.008c-0.178,0-0.346-0.012-0.504-0.036c-0.158-0.023-0.298-0.07-0.419-0.141
		c-0.12-0.069-0.216-0.169-0.285-0.298c-0.07-0.129-0.104-0.298-0.104-0.507v-2.456h-0.692v-0.766h0.692V19.52h1.143v1.247H27.068z"
		/>
</g>
</svg>
