<?xml version="1.0" encoding="utf-8"?>
<!-- Generator: Adobe Illustrator 16.0.1, SVG Export Plug-In . SVG Version: 6.00 Build 0)  -->
<!DOCTYPE svg PUBLIC "-//W3C//DTD SVG 1.1//EN" "http://www.w3.org/Graphics/SVG/1.1/DTD/svg11.dtd">
<svg version="1.1" id="Layer_1" xmlns="http://www.w3.org/2000/svg" xmlns:xlink="http://www.w3.org/1999/xlink" x="0px" y="0px"
	 width="64px" height="64px" viewBox="0 0 64 64" enable-background="new 0 0 64 64" xml:space="preserve">
<path d="M56.085,12.385l-8.874-8.873C45.282,1.58,41.464,0,38.731,0H8.923C6.191,0,3.956,2.235,3.956,4.968v53.655
	c0,2.732,2.235,4.969,4.968,4.969h45.706c2.733,0,4.969-2.236,4.969-4.969V20.866C59.598,18.133,58.016,14.316,56.085,12.385z
	 M53.275,15.195c0.193,0.195,0.385,0.433,0.575,0.703H43.699V5.748c0.27,0.188,0.509,0.38,0.703,0.575L53.275,15.195z
	 M55.623,58.623c0,0.539-0.455,0.994-0.994,0.994H8.923c-0.539,0-0.993-0.455-0.993-0.994V4.968c0-0.54,0.454-0.994,0.993-0.994
	h29.808c0.301,0,0.637,0.039,0.993,0.104v15.793h15.794c0.067,0.357,0.104,0.695,0.104,0.994V58.623z"/>
<g>
	<path d="M17.297,33.053l2.102,0.666c-0.322,1.172-0.858,2.041-1.607,2.611c-0.75,0.568-1.701,0.854-2.853,0.854
		c-1.426,0-2.598-0.488-3.516-1.463c-0.918-0.973-1.377-2.305-1.377-3.995c0-1.787,0.461-3.175,1.384-4.164
		c0.923-0.988,2.136-1.482,3.64-1.482c1.313,0,2.38,0.388,3.201,1.164c0.488,0.459,0.854,1.118,1.099,1.978l-2.146,0.513
		c-0.127-0.557-0.392-0.996-0.794-1.318c-0.403-0.322-0.893-0.483-1.469-0.483c-0.796,0-1.442,0.286-1.938,0.856
		c-0.496,0.572-0.743,1.497-0.743,2.776c0,1.357,0.244,2.324,0.732,2.9s1.123,0.865,1.904,0.865c0.576,0,1.072-0.184,1.487-0.549
		C16.819,34.414,17.117,33.838,17.297,33.053z"/>
	<path d="M20.517,37V26.262h4.563c1.147,0,1.981,0.097,2.501,0.289c0.52,0.193,0.936,0.536,1.249,1.029
		c0.312,0.493,0.469,1.058,0.469,1.692c0,0.805-0.237,1.471-0.711,1.995c-0.474,0.525-1.182,0.856-2.124,0.993
		c0.469,0.273,0.855,0.573,1.161,0.901c0.305,0.326,0.716,0.908,1.234,1.742L30.17,37h-2.593l-1.567-2.336
		c-0.557-0.836-0.938-1.361-1.143-1.58c-0.205-0.216-0.422-0.366-0.652-0.446c-0.229-0.081-0.593-0.121-1.091-0.121h-0.439V37
		H20.517z M22.685,30.803h1.604c1.04,0,1.689-0.044,1.948-0.132s0.461-0.239,0.608-0.454s0.22-0.483,0.22-0.806
		c0-0.361-0.097-0.653-0.289-0.875c-0.193-0.223-0.465-0.363-0.817-0.422c-0.176-0.023-0.703-0.036-1.582-0.036h-1.692V30.803z"/>
	<path d="M41.024,37h-2.357l-0.938-2.439h-4.293L32.55,37h-2.3l4.182-10.738h2.293L41.024,37z M37.033,32.751l-1.479-3.984
		l-1.45,3.984H37.033z"/>
	<path d="M42.146,37V26.262h3.244l1.948,7.324l1.927-7.324h3.252V37h-2.015v-8.453L48.371,37h-2.087l-2.124-8.453V37H42.146z"/>
</g>
</svg>
