<?xml version="1.0" encoding="utf-8"?>
<!-- Generator: Adobe Illustrator 16.0.1, SVG Export Plug-In . SVG Version: 6.00 Build 0)  -->
<!DOCTYPE svg PUBLIC "-//W3C//DTD SVG 1.1//EN" "http://www.w3.org/Graphics/SVG/1.1/DTD/svg11.dtd">
<svg version="1.1" id="Layer_1" xmlns="http://www.w3.org/2000/svg" xmlns:xlink="http://www.w3.org/1999/xlink" x="0px" y="0px"
	 width="64px" height="64px" viewBox="0 0 64 64" enable-background="new 0 0 64 64" xml:space="preserve">
<path d="M56.085,12.385l-8.874-8.873C45.282,1.58,41.464,0,38.731,0H8.923C6.191,0,3.956,2.235,3.956,4.968v53.655
	c0,2.732,2.235,4.969,4.968,4.969h45.706c2.733,0,4.969-2.236,4.969-4.969V20.866C59.598,18.133,58.016,14.316,56.085,12.385z
	 M53.275,15.195c0.193,0.195,0.385,0.433,0.575,0.703H43.699V5.748c0.27,0.188,0.509,0.38,0.703,0.575L53.275,15.195z
	 M55.623,58.623c0,0.539-0.455,0.994-0.994,0.994H8.923c-0.539,0-0.993-0.455-0.993-0.994V4.968c0-0.54,0.454-0.994,0.993-0.994
	h29.808c0.301,0,0.637,0.039,0.993,0.104v15.793h15.794c0.067,0.357,0.104,0.695,0.104,0.994V58.623z"/>
<g>
	<path d="M18.547,34.729c-0.07,0.42-0.23,0.812-0.48,1.177c-0.25,0.365-0.61,0.671-1.08,0.915c-0.47,0.245-1.105,0.368-1.905,0.368
		c-0.45,0-0.885-0.062-1.305-0.188c-0.42-0.125-0.795-0.32-1.125-0.585c-0.33-0.265-0.595-0.605-0.795-1.021
		c-0.2-0.415-0.3-0.917-0.3-1.507v-0.931h2.13v0.48c0,0.26,0.02,0.5,0.06,0.72s0.11,0.407,0.21,0.562s0.238,0.277,0.413,0.367
		c0.175,0.091,0.402,0.136,0.683,0.136c0.31,0,0.55-0.056,0.72-0.165c0.17-0.11,0.292-0.253,0.368-0.428s0.12-0.365,0.135-0.57
		c0.015-0.205,0.022-0.402,0.022-0.593v-7.229h2.355v7.335C18.652,33.925,18.617,34.31,18.547,34.729z"/>
	<path d="M22.522,34.31c0.13,0.25,0.302,0.452,0.518,0.607c0.215,0.155,0.467,0.27,0.757,0.345s0.59,0.112,0.9,0.112
		c0.21,0,0.435-0.018,0.675-0.053c0.24-0.034,0.465-0.102,0.675-0.202c0.21-0.1,0.385-0.237,0.525-0.412s0.21-0.397,0.21-0.668
		c0-0.29-0.093-0.524-0.278-0.705c-0.185-0.18-0.427-0.33-0.728-0.45c-0.3-0.119-0.64-0.225-1.02-0.314s-0.765-0.19-1.155-0.3
		c-0.4-0.101-0.79-0.223-1.17-0.368c-0.38-0.145-0.72-0.332-1.02-0.562c-0.3-0.229-0.542-0.518-0.728-0.862
		s-0.277-0.763-0.277-1.252c0-0.55,0.117-1.028,0.352-1.433c0.235-0.405,0.542-0.743,0.923-1.013c0.38-0.271,0.81-0.47,1.29-0.6
		s0.96-0.195,1.44-0.195c0.56,0,1.097,0.062,1.612,0.188s0.973,0.327,1.373,0.607s0.717,0.638,0.953,1.072
		c0.235,0.436,0.353,0.963,0.353,1.583h-2.28c-0.02-0.32-0.087-0.585-0.202-0.795c-0.115-0.21-0.268-0.375-0.458-0.495
		c-0.19-0.12-0.408-0.205-0.653-0.255c-0.245-0.051-0.512-0.075-0.802-0.075c-0.19,0-0.38,0.02-0.57,0.06s-0.362,0.11-0.517,0.21
		c-0.155,0.101-0.283,0.226-0.383,0.375c-0.1,0.15-0.15,0.34-0.15,0.57c0,0.21,0.04,0.38,0.12,0.51c0.08,0.13,0.237,0.25,0.472,0.36
		s0.56,0.22,0.975,0.33s0.958,0.25,1.627,0.42c0.2,0.04,0.478,0.112,0.833,0.218c0.355,0.104,0.708,0.272,1.058,0.502
		c0.35,0.23,0.652,0.538,0.908,0.923c0.255,0.385,0.382,0.877,0.382,1.478c0,0.49-0.095,0.944-0.285,1.364
		c-0.19,0.421-0.472,0.783-0.847,1.088c-0.375,0.306-0.84,0.543-1.395,0.713c-0.555,0.17-1.198,0.255-1.928,0.255
		c-0.59,0-1.163-0.073-1.717-0.218c-0.555-0.145-1.045-0.372-1.47-0.683c-0.425-0.31-0.763-0.705-1.012-1.185
		c-0.25-0.48-0.37-1.05-0.36-1.71h2.28C22.327,33.754,22.392,34.06,22.522,34.31z"/>
	<path d="M30.352,29.412c0.24-0.686,0.585-1.283,1.035-1.793c0.45-0.51,1.002-0.91,1.657-1.2c0.655-0.29,1.393-0.435,2.213-0.435
		c0.83,0,1.569,0.145,2.22,0.435s1.2,0.69,1.65,1.2c0.449,0.51,0.795,1.107,1.035,1.793c0.239,0.685,0.359,1.427,0.359,2.228
		c0,0.779-0.12,1.507-0.359,2.182c-0.24,0.676-0.586,1.263-1.035,1.763c-0.45,0.5-1,0.893-1.65,1.178s-1.39,0.428-2.22,0.428
		c-0.82,0-1.558-0.143-2.213-0.428c-0.655-0.285-1.207-0.678-1.657-1.178c-0.45-0.5-0.795-1.087-1.035-1.763
		c-0.24-0.675-0.36-1.402-0.36-2.182C29.992,30.839,30.112,30.097,30.352,29.412z M32.504,32.952
		c0.105,0.425,0.272,0.808,0.502,1.147c0.229,0.34,0.529,0.612,0.899,0.817s0.82,0.308,1.351,0.308c0.529,0,0.979-0.103,1.35-0.308
		s0.67-0.478,0.9-0.817c0.229-0.34,0.397-0.723,0.502-1.147c0.105-0.426,0.158-0.863,0.158-1.312c0-0.471-0.053-0.925-0.158-1.365
		c-0.104-0.44-0.272-0.833-0.502-1.178c-0.23-0.345-0.53-0.62-0.9-0.825s-0.82-0.308-1.35-0.308c-0.53,0-0.98,0.103-1.351,0.308
		s-0.67,0.48-0.899,0.825c-0.23,0.345-0.397,0.737-0.502,1.178s-0.158,0.895-0.158,1.365C32.347,32.089,32.399,32.526,32.504,32.952
		z"/>
	<path d="M44.467,26.239l4.47,7.185h0.03v-7.185h2.204v10.71h-2.354l-4.455-7.17h-0.029v7.17h-2.205v-10.71H44.467z"/>
</g>
</svg>
