<?xml version="1.0" encoding="utf-8"?>
<!-- Generator: Adobe Illustrator 16.0.1, SVG Export Plug-In . SVG Version: 6.00 Build 0)  -->
<!DOCTYPE svg PUBLIC "-//W3C//DTD SVG 1.1//EN" "http://www.w3.org/Graphics/SVG/1.1/DTD/svg11.dtd">
<svg version="1.1" id="Layer_1" xmlns="http://www.w3.org/2000/svg" xmlns:xlink="http://www.w3.org/1999/xlink" x="0px" y="0px"
	 width="64px" height="64px" viewBox="0 0 64 64" enable-background="new 0 0 64 64" xml:space="preserve">
<path d="M56.085,12.385l-8.874-8.873C45.282,1.58,41.464,0,38.731,0H8.923C6.191,0,3.956,2.235,3.956,4.968v53.655
	c0,2.732,2.235,4.969,4.968,4.969h45.706c2.733,0,4.969-2.236,4.969-4.969V20.866C59.598,18.133,58.016,14.316,56.085,12.385z
	 M53.275,15.195c0.193,0.195,0.385,0.433,0.575,0.703H43.699V5.748c0.27,0.188,0.509,0.38,0.703,0.575L53.275,15.195z
	 M55.623,58.623c0,0.539-0.455,0.994-0.994,0.994H8.923c-0.539,0-0.993-0.455-0.993-0.994V4.968c0-0.54,0.454-0.994,0.993-0.994
	h29.808c0.301,0,0.637,0.039,0.993,0.104v15.793h15.794c0.067,0.357,0.104,0.695,0.104,0.994V58.623z"/>
<g>
	<path d="M20.385,26.239c0.48,0,0.913,0.077,1.297,0.232s0.715,0.367,0.99,0.638c0.275,0.27,0.485,0.582,0.63,0.938
		c0.145,0.354,0.217,0.737,0.217,1.147c0,0.63-0.132,1.175-0.397,1.635s-0.697,0.811-1.297,1.05v0.03
		c0.29,0.08,0.53,0.202,0.72,0.367c0.189,0.165,0.345,0.36,0.465,0.585c0.12,0.226,0.208,0.473,0.262,0.743
		c0.055,0.27,0.093,0.54,0.113,0.81c0.01,0.17,0.02,0.37,0.03,0.601c0.01,0.229,0.027,0.465,0.053,0.704
		c0.025,0.24,0.065,0.468,0.12,0.683c0.055,0.216,0.137,0.397,0.247,0.548h-2.355c-0.13-0.34-0.21-0.745-0.24-1.215
		c-0.03-0.47-0.075-0.92-0.135-1.351c-0.08-0.56-0.25-0.97-0.51-1.229c-0.26-0.26-0.685-0.39-1.275-0.39h-2.355v4.185H14.61v-10.71
		H20.385z M19.545,31.084c0.54,0,0.945-0.12,1.215-0.359c0.27-0.24,0.405-0.631,0.405-1.17c0-0.521-0.135-0.897-0.405-1.133
		s-0.675-0.353-1.215-0.353h-2.58v3.015H19.545z"/>
	<path d="M30.059,26.239c0.69,0,1.333,0.11,1.928,0.33c0.595,0.22,1.11,0.55,1.544,0.99c0.436,0.439,0.775,0.989,1.021,1.649
		s0.367,1.436,0.367,2.325c0,0.78-0.1,1.5-0.3,2.16s-0.503,1.229-0.907,1.71c-0.405,0.479-0.91,0.857-1.515,1.133
		c-0.605,0.274-1.318,0.412-2.138,0.412h-4.62v-10.71H30.059z M29.895,34.969c0.34,0,0.669-0.055,0.99-0.164
		c0.32-0.11,0.605-0.293,0.855-0.548s0.45-0.588,0.6-0.998c0.15-0.409,0.225-0.909,0.225-1.5c0-0.54-0.053-1.027-0.158-1.462
		c-0.105-0.436-0.277-0.808-0.518-1.117c-0.24-0.311-0.558-0.548-0.952-0.713c-0.396-0.165-0.883-0.248-1.463-0.248h-1.68v6.75
		H29.895z"/>
	<path d="M44.084,26.239v1.979h-5.175v2.476h4.485v1.83h-4.485v4.425h-2.354v-10.71H44.084z"/>
	<path d="M50.144,25.984l-4.185,11.205h-1.695l4.17-11.205H50.144z"/>
	<path d="M15.734,41.239h2.73l2.1,3.42l2.175-3.42h2.58l-3.435,5.115l3.735,5.595h-2.805l-2.34-3.705l-2.385,3.705h-2.64l3.735-5.61
		L15.734,41.239z"/>
	<path d="M29.879,41.239l2.505,7.365h0.03l2.37-7.365h3.314v10.71h-2.204v-7.59h-0.03l-2.625,7.59h-1.815l-2.625-7.515h-0.03v7.515
		h-2.205v-10.71H29.879z"/>
	<path d="M42.524,41.239v8.729h5.22v1.98h-7.575v-10.71H42.524z"/>
</g>
</svg>
