<?xml version="1.0" encoding="utf-8"?>
<!-- Generator: Adobe Illustrator 16.0.1, SVG Export Plug-In . SVG Version: 6.00 Build 0)  -->
<!DOCTYPE svg PUBLIC "-//W3C//DTD SVG 1.1//EN" "http://www.w3.org/Graphics/SVG/1.1/DTD/svg11.dtd">
<svg version="1.1" id="Layer_1" xmlns="http://www.w3.org/2000/svg" xmlns:xlink="http://www.w3.org/1999/xlink" x="0px" y="0px"
	 width="64px" height="64px" viewBox="0 0 64 64" enable-background="new 0 0 64 64" xml:space="preserve">
<path d="M56.085,12.385l-8.874-8.873C45.282,1.58,41.464,0,38.731,0H8.923C6.191,0,3.956,2.235,3.956,4.968v53.655
	c0,2.732,2.235,4.969,4.968,4.969h45.706c2.733,0,4.969-2.236,4.969-4.969V20.866C59.598,18.133,58.016,14.316,56.085,12.385z
	 M53.275,15.195c0.193,0.195,0.385,0.433,0.575,0.703H43.699V5.748c0.27,0.188,0.509,0.38,0.703,0.575L53.275,15.195z
	 M55.623,58.623c0,0.539-0.455,0.994-0.994,0.994H8.923c-0.539,0-0.993-0.455-0.993-0.994V4.968c0-0.54,0.454-0.994,0.993-0.994
	h29.808c0.301,0,0.637,0.039,0.993,0.104v15.793h15.794c0.067,0.357,0.104,0.695,0.104,0.994V58.623z"/>
<g>
	<path d="M22.635,26.239c0.669,0,1.24,0.098,1.71,0.292c0.47,0.195,0.852,0.453,1.147,0.773c0.295,0.319,0.51,0.685,0.645,1.095
		c0.135,0.41,0.202,0.835,0.202,1.274c0,0.431-0.067,0.854-0.202,1.268c-0.135,0.415-0.35,0.783-0.645,1.103
		c-0.295,0.32-0.678,0.578-1.147,0.772c-0.47,0.195-1.041,0.293-1.71,0.293H20.16v3.84h-2.355v-10.71H22.635z M21.99,31.279
		c0.27,0,0.53-0.02,0.78-0.061c0.25-0.039,0.47-0.117,0.66-0.232c0.189-0.114,0.342-0.277,0.458-0.487
		c0.115-0.21,0.172-0.484,0.172-0.825c0-0.34-0.058-0.614-0.172-0.824c-0.115-0.21-0.268-0.373-0.458-0.488
		c-0.19-0.114-0.41-0.192-0.66-0.232c-0.25-0.039-0.51-0.06-0.78-0.06h-1.83v3.21H21.99z"/>
	<path d="M32.429,26.239c0.69,0,1.333,0.11,1.927,0.33s1.11,0.55,1.545,0.99c0.436,0.439,0.775,0.989,1.021,1.649
		s0.367,1.436,0.367,2.325c0,0.78-0.1,1.5-0.3,2.16s-0.503,1.229-0.907,1.71c-0.405,0.479-0.91,0.857-1.516,1.133
		c-0.604,0.274-1.317,0.412-2.137,0.412h-4.62v-10.71H32.429z M32.265,34.969c0.34,0,0.669-0.055,0.989-0.164
		c0.32-0.11,0.605-0.293,0.855-0.548s0.45-0.588,0.6-0.998c0.15-0.409,0.226-0.909,0.226-1.5c0-0.54-0.053-1.027-0.158-1.462
		c-0.104-0.436-0.277-0.808-0.518-1.117c-0.239-0.311-0.558-0.548-0.952-0.713c-0.395-0.165-0.882-0.248-1.462-0.248h-1.68v6.75
		H32.265z"/>
	<path d="M46.454,26.239v1.979h-5.175v2.476h4.484v1.83h-4.484v4.425h-2.355v-10.71H46.454z"/>
</g>
</svg>
