<?xml version="1.0" encoding="utf-8"?>
<!-- Generator: Adobe Illustrator 16.0.1, SVG Export Plug-In . SVG Version: 6.00 Build 0)  -->
<!DOCTYPE svg PUBLIC "-//W3C//DTD SVG 1.1//EN" "http://www.w3.org/Graphics/SVG/1.1/DTD/svg11.dtd">
<svg version="1.1" id="Layer_1" xmlns="http://www.w3.org/2000/svg" xmlns:xlink="http://www.w3.org/1999/xlink" x="0px" y="0px"
	 width="64px" height="64px" viewBox="0 0 64 64" enable-background="new 0 0 64 64" xml:space="preserve">
<path d="M56.085,12.385l-8.874-8.873C45.282,1.58,41.464,0,38.731,0H8.923C6.191,0,3.956,2.235,3.956,4.968v53.655
	c0,2.732,2.235,4.969,4.968,4.969h45.706c2.733,0,4.969-2.236,4.969-4.969V20.866C59.598,18.133,58.016,14.316,56.085,12.385z
	 M53.275,15.195c0.193,0.195,0.385,0.433,0.575,0.703H43.699V5.748c0.27,0.188,0.509,0.38,0.703,0.575L53.275,15.195z
	 M55.623,58.623c0,0.539-0.455,0.994-0.994,0.994H8.923c-0.539,0-0.993-0.455-0.993-0.994V4.968c0-0.54,0.454-0.994,0.993-0.994
	h29.808c0.301,0,0.637,0.039,0.993,0.104v15.793h15.794c0.067,0.357,0.104,0.695,0.104,0.994V58.623z"/>
<g>
	<path d="M17.797,28.219v-1.979h8.775v1.979h-3.21v8.73h-2.355v-8.73H17.797z"/>
	<path d="M29.602,34.31c0.13,0.25,0.302,0.452,0.518,0.607c0.215,0.155,0.467,0.27,0.757,0.345s0.59,0.112,0.9,0.112
		c0.21,0,0.435-0.018,0.675-0.053c0.24-0.034,0.465-0.102,0.675-0.202c0.21-0.1,0.385-0.237,0.524-0.412
		c0.141-0.175,0.211-0.397,0.211-0.668c0-0.29-0.093-0.524-0.278-0.705c-0.185-0.18-0.427-0.33-0.727-0.45
		c-0.3-0.119-0.64-0.225-1.02-0.314s-0.765-0.19-1.155-0.3c-0.4-0.101-0.79-0.223-1.17-0.368c-0.38-0.145-0.72-0.332-1.02-0.562
		c-0.3-0.229-0.542-0.518-0.728-0.862s-0.277-0.763-0.277-1.252c0-0.55,0.117-1.028,0.352-1.433
		c0.235-0.405,0.542-0.743,0.923-1.013c0.38-0.271,0.81-0.47,1.29-0.6s0.96-0.195,1.44-0.195c0.56,0,1.097,0.062,1.612,0.188
		c0.515,0.125,0.973,0.327,1.372,0.607c0.4,0.28,0.718,0.638,0.953,1.072c0.234,0.436,0.353,0.963,0.353,1.583h-2.28
		c-0.021-0.32-0.088-0.585-0.202-0.795c-0.115-0.21-0.269-0.375-0.458-0.495c-0.19-0.12-0.408-0.205-0.653-0.255
		c-0.245-0.051-0.512-0.075-0.802-0.075c-0.19,0-0.38,0.02-0.57,0.06s-0.362,0.11-0.517,0.21c-0.155,0.101-0.283,0.226-0.383,0.375
		c-0.1,0.15-0.15,0.34-0.15,0.57c0,0.21,0.04,0.38,0.12,0.51c0.08,0.13,0.237,0.25,0.472,0.36s0.56,0.22,0.975,0.33
		s0.958,0.25,1.627,0.42c0.2,0.04,0.478,0.112,0.832,0.218c0.355,0.104,0.708,0.272,1.058,0.502c0.351,0.23,0.652,0.538,0.908,0.923
		c0.255,0.385,0.382,0.877,0.382,1.478c0,0.49-0.095,0.944-0.285,1.364c-0.189,0.421-0.472,0.783-0.847,1.088
		c-0.375,0.306-0.841,0.543-1.396,0.713s-1.197,0.255-1.927,0.255c-0.59,0-1.163-0.073-1.717-0.218
		c-0.555-0.145-1.045-0.372-1.47-0.683c-0.425-0.31-0.763-0.705-1.012-1.185c-0.25-0.48-0.37-1.05-0.36-1.71h2.28
		C29.407,33.754,29.472,34.06,29.602,34.31z"/>
	<path d="M39.861,36.949l-3.465-10.71h2.415l2.385,7.53h0.03l2.415-7.53h2.43l-3.555,10.71H39.861z"/>
</g>
</svg>
