<?xml version="1.0" encoding="utf-8"?>
<!-- Generator: Adobe Illustrator 16.0.1, SVG Export Plug-In . SVG Version: 6.00 Build 0)  -->
<!DOCTYPE svg PUBLIC "-//W3C//DTD SVG 1.1//EN" "http://www.w3.org/Graphics/SVG/1.1/DTD/svg11.dtd">
<svg version="1.1" id="Layer_1" xmlns="http://www.w3.org/2000/svg" xmlns:xlink="http://www.w3.org/1999/xlink" x="0px" y="0px"
	 width="32px" height="32px" viewBox="0 0 32 32" enable-background="new 0 0 32 32" xml:space="preserve">
<path d="M28.009,6.028l-4.466-4.465c-0.97-0.973-2.892-1.768-4.267-1.768h-15c-1.375,0-2.5,1.125-2.5,2.5v27
	c0,1.375,1.125,2.5,2.5,2.5h23c1.375,0,2.5-1.125,2.5-2.5v-19C29.776,8.921,28.98,7,28.009,6.028z M26.595,7.442
	c0.098,0.098,0.194,0.218,0.29,0.354h-5.108V2.688c0.136,0.095,0.256,0.191,0.354,0.289L26.595,7.442z M27.776,29.296
	c0,0.271-0.229,0.5-0.5,0.5h-23c-0.271,0-0.5-0.229-0.5-0.5v-27c0-0.271,0.229-0.5,0.5-0.5h15c0.151,0,0.32,0.02,0.5,0.052v7.948
	h7.947c0.034,0.18,0.053,0.35,0.053,0.5V29.296z"/>
<g>
	<path d="M8.746,13.996V13h4.416v0.996h-1.616v4.393h-1.185v-4.393H8.746z"/>
	<path d="M13.365,13h1.374l1.057,1.721L16.89,13h1.298l-1.729,2.574l1.879,2.815h-1.411l-1.177-1.864l-1.2,1.864h-1.329l1.879-2.823
		L13.365,13z"/>
	<path d="M18.392,13.996V13h4.416v0.996h-1.615v4.393h-1.186v-4.393H18.392z"/>
</g>
</svg>
