<?xml version="1.0" encoding="utf-8"?>
<!-- Generator: Adobe Illustrator 16.0.1, SVG Export Plug-In . SVG Version: 6.00 Build 0)  -->
<!DOCTYPE svg PUBLIC "-//W3C//DTD SVG 1.1//EN" "http://www.w3.org/Graphics/SVG/1.1/DTD/svg11.dtd">
<svg version="1.1" id="Layer_1" xmlns="http://www.w3.org/2000/svg" xmlns:xlink="http://www.w3.org/1999/xlink" x="0px" y="0px"
	 width="64px" height="64px" viewBox="0 0 64 64" enable-background="new 0 0 64 64" xml:space="preserve">
<path d="M56.085,12.385l-8.874-8.873C45.282,1.58,41.464,0,38.731,0H8.923C6.191,0,3.956,2.235,3.956,4.968v53.655
	c0,2.732,2.235,4.969,4.968,4.969h45.706c2.733,0,4.969-2.236,4.969-4.969V20.866C59.598,18.133,58.016,14.316,56.085,12.385z
	 M53.275,15.195c0.193,0.195,0.385,0.433,0.575,0.703H43.699V5.748c0.27,0.188,0.509,0.38,0.703,0.575L53.275,15.195z
	 M55.623,58.623c0,0.539-0.455,0.994-0.994,0.994H8.923c-0.539,0-0.993-0.455-0.993-0.994V4.968c0-0.54,0.454-0.994,0.993-0.994
	h29.808c0.301,0,0.637,0.039,0.993,0.104v15.793h15.794c0.067,0.357,0.104,0.695,0.104,0.994V58.623z"/>
<g>
	<path d="M27.615,26.239c0.48,0,0.913,0.077,1.297,0.232s0.715,0.367,0.99,0.638c0.275,0.27,0.485,0.582,0.63,0.938
		c0.145,0.354,0.217,0.737,0.217,1.147c0,0.63-0.132,1.175-0.397,1.635s-0.697,0.811-1.297,1.05v0.03
		c0.29,0.08,0.53,0.202,0.72,0.367c0.189,0.165,0.345,0.36,0.465,0.585c0.12,0.226,0.208,0.473,0.262,0.743
		c0.055,0.27,0.093,0.54,0.113,0.81c0.01,0.17,0.02,0.37,0.03,0.601c0.01,0.229,0.027,0.465,0.053,0.704
		c0.025,0.24,0.065,0.468,0.12,0.683c0.055,0.216,0.137,0.397,0.247,0.548h-2.355c-0.13-0.34-0.21-0.745-0.24-1.215
		c-0.03-0.47-0.075-0.92-0.135-1.351c-0.08-0.56-0.25-0.97-0.51-1.229c-0.26-0.26-0.685-0.39-1.275-0.39h-2.355v4.185H21.84v-10.71
		H27.615z M26.775,31.084c0.54,0,0.945-0.12,1.215-0.359c0.27-0.24,0.405-0.631,0.405-1.17c0-0.521-0.135-0.897-0.405-1.133
		s-0.675-0.353-1.215-0.353h-2.58v3.015H26.775z"/>
	<path d="M37.289,26.239c0.69,0,1.332,0.11,1.928,0.33c0.595,0.22,1.109,0.55,1.545,0.99c0.435,0.439,0.774,0.989,1.02,1.649
		s0.368,1.436,0.368,2.325c0,0.78-0.101,1.5-0.301,2.16s-0.502,1.229-0.907,1.71c-0.405,0.479-0.91,0.857-1.515,1.133
		c-0.605,0.274-1.318,0.412-2.138,0.412h-4.62v-10.71H37.289z M37.124,34.969c0.34,0,0.67-0.055,0.99-0.164
		c0.319-0.11,0.604-0.293,0.854-0.548s0.45-0.588,0.601-0.998c0.149-0.409,0.225-0.909,0.225-1.5c0-0.54-0.053-1.027-0.157-1.462
		c-0.105-0.436-0.277-0.808-0.518-1.117c-0.24-0.311-0.558-0.548-0.952-0.713c-0.396-0.165-0.883-0.248-1.463-0.248h-1.68v6.75
		H37.124z"/>
</g>
</svg>
