<?xml version="1.0" encoding="utf-8"?>
<!-- Generator: Adobe Illustrator 16.0.1, SVG Export Plug-In . SVG Version: 6.00 Build 0)  -->
<!DOCTYPE svg PUBLIC "-//W3C//DTD SVG 1.1//EN" "http://www.w3.org/Graphics/SVG/1.1/DTD/svg11.dtd">
<svg version="1.1" id="Layer_1" xmlns="http://www.w3.org/2000/svg" xmlns:xlink="http://www.w3.org/1999/xlink" x="0px" y="0px"
	 width="64px" height="64px" viewBox="0 0 64 64" enable-background="new 0 0 64 64" xml:space="preserve">
<path d="M56.085,12.385l-8.874-8.873C45.282,1.58,41.464,0,38.731,0H8.923C6.191,0,3.956,2.235,3.956,4.968v53.655
	c0,2.732,2.235,4.969,4.968,4.969h45.706c2.733,0,4.969-2.236,4.969-4.969V20.866C59.598,18.133,58.016,14.316,56.085,12.385z
	 M53.275,15.195c0.193,0.195,0.385,0.433,0.575,0.703H43.699V5.748c0.27,0.188,0.509,0.38,0.703,0.575L53.275,15.195z
	 M55.623,58.623c0,0.539-0.455,0.994-0.994,0.994H8.923c-0.539,0-0.993-0.455-0.993-0.994V4.968c0-0.54,0.454-0.994,0.993-0.994
	h29.808c0.301,0,0.637,0.039,0.993,0.104v15.793h15.794c0.067,0.357,0.104,0.695,0.104,0.994V58.623z"/>
<g>
	<path d="M15.757,29.412c0.24-0.686,0.585-1.283,1.035-1.793c0.45-0.51,1.002-0.91,1.658-1.2c0.655-0.29,1.393-0.435,2.212-0.435
		c0.83,0,1.57,0.145,2.22,0.435c0.65,0.29,1.2,0.69,1.65,1.2c0.45,0.51,0.795,1.107,1.035,1.793c0.24,0.685,0.36,1.427,0.36,2.228
		c0,0.779-0.12,1.507-0.36,2.182c-0.24,0.676-0.585,1.263-1.035,1.763c-0.45,0.5-1,0.893-1.65,1.178
		c-0.65,0.285-1.39,0.428-2.22,0.428c-0.82,0-1.558-0.143-2.212-0.428c-0.655-0.285-1.208-0.678-1.658-1.178
		c-0.45-0.5-0.795-1.087-1.035-1.763c-0.24-0.675-0.36-1.402-0.36-2.182C15.396,30.839,15.517,30.097,15.757,29.412z M17.909,32.952
		c0.105,0.425,0.272,0.808,0.502,1.147s0.53,0.612,0.9,0.817s0.82,0.308,1.35,0.308c0.53,0,0.98-0.103,1.35-0.308
		c0.37-0.205,0.67-0.478,0.9-0.817s0.397-0.723,0.502-1.147c0.105-0.426,0.158-0.863,0.158-1.312c0-0.471-0.053-0.925-0.158-1.365
		s-0.272-0.833-0.502-1.178s-0.53-0.62-0.9-0.825c-0.37-0.205-0.82-0.308-1.35-0.308c-0.53,0-0.98,0.103-1.35,0.308
		s-0.67,0.48-0.9,0.825s-0.397,0.737-0.502,1.178s-0.158,0.895-0.158,1.365C17.751,32.089,17.804,32.526,17.909,32.952z"/>
	<path d="M32.572,26.239c0.509,0,0.974,0.045,1.395,0.135c0.42,0.09,0.779,0.238,1.079,0.442c0.301,0.205,0.533,0.478,0.698,0.817
		c0.165,0.341,0.247,0.761,0.247,1.261c0,0.54-0.122,0.989-0.367,1.35s-0.607,0.655-1.088,0.885c0.66,0.19,1.152,0.523,1.478,0.998
		s0.487,1.048,0.487,1.717c0,0.54-0.104,1.008-0.314,1.403c-0.21,0.395-0.493,0.718-0.848,0.967c-0.355,0.25-0.76,0.436-1.215,0.556
		s-0.923,0.18-1.402,0.18h-5.19v-10.71H32.572z M32.271,30.574c0.42,0,0.765-0.1,1.035-0.3c0.27-0.2,0.404-0.525,0.404-0.976
		c0-0.249-0.045-0.454-0.135-0.614s-0.21-0.285-0.359-0.375c-0.15-0.091-0.323-0.152-0.518-0.188
		c-0.195-0.035-0.397-0.053-0.607-0.053h-2.205v2.505H32.271z M32.407,35.119c0.23,0,0.45-0.022,0.66-0.067s0.395-0.12,0.555-0.225
		c0.16-0.105,0.287-0.248,0.383-0.428c0.095-0.181,0.143-0.41,0.143-0.69c0-0.55-0.155-0.942-0.465-1.178
		c-0.311-0.234-0.72-0.352-1.23-0.352h-2.565v2.939H32.407z"/>
	<path d="M37.986,29.412c0.24-0.686,0.585-1.283,1.035-1.793s1.002-0.91,1.657-1.2s1.393-0.435,2.213-0.435
		c0.83,0,1.569,0.145,2.22,0.435s1.2,0.69,1.65,1.2c0.449,0.51,0.795,1.107,1.035,1.793c0.239,0.685,0.359,1.427,0.359,2.228
		c0,0.779-0.12,1.507-0.359,2.182c-0.24,0.676-0.586,1.263-1.035,1.763c-0.45,0.5-1,0.893-1.65,1.178s-1.39,0.428-2.22,0.428
		c-0.82,0-1.558-0.143-2.213-0.428s-1.207-0.678-1.657-1.178s-0.795-1.087-1.035-1.763c-0.24-0.675-0.36-1.402-0.36-2.182
		C37.626,30.839,37.746,30.097,37.986,29.412z M40.139,32.952c0.105,0.425,0.272,0.808,0.503,1.147
		c0.229,0.34,0.529,0.612,0.899,0.817s0.82,0.308,1.351,0.308c0.529,0,0.979-0.103,1.35-0.308s0.67-0.478,0.9-0.817
		c0.229-0.34,0.397-0.723,0.502-1.147c0.105-0.426,0.158-0.863,0.158-1.312c0-0.471-0.053-0.925-0.158-1.365
		c-0.104-0.44-0.272-0.833-0.502-1.178c-0.23-0.345-0.53-0.62-0.9-0.825s-0.82-0.308-1.35-0.308c-0.53,0-0.98,0.103-1.351,0.308
		s-0.67,0.48-0.899,0.825c-0.23,0.345-0.397,0.737-0.503,1.178c-0.104,0.44-0.157,0.895-0.157,1.365
		C39.981,32.089,40.034,32.526,40.139,32.952z"/>
</g>
</svg>
