<?xml version="1.0" encoding="utf-8"?>
<!-- Generator: Adobe Illustrator 16.0.1, SVG Export Plug-In . SVG Version: 6.00 Build 0)  -->
<!DOCTYPE svg PUBLIC "-//W3C//DTD SVG 1.1//EN" "http://www.w3.org/Graphics/SVG/1.1/DTD/svg11.dtd">
<svg version="1.1" id="Layer_1" xmlns="http://www.w3.org/2000/svg" xmlns:xlink="http://www.w3.org/1999/xlink" x="0px" y="0px"
	 width="64px" height="64px" viewBox="0 0 64 64" enable-background="new 0 0 64 64" xml:space="preserve">
<path d="M56.085,12.385l-8.874-8.873C45.282,1.58,41.464,0,38.731,0H8.923C6.191,0,3.956,2.235,3.956,4.968v53.655
	c0,2.732,2.235,4.969,4.968,4.969h45.706c2.733,0,4.969-2.236,4.969-4.969V20.866C59.598,18.133,58.016,14.316,56.085,12.385z
	 M53.275,15.195c0.193,0.195,0.385,0.433,0.575,0.703H43.699V5.748c0.27,0.188,0.509,0.38,0.703,0.575L53.275,15.195z
	 M55.623,58.623c0,0.539-0.455,0.994-0.994,0.994H8.923c-0.539,0-0.993-0.455-0.993-0.994V4.968c0-0.54,0.454-0.994,0.993-0.994
	h29.808c0.301,0,0.637,0.039,0.993,0.104v15.793h15.794c0.067,0.357,0.104,0.695,0.104,0.994V58.623z"/>
<g>
	<path d="M16.634,26.239v1.979h-5.175v2.476h4.485v1.83h-4.485v4.425H9.104v-10.71H16.634z"/>
	<path d="M22.139,26.239l4.005,10.71h-2.445l-0.81-2.385h-4.005l-0.84,2.385h-2.37l4.05-10.71H22.139z M22.274,32.81l-1.35-3.931
		h-0.03l-1.395,3.931H22.274z"/>
	<path d="M28.499,34.31c0.13,0.25,0.302,0.452,0.518,0.607c0.215,0.155,0.467,0.27,0.757,0.345s0.59,0.112,0.9,0.112
		c0.21,0,0.435-0.018,0.675-0.053c0.24-0.034,0.465-0.102,0.675-0.202c0.21-0.1,0.385-0.237,0.525-0.412s0.21-0.397,0.21-0.668
		c0-0.29-0.093-0.524-0.278-0.705c-0.185-0.18-0.427-0.33-0.728-0.45c-0.3-0.119-0.64-0.225-1.02-0.314s-0.765-0.19-1.155-0.3
		c-0.4-0.101-0.79-0.223-1.17-0.368c-0.38-0.145-0.72-0.332-1.02-0.562c-0.3-0.229-0.542-0.518-0.728-0.862
		s-0.277-0.763-0.277-1.252c0-0.55,0.117-1.028,0.352-1.433c0.235-0.405,0.542-0.743,0.923-1.013c0.38-0.271,0.81-0.47,1.29-0.6
		s0.96-0.195,1.44-0.195c0.56,0,1.097,0.062,1.612,0.188s0.973,0.327,1.373,0.607c0.399,0.28,0.717,0.638,0.952,1.072
		c0.235,0.436,0.353,0.963,0.353,1.583h-2.28c-0.02-0.32-0.087-0.585-0.202-0.795c-0.115-0.21-0.268-0.375-0.458-0.495
		c-0.19-0.12-0.408-0.205-0.653-0.255c-0.245-0.051-0.512-0.075-0.802-0.075c-0.19,0-0.38,0.02-0.57,0.06s-0.362,0.11-0.517,0.21
		c-0.155,0.101-0.283,0.226-0.383,0.375c-0.1,0.15-0.15,0.34-0.15,0.57c0,0.21,0.04,0.38,0.12,0.51c0.08,0.13,0.237,0.25,0.472,0.36
		s0.56,0.22,0.975,0.33s0.958,0.25,1.627,0.42c0.2,0.04,0.478,0.112,0.833,0.218c0.354,0.104,0.707,0.272,1.058,0.502
		c0.35,0.23,0.652,0.538,0.907,0.923s0.383,0.877,0.383,1.478c0,0.49-0.096,0.944-0.285,1.364c-0.19,0.421-0.473,0.783-0.848,1.088
		c-0.375,0.306-0.84,0.543-1.395,0.713c-0.555,0.17-1.198,0.255-1.928,0.255c-0.59,0-1.163-0.073-1.717-0.218
		c-0.555-0.145-1.045-0.372-1.47-0.683c-0.425-0.31-0.763-0.705-1.012-1.185c-0.25-0.48-0.37-1.05-0.36-1.71h2.28
		C28.304,33.754,28.369,34.06,28.499,34.31z"/>
	<path d="M35.219,28.219v-1.979h8.775v1.979h-3.211v8.73h-2.354v-8.73H35.219z"/>
	<path d="M52.243,36.574c-0.71,0.41-1.574,0.615-2.595,0.615c-0.819,0-1.558-0.143-2.212-0.428
		c-0.655-0.285-1.208-0.678-1.658-1.178c-0.449-0.5-0.795-1.087-1.034-1.763c-0.24-0.675-0.36-1.402-0.36-2.182
		c0-0.801,0.12-1.543,0.36-2.228c0.239-0.686,0.585-1.283,1.034-1.793c0.45-0.51,1.003-0.91,1.658-1.2
		c0.654-0.29,1.393-0.435,2.212-0.435c0.83,0,1.57,0.145,2.22,0.435c0.65,0.29,1.2,0.69,1.65,1.2s0.795,1.107,1.035,1.793
		c0.24,0.685,0.359,1.427,0.359,2.228c0,0.779-0.119,1.505-0.359,2.175s-0.585,1.26-1.035,1.77l1.335,1.215l-1.095,1.141
		L52.243,36.574z M51.898,34.1c0.2-0.271,0.36-0.605,0.48-1.006c0.119-0.399,0.18-0.885,0.18-1.454c0-0.471-0.053-0.925-0.157-1.365
		c-0.105-0.44-0.273-0.833-0.503-1.178c-0.23-0.345-0.53-0.62-0.9-0.825s-0.819-0.308-1.35-0.308s-0.979,0.103-1.35,0.308
		s-0.67,0.48-0.9,0.825c-0.229,0.345-0.397,0.737-0.502,1.178c-0.105,0.44-0.158,0.895-0.158,1.365c0,0.449,0.053,0.887,0.158,1.312
		c0.104,0.425,0.272,0.808,0.502,1.147c0.23,0.34,0.53,0.612,0.9,0.817s0.819,0.308,1.35,0.308c0.17,0,0.35-0.005,0.54-0.016
		c0.189-0.01,0.325-0.055,0.405-0.135l-1.005-0.915l1.095-1.17L51.898,34.1z"/>
</g>
</svg>
