<?xml version="1.0" encoding="utf-8"?>
<!-- Generator: Adobe Illustrator 16.0.1, SVG Export Plug-In . SVG Version: 6.00 Build 0)  -->
<!DOCTYPE svg PUBLIC "-//W3C//DTD SVG 1.1//EN" "http://www.w3.org/Graphics/SVG/1.1/DTD/svg11.dtd">
<svg version="1.1" id="Layer_1" xmlns="http://www.w3.org/2000/svg" xmlns:xlink="http://www.w3.org/1999/xlink" x="0px" y="0px"
	 width="64px" height="64px" viewBox="0 0 64 64" enable-background="new 0 0 64 64" xml:space="preserve">
<path d="M56.477,12.385l-8.874-8.873C45.674,1.58,41.855,0,39.123,0H9.315C6.583,0,4.347,2.235,4.347,4.968v53.655
	c0,2.732,2.235,4.969,4.968,4.969h45.706c2.733,0,4.969-2.236,4.969-4.969V20.866C59.989,18.133,58.407,14.316,56.477,12.385z
	 M53.667,15.195c0.193,0.195,0.385,0.433,0.575,0.703H44.091V5.748c0.27,0.188,0.509,0.38,0.703,0.575L53.667,15.195z
	 M56.015,58.623c0,0.539-0.455,0.994-0.994,0.994H9.315c-0.539,0-0.993-0.455-0.993-0.994V4.968c0-0.54,0.454-0.994,0.993-0.994
	h29.808c0.301,0,0.637,0.039,0.993,0.104v15.793H55.91c0.067,0.357,0.104,0.695,0.104,0.994V58.623z"/>
<g>
	<path d="M15.305,29.412c0.24-0.686,0.585-1.283,1.035-1.793c0.45-0.51,1.002-0.91,1.658-1.2c0.655-0.29,1.393-0.435,2.212-0.435
		c0.83,0,1.57,0.145,2.22,0.435c0.65,0.29,1.2,0.69,1.65,1.2c0.45,0.51,0.795,1.107,1.035,1.793c0.24,0.685,0.36,1.427,0.36,2.228
		c0,0.779-0.12,1.507-0.36,2.182c-0.24,0.676-0.585,1.263-1.035,1.763c-0.45,0.5-1,0.893-1.65,1.178
		c-0.65,0.285-1.39,0.428-2.22,0.428c-0.82,0-1.558-0.143-2.212-0.428c-0.655-0.285-1.208-0.678-1.658-1.178
		c-0.45-0.5-0.795-1.087-1.035-1.763c-0.24-0.675-0.36-1.402-0.36-2.182C14.944,30.839,15.064,30.097,15.305,29.412z M17.457,32.952
		c0.105,0.425,0.272,0.808,0.502,1.147s0.53,0.612,0.9,0.817s0.82,0.308,1.35,0.308c0.53,0,0.98-0.103,1.35-0.308
		c0.37-0.205,0.67-0.478,0.9-0.817s0.397-0.723,0.502-1.147c0.105-0.426,0.158-0.863,0.158-1.312c0-0.471-0.053-0.925-0.158-1.365
		s-0.272-0.833-0.502-1.178s-0.53-0.62-0.9-0.825c-0.37-0.205-0.82-0.308-1.35-0.308c-0.53,0-0.98,0.103-1.35,0.308
		s-0.67,0.48-0.9,0.825s-0.397,0.737-0.502,1.178s-0.158,0.895-0.158,1.365C17.299,32.089,17.352,32.526,17.457,32.952z"/>
	<path d="M34.938,36.949l-1.814-7.29h-0.03l-1.784,7.29h-2.385l-2.835-10.71h2.355l1.695,7.29h0.03l1.859-7.29h2.206l1.829,7.38
		h0.03l1.755-7.38h2.311l-2.88,10.71H34.938z"/>
	<path d="M43.594,26.239v8.729h5.221v1.98h-7.575v-10.71H43.594z"/>
</g>
</svg>
