<?xml version="1.0" encoding="utf-8"?>
<!-- Generator: Adobe Illustrator 16.0.1, SVG Export Plug-In . SVG Version: 6.00 Build 0)  -->
<!DOCTYPE svg PUBLIC "-//W3C//DTD SVG 1.1//EN" "http://www.w3.org/Graphics/SVG/1.1/DTD/svg11.dtd">
<svg version="1.1" id="Layer_1" xmlns="http://www.w3.org/2000/svg" xmlns:xlink="http://www.w3.org/1999/xlink" x="0px" y="0px"
	 width="64px" height="64px" viewBox="0 0 64 64" enable-background="new 0 0 64 64" xml:space="preserve">
<path d="M56.085,12.385l-8.874-8.873C45.282,1.58,41.464,0,38.731,0H8.923C6.191,0,3.956,2.235,3.956,4.968v53.655
	c0,2.732,2.235,4.969,4.968,4.969h45.706c2.733,0,4.969-2.236,4.969-4.969V20.866C59.598,18.133,58.016,14.316,56.085,12.385z
	 M53.275,15.195c0.193,0.195,0.385,0.433,0.575,0.703H43.699V5.748c0.27,0.188,0.509,0.38,0.703,0.575L53.275,15.195z
	 M55.623,58.623c0,0.539-0.455,0.994-0.994,0.994H8.923c-0.539,0-0.993-0.455-0.993-0.994V4.968c0-0.54,0.454-0.994,0.993-0.994
	h29.808c0.301,0,0.637,0.039,0.993,0.104v15.793h15.794c0.067,0.357,0.104,0.695,0.104,0.994V58.623z"/>
<g>
	<path d="M22.417,26.239v1.979h-5.175v2.476h4.485v1.83h-4.485v4.425h-2.355v-10.71H22.417z"/>
	<path d="M26.137,26.239v8.729h5.22v1.98h-7.575v-10.71H26.137z"/>
	<path d="M38.017,26.239l4.005,10.71h-2.445l-0.81-2.385h-4.005l-0.841,2.385h-2.369l4.05-10.71H38.017z M38.151,32.81l-1.35-3.931
		h-0.03l-1.396,3.931H38.151z"/>
	<path d="M40.731,28.219v-1.979h8.775v1.979h-3.211v8.73h-2.354v-8.73H40.731z"/>
</g>
</svg>
