<?xml version="1.0" encoding="utf-8"?>
<!-- Generator: Adobe Illustrator 16.0.1, SVG Export Plug-In . SVG Version: 6.00 Build 0)  -->
<!DOCTYPE svg PUBLIC "-//W3C//DTD SVG 1.1//EN" "http://www.w3.org/Graphics/SVG/1.1/DTD/svg11.dtd">
<svg version="1.1" id="Layer_1" xmlns="http://www.w3.org/2000/svg" xmlns:xlink="http://www.w3.org/1999/xlink" x="0px" y="0px"
	 width="64px" height="64px" viewBox="0 0 64 64" enable-background="new 0 0 64 64" xml:space="preserve">
<path d="M56.085,12.385l-8.874-8.873C45.282,1.58,41.464,0,38.731,0H8.923C6.191,0,3.956,2.235,3.956,4.968v53.655
	c0,2.732,2.235,4.969,4.968,4.969h45.706c2.733,0,4.969-2.236,4.969-4.969V20.866C59.598,18.133,58.016,14.316,56.085,12.385z
	 M53.275,15.195c0.193,0.195,0.385,0.433,0.575,0.703H43.699V5.748c0.27,0.188,0.509,0.38,0.703,0.575L53.275,15.195z
	 M55.623,58.623c0,0.539-0.455,0.994-0.994,0.994H8.923c-0.539,0-0.993-0.455-0.993-0.994V4.968c0-0.54,0.454-0.994,0.993-0.994
	h29.808c0.301,0,0.637,0.039,0.993,0.104v15.793h15.794c0.067,0.357,0.104,0.695,0.104,0.994V58.623z"/>
<g>
	<path d="M13.492,26.239c0.669,0,1.24,0.098,1.71,0.292c0.47,0.195,0.852,0.453,1.147,0.773c0.295,0.319,0.51,0.685,0.645,1.095
		c0.135,0.41,0.202,0.835,0.202,1.274c0,0.431-0.067,0.854-0.202,1.268c-0.135,0.415-0.35,0.783-0.645,1.103
		c-0.295,0.32-0.678,0.578-1.147,0.772c-0.47,0.195-1.041,0.293-1.71,0.293h-2.475v3.84H8.662v-10.71H13.492z M12.847,31.279
		c0.27,0,0.53-0.02,0.78-0.061c0.25-0.039,0.47-0.117,0.66-0.232c0.189-0.114,0.342-0.277,0.458-0.487
		c0.115-0.21,0.172-0.484,0.172-0.825c0-0.34-0.058-0.614-0.172-0.824c-0.115-0.21-0.268-0.373-0.458-0.488
		c-0.19-0.114-0.41-0.192-0.66-0.232c-0.25-0.039-0.51-0.06-0.78-0.06h-1.83v3.21H12.847z"/>
	<path d="M20.467,34.31c0.13,0.25,0.302,0.452,0.518,0.607c0.215,0.155,0.467,0.27,0.757,0.345s0.59,0.112,0.9,0.112
		c0.21,0,0.435-0.018,0.675-0.053c0.24-0.034,0.465-0.102,0.675-0.202c0.21-0.1,0.385-0.237,0.525-0.412s0.21-0.397,0.21-0.668
		c0-0.29-0.093-0.524-0.278-0.705c-0.185-0.18-0.427-0.33-0.728-0.45c-0.3-0.119-0.64-0.225-1.02-0.314s-0.765-0.19-1.155-0.3
		c-0.4-0.101-0.79-0.223-1.17-0.368c-0.38-0.145-0.72-0.332-1.02-0.562c-0.3-0.229-0.542-0.518-0.728-0.862
		s-0.277-0.763-0.277-1.252c0-0.55,0.117-1.028,0.352-1.433c0.235-0.405,0.542-0.743,0.923-1.013c0.38-0.271,0.81-0.47,1.29-0.6
		s0.96-0.195,1.44-0.195c0.56,0,1.097,0.062,1.612,0.188s0.973,0.327,1.373,0.607s0.717,0.638,0.953,1.072
		c0.235,0.436,0.353,0.963,0.353,1.583h-2.28c-0.02-0.32-0.087-0.585-0.202-0.795c-0.115-0.21-0.268-0.375-0.458-0.495
		c-0.19-0.12-0.408-0.205-0.653-0.255c-0.245-0.051-0.512-0.075-0.802-0.075c-0.19,0-0.38,0.02-0.57,0.06s-0.362,0.11-0.517,0.21
		c-0.155,0.101-0.283,0.226-0.383,0.375c-0.1,0.15-0.15,0.34-0.15,0.57c0,0.21,0.04,0.38,0.12,0.51c0.08,0.13,0.237,0.25,0.472,0.36
		s0.56,0.22,0.975,0.33s0.958,0.25,1.627,0.42c0.2,0.04,0.478,0.112,0.833,0.218c0.355,0.104,0.708,0.272,1.058,0.502
		c0.35,0.23,0.652,0.538,0.908,0.923c0.255,0.385,0.382,0.877,0.382,1.478c0,0.49-0.095,0.944-0.285,1.364
		c-0.19,0.421-0.472,0.783-0.847,1.088c-0.375,0.306-0.84,0.543-1.395,0.713c-0.555,0.17-1.198,0.255-1.928,0.255
		c-0.59,0-1.163-0.073-1.717-0.218c-0.555-0.145-1.045-0.372-1.47-0.683c-0.425-0.31-0.763-0.705-1.012-1.185
		c-0.25-0.48-0.37-1.05-0.36-1.71h2.28C20.272,33.754,20.337,34.06,20.467,34.31z"/>
	<path d="M30.757,26.239v10.71h-2.355v-10.71H30.757z"/>
	<path d="M37.102,31.939v1.83h-4.515v-1.83H37.102z"/>
	<path d="M42.246,26.239l2.505,7.365h0.03l2.37-7.365h3.314v10.71h-2.204v-7.59h-0.03l-2.625,7.59h-1.815l-2.625-7.515h-0.029v7.515
		h-2.205v-10.71H42.246z"/>
	<path d="M54.891,26.239v10.71h-2.354v-10.71H54.891z"/>
	<path d="M15.734,41.239h2.73l2.1,3.42l2.175-3.42h2.58l-3.435,5.115l3.735,5.595h-2.805l-2.34-3.705l-2.385,3.705h-2.64l3.735-5.61
		L15.734,41.239z"/>
	<path d="M29.879,41.239l2.505,7.365h0.03l2.37-7.365h3.314v10.71h-2.204v-7.59h-0.03l-2.625,7.59h-1.815l-2.625-7.515h-0.03v7.515
		h-2.205v-10.71H29.879z"/>
	<path d="M42.524,41.239v8.729h5.22v1.98h-7.575v-10.71H42.524z"/>
</g>
</svg>
