<?xml version="1.0" encoding="utf-8"?>
<!-- Generator: Adobe Illustrator 16.0.1, SVG Export Plug-In . SVG Version: 6.00 Build 0)  -->
<!DOCTYPE svg PUBLIC "-//W3C//DTD SVG 1.1//EN" "http://www.w3.org/Graphics/SVG/1.1/DTD/svg11.dtd">
<svg version="1.1" id="Layer_1" xmlns="http://www.w3.org/2000/svg" xmlns:xlink="http://www.w3.org/1999/xlink" x="0px" y="0px"
	 width="64px" height="64px" viewBox="0 0 64 64" enable-background="new 0 0 64 64" xml:space="preserve">
<path d="M56.085,12.385l-8.874-8.873C45.282,1.58,41.464,0,38.731,0H8.923C6.191,0,3.956,2.235,3.956,4.968v53.655
	c0,2.732,2.235,4.969,4.968,4.969h45.706c2.733,0,4.969-2.236,4.969-4.969V20.866C59.598,18.133,58.016,14.316,56.085,12.385z
	 M53.275,15.195c0.193,0.195,0.385,0.433,0.575,0.703H43.699V5.748c0.27,0.188,0.509,0.38,0.703,0.575L53.275,15.195z
	 M55.623,58.623c0,0.539-0.455,0.994-0.994,0.994H8.923c-0.539,0-0.993-0.455-0.993-0.994V4.968c0-0.54,0.454-0.994,0.993-0.994
	h29.808c0.301,0,0.637,0.039,0.993,0.104v15.793h15.794c0.067,0.357,0.104,0.695,0.104,0.994V58.623z"/>
<g>
	<path d="M19.74,34.31c0.13,0.25,0.302,0.452,0.518,0.607c0.215,0.155,0.467,0.27,0.757,0.345s0.59,0.112,0.9,0.112
		c0.21,0,0.435-0.018,0.675-0.053c0.24-0.034,0.465-0.102,0.675-0.202c0.21-0.1,0.385-0.237,0.525-0.412S24,34.31,24,34.039
		c0-0.29-0.093-0.524-0.278-0.705c-0.185-0.18-0.427-0.33-0.728-0.45c-0.3-0.119-0.64-0.225-1.02-0.314s-0.765-0.19-1.155-0.3
		c-0.4-0.101-0.79-0.223-1.17-0.368c-0.38-0.145-0.72-0.332-1.02-0.562c-0.3-0.229-0.542-0.518-0.728-0.862
		s-0.277-0.763-0.277-1.252c0-0.55,0.117-1.028,0.352-1.433c0.235-0.405,0.542-0.743,0.923-1.013c0.38-0.271,0.81-0.47,1.29-0.6
		s0.96-0.195,1.44-0.195c0.56,0,1.097,0.062,1.612,0.188s0.973,0.327,1.373,0.607s0.717,0.638,0.953,1.072
		c0.235,0.436,0.353,0.963,0.353,1.583h-2.28c-0.02-0.32-0.087-0.585-0.202-0.795c-0.115-0.21-0.268-0.375-0.458-0.495
		c-0.19-0.12-0.408-0.205-0.653-0.255c-0.245-0.051-0.512-0.075-0.802-0.075c-0.19,0-0.38,0.02-0.57,0.06s-0.362,0.11-0.517,0.21
		c-0.155,0.101-0.283,0.226-0.383,0.375c-0.1,0.15-0.15,0.34-0.15,0.57c0,0.21,0.04,0.38,0.12,0.51c0.08,0.13,0.237,0.25,0.472,0.36
		s0.56,0.22,0.975,0.33s0.958,0.25,1.627,0.42c0.2,0.04,0.478,0.112,0.833,0.218c0.355,0.104,0.708,0.272,1.058,0.502
		c0.35,0.23,0.652,0.538,0.908,0.923c0.255,0.385,0.382,0.877,0.382,1.478c0,0.49-0.095,0.944-0.285,1.364
		c-0.19,0.421-0.472,0.783-0.847,1.088c-0.375,0.306-0.84,0.543-1.395,0.713c-0.555,0.17-1.198,0.255-1.928,0.255
		c-0.59,0-1.163-0.073-1.717-0.218c-0.555-0.145-1.045-0.372-1.47-0.683c-0.425-0.31-0.763-0.705-1.012-1.185
		c-0.25-0.48-0.37-1.05-0.36-1.71h2.28C19.545,33.754,19.61,34.06,19.74,34.31z"/>
	<path d="M32.294,26.239c0.69,0,1.333,0.11,1.927,0.33s1.11,0.55,1.545,0.99c0.436,0.439,0.775,0.989,1.021,1.649
		s0.367,1.436,0.367,2.325c0,0.78-0.1,1.5-0.3,2.16s-0.503,1.229-0.907,1.71c-0.405,0.479-0.91,0.857-1.516,1.133
		c-0.604,0.274-1.317,0.412-2.137,0.412h-4.62v-10.71H32.294z M32.13,34.969c0.34,0,0.669-0.055,0.989-0.164
		c0.32-0.11,0.605-0.293,0.855-0.548s0.45-0.588,0.6-0.998c0.15-0.409,0.226-0.909,0.226-1.5c0-0.54-0.053-1.027-0.158-1.462
		c-0.104-0.436-0.277-0.808-0.518-1.117c-0.239-0.311-0.558-0.548-0.952-0.713c-0.395-0.165-0.882-0.248-1.462-0.248h-1.68v6.75
		H32.13z"/>
	<path d="M46.319,26.239v1.979h-5.175v2.476h4.484v1.83h-4.484v4.425h-2.355v-10.71H46.319z"/>
</g>
</svg>
