<?xml version="1.0" encoding="utf-8"?>
<!-- Generator: Adobe Illustrator 16.0.1, SVG Export Plug-In . SVG Version: 6.00 Build 0)  -->
<!DOCTYPE svg PUBLIC "-//W3C//DTD SVG 1.1//EN" "http://www.w3.org/Graphics/SVG/1.1/DTD/svg11.dtd">
<svg version="1.1" id="Layer_1" xmlns="http://www.w3.org/2000/svg" xmlns:xlink="http://www.w3.org/1999/xlink" x="0px" y="0px"
	 width="181.42px" height="181.42px" viewBox="0 0 181.42 181.42" enable-background="new 0 0 181.42 181.42" xml:space="preserve">
<path fill="#010101" d="M166.025,126.254c-0.397-1.389-2.979-0.596-2.979-0.596l-2.383-2.184c0,0-3.177-2.383-5.757-3.375
	c-2.581-0.992-5.758,0-5.758,0s-0.199-4.17-0.397-5.559c-0.198-1.391-5.162-7.744-5.56-8.34c-0.396-0.596-5.757-11.117-5.757-11.117
	s-1.391-3.773-2.78-4.766c-0.606-0.434-1.25-0.488-1.783-0.412c0.096-6.108,0.095-11.813-0.003-13.287
	c-0.126-1.887-2.724-11.826-4.862-19.208c0.83-0.584,1.682-1.239,2.281-1.837c1.588-1.589,2.382-5.56,2.978-7.148
	c0.596-1.588,4.368-13.5,5.36-15.684c0.993-2.185,0.397-4.566,1.986-4.766c1.588-0.198,1.985-1.588,3.375-2.581
	s3.971-4.765,5.162-8.14s0.198-3.574,0.198-3.574s1.787,0.396,2.779,0.199c0.993-0.199,1.589-1.986,1.589-1.986
	s-2.78,0.596-4.368-0.198c-1.589-0.794-0.794-4.566-0.794-4.566s-1.39,1.985-1.589,3.177c-0.198,1.191,1.39,2.184,1.39,2.184
	l-4.367,6.354c0,0-4.766,2.383-6.155,3.375s-2.184,3.574-2.184,3.574s-1.787,0.992-2.581,2.383
	c-0.794,1.389-3.375,18.066-3.375,19.06s-0.397,3.177-0.397,3.177l-2.466,3.047c-0.708-2.289-1.264-3.901-1.505-4.238
	c-0.993-1.391-5.832-1.441-6.626-2.037c-0.795-0.596-8.955-0.75-9.75-0.75c-0.794,0-6.131-0.646-5.5-1.75
	c2-3.5,8.87-1.637,11.25-1.75c5.25-0.25,7.052,3.904,8.839,3.508c1.787-0.397,0.198-1.986-0.198-3.574
	c-0.397-1.588-2.184-8.934-5.758-12.905c-0.008-0.009-0.018-0.019-0.025-0.026c1.519-0.459,3.121-1.193,4.314-2.254
	c1.859-1.652,4.119-6.861,5.354-8.572c1.234-1.712,3.211-9.912,4.728-13.931c1.516-4.019,1.546-5.655-0.15-5.06
	s-3.109,4.182-3.719,5.953s-4.668,13.306-5.174,14.646c-0.506,1.339-3.853,5.373-5.697,6.207c-0.651,0.295-1.404,0.587-2.107,0.843
	c-3.172-2.588-8.416-6.443-11.62-8.13c-3.717-1.956-7.577-2.948-10.538-3.451c-0.073-0.182-1.159-0.519-2.686-0.364
	c-1.526-0.154-2.611,0.183-2.686,0.364c-2.961,0.503-6.821,1.495-10.539,3.451c-3.203,1.687-8.447,5.542-11.619,8.13
	c-0.703-0.256-1.455-0.548-2.107-0.843c-1.846-0.834-5.191-4.868-5.697-6.207c-0.506-1.34-4.564-12.874-5.174-14.646
	s-2.021-5.357-3.719-5.953c-1.695-0.596-1.666,1.041-0.15,5.06c1.517,4.019,3.493,12.219,4.728,13.931
	c1.235,1.711,3.495,6.92,5.354,8.572c1.193,1.061,2.796,1.795,4.314,2.254c-0.008,0.008-0.018,0.018-0.025,0.026
	c-3.574,3.972-5.361,11.317-5.758,12.905s-1.985,3.177-0.198,3.574c1.786,0.396,2.339-2.508,8.839-3.883
	c2.331-0.493,10.5-0.625,11.875,2.125c0.569,1.138-5.581,0.375-6.375,0.375c-0.795,0-5.5,0.25-10.125,2.125
	c-0.92,0.373-5.008,0.646-6.001,2.037c-0.241,0.337-0.798,1.949-1.505,4.238l-2.466-3.047c0,0-0.397-2.184-0.397-3.177
	s-2.58-17.671-3.375-19.06c-0.794-1.391-2.581-2.383-2.581-2.383s-0.794-2.582-2.184-3.574s-6.155-3.375-6.155-3.375l-4.367-6.354
	c0,0,1.588-0.992,1.389-2.184c-0.197-1.191-1.588-3.177-1.588-3.177s0.795,3.772-0.794,4.566s-4.368,0.198-4.368,0.198
	s0.596,1.787,1.589,1.986c0.993,0.197,2.779-0.199,2.779-0.199s-0.993,0.199,0.198,3.574s3.772,7.146,5.162,8.14
	c1.391,0.993,1.787,2.383,3.375,2.581c1.589,0.199,0.993,2.581,1.986,4.766c0.992,2.184,4.765,14.096,5.36,15.684
	c0.595,1.589,1.39,5.56,2.978,7.148c0.6,0.598,1.451,1.253,2.281,1.837c-2.139,7.382-4.736,17.321-4.861,19.208
	c-0.099,1.474-0.1,7.178-0.004,13.287c-0.533-0.076-1.178-0.021-1.783,0.412c-1.391,0.992-2.779,4.766-2.779,4.766
	s-5.361,10.521-5.758,11.117c-0.397,0.596-5.361,6.949-5.56,8.34c-0.198,1.389-0.397,5.559-0.397,5.559s-3.176-0.992-5.758,0
	c-2.58,0.992-5.758,3.375-5.758,3.375l-2.382,2.184c0,0-2.581-0.793-2.978,0.596c-0.398,1.391,0.197-0.596,1.786,0.795
	c1.589,1.39,1.589,2.383,1.589,2.383s-2.383,2.58-0.795,2.58c1.589,0,2.184-2.184,2.184-2.184l0.795-2.383
	c0,0,5.36-2.779,6.75-2.978c1.391-0.198,5.162-0.397,5.957-1.589c0.793-1.191,0.793-1.787,2.58-2.58
	c1.787-0.795,4.766-5.758,5.162-8.141c0.397-2.383,3.375-11.119,3.375-11.119l1.589-3.573c0,0,1.118,0.495,2.37,0.604
	c0.105,3.242,0.242,6.057,0.41,7.734c0.303,3.041,1.643,9.445,3.092,15.383c-1.59,1.417-3.965,3.635-4.482,4.67
	c-0.794,1.588-2.779,6.154-2.779,6.154s-1.588,1.191-1.39,2.383s-1.191,15.486-1.191,17.273s1.786,8.338,1.786,8.338
	s-2.184,2.78-2.779,4.17s-2.184,4.566-2.184,4.566s-2.383,4.766-2.383,5.956c0,1.191-0.396,3.177-0.396,3.177
	s-2.184,2.383-0.993,3.375c1.191,0.993,0.596-2.779,1.985-2.383c1.391,0.397,1.986,2.582,2.779,1.589
	c0.795-0.993-0.396-2.978-0.396-2.978s0.794-4.766,1.39-5.56s4.368-6.751,4.964-7.743s1.39-2.383,1.39-3.375s1.19-1.391,1.19-2.979
	s-1.588-8.934-1.389-9.529c0.198-0.596-0.993-13.502-0.993-13.502l1.787-1.984c0,0,2.581,0,3.971-0.993
	c0.724-0.517,1.716-1.194,2.502-1.727c0.507,1.661,0.949,2.911,1.271,3.514c1.588,2.978,4.169,4.964,5.36,5.757
	c1.191,0.795,7.589,1.9,10.964,1.701c3.375-0.198,12.25-1.75,12.25-1.75s-0.521,3.309-3.5,4.5
	c-2.978,1.191-9.191,1.109-10.979,1.109s-6.354-1.191-6.354,0.396s6.751,8.141,11.119,9.927c4.367,1.787,7.743,1.589,9.331,2.78
	c1.589,1.191,5.162,1.984,6.354,1.191c0.136-0.092,1.296-0.092,1.432,0c1.191,0.793,4.765,0,6.354-1.191
	c1.588-1.191,4.963-0.993,9.331-2.78c4.368-1.786,11.118-8.339,11.118-9.927s-6.295,0.369-8.081,0.369
	c-1.787,0-6.272-1.059-9.25-2.25c-2.979-1.191-4-4.75-4-4.75c10.137,3.797,9.95,2.601,12.5,2.75
	c3.375,0.199,10.022-1.281,11.214-2.076c1.191-0.793,3.772-2.779,5.36-5.757c0.321-0.603,0.764-1.853,1.271-3.514
	c0.786,0.532,1.777,1.21,2.502,1.727c1.39,0.993,3.971,0.993,3.971,0.993l1.787,1.984c0,0-1.191,12.906-0.993,13.502
	c0.199,0.596-1.39,7.941-1.39,9.529s1.191,1.986,1.191,2.979s0.794,2.383,1.39,3.375s4.368,6.949,4.964,7.743s1.39,5.56,1.39,5.56
	s-1.191,1.984-0.397,2.978c0.795,0.993,1.391-1.191,2.78-1.589c1.39-0.396,0.794,3.376,1.985,2.383
	c1.191-0.992-0.993-3.375-0.993-3.375s-0.396-1.985-0.396-3.177c0-1.19-2.383-5.956-2.383-5.956s-1.588-3.177-2.184-4.566
	s-2.78-4.17-2.78-4.17s1.787-6.551,1.787-8.338s-1.39-16.082-1.191-17.273c0.199-1.191-1.39-2.383-1.39-2.383
	s-1.985-4.566-2.779-6.154c-0.519-1.035-2.893-3.253-4.482-4.67c1.449-5.938,2.788-12.342,3.093-15.383
	c0.168-1.678,0.304-4.492,0.408-7.734c1.254-0.109,2.371-0.604,2.371-0.604l1.588,3.573c0,0,2.979,8.736,3.376,11.119
	c0.396,2.383,3.375,7.346,5.162,8.141c1.786,0.793,1.786,1.389,2.58,2.58c0.795,1.191,4.567,1.391,5.957,1.589
	s6.75,2.978,6.75,2.978l0.794,2.383c0,0,0.596,2.184,2.185,2.184c1.588,0-0.795-2.58-0.795-2.58s0-0.993,1.589-2.383
	C165.826,125.658,166.422,127.645,166.025,126.254z"/>
</svg>
