<?xml version="1.0" encoding="utf-8"?>
<!-- Generator: Adobe Illustrator 16.0.1, SVG Export Plug-In . SVG Version: 6.00 Build 0)  -->
<!DOCTYPE svg PUBLIC "-//W3C//DTD SVG 1.1//EN" "http://www.w3.org/Graphics/SVG/1.1/DTD/svg11.dtd">
<svg version="1.1" id="Layer_1" xmlns="http://www.w3.org/2000/svg" xmlns:xlink="http://www.w3.org/1999/xlink" x="0px" y="0px"
	 width="181.42px" height="181.42px" viewBox="0 0 181.42 181.42" enable-background="new 0 0 181.42 181.42" xml:space="preserve">
<path fill="#010101" d="M153.766,174.068c-0.289-1.731-2.419-4.094-3.908-4.28s-5.024-2.605-5.024-2.605s-2.979,0.265-2.979-2.419
	c0-1.117,1.676-1.489,2.42-2.979c0.744-1.488,4.839-7.444,6.514-13.586c1.675-6.141,1.489-10.607,1.303-13.771
	s-1.861-12.097-1.489-14.889c0.373-2.791-0.372-6.328-1.116-9.119s-2.233-6.328-2.233-6.328s0-9.49,0.372-13.585
	c0.372-4.094,1.675-9.119,1.675-9.119s0.931-10.794,0.187-15.075c-0.744-4.281-4.653-18.052-5.025-20.658
	c-0.372-2.606-3.908-11.725-3.908-11.725s-0.744-5.025-1.488-7.444c-0.745-2.419-2.233-7.816-2.233-7.816s1.861-10.794,0.186-14.703
	c-1.675-3.908-2.605-3.908-2.605-3.908s-2.419,0.373-3.908,1.675c-1.488,1.303-4.094,5.769-5.211,8.002
	c-1.116,2.233-2.047,6.514-6.514,6.7c0,0-3.722,0.373-5.211,0.931c-1.489,0.559-7.444,0.931-8.375,0.931s-4.095-0.931-4.839-1.675
	c-0.744-0.745-8.561-7.817-10.235-8.189c-1.676-0.372-5.025-0.745-5.025-0.745s-1.488,0-1.303,4.095
	c0.187,4.094,0.931,8.561,1.675,9.305c0.745,0.745,2.792,5.025,2.978,6.514c0.187,1.489,1.489,5.77,1.676,7.258
	s-0.744,5.211-0.744,5.211s-0.187,4.653,0.186,7.816c0.372,3.164,1.116,8.189,1.116,8.189s-1.116,5.583-0.93,8.375
	c0.186,2.792,0.744,10.608,1.488,13.214c0.745,2.605,1.117,7.258,0.187,9.305c-0.931,2.047-8.003,16.377-9.864,18.797
	c-1.86,2.419-6.886,10.794-8.002,12.469c-1.117,1.675-3.909,9.863-5.212,12.469s-3.35,5.955-3.535,8.562
	c-0.186,2.605,0.93,5.583,2.047,8.188s5.211,9.306,5.211,9.306l1.303,3.908c0,0-4.652,3.35-7.258,3.722
	c-2.605,0.373-6.142-0.559-9.492-0.93c-3.35-0.373-11.538-1.303-13.586-0.932c-2.047,0.373-5.955,0.745-7.63,1.861
	c-1.675,1.117-5.211,2.979-6.327,4.095c-1.117,1.116-2.979,3.35-2.605,4.466c0.372,1.117,4.467,0.373,6.699,0.373
	c2.233,0,6.7-0.187,8.747,0.559c2.048,0.744,12.283,1.488,13.586,1.674c1.303,0.188,16.191,0,16.75,0.188
	c0.558,0.186,7.63,1.116,8.747,0.744c1.116-0.373,7.072-0.744,7.072-0.744s6.141,3.721,8.374,3.35
	c2.233-0.373,3.723-0.745,3.723-0.745s2.605,1.675,3.722,1.304c1.117-0.373,4.28,0.93,4.28,0.93s0.931,0.931,3.164,0.559
	s4.839-0.372,4.839-0.372s3.723,1.302,5.211,0.372c1.489-0.931,4.28-1.861,4.28-1.861s2.048-1.861,1.861-3.164
	c-0.186-1.303,0.559-4.28,0.559-4.28s0,5.211,1.675,5.956c1.675,0.744,3.722,1.861,5.77,1.861c2.047,0,5.955-0.745,7.258-0.745
	s3.723,0.745,5.397-0.187c1.675-0.93,3.164-0.372,4.839-1.303C154.696,176.488,154.138,176.302,153.766,174.068z M111.333,38.955
	c-0.186,0.745-1.488,0.745-1.488,0.745s-2.048,0.372-3.536,0c-1.489-0.373-3.164-2.792-3.164-2.792s1.021-1.717,2.605-1.861
	c2.047-0.186,2.047-0.372,3.908,0.559C111.52,36.535,111.333,38.955,111.333,38.955z M127.596,36.429
	c-1.355,0.72-3.433,0.851-3.433,0.851s-1.265,0.314-1.624-0.364c0,0-0.763-2.304,0.819-3.655c1.583-1.351,1.627-1.17,3.659-1.482
	c1.572-0.241,2.977,1.179,2.977,1.179S128.951,35.709,127.596,36.429z"/>
</svg>
