<?xml version="1.0" encoding="utf-8"?>
<!-- Generator: Adobe Illustrator 16.0.1, SVG Export Plug-In . SVG Version: 6.00 Build 0)  -->
<!DOCTYPE svg PUBLIC "-//W3C//DTD SVG 1.1//EN" "http://www.w3.org/Graphics/SVG/1.1/DTD/svg11.dtd">
<svg version="1.1" id="Layer_1" xmlns="http://www.w3.org/2000/svg" xmlns:xlink="http://www.w3.org/1999/xlink" x="0px" y="0px"
	 width="32px" height="32px" viewBox="0 0 32 32" enable-background="new 0 0 32 32" xml:space="preserve">
<path fill="#231F20" d="M29.571,28.459c-0.065-0.332-0.766-0.798-0.998-1.032c-0.232-0.231-0.699-0.598-0.433-1.331
	c0.455-1.249,0.516-3.118-1.165-6.223C24.778,15.812,17.677,9.179,16.558,7.99c-3.163-3.362-4.394-6.49-4.394-6.49
	c-0.41,1.273-0.079,2.966,0.423,4.362c-0.373-0.313-0.866-0.488-1.101-0.559c-0.197-0.369-0.54-0.62-0.997-0.726
	c-0.198-0.046-0.382-0.057-0.51-0.056C9.502,3.806,8.715,3.689,8.228,3.74C7.917,3.331,7.474,3.131,6.937,3.16
	C6.695,3.173,6.482,3.233,6.338,3.283c-0.36-0.321-0.845-0.403-1.386-0.23c-0.31,0.099-0.566,0.257-0.691,0.342l0,0
	c-0.534,0-0.965,0.258-1.221,0.733C2.896,4.392,2.842,4.659,2.823,4.791C2.314,5.479,2.362,6.054,2.496,6.417
	C2.58,6.649,2.708,6.823,2.806,6.932c-0.12,0.44-0.036,0.901,0.247,1.343C3.188,8.484,3.34,8.647,3.447,8.749
	c-0.197,0.949,0.266,1.563,0.521,1.818c-0.046,0.279,0.089,0.621,0.403,1.02c0.168,0.214,0.351,0.399,0.46,0.504
	c-0.031,0.742,0.533,1.19,0.957,1.379c0.113,0.883,0.831,1.329,1.163,1.489c0.064,0.363,0.345,0.876,0.743,1.182
	c-2.336-0.746-4.382-0.296-4.382-0.296s1.625,0.566,2.262,1.031c2.097,1.531,3.962,3.428,8.254,8.088
	c4.295,4.659,8.388,4.625,9.32,4.56c0.932-0.066,1.83-0.233,1.931-0.267c0.1-0.034,1.01-0.353,1.33-0.166
	c0.4,0.232,1.498,1.397,1.498,1.397C28.506,30.655,29.638,28.792,29.571,28.459z M9.628,17.041c0.083-0.071,0.311-0.263,0.61-0.517
	c0.331,0.537,0.914,1.449,1.127,1.556c0.068,0.035,0.172,0.116,0.286,0.214c-0.024,0.022-0.045,0.042-0.065,0.062
	C10.849,17.833,10.179,17.378,9.628,17.041z M15.35,14.964c-0.224,0.153-0.882,0.736-1.593,1.383
	c-0.286-0.422-0.919-1.351-1.22-1.752c0.248-0.205,0.434-0.357,0.514-0.416c0.154-0.116,0.412-0.369,0.711-0.663
	c0.12-0.118,0.248-0.243,0.375-0.366c0.155,0.179,0.372,0.441,0.583,0.699c0.394,0.478,0.671,0.813,0.827,0.972
	C15.472,14.878,15.404,14.927,15.35,14.964z M12.739,13.857c-0.055,0.061-0.23,0.211-0.47,0.408
	c-0.278-0.37-0.967-1.349-1.513-2.134c0.062-0.056,0.109-0.097,0.136-0.119c0.102-0.087,0.608-0.425,1.1-0.752
	c0.126-0.084,0.243-0.163,0.352-0.234c0.1,0.121,0.259,0.318,0.424,0.522c0.42,0.519,0.934,1.153,1.132,1.354
	C13.351,13.327,12.862,13.719,12.739,13.857z M10.155,12.125c-0.225,0.25-0.912,0.828-1.477,1.292
	c-0.332-0.511-0.667-1.046-0.838-1.345c0.243-0.173,0.819-0.662,1.338-1.11C9.374,11.213,9.907,11.893,10.155,12.125z
	 M10.424,12.426c0.197,0.271,0.492,0.716,0.745,1.097c0.375,0.568,0.594,0.895,0.718,1.051c-0.266,0.214-0.562,0.45-0.845,0.674
	c-0.28,0.223-0.509,0.405-0.698,0.557c-0.073-0.096-0.156-0.198-0.238-0.299c-0.14-0.171-0.284-0.349-0.326-0.433
	c-0.079-0.158-0.624-0.955-0.876-1.322C9.333,13.395,9.978,12.823,10.424,12.426z M15.509,15.281
	c0.029-0.04,0.121-0.134,0.251-0.261c0.331,0.364,1.201,1.501,1.461,1.864c-0.206,0.205-0.386,0.383-0.509,0.51
	c-0.229,0.235-0.792,0.662-1.397,1.094c-0.32-0.432-1.065-1.439-1.329-1.806C14.867,15.898,15.432,15.387,15.509,15.281z
	 M12.173,14.899c0.182,0.242,0.46,0.64,0.682,0.958c0.291,0.416,0.461,0.657,0.566,0.797c-0.578,0.529-1.153,1.064-1.526,1.413
	c-0.319-0.44-1.052-1.478-1.287-1.854C11.102,15.795,11.692,15.3,12.173,14.899z M11.954,10.635
	c0.039,0.037,0.077,0.072,0.109,0.103c-0.634,0.405-1.214,0.783-1.56,1.053L9.49,10.693c0.08-0.071,0.159-0.137,0.23-0.199
	c0.219-0.191,0.393-0.341,0.438-0.376c0.065-0.053,0.347-0.296,0.666-0.573C10.991,9.717,11.321,10.035,11.954,10.635z
	 M13.415,17.191c0.091-0.081,0.181-0.161,0.269-0.239c0.171,0.217,0.518,0.712,0.766,1.064c0.242,0.345,0.416,0.593,0.514,0.722
	c-0.552,0.39-1.091,0.753-1.397,0.957c-0.417-0.382-1.176-1.081-1.444-1.349C12.435,18.062,12.944,17.608,13.415,17.191z
	 M6.037,7.282c0.055,0.091,0.179,0.293,0.321,0.502c0.223,0.329,0.364,0.495,0.454,0.581l-1.177,0.79L5.18,8.056
	c0.155-0.118,0.269-0.211,0.298-0.251C5.511,7.762,5.741,7.549,6.037,7.282z M5.763,9.397C6.11,9.121,6.651,8.715,6.968,8.479
	c0.183,0.117,0.565,0.545,0.804,0.828c-0.454,0.312-1.049,0.726-1.43,1.015C6.17,10.029,5.898,9.606,5.763,9.397z M20.957,19.494
	c-0.061,0.025-0.108,0.108-0.265,0.394c-0.206,0.376-0.516,0.942-0.894,1.321c-0.285,0.285-0.878,0.675-1.413,1.002
	c-0.315-0.392-1.076-1.324-1.346-1.638c0.269-0.242,0.483-0.44,0.529-0.493c0.129-0.15,1.05-1.052,1.06-1.061
	c0.031-0.03,0.033-0.081,0.005-0.113c-0.028-0.033-0.078-0.038-0.113-0.012c-0.026,0.019-0.651,0.493-1.006,0.826
	c-0.121,0.113-0.392,0.345-0.696,0.602c-0.288-0.338-0.937-1.126-1.325-1.598c0.698-0.514,1.338-0.991,1.427-1.081
	c0.054-0.052,0.25-0.241,0.511-0.488c0.152,0.167,0.411,0.429,0.746,0.767c0.261,0.265,0.506,0.512,0.585,0.604
	c0.021,0.026,0.044,0.051,0.084,0.051l0,0c0.034,0,0.064-0.02,0.077-0.049c0.025-0.056,0.027-0.062-0.556-0.864
	c-0.105-0.145-0.409-0.559-0.611-0.815c0.494-0.467,1.078-1.016,1.379-1.299c1.046,1.387,1.955,2.6,2.444,3.304
	C21.267,19.194,21.013,19.459,20.957,19.494z M11.917,18.538c0.073,0.069,0.144,0.138,0.205,0.2
	c-0.079-0.057-0.158-0.115-0.237-0.17C11.894,18.56,11.905,18.549,11.917,18.538z M16.746,20.837l1.473,1.473
	c-0.328,0.197-0.618,0.359-0.773,0.448c-0.487-0.375-1.003-0.771-1.532-1.177C16.113,21.402,16.438,21.113,16.746,20.837z
	 M18.91,15.25c-0.344,0.329-0.894,0.857-1.377,1.329c-0.157-0.195-0.423-0.548-0.681-0.892c-0.309-0.411-0.603-0.802-0.756-0.984
	c0.434-0.406,1.014-0.933,1.421-1.299C17.987,14.028,18.459,14.652,18.91,15.25z M17.414,13.265
	c-0.35,0.303-0.985,0.847-1.486,1.255c-0.306-0.331-1.141-1.272-1.483-1.659c0.253-0.231,0.48-0.417,0.617-0.469
	c0.284-0.109,0.789-0.498,1.124-0.77C16.583,12.158,16.998,12.711,17.414,13.265z M3.288,5.058l0.049-0.063l0.006-0.079
	c0-0.002,0.026-0.285,0.171-0.547C3.69,4.051,3.957,3.908,4.328,3.93l0.1,0.005l0.079-0.061C4.546,3.843,5.513,3.109,6.07,3.769
	l0.135,0.159l0.187-0.092c0.002-0.002,0.268-0.13,0.589-0.145c0.396-0.017,0.688,0.14,0.896,0.478l0.1,0.163l0.187-0.042
	c0.01-0.002,0.974-0.212,1.438,0.633l0.087,0.158l0.179-0.021c0.002,0,0.235-0.025,0.502,0.037c0.338,0.08,0.568,0.259,0.685,0.535
	l0.052,0.123l0.129,0.032c0.265,0.066,1.003,0.327,1.229,0.736l0.022,0.039l0.646,0.584c0.113,0.229,0.224,0.435,0.331,0.612
	c0.464,0.772,1.434,2.125,2.56,3.646c-0.219,0.109-0.47,0.244-0.608,0.347c-0.284,0.213-0.721,0.542-1.162,0.88
	c-0.113-0.166-0.405-0.591-0.714-1.016c-0.346-0.478-0.565-0.754-0.709-0.916c0.331-0.225,0.502-0.351,0.538-0.396
	c0.098-0.13,0.724-0.888,0.73-0.896c0.027-0.034,0.025-0.083-0.007-0.113c-0.032-0.03-0.081-0.03-0.114-0.001
	c-0.006,0.006-0.7,0.632-1.058,0.893c-0.074,0.054-0.224,0.151-0.41,0.271c-0.192-0.091-0.83-0.606-1.432-1.131
	c0.414-0.36,0.815-0.711,0.847-0.74c0.034-0.028,0.039-0.079,0.011-0.113c-0.027-0.036-0.077-0.042-0.114-0.017
	c-0.038,0.027-0.474,0.335-0.954,0.683l-0.538-0.509c-0.032-0.029-0.081-0.03-0.112-0.001c-0.032,0.029-0.038,0.077-0.012,0.111
	l0.422,0.574c-0.487,0.355-0.957,0.71-1.051,0.82c-0.041,0.048-0.167,0.156-0.339,0.295L8.601,9.761
	C8.571,9.73,8.523,9.727,8.49,9.753c-0.034,0.026-0.042,0.074-0.019,0.11l0.493,0.78c-0.193,0.153-0.41,0.321-0.615,0.481
	c-0.299,0.233-0.541,0.421-0.717,0.562c-0.084-0.093-0.237-0.232-0.495-0.461c-0.194-0.172-0.444-0.394-0.572-0.535
	c0.342-0.268,0.947-0.797,1.389-1.19c0.007,0.002,0.014,0.003,0.02,0.003c0.016,0,0.033-0.005,0.046-0.014
	c0.028-0.019,0.04-0.05,0.037-0.08C8.3,9.192,8.475,9.035,8.496,9.015c0.034-0.029,0.038-0.078,0.01-0.113
	C8.48,8.868,8.431,8.859,8.395,8.884C8.337,8.923,8.168,9.037,7.943,9.19c-0.17-0.305-0.511-0.881-0.716-1.035
	C7.046,8.02,6.591,7.427,6.308,7.041C6.819,6.59,7.404,6.093,7.557,6.009c0.019-0.007,0.032-0.012,0.039-0.015
	c0.069-0.026,0.06-0.088,0.059-0.095C7.647,5.86,7.614,5.831,7.573,5.831c-0.014,0-0.023,0.003-0.034,0.007L7.517,5.845
	C7.507,5.849,7.498,5.852,7.488,5.857C7.277,5.94,6.768,6.157,6.516,6.435C6.45,6.507,6.33,6.621,6.113,6.803L5.506,6.167
	c-0.03-0.032-0.079-0.035-0.112-0.008C5.36,6.186,5.352,6.233,5.376,6.27l0.485,0.74C5.646,7.181,5.366,7.396,5.007,7.664
	L4.342,6.441C4.558,6.266,4.74,6.115,4.806,6.05c0.199-0.199,1.128-1.224,1.167-1.268c0.028-0.031,0.028-0.078,0.001-0.109
	C5.948,4.641,5.902,4.634,5.867,4.656C5.836,4.675,5.124,5.13,4.854,5.399C4.72,5.534,4.391,5.819,4.104,6.065
	C4.001,5.929,3.857,5.719,3.793,5.549c-0.004-0.032-0.007-0.061-0.01-0.085c-0.013-0.11-0.02-0.17-0.098-0.17
	c-0.012,0-0.075,0.005-0.086,0.087C3.591,5.439,3.603,5.507,3.631,5.588c0.043,0.337,0.105,0.569,0.193,0.713
	C3.708,6.398,3.623,6.469,3.601,6.488L3.292,6.662L3.277,6.65C3.246,6.625,2.527,6.037,3.288,5.058z M3.289,7.271
	c0.092-0.071,0.437-0.34,0.777-0.61c0.059,0.149,0.116,0.345,0.169,0.528c0.111,0.379,0.197,0.653,0.303,0.81
	C4.327,8.148,4.077,8.322,3.904,8.443C3.857,8.405,3.254,7.908,3.289,7.271z M3.963,8.889c0.178-0.1,0.544-0.346,0.873-0.581
	C4.988,8.552,5.169,8.997,5.301,9.38L4.601,9.849c-0.011,0.008-0.02,0.017-0.027,0.029l-0.195,0.348
	C4.227,10.084,3.825,9.633,3.963,8.889z M4.79,11.258c-0.23-0.292-0.294-0.476-0.297-0.572c0.006-0.004,0.011-0.008,0.018-0.015
	c0.006-0.007,0.551-0.633,0.894-0.966c0.086,0.275,0.28,0.822,0.513,1.003c-0.111,0.123-0.316,0.317-0.501,0.493
	c-0.174,0.166-0.291,0.277-0.366,0.354C4.969,11.472,4.877,11.369,4.79,11.258z M5.692,12.789c-0.257-0.211-0.361-0.462-0.319-0.769
	l0.006-0.046c0.049-0.056,0.118-0.144,0.228-0.285c0.191-0.248,0.44-0.571,0.654-0.764c0.282,0.248,0.711,0.732,1.005,1.087
	c-0.181,0.173-0.768,0.648-1.207,0.993C5.978,12.972,5.832,12.902,5.692,12.789z M6.312,13.355c0.093-0.062,0.261-0.207,0.625-0.529
	c0.177-0.156,0.366-0.323,0.536-0.466c0.231,0.411,0.613,1.071,0.834,1.358c-0.261,0.211-0.444,0.357-0.451,0.362
	c0,0-0.001,0.001-0.003,0.002l-0.518,0.46l-0.042-0.015C7.285,14.525,6.391,14.2,6.312,13.355z M8.219,15.837l-0.062-0.031
	c-0.335-0.167-0.568-0.57-0.652-0.817c0.056-0.02,0.127-0.091,0.328-0.304c0.203-0.212,0.479-0.503,0.687-0.636
	c0.015-0.009,0.031-0.021,0.049-0.034c0.115,0.16,0.268,0.402,0.401,0.611c0.352,0.557,0.506,0.788,0.606,0.828
	c0.074,0.03,0.263,0.339,0.413,0.638c-0.292,0.238-0.403,0.339-0.423,0.379c-0.028,0.056-0.156,0.208-0.291,0.361
	c-0.013-0.007-0.026-0.015-0.039-0.021c-0.182-0.104-0.365-0.197-0.548-0.283L8.219,15.837z M13.791,19.971
	c0.294-0.215,0.827-0.603,1.371-1.003c0.274,0.319,0.92,1.095,1.35,1.611c-0.394,0.329-0.777,0.646-0.915,0.759
	C15.001,20.882,14.393,20.42,13.791,19.971z M21.242,28.659c1.729,0.2,3.275-0.969,3.275-0.969
	c-3.861,0.135-6.291-2.562-6.291-2.562c4.229,2.631,5.734,1.864,6.162,1.751c-0.131-0.463-0.19-0.874-0.205-0.986
	c-0.514,0.184-1.639,0.339-3.432-0.662c-0.152-0.085-0.475-0.313-0.918-0.646l0.411-0.457c0.121-0.077,1.204-0.771,1.369-0.938
	c0.17-0.168,0.941-1.293,0.975-1.343c0.023-0.035,0.018-0.084-0.017-0.11c-0.033-0.028-0.083-0.024-0.112,0.007
	c-0.005,0.006-0.471,0.501-1.092,1.025c-0.512,0.431-1.677,1.157-2.079,1.405c-0.417-0.318-0.901-0.689-1.427-1.094
	c0.633-0.439,1.999-1.384,2.177-1.512c0.262-0.186,1.069-1.482,1.191-1.728c0.056-0.113,0.277-0.43,0.51-0.75
	c2.403,3.578,2.726,5.819,2.768,6.453c0.115,0.749,0.349,1.44,0.427,1.917l0.115,0.562C22.554,29.354,21.242,28.659,21.242,28.659z"
	/>
</svg>
