<?xml version="1.0" encoding="utf-8"?>
<!-- Generator: Adobe Illustrator 16.0.1, SVG Export Plug-In . SVG Version: 6.00 Build 0)  -->
<!DOCTYPE svg PUBLIC "-//W3C//DTD SVG 1.1//EN" "http://www.w3.org/Graphics/SVG/1.1/DTD/svg11.dtd">
<svg version="1.1" id="Layer_1" xmlns="http://www.w3.org/2000/svg" xmlns:xlink="http://www.w3.org/1999/xlink" x="0px" y="0px"
	 width="32px" height="32px" viewBox="0 0 32 32" enable-background="new 0 0 32 32" xml:space="preserve">
<path d="M31.896,11.519c-0.144-0.277-0.25-0.497-0.437-0.712c-0.147-0.272-0.263-0.435-0.494-0.679
	c-0.178-0.093-0.277-0.273-0.552-0.35c-0.241-0.268-0.772-0.243-1.125-0.367c-0.481-0.11-1.145-0.136-1.529-0.393
	c-0.488-0.05-0.972-0.366-1.469-0.204c-0.388,0.09-0.893,0.039-1.255,0.236c-0.728,0.107-1.484,0.146-2.22,0.268
	c-0.657,0.062-1.412,0.004-2.1,0.126c-1.061-0.035-1.967-0.272-3.035-0.302c-0.915-0.09-2.002-0.038-2.813-0.307
	c-0.569-0.092-1.001-0.37-1.658-0.327c-0.424-0.083-0.846,0.033-1.122,0.095c-0.552,0.153-0.966,0.346-1.647,0.297
	C9.679,8.953,8.893,8.77,8.313,8.586C7.864,8.486,7.412,8.439,7.036,8.284C7.104,7.839,6.93,7.67,6.64,7.466
	c-0.113-0.078-0.336,0.292-0.322-0.02c0.095-0.405-0.167-0.7-0.428-0.938C5.7,6.244,5.508,6.009,5.302,5.772l0,0
	C5.126,5.848,5.018,6.165,5.134,6.387c0.032,0.279,0.274,0.468,0.318,0.751c-0.01,0.237-0.111-0.081-0.251-0.062
	C4.891,7.017,4.648,7.196,4.383,6.978c-0.251-0.067-0.257,0.19-0.501-0.009c-0.21-0.061-0.291-0.102-0.497-0.216
	C3.093,6.609,2.786,6.244,2.477,6.112C2.271,6.241,2.43,6.622,2.563,6.775c0.226,0.388,0.697,0.54,1.077,0.753
	c0.008,0.104-0.218,0.213-0.312,0.119C2.956,7.336,2.314,7.295,1.874,7.514C1.51,7.55,1.358,7.979,1.532,8.242
	c0.138,0.329,0.614,0.31,0.914,0.465c-0.02,0.367,0.027,0.694-0.232,0.902c-0.293,0.409-0.602,0.756-0.895,1.128
	c-0.167,0.371-0.512,0.668-0.709,0.964c-0.323,0.172-0.727,0.415-0.579,0.963c0.113,0.254,0.373,0.394,0.574,0.573
	c0.213,0.212,0.475,0.549,0.829,0.357c0.22-0.171,0.369-0.473,0.8-0.338c0.651,0.103,1.148-0.184,1.809-0.071
	c0.51-0.011,1.023,0.088,1.53,0.105c0.205,0.134,0.477,0.277,0.591,0.454c0.295,0.499,1.012,1.168,1.391,1.569
	c0.194,0.196,0.306,0.387,0.407,0.599c0.05,0.295,0.103,0.626,0.357,0.782c0.171,0.262,0.367,0.431,0.591,0.629
	c0.208,0.107,0.293,0.318,0.351,0.596c0.246,0.266,0.115,0.955,0.326,1.279C9.663,19.418,9.81,19.543,10,19.707
	c0.308,0.121,0.571,0.256,0.941,0.318c0.486,0.115,1.125,0.311,1.636,0.195c0.285,0.064,0.105,0.65,0.054,0.911
	c-0.331,0.884,0.296,1.877,0.062,2.817c-0.061,0.504-0.095,1.25-0.393,1.53c-0.079,0.362-0.182,0.712-0.537,0.892
	c-0.17,0.196-0.414,0.385-0.517,0.541c-0.146,0.268,0.301,0.273,0.497,0.346c0.671,0.081,1.018-0.008,1.292-0.232
	c0.293-0.045,0.236-0.598,0.202-0.857c0.158-0.038,0.336-0.093,0.492-0.173c0.038-0.479-0.006-0.981,0.001-1.48
	c-0.037-0.606,0.319-0.97,0.335-1.497c0.043,0.252,0.16,0.527,0.188,0.826c0.023,0.562,0.065,1.127,0.153,1.676
	c-0.241,0.074-0.276,0.355-0.392,0.624c-0.237,0.206-0.393,0.405-0.61,0.591c-0.175,0.568,0.844,0.428,1.156,0.405
	c0.505,0.001,0.345-0.195,0.595-0.276c0.181-0.201,0.276-0.745,0.1-0.994c0.044-0.27,0.749,0.193,0.486-0.376
	c-0.161-0.136-0.063-0.409-0.167-0.584c-0.16-0.283-0.104-0.799-0.179-1.181c-0.043-0.48-0.309-0.795-0.125-1.338
	c0.049-0.398,0.227-1.066-0.088-1.265c-0.005-0.585,0.247-1.003,0.27-1.612c0.167-0.236,0.622-0.117,0.902-0.22
	c0.677-0.007,1.527-0.063,2.139,0.135c0.553,0.007,1.148,0.104,1.647,0.085c0.653-0.01,0.505,0.038,1.978-0.042
	c0.282,0.013,0.716-0.218,0.964-0.013c0.227,0.131,0.394,0.28,0.524,0.486c0.279,0.174,0.274,0.295,0.573,0.453
	c0.257,1.149,1.382,0.906,1.409,0.996c0.124,0.159,0.315,0.155,0.405,0.321c0.155,0.197,0.082,0.759,0.009,1.037
	c-0.135,0.298-0.275,0.51-0.351,0.849c-0.153,0.225-0.236,0.555-0.415,0.714c-0.102,0.288-0.179,0.519-0.413,0.677
	c-0.234,0.303-0.428,0.687-0.566,1.057c-0.123,0.287-0.783,0.901-0.881,1.055c-0.244,0.106-0.67,0.448-0.255,0.521
	c0.431,0.044,1.934,0.2,1.765-0.685c0.081-0.304,0.386-0.192,0.63-0.312c0.206-0.172,0.115-0.516,0.163-0.824
	c0.24-0.273,0.412-0.479,0.601-0.702c0.074-0.369,0.353-0.53,0.515-0.819c0.214-0.209,0.337-0.431,0.474-0.766
	c0.136-0.258,0.315-0.632,0.531-0.799c0.132-0.165,0.263-0.279,0.349-0.534c0.248,0.268,0.262,0.622,0.304,1.057
	c0.095,0.701-0.057,1.386-0.203,2.042c-0.014,0.494-0.197,0.941-0.397,1.307c-0.122,0.236-0.179,0.566-0.468,0.674
	c-0.153,0.217-0.793,0.564-0.653,0.663c-0.041,0.376,0.786,0.175,1.042,0.214c0.214-0.049,0.599-0.008,0.677-0.161
	c0.373-0.087,0.157-0.697,0.441-0.842c0.345,0.159,0.52-0.196,0.393-0.346c-0.171-0.405,0.087-1.013,0.077-1.513
	c0.048-0.456,0.065-0.928,0.298-1.203c0.046-0.469,0.039-0.174,0.105,0.08c0.068,0.225,0.141,0.472,0.217,0.68
	c0.029,0.47-0.139,0.714-0.375,0.959c-0.119,0.231,0.298,0.012,0.33-0.035c0.273-0.096,0.374-0.635,0.385-0.457
	c0.14,0.206-0.185,0.812,0.017,0.631c0.146-0.199,0.241-0.546,0.219-0.845c0.045,0.102,0.13,0.172,0.267,0.19
	c0.003-0.313-0.241-0.395-0.212-0.736c-0.051-0.525,0.003-1.207,0.332-1.459c0.089-0.18,0.258-0.561,0.341-1.146
	c0.012-0.321,0.022-1.395-0.204-1.901c-0.096-0.531,0.036-1.15,0.124-1.676c-0.025-0.36-0.187-0.711-0.021-1.131
	c0.14-0.766,0.314-1.542,0.352-2.347c0.149-0.665,0.147-1.467,0.3-2.092C31.991,12.484,32.082,11.803,31.896,11.519z M30.604,17.323
	c-0.067,0.571,0.096,1.116,0.055,1.485c-0.042,0.367-0.274,0.927-0.229,1.279c0.046,0.354-0.198,1.081-0.198,1.081
	s-0.49-1.309-0.583-1.61c-0.092-0.303-0.126-0.641,0.05-1.07s0.181-1.117,0.193-1.32c0.014-0.203,0.515-1.116,0.663-1.402
	s0.305-1.313,0.305-1.313C31.047,15.114,30.672,16.751,30.604,17.323z"/>
</svg>
