<?xml version="1.0" encoding="utf-8"?>
<!-- Generator: Adobe Illustrator 16.0.1, SVG Export Plug-In . SVG Version: 6.00 Build 0)  -->
<!DOCTYPE svg PUBLIC "-//W3C//DTD SVG 1.1//EN" "http://www.w3.org/Graphics/SVG/1.1/DTD/svg11.dtd">
<svg version="1.1" id="Layer_1" xmlns="http://www.w3.org/2000/svg" xmlns:xlink="http://www.w3.org/1999/xlink" x="0px" y="0px"
	 width="181.42px" height="181.42px" viewBox="0 0 181.42 181.42" enable-background="new 0 0 181.42 181.42" xml:space="preserve">
<path fill="#010101" d="M17.787,17.27c0,0-4.873,2.68-6.821,4.385c-1.949,1.705-6.821,4.385-7.796,6.09
	c-0.975,1.706,1.706,7.796,1.706,7.796s0.729,6.334,2.435,7.795c1.706,1.462,5.36,1.949,5.36,1.949s9.257,3.654,10.231,4.142
	c0.975,0.487,7.552,3.41,7.552,3.41l1.705,7.796c0,0-2.192,11.45-1.949,14.129s1.218,12.667,1.218,12.667s1.218,15.104,1.462,17.541
	c0.244,2.436,4.871,14.616,4.385,18.271c-0.487,3.654,0,11.938,0.486,13.643c0.488,1.705-1.217,13.154-1.705,14.129
	c-0.487,0.975-5.603,8.526-5.603,8.526s-4.628,0-5.359,1.949c-0.731,1.949-3.898,2.924-1.461,4.872
	c2.436,1.949,12.423,2.924,13.885,1.949c1.462-0.975,5.116-5.116,5.116-5.116l3.41-11.206c0,0,3.411-10.231,4.142-15.591
	c0.903-6.628,3.654-18.515,3.654-18.515l10.476,4.628c0,0,5.115,13.155,4.384,17.784c-0.73,4.629-1.705,11.693-0.974,13.643
	c0.731,1.949-0.244,9.501-2.923,13.155c-2.68,3.653-6.578,6.333-7.552,9.013c-0.976,2.681,7.064,6.091,12.911,5.116
	c5.846-0.975,6.578-3.167,6.82-4.628c0.244-1.462,2.193-11.45,3.167-13.155c0.974-1.705,0.73-9.501,1.218-10.72
	c0.487-1.217,1.949-16.564,2.68-19.976c0.73-3.411,0.73-13.643,0.73-13.643s14.86-3.897,20.22-6.577
	c5.358-2.68,11.692-4.629,11.692-4.629s5.65,6.759,9.258,9.014c7.795,4.872,8.283,6.577,9.744,9.014
	c1.063,1.772,2.437,6.09,2.193,6.821c-0.244,0.731-0.488,5.847-2.438,7.552c-1.948,1.706-2.605,4.046-1.948,4.629
	c2.192,1.949,5.847,2.923,9.014,1.218c3.168-1.705,4.629-2.68,4.385-5.847c-0.243-3.167-2.131-9.732-1.705-12.181
	c0.975-5.604-0.73-9.257-0.73-9.257s9.501,7.796,13.398,9.014s8.526,8.039,8.77,11.45c0.244,3.41-1.705,7.064-1.705,7.064
	s-2.923,3.653-1.948,5.116c0.974,1.461,6.82,4.871,11.205,2.68c4.386-2.193,2.68-5.848,2.68-5.848s-0.73-9.257-1.217-10.962
	c-0.488-1.706-3.898-9.501-3.654-11.693c0.243-2.193-0.975-5.604-2.437-6.578c-1.462-0.974-7.309-12.424-7.309-12.424
	s-1.461-2.436-1.948-7.309c-0.487-4.872-0.244-8.282-2.68-14.86c-2.437-6.577-9.501-10.963-9.745-13.886
	c-0.244-2.924-2.191-9.013-0.975-10.718c1.219-1.705,4.629-17.784,2.924-26.554c-3.338-17.166-9.501-23.386-12.667-26.31
	c-3.726-3.438-9.502-6.335-11.45-4.873c-1.949,1.461,0.431,4.243,4.628,9.988c4.629,6.334,9.258,14.129,8.039,27.284
	c-1.217,13.155-5.115,17.297-6.821,18.271c-1.705,0.974-19.001,0.488-21.438,0.488c-2.436,0-14.13-0.244-16.079-1.949
	c-1.948-1.706-5.115-3.898-8.526-5.116c-3.41-1.218-7.308-3.167-7.308-3.167s-0.244-2.679-2.193-4.141
	c-1.948-1.462-3.166-4.142-3.166-4.142s4.628-3.898,3.898-9.988c-0.732-6.091-4.873-14.129-8.526-16.809
	c-3.654-2.681-9.501-8.284-11.45-9.258c-1.949-0.975-4.142-1.218-4.142-1.218s-1.705-1.706-5.359-1.949
	c-3.654-0.244-11.937-0.488-11.937-0.488s-6.09,0.244-7.552,0.975c-1.462,0.73-5.847,6.091-6.821,7.065
	c-0.974,0.975-3.411,3.898-3.654,4.873C17.055,13.858,17.787,17.27,17.787,17.27z"/>
</svg>
