<?xml version="1.0" encoding="utf-8"?>
<!-- Generator: Adobe Illustrator 16.0.1, SVG Export Plug-In . SVG Version: 6.00 Build 0)  -->
<!DOCTYPE svg PUBLIC "-//W3C//DTD SVG 1.1//EN" "http://www.w3.org/Graphics/SVG/1.1/DTD/svg11.dtd">
<svg version="1.1" xmlns="http://www.w3.org/2000/svg" xmlns:xlink="http://www.w3.org/1999/xlink" x="0px" y="0px" width="32px"
	 height="32px" viewBox="0 0 32 32" enable-background="new 0 0 32 32" xml:space="preserve">
<g id="Layer_1">
</g>
<g id="Layer_2">
	<g>
		<path fill="#231F20" d="M28.042,19.354c-0.242-0.222-0.46-0.421-0.638-0.593c-0.716-0.695-2.673-2.248-4.495-3.661
			c0.113,0,0.559-0.005,0.78-0.042c0.254-0.042,0.976-0.807,1.103-1.104c0.128-0.297,0.68-0.424,0.849-0.551
			c0.17-0.127,0.128-0.467-0.339-0.255c-0.467,0.212-1.74,1.188-1.952,1.315c-0.155,0.093-0.809,0.041-1.182,0.063
			c-0.939-0.724-1.775-1.36-2.318-1.771c0.011-0.149,0.021-0.309,0.021-0.371c0-0.127,0.128-1.358,0.128-1.358
			s0.382-0.509,0.721-0.594c0.34-0.085,0.425-0.552,0.637-1.146c0.212-0.594,0.085-1.061,0.255-1.357c0.17-0.297,0-1.019,0-1.019
			s0.339-0.189,0.552-0.636c0.806-1.697,2.291-3.013,2.63-3.352c0.34-0.339,0.085-0.509-0.254-0.382
			c-0.34,0.127-2.971,3.14-3.056,3.352c-0.084,0.212-0.424,0.551-0.509,1.018s-0.594,2.079-0.637,2.249
			c-0.042,0.169-0.81,0.424-0.81,0.424s0-0.171-0.014-0.42c0.066-0.088,0.144-0.24,0.234-0.492c0.382-1.061-0.892-1.973-1.104-2.206
			c-0.106-0.118-0.364-0.197-0.593-0.248c0.216-0.145,0.542-0.38,0.758-0.623c0.34-0.382,0.467-0.636,0.637-0.933
			c0.17-0.297-0.297-0.467-0.297-0.467s-0.807,0.806-0.807,1.23c0,0.312-0.435,0.554-0.665,0.661
			c-0.131-0.081-0.322-0.187-0.522-0.237c-0.34-0.085-1.099,0.069-1.099,0.069c-0.039,0.01-0.061,0.023-0.094,0.035
			c-0.032-0.011-0.055-0.025-0.094-0.035c0,0-0.684-0.154-1.023-0.069c-0.201,0.05-0.392,0.156-0.523,0.237
			c-0.229-0.107-0.664-0.349-0.664-0.661c0-0.424-0.807-1.23-0.807-1.23s-0.467,0.169-0.297,0.467
			c0.17,0.297,0.297,0.551,0.637,0.933c0.219,0.246,0.551,0.485,0.766,0.628c-0.223,0.051-0.466,0.129-0.568,0.242
			c-0.212,0.233-1.485,1.146-1.104,2.206c0.08,0.221,0.148,0.364,0.208,0.455c-0.011,0.245-0.01,0.415-0.01,0.415
			s-0.777-0.212-0.82-0.382c-0.042-0.17-0.551-1.782-0.636-2.249s-0.425-0.806-0.51-1.018c-0.085-0.212-2.715-3.225-3.055-3.352
			c-0.34-0.127-0.594,0.042-0.255,0.382c0.34,0.339,1.825,1.655,2.631,3.352c0.212,0.447,0.552,0.636,0.552,0.636
			s-0.17,0.721,0,1.019c0.17,0.297,0.042,0.764,0.255,1.357c0.212,0.594,0.297,1.061,0.636,1.146
			c0.34,0.084,0.722,0.594,0.722,0.594s0.127,1.23,0.127,1.358c0,0.062,0.011,0.221,0.021,0.371
			c-0.543,0.412-1.379,1.047-2.318,1.771c-0.373-0.022-1.025,0.03-1.181-0.063c-0.213-0.127-1.485-1.103-1.952-1.315
			c-0.467-0.212-0.509,0.127-0.34,0.255c0.17,0.127,0.722,0.254,0.849,0.551c0.128,0.297,0.849,1.061,1.104,1.104
			c0.222,0.037,0.666,0.042,0.779,0.042c-1.821,1.413-3.778,2.965-4.495,3.661c-0.178,0.172-0.396,0.371-0.637,0.593
			c-1.802,1.649-4.818,4.411-3.727,7.117c0.414,1.027,1.043,1.697,1.871,1.99c0.317,0.111,0.663,0.169,1.037,0.169
			c0.986,0,2.174-0.393,3.598-1.183c1.245-0.691,2.895-2.064,4.232-3.482c-0.159,0.354-0.321,0.738-0.409,1.021
			c-0.212,0.679-0.637,2.079-0.807,2.291c-0.17,0.213-1.061,1.91-1.188,2.079c-0.128,0.17,0.105,0.413,0.254,0.17
			c0.807-1.315,1.443-1.654,1.57-2.121s0.552-1.782,0.552-1.782s0.509-0.552,0.679-0.934c0.142-0.317,0.254-1.332,0.458-2.009
			c0.296-0.378,0.555-0.745,0.757-1.088c0.137,0.488,0.458,1.554,0.779,2.036c0.425,0.637,1.23,1.569,1.74,1.654
			c0.26,0.044,1.03,0.044,1.29,0c0.51-0.085,1.315-1.018,1.74-1.654c0.32-0.482,0.642-1.548,0.778-2.036
			c0.202,0.343,0.462,0.71,0.757,1.088c0.204,0.677,0.317,1.691,0.459,2.009c0.17,0.382,0.679,0.934,0.679,0.934
			s0.424,1.315,0.552,1.782c0.127,0.467,0.764,0.806,1.569,2.121c0.148,0.243,0.382,0,0.255-0.17
			c-0.127-0.169-1.019-1.866-1.188-2.079c-0.17-0.212-0.595-1.612-0.807-2.291c-0.089-0.283-0.251-0.667-0.41-1.021
			c1.338,1.418,2.987,2.791,4.233,3.482c1.423,0.79,2.611,1.183,3.597,1.183c0.375,0,0.72-0.058,1.038-0.169
			c0.827-0.293,1.456-0.963,1.87-1.99C32.859,23.766,29.843,21.004,28.042,19.354z M26.641,19.119
			c0.182,0.178,0.404,0.381,0.651,0.607c1.4,1.282,4.233,3.382,4.369,5.36c-0.329-0.366-0.952-1.055-1.228-1.33
			c-0.382-0.382-1.867-1.527-2.885-2.249c-0.884-0.625-7.315-6.895-9.009-8.551c0.086-0.063,0.18-0.11,0.281-0.128
			C18.954,12.926,25.236,17.757,26.641,19.119z M18.542,20.043c0.068,0.239,0.139,0.464,0.211,0.673
			c-0.303,0.206-1.055,0.675-1.683,0.708c-0.174,0.009-0.328,0.009-0.469,0.006c-0.17-0.071-0.398-0.091-0.398-0.091
			s-0.07,0.019-0.203,0.039c-0.132-0.021-0.203-0.039-0.203-0.039s-0.228,0.02-0.398,0.091c-0.141,0.003-0.295,0.003-0.468-0.006
			c-0.629-0.033-1.381-0.502-1.684-0.708c0.072-0.209,0.144-0.434,0.211-0.673c0.565,0.12,2.107,0.113,2.542,0.108
			C16.435,20.156,17.977,20.163,18.542,20.043z M12.873,9.022c0.228-0.131,1.084-0.637,1.194-0.858
			c0.099-0.198,0.883-0.93,0.736-1.537c0.474-0.168,0.851-0.153,0.892-0.151c0.05,0.072,0.172,0.087,0.268,0.054
			c0.096,0.033,0.218,0.018,0.268-0.054c0.044-0.002,0.47-0.019,0.992,0.179c-0.117,0.601,0.646,1.315,0.743,1.509
			c0.105,0.21,0.889,0.679,1.155,0.835c0.043,0.158,0.171,0.331,0.113,0.501c-0.344,1.004-6.058,1.373-6.468,0
			C12.717,9.335,12.834,9.174,12.873,9.022z M4.437,19.925c0.247-0.227,0.469-0.43,0.651-0.607c1.403-1.362,7.958-6.391,8.091-6.488
			c0.096,0.018,0.185,0.057,0.268,0.114c-1.604,1.566-8.174,7.975-9.066,8.607c-1.019,0.722-2.504,1.867-2.886,2.249
			c-0.255,0.256-0.81,0.867-1.152,1.247C0.503,23.08,3.045,21.198,4.437,19.925z M0.504,26.218c-0.104-0.257-0.154-0.521-0.17-0.786
			c0.373-0.436,1.168-1.345,1.457-1.505c0.382-0.212,2.334-1.824,2.843-2.206c0.51-0.382,2.758-2.674,3.013-2.716
			s0.637,0.976,0.425,1.442c-0.213,0.467-1.062,1.315-1.358,1.655c-0.297,0.339-2.631,2.164-3.055,2.546
			c-0.425,0.382-1.655,1.569-1.867,1.866c-0.13,0.183-0.372,0.539-0.539,0.789C0.934,26.971,0.654,26.591,0.504,26.218z
			 M12.384,19.98c-0.591,1.656-3.168,5.489-5.459,6.762c-0.485,0.27-0.935,0.484-1.354,0.654c0.201-0.262,0.253-0.289,0.379-0.415
			c0.17-0.169,1.909-2.164,2.037-2.418c0.125-0.252,1.688-1.694,1.936-2.223c-0.579,0.607-1.812,1.913-2.021,2.053
			c-0.255,0.17-1.824,1.952-2.164,2.376c-0.254,0.317-0.927,0.721-1.301,1.075c-0.723,0.186-1.333,0.193-1.838,0.015
			c-0.305-0.107-0.793-0.026-1.15-0.359c0.1-0.27,0.294-0.694,0.598-0.942c0.467-0.382,1.654-1.824,1.994-1.994
			s2.419-2.037,2.885-2.376c0.467-0.34,1.23-1.146,1.358-1.528c0.127-0.382,0.382-1.188,0.212-1.399
			c-0.17-0.213-0.382-0.255-0.085-0.764c0.297-0.51,1.952-2.292,2.122-2.334c0.169-0.043,0.169,0.212,0.254,0.637
			c0.085,0.424-0.297,1.018-0.467,1.442c-0.169,0.424-0.976,1.909-1.23,2.206c-0.254,0.297-1.061,1.485-1.527,1.952
			s-1.824,1.697-2.079,2.036c-0.254,0.34,0,0.128,0.17,0.085c0.17-0.042,0.212-0.127,0.679-0.552
			c0.467-0.424,1.104-1.188,1.442-1.527c0.34-0.339,1.443-1.739,1.655-2.036s1.188-1.909,1.357-2.461
			c0.17-0.552,0.425-0.977,0.34-1.315c-0.085-0.34-0.17-0.722,0.085-0.934c0.254-0.212,1.442-1.612,1.909-1.994
			c0.206-0.169,0.385-0.369,0.523-0.542c0.377,0.622,0.141,1.274,0.099,1.688c-0.02,0.199-0.037,0.422-0.045,0.617
			C13.555,16.496,12.922,18.476,12.384,19.98z M17.409,23.205c-0.263,0.237-0.817,0.164-1.203,0.074h-0.411
			c-0.386,0.09-0.94,0.163-1.204-0.074c-0.303-0.272-1.42-1.781-1.555-1.98c0.07-0.142,0.066-0.09,0.07-0.099
			c0,0,1.485,1.612,2.894,1.063c1.409,0.549,2.895-1.063,2.895-1.063c0.003,0.009-0.001-0.043,0.069,0.099
			C18.83,21.424,17.712,22.933,17.409,23.205z M29.271,28.071c-0.536,0.097-1.269-0.03-2.008-0.227
			c-0.356-0.337-0.81-0.788-1.073-1.117c-0.339-0.425-1.909-2.207-2.164-2.376c-0.209-0.14-1.441-1.445-2.021-2.053
			c0.247,0.528,1.811,1.971,1.936,2.222c0.128,0.255,1.867,2.249,2.037,2.419c0.129,0.13,0.103,0.141,0.296,0.393
			c-0.404-0.167-0.835-0.376-1.299-0.634c-2.29-1.271-4.758-4.92-5.349-6.575c-0.538-1.506-1.181-3.627-1.323-4.659
			c-0.009-0.195-0.025-0.418-0.046-0.617c-0.041-0.406-0.269-1.046,0.084-1.659c0.129,0.155,0.288,0.325,0.466,0.471
			c0.467,0.382,1.655,1.782,1.909,1.995c0.255,0.212,0.17,0.594,0.085,0.933c-0.085,0.34,0.17,0.764,0.34,1.315
			s1.146,2.164,1.357,2.461s1.315,1.697,1.655,2.037c0.339,0.339,0.976,1.104,1.442,1.527c0.467,0.425,0.509,0.509,0.679,0.552
			c0.17,0.042,0.425,0.255,0.17-0.085s-1.612-1.57-2.079-2.037s-1.273-1.654-1.527-1.951c-0.255-0.297-1.061-1.782-1.23-2.207
			c-0.17-0.424-0.552-1.018-0.467-1.442c0.085-0.424,0.085-0.679,0.255-0.637c0.169,0.043,1.824,1.825,2.121,2.334
			c0.297,0.51,0.085,0.552-0.085,0.764s0.085,1.019,0.212,1.4c0.128,0.382,0.892,1.188,1.358,1.527
			c0.467,0.34,2.546,2.207,2.885,2.376c0.34,0.17,1.527,1.612,1.994,1.994c0.337,0.276,0.539,0.769,0.627,1.024
			C30.164,27.853,29.583,28.015,29.271,28.071z M30.722,27.331c-0.165-0.247-0.441-0.657-0.585-0.858
			c-0.212-0.297-1.442-1.485-1.867-1.867c-0.424-0.382-2.758-2.206-3.055-2.546c-0.297-0.339-1.146-1.188-1.357-1.654
			c-0.213-0.467,0.169-1.485,0.424-1.442c0.255,0.042,2.503,2.333,3.013,2.715c0.509,0.382,2.461,1.994,2.843,2.207
			c0.311,0.172,1.198,1.201,1.524,1.585c-0.019,0.253-0.066,0.503-0.165,0.748C31.341,26.601,31.051,26.992,30.722,27.331z"/>
		<path fill="#231F20" d="M9.938,22.314c-0.002,0.007-0.012,0.019-0.016,0.026c0.127-0.134,0.225-0.235,0.271-0.281
			C10.447,21.806,10.15,21.806,9.938,22.314z"/>
		<path fill="#231F20" d="M21.735,22.018c0.046,0.046,0.143,0.147,0.271,0.281c-0.003-0.008-0.013-0.02-0.016-0.026
			C21.778,21.763,21.48,21.763,21.735,22.018z"/>
	</g>
</g>
</svg>
