<?xml version="1.0" encoding="utf-8"?>
<!-- Generator: Adobe Illustrator 16.0.1, SVG Export Plug-In . SVG Version: 6.00 Build 0)  -->
<!DOCTYPE svg PUBLIC "-//W3C//DTD SVG 1.1//EN" "http://www.w3.org/Graphics/SVG/1.1/DTD/svg11.dtd">
<svg version="1.1" xmlns="http://www.w3.org/2000/svg" xmlns:xlink="http://www.w3.org/1999/xlink" x="0px" y="0px" width="32px"
	 height="32px" viewBox="0 0 32 32" enable-background="new 0 0 32 32" xml:space="preserve">
<g id="Layer_1">
</g>
<g id="Layer_2">
	<path fill="#231F20" d="M30.594,25.328c-0.104-0.018-0.357-0.02-0.634-0.041c-0.177-0.355,1.179-0.404,0.546-0.615
		c-0.396-0.133-1.062,0.055-1.528,0.223c0-0.002-0.002-0.004-0.002-0.004c-0.132-0.461,1.595-0.684,1.201-0.879
		c-0.394-0.197-1.181-0.066-2.361,0.262s-2.689,1.967-3.411,2.361c-0.722,0.393-1.377,0.131-1.377,0.131s0.394-2.426,0.459-3.607
		c0.065-1.18-0.263-1.705-0.919-2.559c-0.655-0.852-2.229-1.377-2.229-1.377s0.329-0.893,0.854-3.778
		c0.524-2.886-2.494-8.094-2.494-8.094s0.438-0.258,1.049-0.787c0.443-0.384,0.57-2.051,0.57-2.051s0.021-0.638,0.021-1.294
		c0-0.656-0.654-0.805-0.852-1.33c-0.196-0.525,0.72-1.819,0.458-1.885c-0.263-0.065-0.852,0.661-1.246,1.115
		c-0.348,0.399-0.328,0.787-0.263,1.246c0.065,0.459,0.656,1.377,0.656,1.377s-0.523,0.42-0.787,0.59
		c-0.221,0.143-0.591,0.525-0.591,0.525s-0.59-0.525-1.181-2.296c-0.008-0.023-0.017-0.047-0.025-0.071
		c-0.012,0.018-0.021,0.036-0.036,0.054c-0.523,0.611-1.352-0.998-0.659-1.353c-0.443-0.506-1.09-0.832-2.1-0.794
		c-0.8,0.03-1.396,0.47-1.798,0.957c0.031-0.022,0.05-0.034,0.05-0.034c0.7,0.35-0.131,1.968-0.655,1.355
		c-0.016-0.018-0.025-0.037-0.038-0.056c-0.143,0.556-1.363,2.631-1.363,2.631C9.561,5.824,8.729,4.644,8.203,4.333
		c-0.339-0.2,0-1.377,0.065-1.574s0-1.443,0-1.443S8.161,0.883,7.768,0.577c-0.328-0.254,0,0.634,0,0.962
		c0,0.328-0.35,0.831-0.745,1.613C6.791,3.61,6.937,4.644,6.937,4.644S7.461,6.108,7.724,6.83s1.201,1.045,1.201,1.045
		s-1.746,3.813-1.639,7.176c0.069,2.167,1.376,4.171,1.376,4.171s-0.984,0.197-2.23,1.771s-0.459,3.148-0.328,4
		c0.132,0.854,1.443,2.953,1.443,2.953s-1.329,0.34-1.902,0.195c-0.938-0.236-1.507-0.629-1.507-0.629l-1.772-0.289
		c0,0-1.181,0.066-1.771,0.525c-0.504,0.393,0.681,0.197,1.039,0.133c-0.27,0.053-1.019,0.213-1.498,0.457
		c-0.409,0.209,0.197,0.395,0.656,0.59c0.015,0.008,0.034,0.016,0.052,0.023c-0.234,0.006-0.522,0.035-0.597,0.135
		c-0.131,0.176,0.568,0.176,1.355,0.568c0.776,0.389,1.467,0.605,1.905,0.654c0.659,0.244,2.035,0.521,2.531,0.521
		c0.591,0,1.706,0.328,2.689,0.066c0.984-0.262,1.902-0.854,1.902-0.854s0.263-0.195,0.918-0.982
		c0.656-0.787,0.221-2.621,0.023-2.816c-0.196-0.197-0.285-1.252-0.089-1.383c0.197-0.131,2.296-0.863,2.582-0.455
		c0.306,0.438,1.025-0.004,1.025-0.004s0.787,0.328,1.181,0.395c0.394,0.064,2.296,0.721,2.296,0.721s-0.262,2.82,0.459,3.805
		c0.722,0.984,2.821,0.984,3.477,0.852c0.656-0.131,1.968-0.459,2.952-0.852c0.983-0.395,2.755-1.902,3.214-2.297
		c0.459-0.393,0.853-0.59,1.377-0.721C30.57,26.176,30.856,25.371,30.594,25.328z"/>
</g>
</svg>
