<?xml version="1.0" encoding="utf-8"?>
<!-- Generator: Adobe Illustrator 16.0.1, SVG Export Plug-In . SVG Version: 6.00 Build 0)  -->
<!DOCTYPE svg PUBLIC "-//W3C//DTD SVG 1.1//EN" "http://www.w3.org/Graphics/SVG/1.1/DTD/svg11.dtd">
<svg version="1.1" id="Layer_1" xmlns="http://www.w3.org/2000/svg" xmlns:xlink="http://www.w3.org/1999/xlink" x="0px" y="0px"
	 width="181.42px" height="181.42px" viewBox="0 0 181.42 181.42" enable-background="new 0 0 181.42 181.42" xml:space="preserve">
<path fill="#010101" d="M138.115,93.924c0,0-13.6-3.297-17.31-3.709c-3.852-0.428-13.676-2.061-22.255-2.061
	c-8.654,0-25.964-1.649-33.382,0s-31.321-1.236-31.321-1.236s23.491,5.769,27.2,5.357c5.152,5.976,9.685,24.935,9.685,24.935
	c0.518-6.729-3.297-20.818-4.552-25.229c4.132-0.139,9.847-0.226,16.27-0.431l-0.59,46.06l3.502-46.16
	c7.478-0.276,15.506,0.749,21.85,1.577c-4.233,8.66-3.715,38.4-3.715,38.4s1.854-21.019,5.563-29.055
	c2.062-4.468,4.694-7.021,6.629-8.411C122.325,94.31,138.115,93.924,138.115,93.924z"/>
<path fill="#010101" d="M173.235,43.365c-10.752-26.969-36.076-41.314-75.268-42.64c-1.151-0.04-2.457-0.083-2.77-0.134
	l-0.124-0.021C94.927,0.545,91.403,0,85.701,0c-9.125,0-23.095,1.379-37.829,7.948C19.828,20.449,8.282,43.283,3.896,55.782
	C0.49,65.486,1.983,74.414,3.833,80.193c2.184,6.82,5.787,12.148,8.389,14.402c5.894,5.11,23.924,6.454,24.104,6.466
	c3.194,0.229,7.418,0.848,8.754,1.049c4.789,2.257,9.497,5.5,10.003,6.917c1.665,4.659,4.606,17.457,3.826,32.54
	c-0.11,2.138-0.754,5.354-1.437,8.759c-1.913,9.541-3.889,19.406,1.134,23.527c6.797,5.575,21.366,7.562,32.734,7.562
	c5.585,0,24.311-0.571,30.74-7.918c2.974-3.396,1.687-10.897-2.54-27.529c-1.015-3.993-1.974-7.765-2.143-9.419
	c-0.98-9.548-0.176-18.128,0.459-20.448c0.042-0.027,0.087-0.056,0.131-0.084c1.312-0.844,3.508-2.259,3.959-4.951
	c0.087-0.52,0.873-2.536,3.14-2.884c0.311-0.048,0.935-0.106,2.137-0.106c1.41,0,3.169,0.079,4.869,0.154
	c1.8,0.078,3.662,0.16,5.265,0.16c0.001,0,0.001,0,0.001,0c2.778,0,4.285-0.241,5.372-0.862c1.533-0.842,12.357-3.856,15.658-4.517
	c1.853-0.371,10.544-4.085,16.106-14.339C180.921,76.827,180.498,61.583,173.235,43.365z M171.085,85.682
	c-4.206,8.321-12.904,13.358-14.835,13.601c-5.459,0.683-13.39,1.211-16.408,2.78c-0.194,0.042-0.838,0.146-2.484,0.146
	c0,0,0,0-0.001,0c-1.466,0-3.259-0.079-4.992-0.155c-1.769-0.077-3.597-0.159-5.142-0.159c-1.315,0-2.293,0.059-3.077,0.179
	c-5.167,0.795-7.756,5.077-8.274,7.846c-0.21,0.244-0.841,0.649-1.23,0.901c-0.371,0.238-0.724,0.468-1.03,0.7
	c-3.814,2.861-1.327,21.27-0.876,25.669c0.217,2.106,1.137,5.728,2.302,10.312c1.472,5.791,4.408,19.5,3.297,22.255
	c-0.895,0.967-2.528,1.989-4.666,2.957c-0.851-1.978-3.123-7.9-4.606-17.794c-1.654-11.028-0.849,12.849,0.222,19.456
	c-3.28,1.045-7.146,1.911-11.265,2.391l-7.503-14.428l0.618,14.836c-6.796,0-13.611-0.833-19.184-2.164
	c-0.106-4.885-0.599-27.534-0.599-22.563c0,5.564-4.328,21.018-4.328,21.018l0.773,0.387c-2.935-0.961-5.289-2.073-6.748-3.271
	c-2.154-1.768,1.957-19.022,2.982-24.139c0.728-3.634,1.417-7.066,1.55-9.655c0.829-16.025-2.733-24.401-4.675-29.839
	c-1.733-4.853-10.871-9.365-13.63-10.633l-0.388-0.179l-0.421-0.065c-0.227-0.036-5.611-0.882-9.698-1.174
	c-5.611-0.402-17.383-2.272-20.497-4.972c-3.012-2.609-13.796-17.268-8.388-32.68c4.056-11.559,16.579-32.093,42.504-43.651
	c13.741-6.125,28.817-8.998,37.341-8.998c4.876,0,8.007,0.435,8.374,0.488c0.699,0.128,1.665,0.165,3.685,0.234
	c36.513,1.235,57.946,15.859,67.707,40.337C173.883,61.682,176.186,75.597,171.085,85.682z"/>
</svg>
