<?xml version="1.0" encoding="utf-8"?>
<!-- Generator: Adobe Illustrator 16.0.1, SVG Export Plug-In . SVG Version: 6.00 Build 0)  -->
<!DOCTYPE svg PUBLIC "-//W3C//DTD SVG 1.1//EN" "http://www.w3.org/Graphics/SVG/1.1/DTD/svg11.dtd">
<svg version="1.1" id="Layer_1" xmlns="http://www.w3.org/2000/svg" xmlns:xlink="http://www.w3.org/1999/xlink" x="0px" y="0px"
	 width="181.42px" height="181.42px" viewBox="0 0 181.42 181.42" enable-background="new 0 0 181.42 181.42" xml:space="preserve">
<path fill="#010101" d="M178.491,114.514l2.663-0.213c0,0,0.702-28.464-0.176-38.655c-0.879-10.19-5.096-17.571-5.975-18.977
	s-2.811-1.582-2.811-1.582c-1.582-2.108-7.38-5.271-7.38-5.271s-9.84-4.744-17.044-5.447c-2.637-0.257-17.746,1.493-20.118,2.547
	c-2.372,1.055-12.388,3.251-19.767,3.69c-1.316,0.078-13.091-1.582-13.881-1.845c-0.791-0.264-8.435-5.008-11.334-6.062
	c-2.899-1.054-10.015-2.108-10.015-2.108S48.111,26.784,44.98,25.393c-4.744-2.109-12.65-4.042-13.968-4.305
	c-1.318-0.264-5.798-1.845-5.798-1.845l-7.819-6.15l-0.087,2.197l-2.373,0.439c0,0,2.108,2.987,2.284,5.623
	c0,0-5.182,5.271-5.973,7.116c-0.791,1.845-2.812,6.238-2.812,6.238s-4.305,7.468-5.623,9.312s-3.426,9.225-2.636,12.387
	c0.791,3.163,1.845,3.163,3.163,3.69c1.318,0.527,2.02,1.493,3.865,1.493c1.845,0,3.163-1.932,3.69-2.986
	c0.527-1.055,1.406-2.987,2.724-3.514c1.318-0.527,9.4-5.271,10.454-5.799c1.055-0.527,3.954-3.25,5.799-2.987
	c1.845,0.263,3.514,1.23,5.447,3.338c1.754,1.914,5.184,7.556,6.501,8.874c1.318,1.317,8.434,10.015,8.434,10.015
	s0.264,8.434,1.055,10.016c0.791,1.581,3.163,8.434,3.163,8.434s1.318,5.271,2.899,6.589c1.581,1.317,3.426,2.636,3.426,2.636
	s2.372,9.225,3.163,10.806c0.791,1.581,5.008,13.706,5.271,15.813c0.264,2.109,0,6.326,1.318,7.908
	c1.318,1.58,1.845,5.534,1.845,5.534s0.764,7.432,0.526,11.772c-0.264,4.832-3.163,7.203-3.163,7.203s-5.798,3.69-5.271,5.008
	c0.527,1.318,5.008,2.373,7.116,2.373s5.886-1.758,5.886-1.758s1.757-3.25,1.494-4.568c-0.264-1.317-0.034-2.576,0.527-5.271
	c1.318-6.325-0.527-11.332-0.264-13.441c0.264-2.108-1.054-9.752-1.054-9.752l-0.263-8.961c0,0,5.007,10.016,5.535,13.441
	c0.527,3.427,0.878,12.213,0.351,15.375c-0.33,1.98-4.568,7.292-4.832,8.609c-0.264,1.318,7.116,2.372,9.225,1.055
	c2.108-1.318,2.372-4.48,2.372-4.48s-1.67-4.217-0.616-4.48s1.757-5.096,1.23-7.204c-0.527-2.108-2.459-14.583-2.459-14.583
	s-1.845-13.795-1.845-15.902c0-2.109,0.087-10.455,0.087-10.455s18.756,0.858,23.809,0.439c13.793-1.143,22.139-9.224,22.139-9.224
	s2.109-1.582,3.164-1.055c1.055,0.527,1.845,2.021,3.426,2.285c1.582,0.264,3.689,0.352,3.689,0.352s2.986,15.286,5.096,19.151
	c0.798,1.464,3.25,10.456,2.986,12.3c-0.264,1.846-1.756,23.633-3.074,25.215c-1.317,1.581-5.534,5.534-5.534,5.534
	s-2.284,3.339-1.581,4.042c0.701,0.702,3.514,2.02,5.622,1.756c2.108-0.263,5.095-1.933,5.095-1.933s0.176-5.534,1.758-5.271
	c1.581,0.264,3.075-2.285,2.812-3.075s1.581-14.495,2.372-16.341c0.79-1.845,3.953-13.178,3.953-13.178s5.008,8.434,5.271,10.279
	c0.264,1.844,4.217,18.976,2.899,23.193c-1.318,4.217-3.953,9.224-4.481,10.278c-0.526,1.054-2.107,2.899,0.791,3.689
	c2.899,0.791,8.697,0.265,9.752-1.317s0-4.393,0.527-7.028s0.264-4.042,1.054-5.622c0.791-1.582,0-7.117,0.264-9.225
	c0.264-2.109-1.054-11.598-1.054-11.598s0.264-12.035,0.264-15.198C177.992,117.77,178.197,116.246,178.491,114.514z"/>
</svg>
