<?xml version="1.0" encoding="utf-8"?>
<!-- Generator: Adobe Illustrator 16.0.1, SVG Export Plug-In . SVG Version: 6.00 Build 0)  -->
<!DOCTYPE svg PUBLIC "-//W3C//DTD SVG 1.1//EN" "http://www.w3.org/Graphics/SVG/1.1/DTD/svg11.dtd">
<svg version="1.1" id="Layer_1" xmlns="http://www.w3.org/2000/svg" xmlns:xlink="http://www.w3.org/1999/xlink" x="0px" y="0px"
	 width="32px" height="32px" viewBox="0 0 32 32" enable-background="new 0 0 32 32" xml:space="preserve">
<path d="M24.211,15.957c-0.055-0.097-0.113-0.202-0.153-0.276c0.063-0.008,0.139-0.034,0.168-0.09
	c0.021-0.036,0.018-0.078-0.006-0.115c-0.027-0.041-0.173-0.245-0.273-0.421c-0.076-0.134-0.114-0.253-0.146-0.307
	c-0.085-0.142-0.345-0.344-0.533-0.415c-0.228-0.087-0.453-0.291-0.481-0.317c-0.039-0.046-0.442-0.534-0.533-0.714
	c-0.091-0.182-0.514-1.086-0.765-1.765c-0.226-0.609-0.784-1.025-0.906-1.127c-0.01-0.162,0-0.879-0.135-1.324
	c-0.071-0.239-0.208-0.557-0.317-0.811c-0.074-0.168-0.187-0.312-0.196-0.358c-0.009-0.048,0.039-0.309,0.063-0.5
	c0.031-0.26,0.088-0.522,0.082-0.669c-0.013-0.282-0.251-0.91-0.592-1.252c-0.277-0.277-0.864-0.425-1.116-0.489
	c-0.037-0.009-0.076-0.019-0.081-0.021c-0.045-0.022-0.686-0.357-0.812-0.438c-0.112-0.073-0.493-0.256-0.605-0.322l-0.062-0.599
	c0.043-0.042,0.187-0.14,0.235-0.239c0.046-0.09,0.003-0.315,0.005-0.439c0.031,0.007,0.119,0.05,0.144,0.033
	c0.036-0.024,0.085-0.083,0.161-0.175c0.015-0.018,0.028-0.035,0.041-0.05c0.056-0.067,0.013-0.175,0.005-0.3
	c-0.004-0.059-0.008-0.125,0-0.154c0.024-0.098,0.084-0.349,0-0.468c-0.038-0.051-0.095-0.081-0.165-0.082
	c0.012-0.113,0.029-0.288,0.029-0.333l0.001-0.046c0.001-0.22,0.002-0.47-0.297-0.995c-0.305-0.537-1.082-0.582-1.113-0.583h-0.004
	h-0.005c-0.033,0.001-0.81,0.047-1.114,0.583c-0.299,0.525-0.297,0.775-0.295,0.995v0.046c0,0.045,0.016,0.22,0.027,0.333
	c-0.068,0.001-0.126,0.031-0.162,0.082c-0.085,0.119-0.034,0.361-0.01,0.459c0.008,0.029,0.003,0.096,0,0.155
	c-0.008,0.124-0.043,0.241,0.012,0.308c0.014,0.015,0.027,0.032,0.042,0.05c0.076,0.093,0.124,0.151,0.161,0.175
	c0.025,0.017,0.104-0.021,0.136-0.029c0.003,0.123-0.04,0.336,0.005,0.426c0.049,0.1,0.184,0.201,0.227,0.244l-0.058,0.599
	c-0.114,0.064-0.48,0.242-0.604,0.327c-0.123,0.084-0.746,0.409-0.798,0.436c-0.009,0.003-0.048,0.013-0.085,0.022
	c-0.25,0.064-0.838,0.212-1.115,0.489c-0.343,0.342-0.58,0.97-0.593,1.252c-0.007,0.147,0.026,0.416,0.058,0.675
	c0.023,0.192,0.082,0.433,0.073,0.481c-0.01,0.045-0.107,0.202-0.181,0.37c-0.109,0.254-0.246,0.572-0.318,0.811
	c-0.135,0.444-0.131,1.143-0.14,1.305c-0.124,0.102-0.675,0.537-0.901,1.146c-0.251,0.679-0.674,1.583-0.766,1.765
	c-0.09,0.18-0.495,0.668-0.532,0.714c-0.028,0.026-0.252,0.229-0.481,0.317c-0.189,0.072-0.448,0.273-0.533,0.415
	c-0.032,0.054-0.104,0.179-0.18,0.313c-0.1,0.176-0.213,0.375-0.24,0.416c-0.024,0.037-0.027,0.079-0.007,0.115
	c0.03,0.057,0.104,0.082,0.168,0.09c-0.039,0.074-0.098,0.179-0.152,0.276C7.18,16.503,7.08,16.7,7.097,16.784
	c0.017,0.084,0.083,0.141,0.184,0.162c-0.039,0.099-0.039,0.203,0.018,0.283c0.022,0.032,0.067,0.069,0.147,0.069
	c0.05,0,0.106-0.037,0.141-0.05c0.036,0.021,0.063,0.042,0.128,0.042c0.052,0,0.101-0.015,0.145-0.046
	c0.105-0.073,0.26-0.219,0.31-0.281c0.07-0.003,0.197,0.002,0.293-0.041c0.135-0.06,0.664-0.621,0.699-0.665
	c0.049-0.061,0.462-0.648,0.54-0.791c0.072-0.132,0.197-0.599,0.227-0.707c0.068-0.079,0.287-0.334,0.324-0.445
	c0.016-0.039,0.154-0.231,0.896-1.088l0.057-0.066c0.031-0.036,0.764-0.892,1.016-1.443c0.07-0.153,0.078-0.425,0.119-0.583
	c0.016-0.061,0.033-0.129,0.039-0.143c0.043-0.087,0.438-0.723,0.492-0.799c0.046-0.065,0.24-0.451,0.36-0.691
	c0.034,0.146,0.08,0.338,0.116,0.458c0.062,0.212,0.16,0.577,0.139,0.704c-0.008,0.044-0.028,0.147-0.054,0.266
	c-0.063,0.299-0.204,0.703-0.212,0.865c-0.012,0.196,0.063,0.395,0.094,0.467c-0.041,0.128-0.207,0.665-0.229,0.801
	c-0.007,0.037-0.026,0.112-0.048,0.2c-0.068,0.265-0.171,0.666-0.151,0.897c0.015,0.172,0.029,0.561,0.021,0.924
	c-0.008,0.301-0.006,0.501,0,0.554c0.003,0.029-0.045,0.204-0.062,0.364c-0.046,0.431-0.133,1.231-0.133,2.157
	c0,0.665,0.369,2.678,0.4,2.786c0.014,0.054,0.007,0.448-0.016,0.98c-0.008,0.197,0.082,0.472,0.1,0.695
	c0.009,0.119,0.016,0.222,0.016,0.267c0,0.075-0.107,0.334-0.145,0.533c-0.027,0.143-0.054,0.289-0.068,0.395
	c-0.049,0.338-0.016,1.681,0.088,2.136c0.057,0.249,0.338,1.281,0.751,3.221l0.036,0.172c0.045,0.212,0.004,0.421-0.03,0.548
	c-0.019,0.068-0.036,0.132-0.036,0.196c0,0.12-0.036,0.258-0.058,0.377c-0.006,0.033-0.012,0.066-0.017,0.094
	c-0.011,0.032-0.117,0.15-0.433,0.547c-0.026,0.032-0.046,0.057-0.052,0.064c-0.01,0.013-0.061,0.048-0.1,0.076
	c-0.18,0.131-0.288,0.216-0.288,0.305c0,0.114,0.071,0.195,0.198,0.228c0.008,0.002,0.013,0.002,0.018,0.002
	c0.027,0.047,0.089,0.12,0.173,0.12c0.035,0,0.062-0.004,0.083-0.007c0.035,0.024,0.1,0.092,0.16,0.092
	c0.068,0,0.128-0.023,0.164-0.041c0.033,0.014,0.082,0.032,0.121,0.04c0.062,0.009,0.109-0.015,0.143-0.048
	C13.975,31.965,14.052,32,14.129,32c0.018,0,0.034-0.002,0.051-0.005l0.057-0.013c0.185-0.04,0.267-0.062,0.303-0.086l0.007-0.004
	c0.176-0.115,0.279-0.209,0.316-0.285c0.06-0.12,0.018-0.216,0.016-0.294c-0.001-0.063-0.006-0.099,0.023-0.127
	c0.016-0.015,0.026-0.033,0.04-0.051c0.085-0.103,0.231-0.231,0.214-0.411c-0.037-0.372-0.059-0.606-0.058-0.613
	c0.003-0.063,0.056-0.395-0.014-0.52c-0.118-0.214-0.142-0.403-0.165-0.605c-0.024-0.209-0.14-1.877-0.104-2.038
	c0.011-0.052,0.032-0.146,0.06-0.259c0.065-0.275,0.221-0.686,0.243-0.845c0.112-0.804-0.078-1.577-0.085-1.611
	c-0.027-0.127-0.089-0.257-0.133-0.354c-0.035-0.078-0.041-0.177-0.041-0.215c0-0.086,0.051-0.423,0.072-0.553
	c0.016-0.048,0.088-0.284,0.062-0.428c-0.015-0.08,0.029-0.205,0.078-0.337c0.019-0.051,0.039-0.105,0.055-0.161
	c0.064-0.201,0.088-0.985,0.091-1.069c0.029-0.349,0.029-0.947,0.046-1.016c0.011-0.044,0.065-0.364,0.133-0.793
	c0.064-0.415,0.186-0.854,0.204-0.933c0.04-0.162,0.165-1.492,0.175-1.638c0.01-0.137,0.013-0.433,0.013-0.562l0.063-0.012
	l0.061,0.012c0.001,0.129,0.003,0.426,0.013,0.562c0.011,0.146,0.136,1.476,0.177,1.638c0.019,0.079,0.155,0.625,0.22,1.039
	c0.067,0.43,0.111,0.672,0.123,0.718c0.062,0.243,0.082,0.811,0.097,0.988c0.003,0.09-0.031,0.864,0.032,1.065
	c0.017,0.056,0.037,0.11,0.056,0.161c0.048,0.132,0.094,0.257,0.079,0.337c-0.026,0.144,0.046,0.38,0.062,0.428
	c0.022,0.13,0.123,0.467,0.123,0.553c0,0.038-0.048,0.13-0.083,0.206c-0.044,0.099-0.113,0.253-0.141,0.38
	c-0.008,0.034-0.199,0.791-0.086,1.595c0.022,0.159,0.151,0.533,0.216,0.809c0.026,0.114,0.05,0.208,0.061,0.259
	c0.033,0.16-0.054,1.865-0.078,2.074c-0.023,0.202-0.046,0.392-0.164,0.605c-0.069,0.125-0.017,0.456-0.015,0.52
	c0.001,0.007-0.021,0.241-0.057,0.613c-0.019,0.18,0.128,0.309,0.212,0.411c0.015,0.018,0.025,0.036,0.04,0.051
	c0.031,0.028,0.025,0.063,0.023,0.127c-0.001,0.078-0.043,0.174,0.017,0.294c0.038,0.076,0.142,0.17,0.317,0.285l0.006,0.004
	c0.037,0.024,0.119,0.046,0.302,0.086l0.057,0.013C17.536,31.998,17.553,32,17.57,32c0.077,0,0.155-0.035,0.207-0.064
	c0.034,0.033,0.081,0.057,0.144,0.048c0.04-0.008,0.088-0.026,0.12-0.04c0.038,0.018,0.097,0.041,0.164,0.041
	c0.061,0,0.126-0.067,0.162-0.092c0.021,0.003,0.047,0.007,0.082,0.007c0.084,0,0.146-0.073,0.174-0.12c0.004,0,0.009,0,0.017-0.002
	c0.127-0.032,0.199-0.113,0.199-0.228c0-0.089-0.11-0.174-0.289-0.305c-0.04-0.028-0.089-0.063-0.1-0.076
	c-0.005-0.008-0.024-0.032-0.052-0.064c-0.315-0.396-0.422-0.515-0.434-0.547c-0.004-0.027-0.011-0.061-0.016-0.094
	c-0.022-0.119-0.058-0.257-0.058-0.377c0-0.064-0.017-0.128-0.036-0.196c-0.034-0.127-0.075-0.336-0.03-0.548l0.037-0.172
	l-0.003,0.001c0.409-1.918,0.697-2.974,0.754-3.222c0.104-0.455,0.136-1.798,0.088-2.136c-0.017-0.105-0.043-0.252-0.069-0.395
	c-0.037-0.199-0.137-0.434-0.137-0.508c0-0.045,0.008-0.147,0.018-0.267c0.017-0.225,0.099-0.523,0.09-0.721
	c-0.025-0.614-0.026-0.937-0.015-0.98c0.029-0.108,0.398-2.121,0.398-2.786c0-0.926-0.086-1.727-0.132-2.157
	c-0.019-0.16-0.073-0.276-0.07-0.306c0.005-0.053,0.008-0.293,0-0.595c-0.009-0.363,0.015-0.769,0.029-0.94
	c0.019-0.231-0.085-0.632-0.151-0.897c-0.023-0.088-0.043-0.164-0.049-0.2c-0.022-0.137-0.189-0.673-0.229-0.801
	c0.03-0.072,0.105-0.271,0.095-0.467c-0.01-0.162-0.142-0.553-0.205-0.852c-0.024-0.119-0.046-0.222-0.054-0.266
	c-0.021-0.127,0.069-0.505,0.133-0.717c0.034-0.12,0.08-0.312,0.114-0.458c0.12,0.241,0.314,0.626,0.361,0.691
	c0.054,0.076,0.452,0.708,0.494,0.794c0.007,0.015,0.024,0.083,0.04,0.144c0.04,0.158,0.044,0.434,0.115,0.587
	c0.253,0.551,0.983,1.407,1.015,1.443l0.058,0.065c0.742,0.858,0.88,1.05,0.896,1.088c0.037,0.112,0.256,0.368,0.326,0.447
	c0.027,0.108,0.152,0.575,0.224,0.707c0.078,0.143,0.491,0.73,0.541,0.791c0.034,0.044,0.597,0.605,0.731,0.665
	c0.097,0.043,0.248,0.047,0.318,0.05c0.05,0.062,0.169,0.207,0.272,0.28c0.044,0.032,0.102,0.062,0.154,0.062
	c0.061,0,0.088-0.016,0.124-0.037c0.047,0.027,0.135,0.091,0.204,0.091c0.053,0,0.097-0.021,0.124-0.061
	c0.061-0.084-0.053-0.276-0.105-0.395c0.099-0.021,0.226-0.047,0.242-0.13C24.619,16.7,24.52,16.502,24.211,15.957z"/>
</svg>
