<?xml version="1.0" encoding="utf-8"?>
<!-- Generator: Adobe Illustrator 16.0.1, SVG Export Plug-In . SVG Version: 6.00 Build 0)  -->
<!DOCTYPE svg PUBLIC "-//W3C//DTD SVG 1.1//EN" "http://www.w3.org/Graphics/SVG/1.1/DTD/svg11.dtd">
<svg version="1.1" id="Layer_1" xmlns="http://www.w3.org/2000/svg" xmlns:xlink="http://www.w3.org/1999/xlink" x="0px" y="0px"
	 width="181.42px" height="181.42px" viewBox="0 0 181.42 181.42" enable-background="new 0 0 181.42 181.42" xml:space="preserve">
<path fill="#010101" d="M175.707,15.209c0,0-2.315-6.948-3.859-7.333c-1.544-0.387-7.72-4.633-10.035-5.404
	c-2.316-0.771-5.019-3.088-9.65-2.316c-4.632,0.772-10.421,1.545-12.351,3.86c-1.931,2.315-8.106,8.491-8.106,8.491
	s-1.93,8.878-3.087,10.422c-1.158,1.544-6.176,6.947-8.106,8.105c-1.93,1.158-17.755,4.632-31.265,16.984
	c-13.509,12.351-23.159,30.878-25.86,40.914c-2.702,10.035-6.948,31.65-6.948,31.65s-2.702,23.545-0.772,28.562
	s1.158,9.65-0.772,13.51c-1.93,3.859-16.597,8.492-22.773,3.474c-6.176-5.018-12.737-12.737-6.176-41.687
	c6.562-28.949,4.632-36.668-0.772-43.23c-5.404-6.561-17.755-7.719-20.457-6.561c-2.702,1.157-3.738,4.934,7.333,6.947
	c8.492,1.543,10.128,8.391,10.036,15.053c-0.386,27.791-8.105,36.283-6.948,53.266c1.158,16.984,11.966,25.861,22.387,27.791
	S61.071,174.62,63,174.62c1.93,0,8.106,1.545,8.106,1.545s3.088,1.157,6.562,1.157s5.79,1.544,6.947,1.544
	c1.158,0-0.386,3.475,5.404,2.316s15.054-1.545,15.054-1.545s5.403-1.157,9.263-0.771c3.86,0.387,9.264,0,9.264,0
	s7.72,0,10.422,0.387c2.702,0.385,6.947,2.315,6.562-0.772s-2.702-7.72-2.702-7.72s2.702-3.088,1.544-6.947
	c-1.157-3.86-6.947-9.264-6.947-9.264l-1.544-3.859c0,0,1.93-3.861,0.771-8.879c-1.157-5.018-0.771-14.667-0.771-14.667l2.702-6.562
	c0,0,3.474,3.088,4.245,3.088c0.772,0,1.931,4.631,2.316,5.789s-2.702,1.158-1.93,3.859c0.771,2.703,1.544,5.019,1.544,5.019
	s-2.702-3.86-4.632-3.474c-1.931,0.386-3.088,3.088-1.544,5.018s5.018,5.404,7.333,4.632c2.316-0.771,7.334-6.562,8.106-8.106
	c0.771-1.543-1.158-7.719-0.387-10.807c0.772-3.088,3.088-6.947,0.387-11.58c-2.702-4.631-6.176-4.246-8.106-8.491
	c0,0-3.088-4.632,0.387-8.105c3.474-3.474,8.105-14.282,10.035-17.755c1.93-3.475,3.859-7.334,4.246-10.809
	c0.386-3.473,0-9.263,0-9.263l1.157-2.702l5.404-1.93c0,0,3.859-0.387,5.018-1.93c1.158-1.545,2.316-3.475,2.316-3.475
	s3.474-1.93,4.245-4.631c0.772-2.703,0-4.633,0-4.633s-1.157-4.632-0.771-6.562c0.386-1.93,1.544-7.719,1.544-7.719
	s3.474-0.771,3.474-3.475C178.023,19.841,175.707,15.209,175.707,15.209z M164.9,31.034c-1.931,0-4.632-2.701-4.632-2.701
	s0.771-3.475,3.088-2.703c2.315,0.772,1.93,2.316,1.93,2.316S166.83,31.034,164.9,31.034z"/>
</svg>
