<?xml version="1.0" encoding="utf-8"?>
<!-- Generator: Adobe Illustrator 16.0.1, SVG Export Plug-In . SVG Version: 6.00 Build 0)  -->
<!DOCTYPE svg PUBLIC "-//W3C//DTD SVG 1.1//EN" "http://www.w3.org/Graphics/SVG/1.1/DTD/svg11.dtd">
<svg version="1.1" id="Layer_1" xmlns="http://www.w3.org/2000/svg" xmlns:xlink="http://www.w3.org/1999/xlink" x="0px" y="0px"
	 width="32px" height="32px" viewBox="0 0 32 32" enable-background="new 0 0 32 32" xml:space="preserve">
<path fill="#010101" d="M29.021,28.265c0,0-0.078-0.629-0.393-0.747s-1.022-0.275-1.022-0.275s0.157-0.629,0.118-1.415
	s-0.275-2.084-0.236-2.28c0.04-0.197-0.274-1.651-0.668-2.556s-1.77-2.241-1.77-2.241s-0.943-3.066-1.809-4.443
	c-0.864-1.376-2.634-2.398-3.499-2.673c-0.864-0.275-3.381-0.511-4.403-0.511c-1.022,0-4.01,0.983-4.521,1.455
	c-0.511,0.472-2.477-1.691-2.713-1.887C7.87,10.494,5.251,7.424,4.411,6.248C3.821,5.422,2.56,3.773,2.72,1.53
	c0.118-1.651-0.157-1.69-0.314-1.376S2.169,2.351,2.169,2.984c0,1.416,1.337,3.853,1.769,4.521c0.433,0.668,1.887,2.438,2.87,3.656
	c0.377,0.467,2.516,2.556,2.398,2.949c-0.118,0.393-1.573,1.966-1.966,2.359c-0.393,0.393-1.219,0.943-1.612,1.101
	s-1.101,0.55-1.297,1.298c-0.197,0.747-0.629,1.494-0.59,1.611c0.039,0.118-0.236,0.944-0.433,1.18
	c-0.196,0.236-0.943,1.258-0.668,1.455C2.917,23.311,3.192,22.8,3.349,22.8c0,0,0.157,0.433,0.236,0.707
	c0.079,0.275,0.079,0.59,0.393,0.473c0.314-0.118,0.354-0.904,0.354-0.904S4.764,23.782,5.04,23.9
	c0.275,0.118,0.393-0.394,0.393-0.394s-0.649-1.316,2.673-0.55c0.364,0.084,2.005,0.433,2.163,0.472s0.983,1.927,1.179,2.005
	c0.197,0.079,0.826,0.629,0.865,0.904c0.039,0.275-0.079,0.943-0.04,1.219c0.04,0.275,0.04,0.865-0.039,1.455
	s-0.079,1.101,0.433,1.415c0,0,1.415,0.708,2.201,0.551c0.787-0.157,1.219-0.669,1.73-0.708c0.511-0.039,2.28-0.118,3.027-0.314
	s1.611-0.433,2.162-0.786c0.55-0.354,1.494-0.314,1.926-0.433c0.433-0.118,0.826-0.314,1.416-0.786s1.219-1.141,1.219-1.141
	s0.118,1.219-0.079,1.533c-0.196,0.314,0.04,0.236,0.314,0.197c0.275-0.04,0.433,0.078,0.433,0.354s0.118,0.629,0.394,0.394
	c0.275-0.236,0.196-0.59,0.196-0.59s0.826,0.117,0.904,0.314c0.079,0.196,0.354,0.354,0.394,0.196
	c0.039-0.157,0.275,0.079,0.354-0.275C29.337,28.579,29.021,28.265,29.021,28.265z M14.185,24.919c0,0.366-0.813,0.812-0.813,0.812
	c-0.528,0-0.163-0.894,0.082-1.26c0.244-0.365,0.528-0.69,0.854-0.65C14.632,23.862,14.185,24.553,14.185,24.919z M14.75,21.896
	c0,0-0.668-0.59-0.983-1.062c-0.314-0.471-0.079-1.14,0.197-1.808c0.275-0.669-0.275-1.259-0.236-2.319
	c0.039-1.062,0.865-1.219,0.982-0.59c0.118,0.629,1.69,2.438,1.849,2.674c0.156,0.235,0.375,1.23,0.235,1.258
	C15.576,20.283,14.868,21.935,14.75,21.896z M18.628,27.128c-0.162,0.404-1.174,0.688-1.578,0.485s-1.174-0.323-1.052-1.012
	c0,0,0.931-1.294,1.781-1.092S18.789,26.724,18.628,27.128z M25.759,24.137c-0.551,0.746-1.298,1.297-2.162,1.219
	c-0.865-0.079-1.533-0.354-1.651-0.63c-0.118-0.274,0.039-0.235,0.472-0.629c0.433-0.393,0.472-0.786,0.433-1.021
	c-0.039-0.236-0.865,0.354-0.865,0.354s-0.472,0.314-0.786,0.275c-0.314-0.04-0.865-0.865-0.196-2.084
	c0.084-0.154,0.393-0.747,1.219-0.865c0.825-0.117,1.809-0.472,2.162-0.59c0.354-0.117,1.14-0.354,1.298-0.393
	c0.156-0.039,0.511,1.533,0.511,2.201C26.191,22.643,26.31,23.39,25.759,24.137z"/>
</svg>
