<?xml version="1.0" encoding="utf-8"?>
<!-- Generator: Adobe Illustrator 16.0.1, SVG Export Plug-In . SVG Version: 6.00 Build 0)  -->
<!DOCTYPE svg PUBLIC "-//W3C//DTD SVG 1.1//EN" "http://www.w3.org/Graphics/SVG/1.1/DTD/svg11.dtd">
<svg version="1.1" id="Layer_1" xmlns="http://www.w3.org/2000/svg" xmlns:xlink="http://www.w3.org/1999/xlink" x="0px" y="0px"
	 width="32px" height="32px" viewBox="0 0 32 32" enable-background="new 0 0 32 32" xml:space="preserve">
<path d="M22.534,11.083c0,0,0.128-0.383,0.415-0.447c0.288-0.064,0.512,0.128,0.863-0.128s0.479-0.512,0.8-0.703
	c0.319-0.192,0.831-0.831,0.99-0.959c0.16-0.128,0.831-0.671,0.672-0.831c-0.16-0.16-0.384-0.416-0.735-0.479s-1.406,0.064-1.566,0
	s-0.64-0.192-0.352-0.384c0.287-0.192,1.022-0.639,1.343-0.895c0.319-0.255,0.799-0.607,0.927-0.895s0.479-0.607,0.191-0.799
	c-0.287-0.192-1.022-0.064-1.15-0.256s-0.16-0.479,0-0.639c0.159-0.16,0.415-0.991,0.319-1.215s-0.607,0.032-0.703-0.256
	c-0.096-0.288-0.16-0.991-0.256-1.438c-0.096-0.448-0.256-0.863-0.511-0.735c-0.256,0.128,0.063,0.927,0,1.279
	c-0.064,0.352-0.416,1.822-0.959,1.822c-0.544,0-0.672-0.288-0.672-0.288s-0.575,0.128-0.895-0.128
	c-0.32-0.256-0.448-0.16-0.479,0.032c-0.032,0.192,0.128,1.598,0,1.822c-0.128,0.224-0.224,0.575-0.447,0.224
	c-0.225-0.352-0.448-0.703-0.704-0.831c-0.255-0.128-0.479-0.128-0.575,0.096c-0.096,0.224-0.352,1.183-0.191,1.535
	c0.16,0.352,0.671,1.183,0.543,1.47s-0.415,0.416-0.607,0.319c-0.191-0.096-0.799-0.543-1.022-0.607s-0.768-0.32-0.927-0.096
	c-0.16,0.224,0,1.055,0.191,1.311c0.192,0.256,0.735,1.407,0.735,1.407s0.64,0.863,0.319,1.086
	c-0.319,0.224-0.511,0.096-0.799,0.032s-0.768-0.224-0.959-0.192c-0.191,0.032-0.512,0-0.512,0s0.768-1.63,0.576-1.726
	c-0.192-0.096-1.087,0.607-1.151,0.288c-0.064-0.319,0.224-0.639,0.352-0.767s0.735-1.375,0.8-1.63
	c0.063-0.256,0.063-0.416-0.192-0.352c-0.256,0.064-1.502,0.64-1.566,0.416c-0.064-0.224,0.288-1.598,0.416-1.854
	c0.127-0.256,0.383-1.087,0.159-1.183c-0.224-0.096-0.511,0.192-0.607,0.256S14,4.211,14,4.019s-0.128-1.598-0.255-1.822
	c-0.128-0.224-0.288,0-0.416,0.128c-0.128,0.128-0.32,0.512-0.448,0.288c-0.128-0.224-0.383-0.832-0.575-0.991
	s-0.607-0.383-0.831-0.352c-0.224,0.032-0.64,0.511-0.448,0.767s0.831,1.918,0.448,1.758c-0.384-0.16-1.119-0.704-1.215-0.704
	c-0.096,0-0.128,0.448,0,0.799s0.607,1.023,0.32,1.023S9.652,4.626,9.652,4.626s0.032,0.319,0.16,0.671
	C9.94,5.649,10.835,6.544,10.995,6.8c0.16,0.256,0.639,0.991,0.383,1.055c-0.255,0.064-0.703-0.319-1.119-0.447
	S9.173,7.056,9.109,7.279C9.045,7.503,9.461,8.143,9.621,8.302s0.767,0.959,0.895,1.151c0.128,0.191,1.087,0.799,0.799,0.895
	c-0.288,0.096-0.831-0.192-1.022-0.064c-0.192,0.127,0.447,0.831,0.352,0.959c-0.096,0.127-1.023,0.927-1.055,1.086
	c-0.032,0.16-0.288,1.151-0.511,0.735s-0.128-1.854-0.096-1.95c0.032-0.096-0.192-1.726-0.416-1.95
	c-0.224-0.224-0.352-0.255-0.479,0c-0.128,0.256-0.288,0.863-0.607,0.704c-0.32-0.16-0.703-1.311-0.991-1.471
	C6.2,8.238,6.136,8.143,5.945,8.43C5.753,8.718,5.593,9.325,5.401,9.005S4.89,7.951,4.602,7.823s-0.224,0-0.575,0.096
	c-0.352,0.096-0.543-0.288-0.863-0.16C2.844,7.887,2.78,7.663,2.429,7.727S1.725,7.951,1.853,8.398
	c0.128,0.448,0.735,0.927,0.543,1.119C2.205,9.708,1.501,9.581,1.565,9.869c0.064,0.288,0.831,1.119,1.023,1.183
	s1.087,0.224,0.799,0.447c-0.288,0.224-1.215-0.064-1.215,0.288s1.055,1.119,1.183,1.151l-0.032,0.512
	c0.128,0.255,0.575,0.288,0.991,0.416c0.416,0.127,1.502-0.128,1.342,0.255c-0.16,0.384-0.799,0.448-0.927,0.543
	c-0.128,0.096-0.863,0.224-0.735,0.543c0.128,0.32,0.479,0.384,0.927,0.543c0.447,0.16,1.342,0.064,1.438,0.16
	c0.096,0.096,0.543,0.32,0.959,0.352s1.598-0.48,1.598-0.128c0,0.352-0.224,0.543-0.384,0.543S6.552,17.061,6.68,17.38
	c0.128,0.32,0.991,0.8,1.311,0.959c0.32,0.16,1.662,0,1.534,0.416c-0.127,0.415-0.575,0.415-0.416,0.64
	c0.16,0.224,2.206,1.15,2.333,1.406s1.119,0.639,1.311,0.767s0.799,0.16,0.959,0.384s1.662,1.662,1.758,2.109
	c0.096,0.448,0.959,1.662,1.087,2.27s0.831,2.557,0.735,2.749c-0.096,0.191-0.384,0.511-0.16,0.735
	c0.224,0.224,0.607,0.063,0.607,0.543s0.096,1.343,0.256,1.502c0.16,0.16,0.416,0.256,0.512-0.128
	c0.031-0.124-0.799-2.429-0.863-2.876c-0.063-0.448-0.671-2.27-0.575-2.812c0.096-0.544,0.287-1.119,0.447-1.79
	c0.16-0.672,0.384-1.023,0.384-1.023s0.287,0.128,0.607-0.287c0.319-0.416,0.224-0.384,0.735-0.672
	c0.511-0.287,1.214-0.606,1.183-0.959c-0.032-0.352-0.735-0.543-0.224-0.799c0.511-0.256,1.055-0.447,1.246-0.767
	c0.191-0.32,0.224-0.64,0.224-0.64s-0.639,0.16-0.415-0.16c0.224-0.319,0.447-0.639,0.735-0.734c0.287-0.097,0.895-0.8,1.086-1.119
	c0.192-0.319,0.416-0.575,0.032-0.703s-0.895-0.128-1.087-0.224c-0.191-0.097-1.183,0-1.311-0.16s-0.256-0.192-0.031-0.416
	c0.224-0.224,0.352-0.543,0.479-0.64c0.127-0.096,0.383-0.191,0.671-0.16c0.287,0.032,1.886-0.416,2.077-0.639
	c0.192-0.224-0.159-0.479,0.16-0.576c0.319-0.096,0.607-0.352,0.863-0.575s0.799-0.895,0.767-1.055
	c-0.031-0.16-0.639-0.288-1.15-0.384c-0.512-0.096-1.215-0.096-1.502,0c-0.288,0.096-0.959,0.32-0.959,0.064
	S22.534,11.083,22.534,11.083z M11.411,14.567c-0.224,0.096-0.576,0.575-0.863,0.416c-0.288-0.16,0.032-0.543,0.288-0.959
	c0.256-0.416,0.288-0.895,0.288-0.895c0.16,0.224,0.927,0.959,0.927,0.959S11.634,14.471,11.411,14.567z M15.63,14.439
	c0,0,0.16,0.352,0.256,0.607c0.096,0.255,0.543,0.671,0.543,1.022c0,0.353-0.671,0.32-0.831,0.16
	c-0.16-0.16,0.064-0.543,0.064-0.543s-0.352,0.096-0.543,0.032C14.927,15.654,15.63,14.439,15.63,14.439z M13.648,18.531
	c-0.064-0.256-0.192,0.128-0.416,0.128s-0.032-0.64-0.064-0.959c-0.032-0.32-0.096-0.544-0.319-0.607
	c-0.224-0.064-0.509-0.342-0.384-0.384c0.575-0.191,0.767,0.512,0.895,0.703c0.128,0.192,0.639,1.119,0.703,1.343
	S13.84,19.33,13.84,19.33S13.712,18.787,13.648,18.531z M14.831,22.495c-0.096,0.159-0.863-0.672-0.991-0.928
	s0.064-1.246,0.064-1.246c0.447,0.159,0.671,1.15,0.639,1.246C14.511,21.664,14.927,22.335,14.831,22.495z M14.767,18.818
	c-0.16-0.096,0.598-2.126,0.575-2.014c-0.032,0.16,0.64,0.959,0.64,0.959s-0.192,0.128-0.352,0.192
	C15.47,18.02,14.927,18.915,14.767,18.818z M17.229,24.253c-0.128,0.256-0.352,0.799-0.576,1.087
	c-0.224,0.287-0.447-0.479-0.607-0.735c-0.159-0.256-0.958-2.462-0.99-2.781c-0.032-0.319,0.127-0.703,0-1.087
	c-0.128-0.383,0.032-0.99,0.255-1.438c0.224-0.447,0.383-0.639,0.383-0.639c0.192-0.32,0.672-0.288,0.896-0.032
	s-0.224,0.64-0.384,0.735s0.192,0.703,0.352,0.927c0.16,0.224,0.416,1.278,0.416,1.566c0,0.287,0.479,1.215,0.479,1.215
	S17.355,23.997,17.229,24.253z M17.611,13.832c-0.256,0.256-1.374-0.416-1.374-0.416l-0.576-0.128
	c-0.224-0.096-0.192-0.224-0.032-0.447c0.16-0.224,0.512-0.927,0.512-0.927s1.278,1.151,1.438,1.375
	C17.739,13.512,17.867,13.576,17.611,13.832z"/>
</svg>
