<?xml version="1.0" encoding="utf-8"?>
<!-- Generator: Adobe Illustrator 16.0.1, SVG Export Plug-In . SVG Version: 6.00 Build 0)  -->
<!DOCTYPE svg PUBLIC "-//W3C//DTD SVG 1.1//EN" "http://www.w3.org/Graphics/SVG/1.1/DTD/svg11.dtd">
<svg version="1.1" id="Layer_1" xmlns="http://www.w3.org/2000/svg" xmlns:xlink="http://www.w3.org/1999/xlink" x="0px" y="0px"
	 width="32px" height="32px" viewBox="0 0 32 32" enable-background="new 0 0 32 32" xml:space="preserve">
<path id="path6665-6_1_" fill="#231F20" d="M29.484,14.325c-0.012,0.042-0.71,0.221-0.807,0.24c-0.09,0.018-0.39,0.084-0.429,0.184
	c-0.032,0.082-0.36,0.142-0.452,0.188c-0.252,0.128-0.546,0.219-0.786,0.384c-0.223,0.152-0.6,0.324-0.857,0.401
	c-0.409,0.123-0.714,0.262-1.158,0.273c-0.433,0.011-0.905-0.015-1.318,0.116c-0.44,0.139-1.015,0.123-1.471,0.141
	c-0.277,0.011-0.525,0.015-0.801-0.028c-0.039-0.006-0.482-0.125-0.508-0.069c0.049-0.108,0.877,0.826,0.912,0.873
	c0.263,0.354,0.364,0.715,0.496,1.123c0.152,0.471,0.241,0.908-0.027,1.346c-0.154,0.25-0.441,0.725-0.765,0.783
	c-0.235,0.043-0.489,0.105-0.724,0.17c-0.209,0.059-0.452,0.014-0.669,0.029c-0.501,0.039-0.98-0.115-1.436-0.305
	c-0.438-0.184-0.816-0.508-1.192-0.791c-0.039-0.029-1.013-0.805-0.95-0.883c-0.114,0.143,0.185,0.82,0.265,0.984
	c0.22,0.455,0.55,0.762,0.937,1.08c0.184,0.152,0.404,0.297,0.533,0.502c0.105,0.166,0.134,0.344,0.271,0.502
	c0.18,0.207,0.374,0.389,0.533,0.615c0.183,0.26,0.298,0.562,0.489,0.814c0.258,0.336,0.482,0.686,0.726,1.031
	c0.244,0.346,0.554,0.861,0.897,1.113c0.094,0.068,0.17,0.332,0.228,0.436c0.064,0.119,0.144,0.256,0.121,0.396
	c-0.051,0.324,0.33,0.691,0.429,0.994c0.138,0.426,0.4,0.799,0.55,1.217c0.137,0.379,0.306,0.832,0.495,1.189
	c0.188,0.354,0.544,0.674,0.796,0.986c0.202,0.254,0.681,0.764,0.675,1.104c-0.007,0.33-0.421-0.229-0.461-0.281
	c-0.236-0.303-0.487-0.596-0.698-0.914c-0.127-0.189-0.311-0.334-0.438-0.525c-0.087-0.133-0.246-0.26-0.312-0.393
	c-0.084-0.168-0.242-0.279-0.327-0.457c-0.113-0.236-0.231-0.473-0.361-0.703c-0.118-0.207-0.239-0.412-0.345-0.627
	c-0.101-0.203-0.188-0.412-0.302-0.609c-0.085-0.145-0.219-0.467-0.372-0.539c-0.558-0.26-0.865-1.078-1.17-1.584
	c-0.188-0.312-0.396-0.629-0.637-0.902c-0.115-0.131-0.15-0.318-0.264-0.441c-0.068-0.074-0.184-0.068-0.256-0.15
	c-0.211-0.238-0.439-0.545-0.586-0.822c-0.26-0.484-0.727-0.73-1.153-1.053c-0.498-0.375-1.613-2.104-1.677-2.471
	c-0.027-0.158-0.086-0.43-0.136-0.59c-0.06-0.193-0.021-0.436-0.105-0.484c-0.031-0.02-0.183-0.049-0.201-0.084
	c-0.031-0.061,0.041-0.094-0.008-0.162c-0.043-0.059-0.331-0.045-0.396,0.002c-0.143,0.105,0.078,0.35,0.08,0.463
	c0.003,0.145-0.021,0.279-0.007,0.438c0.027,0.318,0.013,1.322,0.019,1.51c0.004,0.154,0.1,0.639,0.021,0.752
	c-0.035,0.049,0.009,0.164,0.003,0.219c-0.009,0.08-0.063,0.146-0.079,0.227c-0.042,0.219,0.026,0.422,0.043,0.639
	c0.029,0.363-0.107,0.738-0.113,1.1c-0.007,0.404-0.038,0.762-0.076,1.164c-0.018,0.186-0.048,0.332-0.078,0.514
	c-0.04,0.244-0.236,0.402-0.257,0.652c-0.063,0.746-0.579,1.379-0.543,2.148c0.005,0.119-0.008,1.074-0.227,1.031
	c-0.262-0.053-0.121-1.049-0.106-1.229c0.05-0.631,0.101-1.17,0.244-1.793c0.032-0.141,0.146-0.357,0.077-0.49
	c-0.058-0.111-0.118-0.248-0.114-0.377c0.002-0.08,0.058-0.123,0.026-0.207c-0.097-0.258,0.136-0.775,0.163-1.053
	c0.035-0.367,0.004-0.711-0.005-1.08c-0.005-0.17-0.008-0.432,0.041-0.59c0.071-0.229-0.112-0.385-0.119-0.592
	c-0.013-0.373-0.295-0.727-0.328-1.105c-0.031-0.373-0.008-0.76,0.039-1.129c0.045-0.354,0.064-0.795,0.224-1.115
	c0.116-0.232-0.023-0.199-0.108-0.418c-0.069-0.176,0.018-0.554-0.281-0.377c-0.175,0.104-0.4,0.292-0.609,0.137
	c0,0-0.39,0.201-0.502,0.301c-0.325,0.293-0.66,0.555-1.063,0.727c-0.757,0.324-1.584,0.482-2.399,0.57
	c-0.628,0.066-1.237,0.32-1.888,0.352c-0.232,0.01-0.408-0.014-0.635,0.072c-0.335,0.129-0.682,0.225-1.031,0.316
	c-0.696,0.186-1.457,0.334-2.164,0.422c-0.149,0.018-0.314,0.084-0.468,0.109c-0.187,0.031-0.255-0.039-0.412,0.055
	c-0.304,0.18-0.689,0.314-1.037,0.387c-0.05,0.01-0.614,0.047-0.403-0.143c0.097-0.086,0.37-0.184,0.506-0.211
	c0.131-0.025,0.362-0.133,0.476-0.199c0.184-0.109,0.413-0.09,0.584-0.217c0.379-0.277,0.89-0.324,1.322-0.479
	c0.12-0.043,0.25-0.043,0.37-0.082c0.124-0.041,0.194-0.17,0.311-0.229c0.208-0.104,0.445-0.115,0.652-0.207
	c0.212-0.096,1.188-0.4,1.462-0.465c0.129-0.031,0.237-0.111,0.365-0.145c0.153-0.041,0.295-0.018,0.449-0.027
	c0.229-0.018,0.5,0.02,0.725-0.037c0.288-0.076,0.513-0.34,0.816-0.416c0.223-0.057,0.456-0.088,0.678-0.139
	c0.378-0.086,0.741-0.203,1.092-0.383c0.325-0.166,0.653-0.318,0.973-0.498c0.162-0.092,0.291-0.217,0.483-0.234
	c0.262-0.022,0.135-0.271,0.391-0.422c-0.247,0.015-0.632,0.073-0.871-0.002c-0.181-0.057-0.104-0.198-0.321-0.191
	c-0.269,0.008-0.515-0.004-0.783-0.032c-0.861-0.089-1.693-0.702-2.362-1.221c-0.305-0.237-0.653-0.484-0.91-0.774
	c-0.312-0.353-0.828-0.568-1.193-0.872c-0.235-0.196-0.404-0.458-0.659-0.617c-0.346-0.216-0.674-0.462-1-0.705
	c-0.681-0.505-1.308-1.093-1.943-1.656c-0.229-0.203-0.428-0.439-0.656-0.64c-0.341-0.3-0.953-0.598-1.159-1.02
	c-0.082-0.168,0.475,0.131,0.488,0.14c0.366,0.236,0.706,0.512,1.081,0.734c0.469,0.278,0.925,0.627,1.348,0.97
	c0.19,0.154,0.468,0.176,0.687,0.317c0.343,0.22,1.751,1.168,2.121,1.41c0.343,0.225,0.568,0.507,0.846,0.803
	c0.146,0.156,0.278,0.132,0.475,0.193c0.369,0.114,0.591,0.269,0.873,0.541c0.296,0.285,0.627,0.567,0.975,0.789
	c0.123,0.079,0.261,0.123,0.396,0.175c0.13,0.05,0.433,0.099,0.526,0.173c-0.166-0.132-0.353-0.256-0.525-0.381
	c-0.144-0.104-0.423-0.146-0.533-0.266c-0.107-0.118-0.205-0.258-0.276-0.401c-0.045-0.09-0.135-0.27,0-0.382
	c0.371-0.309,0.494,0.153,0.79,0.264c0.389,0.146,0.484,0.606,0.877,0.775c0.157,0.067,0.324,0.125,0.491,0.162
	c0.207,0.044-0.071-0.347-0.113-0.404c-0.123-0.171-0.354-0.595-0.201-0.806c0.023-0.032,0.199-0.417,0.559-0.485
	c0.172-0.032,0.196-0.178,0.202-0.27c0.007-0.112,0.11-0.229,0.179-0.314c0.204-0.252,0.513-0.236,0.546-0.281
	c0.019-0.026,0.857,0.162,0.945,0.173c-0.014-0.529-0.315-0.9-0.789-1.094c-0.255-0.104-0.369-0.302-0.559-0.48
	c-0.186-0.174-0.53-0.376-0.419-0.684c0.253-0.701,0.89,0.256,1.102,0.432c0.223,0.184,0.427,0.379,0.609,0.604
	c0.069,0.085,0.536,0.685,0.525,0.719c0.036-0.114-0.159-0.467-0.184-0.6c-0.034-0.183-0.061-0.373-0.118-0.551
	c-0.118-0.371-0.29-0.626-0.487-0.965c-0.104-0.178-0.355-0.306-0.505-0.442c-0.112-0.103-0.207-0.243-0.301-0.362
	c-0.123-0.155-0.106-0.362-0.162-0.543c-0.078-0.252-0.354-0.424-0.529-0.607c-0.552-0.577-0.912-1.331-1.346-2
	C9.448,4.979,9.271,4.755,9.138,4.503C9.034,4.308,8.89,4.103,8.842,3.883C8.79,3.643,8.725,3.559,8.57,3.342
	C8.196,2.816,7.945,2.219,7.655,1.673C7.481,1.344,7.254,1.017,7.04,0.705c-0.069-0.1-0.506-0.735-0.155-0.704
	c0.113,0.01,0.29,0.285,0.35,0.357c0.116,0.139,0.208,0.306,0.305,0.46c0.255,0.409,0.517,0.81,0.835,1.175
	C8.607,2.26,8.742,2.601,8.959,2.879c0.273,0.351,0.567,0.674,0.838,1.029c0.222,0.291,0.867,1.249,0.991,1.419
	c0.079,0.107,0.258,0.333,0.272,0.466c0.014,0.129,0.24,0.264,0.326,0.354c0.162,0.169,0.312,0.351,0.453,0.537
	c0.204,0.269,0.333,0.572,0.566,0.817c0.646,0.685,1.249,1.349,1.642,2.215c0.089,0.196,0.122,0.39,0.142,0.604
	c0.015,0.162,0.068,0.372,0.054,0.528c-0.019,0.214,0.133,0.184,0.205,0.354c-0.011-0.026,0.165,0.505,0.2,0.325
	c0.011-0.055-0.081-0.122-0.062-0.203c0.017-0.076,0.008-0.167,0.007-0.243c-0.004-0.25-0.024-0.5-0.029-0.75
	c-0.006-0.354-0.008-0.681-0.072-1.029c-0.039-0.21-0.082-0.42-0.142-0.625c-0.023-0.079-0.229-0.514-0.182-0.58
	c0.155-0.212,0.012-0.593-0.119-0.761c-0.511-0.654-0.905-1.392-1.391-2.068c-0.125-0.175-0.291-0.339-0.383-0.533
	c-0.117-0.247-0.133-0.347-0.335-0.529c-0.307-0.277-0.625-0.626-0.821-0.983c-0.151-0.277-0.389-0.521-0.583-0.769
	c-0.096-0.122-0.272-0.364-0.269-0.522c0.006-0.253,0.371,0.109,0.417,0.162c0.281,0.324,0.455,0.704,0.802,0.974
	c0.364,0.283,0.689,0.61,1.048,0.9c0.555,0.448,0.867,1.015,1.314,1.562c0.139,0.169,0.262,0.332,0.421,0.482
	c0.057,0.054,0.307,0.282,0.301,0.358c-0.006,0.084,0.18,0.313,0.216,0.399c0.117,0.271,0.248,0.535,0.357,0.809
	c0.325,0.819,0.673,1.616,0.723,2.515c0.013,0.23-0.004,0.436-0.083,0.654c-0.078,0.216-0.059,0.373-0.095,0.589
	c-0.031,0.189-0.124,0.28,0.058,0.413c0.171,0.125,0.134,0.288,0.102,0.479c-0.017,0.098-0.097,0.577,0.136,0.417
	c0.17-0.117,0.265-0.182,0.474-0.211c0.094-0.013,0.157-0.204,0.21-0.278c0.089-0.125,0.3-0.208,0.418-0.342
	c0.544-0.625,1.26-0.889,2.05-1.019c0.284-0.047,0.681-0.077,0.891-0.288c0.296-0.297,0.607-0.602,0.888-0.914
	c0.423-0.469,0.802-1.309,1.369-1.451c0.027-0.007,0.308-0.758,0.373-0.862c0.131-0.209,0.269-0.429,0.431-0.615
	c0.092-0.105,0.176-0.042,0.215-0.198c0.049-0.193,0.295-0.403,0.421-0.546c0.211-0.243,0.428-0.492,0.67-0.706
	c0.078-0.069,0.25-0.205,0.312-0.11c0.229,0.146-0.349,0.647-0.437,0.73c-0.128,0.121-0.275,0.23-0.367,0.383
	c-0.065,0.109-0.094,0.223-0.208,0.292c-0.2,0.123-0.151,0.293-0.272,0.501c-0.303,0.519-0.546,1.003-0.733,1.583
	c-0.168,0.519-0.612,0.899-0.922,1.321c-0.21,0.287-0.482,0.583-0.729,0.837c-0.293,0.302-0.604,0.544-0.918,0.828
	c-0.384,0.347-0.903,0.437-1.318,0.732c-0.304,0.215-0.657,0.359-0.993,0.511c-0.22,0.1-0.44,0.214-0.642,0.347
	c-0.141,0.093-0.074,0.141-0.012,0.267c0.047,0.096-0.167,0.329-0.15,0.341c0.08,0.059,0.454-0.203,0.543-0.138
	c0.053,0.039,0.172,0.139,0.217,0.085c0.111-0.136,0.343-0.287,0.516-0.161c0.089,0.065,0.381-0.048,0.504-0.041
	c0.524,0.031,0.964,0.247,1.423,0.477c0.237,0.119,0.367,0.255,0.47,0.504c0.005,0.013,0.147,0.428,0.185,0.378
	c-0.021,0.028,0.179,0.292,0.223,0.302c0.166,0.039,0.311,0.009,0.473-0.008c0.354-0.039,0.744,0.021,1.092,0.043
	c0.214,0.013,0.428-0.052,0.643-0.053c0.2,0,0.94-0.03,1.003-0.116c0.126-0.172,0.493,0.086,0.395,0.113
	c0.242-0.066,0.452-0.228,0.708-0.274c0.192-0.035,0.572-0.051,0.743,0.073c0.104,0.077,0.287-0.096,0.41-0.084
	c0.171,0.016,0.127,0.042,0.297-0.033c0.038-0.017,0.427-0.197,0.508-0.244c0.095-0.055,0.145-0.096,0.232-0.166
	c0.078-0.063,0.144,0.047,0.203-0.035c0.014-0.018,0.593-0.242,0.553-0.271c0.014,0.01,0.488-0.186,0.531-0.2
	c0.178-0.06,0.345-0.018,0.51,0.066c-0.064-0.175,0.586-0.127,0.658-0.123c0.15,0.008,1.319,0.078,1.451,0.089
	c0.083,0.007,0.723,0.125,0.434,0.263c-0.348,0.167-0.831-0.086-1.183,0.002C30.492,14.291,29.576,14.064,29.484,14.325z
	 M18.017,15.084c0.255,0.068,0.54,0.093,0.794,0.139c0.113,0.021,0.8,0.373,0.853,0.301c0.133-0.182-0.979-0.582-1.087-0.592
	c-0.188-0.019-0.42-0.051-0.606-0.022C17.674,14.957,17.759,15.016,18.017,15.084z"/>
</svg>
