<?xml version="1.0" encoding="utf-8"?>
<!-- Generator: Adobe Illustrator 16.0.1, SVG Export Plug-In . SVG Version: 6.00 Build 0)  -->
<!DOCTYPE svg PUBLIC "-//W3C//DTD SVG 1.1//EN" "http://www.w3.org/Graphics/SVG/1.1/DTD/svg11.dtd">
<svg version="1.1" id="Layer_1" xmlns="http://www.w3.org/2000/svg" xmlns:xlink="http://www.w3.org/1999/xlink" x="0px" y="0px"
	 width="32px" height="32px" viewBox="0 0 32 32" enable-background="new 0 0 32 32" xml:space="preserve">
<path d="M29.718,2.874c0,0-6.644-3.401-10.677-1.107c-4.034,2.293-4.825,7.118-3.955,10.123c0.87,3.006,3.718,11.389-0.633,13.604
	c-0.66,0.336-1.402,0.597-2.175,0.769c-0.078-0.104-0.201-0.206-0.518-0.238c-0.417-0.042-2.542,0.042-3.125-0.125
	c-0.377-0.107-0.66-0.017-0.885,0.135c-1.423-0.554-2.592-1.645-3.104-3.467C4.515,22.1,4.41,21.634,4.316,21.17
	c0.021-0.097,0.045-0.183,0.069-0.229c0.083-0.167-0.208-0.5-0.125-0.708s-0.167-0.75-0.167-0.75s-0.083-0.583,0.042-0.833
	s-0.167-0.75-0.167-0.75s0.083-0.5,0.083-0.959c0-0.304-0.333-0.792-0.292-0.917s0-0.583-0.083-0.875s-0.25-0.542-0.208-0.792
	S3.427,13.94,3.177,13.69s0,0-0.167-0.583s-0.816-0.98-0.816-0.98c-1.589-2.072-1.354-0.438-1.07,0.513
	c-0.033,0.105-0.05,0.201-0.031,0.258c0.105,0.316,0.177,0.333,0.216,0.301c0.026,0.073,0.047,0.151,0.071,0.227
	c0.015,0.143,0.024,0.311,0.004,0.431c-0.027,0.164,0.122,0.304,0.229,0.385c0.026,0.114,0.047,0.233,0.07,0.35
	c-0.028,0.218-0.066,0.5-0.091,0.598c-0.03,0.118,0.147,0.294,0.254,0.39c0.009,0.067,0.017,0.135,0.024,0.203
	c-0.069,0.178-0.174,0.491-0.112,0.657c0.062,0.165,0.144,0.278,0.211,0.352c0.011,0.146,0.021,0.29,0.031,0.437
	c-0.019,0.104-0.034,0.226-0.034,0.379c0,0.202,0.044,0.363,0.08,0.467c0.004,0.092,0.008,0.184,0.012,0.276
	c-0.04,0.192-0.105,0.517-0.133,0.715c-0.028,0.2,0.099,0.434,0.182,0.564c0.003,0.092,0.006,0.185,0.01,0.276
	C2.06,20.091,1.983,20.393,2.01,20.69c0.032,0.35,0.135,0.648,0.183,0.771c0.022,0.349,0.046,0.693,0.081,1.027
	c0.196,1.913,1.653,5.031,4.846,6.486c0.031,0.173,0.104,0.405,0.308,0.507c0.333,0.167,3.25,0.792,4.125,0.542
	c0.213-0.061,0.379-0.177,0.513-0.316c0.113-0.01,0.217-0.009,0.333-0.022c5.298-0.632,7.281-3.928,7.909-6.169
	c1.107-3.954-1.462-10.67-2.136-13.287c-0.711-2.769,0.135-6.617,3.876-7.276c3.381-0.596,7.079,1.353,7.964,1.612
	C32,5.149,32.011,4.219,29.718,2.874z"/>
</svg>
