<?xml version="1.0" encoding="utf-8"?>
<!-- Generator: Adobe Illustrator 16.0.1, SVG Export Plug-In . SVG Version: 6.00 Build 0)  -->
<!DOCTYPE svg PUBLIC "-//W3C//DTD SVG 1.1//EN" "http://www.w3.org/Graphics/SVG/1.1/DTD/svg11.dtd">
<svg version="1.1" id="Layer_1" xmlns="http://www.w3.org/2000/svg" xmlns:xlink="http://www.w3.org/1999/xlink" x="0px" y="0px"
	 width="32px" height="32px" viewBox="0 0 32 32" enable-background="new 0 0 32 32" xml:space="preserve">
<g>
	<path d="M9.711,18.071c-0.487-0.227-1.046-0.342-1.662-0.342c-1.023,0-1.854,0.318-1.89,0.332l-0.05,0.02l-0.043,0.033
		c-0.219,0.164-2.136,1.643-2.023,3c0.131,1.577,0.945,3.492,2.805,3.699c0.378,0.042,0.715,0.062,1.032,0.062l0,0
		c1.91,0,2.998-0.795,3.233-2.36C11.393,20.649,11.497,18.905,9.711,18.071z M10.561,22.294c-0.175,1.169-0.934,1.998-2.457,1.998
		c-0.287,0-0.82-0.222-1.168-0.26c-1.825-0.203-2.085-2.699-2.108-2.983c-0.057-0.685,0.848-1.924,1.541-2.457
		c0.176-0.061,1.237-0.203,1.979-0.203c0.5,0,0.947,0.091,1.33,0.269C10.868,19.214,10.862,20.287,10.561,22.294z"/>
	<path d="M31.992,14.396c-0.061-0.727-0.463-1.719-0.587-2.01c0.005-0.378-0.001-1.875-0.345-3.571
		c-0.535-2.643-1.592-4.397-3.145-5.218c-0.355-0.188-2.245-1.124-4.584-1.124c-1.196,0-2.327,0.244-3.362,0.724
		c-3.812,1.77-6.044,4.867-6.122,5.962c-0.053,0.737-0.483,2.02-0.603,2.363c-0.26,0.255-1.025,0.868-1.151,1.904
		c-0.828-0.116-1.432-0.189-1.536-0.202c-0.084-0.018-0.703-0.165-0.656-0.546c0.019-0.147,0.191-0.502,0.358-0.846
		c0.562-1.154,1.503-3.086,0.801-5.036C10.308,4.704,8.87,3.453,7.215,3.453c-0.524,0-1.062,0.124-1.599,0.368
		C4.344,4.399,3.312,5.606,2.922,6.973c-0.338,1.184-0.172,2.363,0.466,3.32c0.259,0.39,0.502,0.744,0.722,1.067
		c0.614,0.898,1.31,1.917,1.233,2.149c-0.139,0.231-0.635,0.473-0.984,0.59c-0.077-0.006-0.199-0.013-0.348-0.013
		c-1.038,0-1.789,0.323-2.114,0.909c-0.461,0.83-0.398,2.287-0.358,2.81c-0.465,0.542-1.935,2.41-1.438,3.803
		c0.41,1.148,1.921,2.695,3.136,3.938c0.328,0.336,0.637,0.652,0.875,0.912c1.023,1.116,6.116,3.479,9.376,3.479c0,0,0,0,0,0
		c0.418,0,0.798-0.041,1.127-0.12c2.84-0.686,3.267-0.639,3.292-0.647c0,0,1.38-0.407,2.099-0.99
		c0.719-0.582,1.047-1.902,1.047-1.902c0.406-0.038,1.232-0.184,1.729-0.742c0.315-0.354,0.45-0.823,0.387-1.354
		c-0.128-1.094-0.342-2.321-0.476-3.043c2.78-0.514,5.091-2.296,5.736-2.761c0.101,0.012,0.24,0.021,0.403,0.021
		c0.596,0,1.418-0.133,1.954-0.768C31.54,16.741,32.069,15.32,31.992,14.396z M22.196,25.011c-0.321,0.363-0.978,0.472-1.295,0.489
		l0.502-2.257l-0.646,1.766l-0.177,0.495c0,0-0.423,1.397-1.516,2.04c-1.092,0.643-2.164,0.358-4.574,0.939
		c-0.269,0.065-0.586,0.099-0.943,0.099c0,0,0,0,0,0c-3.064-0.001-7.832-1.753-8.659-2.656c-0.246-0.269-0.56-0.59-0.892-0.93
		c-1.1-1.126-2.615-2.666-2.968-3.652c-0.288-0.808,0.326-2.126,0.938-2.837c0.959-0.411,2.973-1.305,3.418-1.75
		c0.589-0.589,0.589-1.965,0.589-1.965s-0.196,0.393-0.688,1.376c-0.379,0.759-2.163,1.399-2.958,1.653
		c-0.048-0.541-0.083-1.838,0.254-2.445c0.253-0.455,1.082-0.504,1.427-0.504c0.204,0,0.345,0.016,0.345,0.016l0.081,0.01
		l0.078-0.023c0.115-0.035,1.335-0.356,1.698-0.96c0.369-0.615,0.021-1.411-1.062-2.998c-0.218-0.32-0.459-0.672-0.717-1.059
		C3.927,9.095,3.601,8.147,3.875,7.189c0.329-1.151,1.003-2.26,2.071-2.746C6.379,4.246,6.808,4.146,7.22,4.146
		c1.328,0,2.259,1.123,2.906,2.917c0.589,1.638-0.424,3.315-0.965,4.426c-0.23,0.473-0.397,0.815-0.431,1.092
		c-0.115,0.914,1.195,1.523,1.695,1.615l0.023,0.003c0.024,0.003,2.442,0.141,4.567,0.527c1.259,0.229,2.13,0.756,2.762,1.274
		l1.078,0.856c0.077,0.001,1.44-0.158,2.368,0.769c0.921,0.921,0.189,2.876,0.186,2.895l-0.014,0.073l0.016,0.074
		c0.004,0.02,0.785,1.969,0.978,3.604C22.425,24.581,22.362,24.823,22.196,25.011z M22.95,13.495
		c0.302,1.103-0.022,2.582-0.652,3.357c-0.1,0.123-0.269,0.206-0.478,0.264c-0.014-0.016-0.026-0.032-0.041-0.047
		c-0.977-0.977-2.163-1.156-2.581-1.189c-0.24-0.199-0.856-0.681-1.697-1.129c0.163-0.681,0.447-1.414,0.702-2
		c0.437-1.004,2.294-1.402,2.784-1.402c0.091,0,0.354-0.188,0.207,0.004C22.292,11.772,22.734,12.705,22.95,13.495z M30.187,17.122
		c-0.294,0.349-0.768,0.459-1.168,0.482l0.879-3.045c-0.4,1.1-1.257,2.428-1.641,2.994l-0.03-0.005l-0.138,0.103
		c-0.034,0.025-2.457,2.506-5.495,2.959c-0.001-0.008-0.004-0.02-0.005-0.027c0.055-0.365,0.232-1.899-0.433-3.021
		c0.172-0.113,0.322-0.243,0.446-0.396c0.784-0.964,1.485-2.489,1.106-3.878c-0.29-1.062-1.138-1.86-2.52-2.373l-0.052-0.019
		l-0.055-0.004c0,0-0.121-0.009-0.318-0.009c-0.784,0-2.672,0.151-3.282,1.555c-0.274,0.633-0.505,1.328-0.634,1.999
		c-0.509-0.223-1.071-0.414-1.665-0.521c-0.774-0.141-1.59-0.27-2.318-0.377c0.052-0.93,0.602-1.43,0.611-1.438l0.074-0.066
		l0.034-0.093c0.025-0.069,0.717-1.595,0.786-2.555c0.051-0.71,2.501-4.164,6.093-5.831c0.93-0.432,2.325-0.393,3.406-0.393
		c2.153,0,3.352,0.959,3.682,1.134c3.214,1.698,3.068,8.093,3.066,8.158l-0.003,0.089l0.037,0.082
		c0.005,0.011,0.498,1.128,0.557,1.838C31.263,15.1,30.864,16.322,30.187,17.122z"/>
</g>
</svg>
