<?xml version="1.0" encoding="utf-8"?>
<!-- Generator: Adobe Illustrator 16.0.1, SVG Export Plug-In . SVG Version: 6.00 Build 0)  -->
<!DOCTYPE svg PUBLIC "-//W3C//DTD SVG 1.1//EN" "http://www.w3.org/Graphics/SVG/1.1/DTD/svg11.dtd">
<svg version="1.1" id="Layer_1" xmlns="http://www.w3.org/2000/svg" xmlns:xlink="http://www.w3.org/1999/xlink" x="0px" y="0px"
	 width="32px" height="32px" viewBox="0 0 32 32" enable-background="new 0 0 32 32" xml:space="preserve">
<path id="path14849" fill="#010101" d="M20.604,11.641c-0.264,0.003-1.398,0.29-1.551,0.361c-0.151,0.07-2.022,0.701-2.274,0.836
	c-0.417,0.226-1.562,0.281-2.431,0.118c-2.036-0.248-5.33-0.051-7.107,0.3c-0.277,0.055-1.484,0.267-1.705,0.325
	c-0.546,0.141-1.641,0.395-2.158,0.502c-0.598,0.124-1.558,0.397-1.815,0.514c-0.119,0.055-1.125,0.615-1.215,0.745
	c-0.108,0.155-0.12,0.609-0.016,0.649c0.041,0.015,0.115,0.154,0.165,0.308c0.094,0.289,0.342,0.637,0.67,0.941
	c0.317,0.297,1.474,0.891,2.138,1.1c1.921,0.602,4.108,1.187,4.416,1.286c1.046,0.342,2.723,0.558,4.334,0.558l1.06,0.003
	c0,0,1.4,0.718,1.786,0.812c0.386,0.096,0.684-0.129,0.725-0.443c0.041-0.314,0.117-0.774,0.021-0.809
	c-0.045-0.018-0.029-0.059,0.051-0.13c0.082-0.073,0.89-0.205,0.993-0.249c0.178-0.073,0.192-0.071,0.339,0.063
	c0.086,0.079,1.384,1.474,1.433,1.565c0.748,0.731,1.283,0.467,1.329,0.467s0.245-0.092,0.441-0.207s0.489-0.266,0.649-0.338
	s1.941-1.55,2.037-1.613c0.205-0.141,0.518-0.561,0.521-0.701c0.001-0.053,0.035-0.143,0.078-0.2
	c0.096-0.126,0.102-0.356,0.014-0.445c-0.049-0.049,0.237,0.032,0.382,0.036c0.146,0.004,1.087,0.094,2.146,0.564
	c0.145,0.074,0.639,0.33,1.188,0.604c0.175,0.088,0.638,0.355,1.03,0.59c0.392,0.24,0.857,0.498,0.98,0.577
	c0.775,0.45,1.056,0.595,1.658,0.427c0.604-0.168,0.984-1.496-0.105-2.355c-1.518-1.199-0.75-1.618-0.631-1.755
	c0.307-0.358,1.089-1.092,1.219-1.223c0.377-0.376,0.674-1.062,0.581-1.341c-0.125-0.375-0.935-1.089-2.985-0.288
	c-0.083,0.032-0.479,0.225-0.88,0.427s-0.869,0.402-1.04,0.445c-0.168,0.042-1.188,0.448-2.013,0.328
	c-1.833-0.228-3.788-0.532-3.862-0.552c-0.152-0.043-0.209-0.216-0.1-0.3c0.043-0.032,0.122-0.208,0.178-0.395
	c0.229-0.764,0.009-1.873-0.409-2.073C20.822,11.649,20.726,11.64,20.604,11.641L20.604,11.641z M11.667,13.908
	c0.644,0,1.213,0.01,1.569,0.038c0.41,0.032,1.286,0.071,1.945,0.086c1.175,0.027,1.905,0.109,2.11,0.233
	c0.08,0.049,0.037,0.054-0.217,0.021c-0.511-0.065-8.83-0.037-9.326,0.032c-0.234,0.033-0.654,0.093-0.933,0.136
	c-0.408,0.063-1.055,0.161-1.439,0.256c-0.153-0.124-0.457-0.412-0.513-0.428c-0.037-0.098,0.354,0.041,0.664,0.041
	c0.137,0,0.405-0.039,0.596-0.085c0.191-0.046,0.55-0.092,0.799-0.099c0.249-0.009,0.645-0.042,0.879-0.074
	C8.477,13.972,10.252,13.909,11.667,13.908L11.667,13.908z M3.14,15.03c0.031,0,0.067,0.019,0.129,0.06
	c0.073,0.048,0.157,0.135,0.189,0.194c0.048,0.09,0.041,0.297-0.048,0.297c-0.059,0-0.122,0.037-0.141,0.004
	c-0.02-0.031-0.197,0.371-0.141,0.336c0.05-0.032-0.115-0.773-0.405-0.682c-0.068-0.05,0.101-0.062,0.147-0.062
	c0.041,0,0.115-0.04,0.169-0.087C3.083,15.049,3.11,15.03,3.14,15.03L3.14,15.03z M12.154,15.036c0.905,0,1.86,0.011,2.681,0.03
	c2.222,0.051,3.221,0.106,4.635,0.258c0.264,0.028,0.562,0.055,0.666,0.057c0.301,0.006,1.631,0.157,2.238,0.252
	c0.309,0.049,0.698,0.098,0.869,0.11c0.172,0.012,0.494,0.061,0.719,0.108c0.225,0.047,0.529,0.096,0.677,0.11
	c0.146,0.013,0.292,0.047,0.323,0.073c0.034,0.026,0.169,0.034,0.301,0.015c0.234-0.031,0.58,0.042,0.721,0.154
	c0.051,0.04,0.053,0.072,0.008,0.126c-0.074,0.088-0.13,0.086-0.35-0.01c-0.096-0.041-0.52-0.11-0.946-0.153
	c-0.428-0.042-0.796-0.089-0.819-0.105c-0.024-0.015-0.416-0.065-0.867-0.111c-0.452-0.046-0.857-0.098-0.901-0.113
	c-0.206-0.077-1.635-0.188-2.691-0.212c-0.646-0.014-1.22-0.04-1.278-0.056c-0.059-0.018-0.524-0.05-1.038-0.073
	c-0.514-0.023-1.112-0.08-1.333-0.125c-0.323-0.066-0.49-0.072-0.866-0.029c-0.256,0.031-0.487,0.042-0.516,0.023
	c-0.028-0.017-1.091-0.046-2.362-0.062c-1.692-0.022-2.418-0.013-2.708,0.035c-0.569,0.093-2.382,0.196-2.633,0.15
	c-0.116-0.022-0.794,0.053-0.986,0.052c-0.064-0.125-0.071-0.331-0.156-0.447c-0.062-0.084,0.362,0.038,1.05,0.097
	c0.604,0.052,1.295,0.023,2.331-0.094C9.279,15.055,10.645,15.034,12.154,15.036L12.154,15.036z M2.241,15.151
	c0.027,0,0.055,0.004,0.08,0.013c0.048,0.011,0.098,0.009,0.146,0.013c0.014,0.004,0.031,0.013,0.027,0.031
	c-0.044-0.003-0.096,0.005-0.128,0.039c-0.056,0.042-0.128,0.063-0.167,0.125c-0.061,0.062-0.109,0.146-0.109,0.234
	c-0.007,0.033,0.018,0.068-0.001,0.099c-0.026,0.024-0.043-0.025-0.036-0.049C2.057,15.615,2.014,15.591,2,15.556
	c-0.013-0.036-0.007-0.076-0.002-0.113c0.016-0.063,0.033-0.128,0.072-0.182c0.025-0.036,0.051-0.075,0.093-0.093
	C2.188,15.156,2.214,15.151,2.241,15.151L2.241,15.151z M28.354,15.433c0.044,0,0.096,0.002,0.159,0.014
	c0.124,0.024,0.343,0.045,0.481,0.047c0.139,0,0.252,0.027,0.252,0.056c0,0.068-0.727,0.065-0.896-0.002
	C28.203,15.488,28.228,15.435,28.354,15.433L28.354,15.433z M3.391,15.809c0.051,0.062,0.176,0.225,0.1,0.31
	c-0.052,0.058-0.109,0.156-0.148,0.156c-0.137,0.073-0.535,0.303-0.489-0.017c0.154-0.007,0.292-0.188,0.279-0.379
	C3.284,15.932,3.351,15.821,3.391,15.809z M2.372,16.14c0.089,0.022,0.327,0.091,0.31,0.112l0.018,0.103
	c-0.032,0.096-0.318,0.166-0.353,0.074c-0.018-0.048-0.017-0.263-0.003-0.277C2.349,16.146,2.358,16.142,2.372,16.14L2.372,16.14z
	 M28.265,16.248c0.647-0.004,0.879,0.011,0.954,0.066c0.097,0.071,0.099,0.076-0.003,0.13c-0.057,0.031-0.141,0.037-0.184,0.014
	s-0.342-0.058-0.663-0.076C27.358,16.322,27.306,16.254,28.265,16.248L28.265,16.248z M7.841,16.428c0.156,0,0.347,0,0.58,0
	c1.229,0.006,3.433,0.106,4.043,0.183c0.19,0.024,1.209,0.032,2.264,0.02c5.5-0.066,6.109-0.047,7.246,0.223
	c0.176,0.042,0.688,0.102,1.139,0.131c0.448,0.031,0.939,0.092,1.092,0.134c0.15,0.042,0.515,0.103,0.807,0.137
	c0.58,0.065,0.701,0.121,0.537,0.241c-0.119,0.09-0.252,0.087-0.909-0.009c-0.265-0.04-0.815-0.097-1.226-0.13
	c-0.411-0.033-0.891-0.104-1.066-0.156c-0.284-0.086-0.539-0.133-1.064-0.195c-1.7-0.2-4.812-0.27-5.068-0.113
	c-0.157,0.098-3.137,0.047-4.15-0.068c-0.263-0.03-0.707-0.065-0.985-0.079c-0.279-0.012-0.807-0.045-1.172-0.074
	c-0.614-0.048-2.426-0.025-2.519,0.032c-0.063,0.039-0.213-0.138-0.184-0.215C7.219,16.449,7.373,16.432,7.841,16.428L7.841,16.428z
	 M26.891,17.096c0.058,0,0.147,0.005,0.282,0.018c0.396,0.036,1.173,0.271,1.528,0.46l0.2,0.104l-0.16-0.006
	c-0.088-0.002-0.28-0.039-0.426-0.082c-0.148-0.041-0.458-0.111-0.693-0.154c-0.757-0.136-0.797-0.146-0.816-0.255
	C26.794,17.12,26.798,17.097,26.891,17.096L26.891,17.096z M22.07,17.578c0.358-0.003,0.484,0.04,0.411,0.127
	c-0.035,0.043-0.221,0.083-0.471,0.101c-0.225,0.015-0.781,0.054-1.235,0.086c-0.454,0.033-0.993,0.065-1.198,0.074
	c-0.206,0.008-0.709,0.055-1.119,0.104s-0.864,0.101-1.011,0.112c-0.363,0.029-0.673,0.084-0.801,0.141
	c-0.059,0.025-0.311,0.066-0.56,0.092s-1.28,0.049-2.292,0.054c-1.498,0.009-1.897-0.007-2.158-0.073
	c-0.175-0.045-0.373-0.092-0.439-0.106c-0.066-0.013-0.12-0.047-0.12-0.075c0-0.027,0.053-0.087,0.12-0.129
	c0.105-0.068,0.156-0.068,0.413,0.004c0.182,0.047,0.484,0.072,0.799,0.066c0.278-0.007,0.734,0.006,1.012,0.027
	c0.463,0.036,0.975,0.012,2.59-0.121c0.296-0.025,0.562-0.059,0.591-0.075c0.147-0.093,1.183-0.183,3.426-0.302
	c0.542-0.028,1.264-0.066,1.604-0.088c0.172-0.011,0.317-0.016,0.437-0.017V17.578z M27.097,18.22
	c0.098-0.004,0.26,0.035,0.512,0.118c0.283,0.095,0.348,0.134,0.298,0.185c-0.075,0.074-0.067,0.074-0.524-0.025
	c-0.365-0.078-0.459-0.131-0.402-0.227C27.001,18.239,27.037,18.222,27.097,18.22L27.097,18.22z M22.614,18.807
	c0.021,0,0.018,0.018-0.004,0.05c-0.018,0.029-0.182,0.123-0.361,0.208c-0.181,0.083-0.449,0.167-0.596,0.185l-0.265,0.029
	l0.239-0.07c0.132-0.039,0.398-0.148,0.596-0.239C22.466,18.854,22.577,18.807,22.614,18.807L22.614,18.807z M21.163,19.295
	l-0.213,0.079c-0.117,0.042-1.621,0.359-1.81,0.355c-0.468,0.012-0.967-0.092-0.61-0.146c0.131-0.02,2.139-0.236,2.312-0.254
	L21.163,19.295z M14.125,20.03c0.009,0,0.019,0,0.03,0c0.116,0.004,0.732,0.385,0.732,0.453c0,0.126-0.336,0.064-0.624-0.117
	C14.062,20.237,13.991,20.047,14.125,20.03L14.125,20.03z"/>
</svg>
