<?xml version="1.0" encoding="utf-8"?>
<!-- Generator: Adobe Illustrator 16.0.1, SVG Export Plug-In . SVG Version: 6.00 Build 0)  -->
<!DOCTYPE svg PUBLIC "-//W3C//DTD SVG 1.1//EN" "http://www.w3.org/Graphics/SVG/1.1/DTD/svg11.dtd">
<svg version="1.1" id="Layer_1" xmlns="http://www.w3.org/2000/svg" xmlns:xlink="http://www.w3.org/1999/xlink" x="0px" y="0px"
	 width="32px" height="32px" viewBox="0 0 32 32" enable-background="new 0 0 32 32" xml:space="preserve">
<g>
	<polygon points="19.77,16.338 18.678,19.727 21.669,21.432 24.333,19.73 23.293,16.367 	"/>
	<polygon points="11.472,13.507 10.264,17.262 12.91,20.182 16.763,19.352 17.971,15.599 15.324,12.677 	"/>
	<path d="M31.999,6.168V5.371c0-2.966-2.404-5.371-5.37-5.371h-0.687H5.371C2.59,0,0.302,2.113,0.027,4.822
		C0.009,5.002,0,5.186,0,5.371v21.258c0,0.186,0.009,0.369,0.027,0.549C0.302,29.887,2.59,32,5.371,32h20.46h0.798
		C29.596,32,32,29.596,32,26.629L31.999,6.168L31.999,6.168z M27.336,11.428l-2.314,3.962l1.382,4.473
		c0.129,0.418-0.036,0.869-0.405,1.104l-3.779,2.412c-0.158,0.102-0.34,0.152-0.521,0.152c-0.166,0-0.332-0.041-0.479-0.126
		l-3.861-2.199l-4.037,0.87l-1.378,4.286c-0.132,0.41-0.514,0.673-0.923,0.673c-0.099,0-0.199-0.016-0.297-0.048
		c-0.511-0.163-0.791-0.709-0.626-1.22l1.378-4.285l-2.647-2.92l-4.399,0.949c-0.068,0.014-0.136,0.021-0.204,0.021
		c-0.446,0-0.849-0.311-0.947-0.766c-0.113-0.523,0.219-1.037,0.744-1.151l4.4-0.949l1.206-3.752L6.604,9.578
		c-0.36-0.396-0.329-1.01,0.068-1.369C7.067,7.85,7.681,7.88,8.04,8.276l3.023,3.337l3.852-0.831l1.379-4.285
		c0.164-0.511,0.71-0.79,1.22-0.627c0.51,0.165,0.789,0.711,0.626,1.22l-1.379,4.287l2.735,3.02l3.842,0.032l2.324-3.98
		c0.271-0.463,0.865-0.617,1.326-0.349C27.451,10.371,27.607,10.965,27.336,11.428z"/>
</g>
</svg>
