<?xml version="1.0" encoding="utf-8"?>
<!-- Generator: Adobe Illustrator 16.0.1, SVG Export Plug-In . SVG Version: 6.00 Build 0)  -->
<!DOCTYPE svg PUBLIC "-//W3C//DTD SVG 1.1//EN" "http://www.w3.org/Graphics/SVG/1.1/DTD/svg11.dtd">
<svg version="1.1" id="Layer_1" xmlns="http://www.w3.org/2000/svg" xmlns:xlink="http://www.w3.org/1999/xlink" x="0px" y="0px"
	 width="32px" height="32px" viewBox="0 0 32 32" enable-background="new 0 0 32 32" xml:space="preserve">
<g>
	<path d="M20.6,18.5h-1.5c-0.104,0-0.1,0.299-0.1,0.402v1.125c0,0.1-0.175-0.027-0.275-0.027H13.5v0.027
		c0,0.1-0.125-0.027-0.025-0.027H13.5v-1.098c0-0.104-0.296-0.402-0.4-0.402h-1.5c-0.104,0-0.1,0.299-0.1,0.402v1.125
		c0,1.137,0.838,1.973,1.975,1.973h5.25C19.862,22,21,21.164,21,20.027v-1.125C21,18.799,20.704,18.5,20.6,18.5z"/>
	<path d="M26.63,0h-0.688H5.371C2.59,0,0.303,2.113,0.028,4.821C0.01,5.002,0,5.186,0,5.371v21.258c0,0.186,0.01,0.369,0.028,0.549
		C0.303,29.887,2.59,32,5.371,32h20.461h0.798c2.966,0,5.37-2.405,5.37-5.371V6.168V5.371C32,2.405,29.596,0,26.63,0z M22.175,7.786
		c0.163,0.041,0.396,0.172,0.517,0.291l1.742,1.744c0.056,0.055,0.116,0.135,0.17,0.22c0.001,0,0.001,0,0.001,0
		c0.001,0,0.001,0.001,0.001,0.001c0.029,0.046,0.057,0.093,0.079,0.139c0.002,0.002,0.003,0.005,0.005,0.008
		c0.024,0.048,0.045,0.096,0.059,0.138l0.241,0.725c0.054,0.159,0.196,0.389,0.313,0.508l0.219,0.219l0.109-0.11
		c0.18-0.178,0.473-0.178,0.654,0l0.653,0.655c0.179,0.181,0.179,0.473,0,0.653l-1.526,1.523c-0.179,0.18-0.472,0.182-0.652,0
		l-0.654-0.654c-0.18-0.178-0.18-0.473,0-0.65l0.107-0.11l-0.223-0.219c-0.12-0.118-0.356-0.262-0.518-0.314l-0.736-0.24
		c-0.162-0.053-0.418-0.196-0.539-0.313l-1.364-1.309c-0.12-0.119-0.333-0.355-0.333-0.525V9.871V9.603
		c-0.5-1.903-2.275-1.472-2.275-1.472c-0.168-0.026-0.164-0.27-0.164-0.27C18.931,6.989,22.175,7.786,22.175,7.786z M21.854,12.89
		c-0.012,0.013-0.932,1.11-1.698,1.61h-2.685c0.303,0,0.671-0.427,0.955-0.709l2.174-2.154L21.854,12.89z M12.5,10h2.508h2.186H19.5
		v0.166c0,0.427,0.287,0.834,0.56,1.334h-2.866h-2.186h-2.277L12.5,10.972V10z M5.397,10.014l0.279-0.279
		c0.146-0.145,0.384-0.145,0.53,0l0.773,0.772l0,0l0.723,0.723c0.146,0.146,0.384,0.146,0.529,0l0.686-0.686
		c0.146-0.146,0.146-0.321,0-0.466L8.772,10H8.771L7.415,8.583C7.269,8.439,7.263,8.167,7.409,8.021l0.267-0.296
		c0.146-0.146,0.39-0.197,0.574-0.105l2.518,1.282C10.953,8.991,11,9.232,11,9.438v1.681c0,0.036,0.098,0.056,0.09,0.096
		c0,0.002,0.103-0.017,0.103-0.015c-0.01,0.047-0.022,0.054-0.039,0.103l3.279,3.198h-4.159l-1.199-1.126
		C8.982,13.405,8.889,13.5,8.808,13.5h-1.68c-0.051,0-0.105,0-0.159-0.018c-0.16-0.051-0.314-0.162-0.385-0.299l-0.422-0.845
		L5.3,10.612C5.207,10.431,5.251,10.158,5.397,10.014z M28,16.416v7.451c0,0.41-0.312,0.633-0.722,0.633H4.922
		C4.513,24.5,4,24.277,4,23.867v-7.451c0-0.065,0-0.146,0-0.224c0,0,0.805-1.362,1.445-2.619l0.132,0.064
		c0.219,0.431,0.638,0.71,1.102,0.843C6.339,15.162,6.026,16,5.861,16H26.34c-0.087,0-0.215-0.317-0.363-0.61
		c0.082-0.056,0.156-0.023,0.228-0.094l0.873-0.878C27.574,15.375,28,16.192,28,16.192C28,16.27,28,16.351,28,16.416z"/>
</g>
</svg>
