<?xml version="1.0" encoding="utf-8"?>
<!-- Generator: Adobe Illustrator 16.0.1, SVG Export Plug-In . SVG Version: 6.00 Build 0)  -->
<!DOCTYPE svg PUBLIC "-//W3C//DTD SVG 1.1//EN" "http://www.w3.org/Graphics/SVG/1.1/DTD/svg11.dtd">
<svg version="1.1" id="Layer_1" xmlns="http://www.w3.org/2000/svg" xmlns:xlink="http://www.w3.org/1999/xlink" x="0px" y="0px"
	 width="32px" height="32px" viewBox="0 0 32 32" enable-background="new 0 0 32 32" xml:space="preserve">
<path d="M5.37,32h20.461h0.798C29.595,32,32,29.595,32,26.629V6.168h-0.001V5.37c0-2.966-2.404-5.37-5.37-5.37h-0.687H5.37
	C2.589,0,0.302,2.113,0.027,4.821C0.009,5.002,0,5.185,0,5.37v21.259c0,0.186,0.009,0.368,0.027,0.549
	C0.302,29.886,2.589,32,5.37,32z M24.834,8.387c0,0,0.417-0.296,0.96-0.14c0.193,0.089,0.3,0.185,0.489,0.352
	c-0.382,0.403-0.732,0.948-1.033,1.666c-0.199,0.466-0.357,0.868-0.525,1.316c-0.095-0.239-0.188-0.466-0.278-0.682
	c0,0-0.36-0.827-0.495-1.11c-0.029-0.063-0.06-0.124-0.089-0.184C24.152,9.066,24.465,8.645,24.834,8.387z M21.27,8.268
	c0.309-0.088,0.777,0.015,1.321,0.729c0,0,0.309,0.477,0.602,1.095c0.132,0.278,0.484,1.09,0.484,1.09
	c0.332,0.792,0.705,1.754,1.142,2.952l0.546,1.51c0.416,1.154,0.645,1.791,1.016,2.66c0.3,0.717,0.65,1.264,1.033,1.666
	c-0.19,0.168-0.296,0.262-0.49,0.352c-0.543,0.156-0.96-0.14-0.96-0.14c-0.925-0.646-1.501-2.287-2.231-4.366l-0.604-1.687
	c0,0-0.233-0.628-0.271-0.732L21.8,10.603c-0.11-0.259-0.31-0.73-0.31-0.73c-0.234-0.499-0.505-0.899-0.798-1.224
	C20.692,8.648,20.979,8.352,21.27,8.268z M20.63,17.965l1.056-2.794c0.038-0.103,0.271-0.73,0.271-0.73l0.299-0.836l0.015,0.037
	l0.269,0.726l0.556,1.548c-0.211,0.546-0.406,1.039-0.588,1.471c0,0-0.353,0.812-0.485,1.09c-0.292,0.618-0.6,1.096-0.6,1.096
	l-0.001,0.001c1.355,0.35,2.849,1.227,2.803,2.645c-0.049,1.576-1.312,2.948-2.85,3.313c-1.894,0.451-3.612-0.004-5.244-1.03
	c-0.822-0.519-1.594-1.134-2.439-1.612c-1.029-0.582-2.656-0.556-3.27,0.691c-0.329,0.668-1.365,0.155-1.035-0.515
	c0.58-1.178,2.059-1.745,3.321-1.747c0.902-0.001,1.761,0.683,2.466,1.167c1.265,0.867,2.711,1.98,4.304,2.093
	c1.208,0.086,2.943-0.346,3.446-1.624c0.614-1.555-1.419-2.385-2.617-2.402c-0.311-0.005-0.503-0.21-0.57-0.446
	c-0.126-0.095-0.215-0.186-0.215-0.186c0.293-0.324,0.564-0.725,0.799-1.224C20.32,18.695,20.52,18.226,20.63,17.965z
	 M12.612,20.368c0.558-0.389,1.062-1.082,1.472-2.061c0.2-0.469,0.358-0.87,0.527-1.32c0.32,0.798,0.605,1.455,0.861,1.98
	c-0.29,0.538-0.603,0.959-0.972,1.217c-0.134,0.093-0.287,0.15-0.459,0.184l-0.544-0.002c-0.137,0-0.305,0.001-0.512,0.002
	C12.985,20.368,12.795,20.368,12.612,20.368z M17.753,9.164c0.18-0.332,0.347-0.596,0.609-0.78C18.495,8.29,18.649,8.231,18.82,8.2
	l0.544,0.001c0.137,0,0.306,0,0.513-0.001c0,0,0.189,0,0.372,0c-0.12,0.084-0.238,0.185-0.354,0.297v0.01
	c-0.345,0.34-0.653,0.794-0.922,1.367c-0.274,0.584-0.502,1.196-1.254,3.223l-0.384,1.033l-0.298,0.832l-0.284-0.764L16.2,12.653
	C16.834,11.001,17.338,9.87,17.753,9.164z M11.736,8.202c0.207,0,0.375,0,0.512,0l0.544-0.001c0.171,0.031,0.326,0.09,0.459,0.184
	c0.926,0.647,1.503,2.29,2.233,4.37l0.604,1.684l0.384,1.032c0.751,2.027,0.979,2.637,1.253,3.223
	c0.269,0.572,0.577,1.026,0.922,1.366v0.01c0.115,0.113,0.233,0.215,0.354,0.299c-0.184,0-0.373,0-0.373,0
	c-0.207,0-0.375-0.001-0.512-0.001l-0.545,0.001c-0.171-0.032-0.325-0.091-0.458-0.184c-0.263-0.183-0.43-0.449-0.609-0.78
	c-0.529-0.9-1.2-2.482-2.107-4.973l-0.552-1.525c-0.413-1.148-0.64-1.778-1.01-2.645c-0.41-0.979-0.913-1.673-1.471-2.06
	C11.546,8.202,11.736,8.202,11.736,8.202z M9.182,8.387c0,0,0.417-0.296,0.959-0.14c0.194,0.089,0.3,0.185,0.49,0.352
	c-0.382,0.403-0.733,0.948-1.033,1.666c-0.199,0.466-0.357,0.868-0.526,1.316c-0.095-0.239-0.188-0.466-0.278-0.682
	c0,0-0.36-0.827-0.495-1.11C8.27,9.726,8.239,9.666,8.21,9.605C8.5,9.066,8.812,8.645,9.182,8.387z M5.736,8.268
	C6.044,8.18,6.514,8.283,7.059,8.997c0,0,0.308,0.477,0.601,1.095c0.132,0.278,0.485,1.09,0.485,1.09
	c0.331,0.792,0.705,1.754,1.142,2.952l0.546,1.51c0.415,1.154,0.644,1.791,1.015,2.66c0.3,0.717,0.65,1.264,1.033,1.666
	c-0.19,0.168-0.296,0.262-0.49,0.352c-0.543,0.156-0.96-0.14-0.96-0.14c-0.925-0.646-1.501-2.287-2.231-4.366l-0.604-1.687
	c0,0-0.233-0.628-0.271-0.732l-1.057-2.794c-0.109-0.259-0.309-0.73-0.309-0.73C5.723,9.374,5.452,8.973,5.159,8.648
	C5.159,8.648,5.446,8.352,5.736,8.268z M4.708,18.695c0,0,0.199-0.47,0.31-0.73l1.056-2.794c0.038-0.103,0.271-0.73,0.271-0.73
	l0.299-0.836l0.014,0.037l0.27,0.726l0.555,1.548c-0.21,0.546-0.405,1.039-0.588,1.471c0,0-0.353,0.812-0.484,1.09
	c-0.293,0.618-0.601,1.096-0.601,1.096c-0.544,0.714-1.014,0.816-1.322,0.729c-0.291-0.083-0.578-0.381-0.578-0.381
	C4.203,19.595,4.474,19.194,4.708,18.695z"/>
</svg>
