<?xml version="1.0" encoding="utf-8"?>
<!-- Generator: Adobe Illustrator 16.0.1, SVG Export Plug-In . SVG Version: 6.00 Build 0)  -->
<!DOCTYPE svg PUBLIC "-//W3C//DTD SVG 1.1//EN" "http://www.w3.org/Graphics/SVG/1.1/DTD/svg11.dtd">
<svg version="1.1" id="Layer_1" xmlns="http://www.w3.org/2000/svg" xmlns:xlink="http://www.w3.org/1999/xlink" x="0px" y="0px"
	 width="32px" height="32px" viewBox="0 0 32 32" enable-background="new 0 0 32 32" xml:space="preserve">
<path d="M26.629,0h-0.687H5.371C2.59,0,0.303,2.114,0.028,4.822C0.009,5.002,0,5.186,0,5.371v21.258
	c0,0.186,0.009,0.369,0.028,0.549C0.303,29.887,2.59,32,5.371,32h20.461h0.797C29.596,32,32,29.596,32,26.629V6.168V5.371
	C32,2.405,29.596,0,26.629,0z M19.039,8.084c0.526,0.366,0.803,0.51,0.905,0.56c0.103,0.052,1.245,0.563,1.451,0.631
	c0.204,0.069,0.887,0.428,1.075,0.495c0.148,0.055,0.315,0.149,0.414,0.205c0.067,0.092,0.123,0.183,0.113,0.222
	c0.004,0.114-0.079,0.234-0.125,0.27c-0.117,0.101-0.656,0.318-0.844,0.387c-0.17,0.065-1.01,0.411-1.23,0.497
	c-0.078,0.03-0.369,0.169-0.729,0.344c-0.233-0.084-0.517-0.186-0.62-0.233c-0.188-0.086-0.889-0.444-1.126-0.649
	c-0.241-0.205-0.482-0.452-0.581-0.598c-0.146-0.218-0.244-0.962-0.222-1.246c0.013-0.17,0.044-2.455,0.044-2.455
	S18.244,7.533,19.039,8.084z M17.327,5.965c-0.01-0.02-0.75-1.422-1.816-1.519c-1.107-0.102-1.87,0.335-2.317,1.333
	c-0.172,0.382-0.282,0.846-0.358,1.432h1.813v14.166h2.142l-3.697,3.758c0.064,0.775,0.13,1.387,0.192,1.749
	c0.043,0.251-0.126,0.491-0.378,0.532c-0.026,0.006-0.053,0.008-0.079,0.008c-0.221,0-0.417-0.159-0.455-0.384
	c-0.067-0.396-0.138-1.079-0.209-1.948l-3.656-3.715h2.092V7.211h1.303c0.088-0.731,0.221-1.312,0.446-1.811
	c0.614-1.362,1.734-2.007,3.244-1.874c1.579,0.142,2.518,1.941,2.557,2.018c0.115,0.227,0.025,0.505-0.202,0.622
	C17.721,6.281,17.443,6.192,17.327,5.965z M22.065,28.704c-0.308,0.075-0.628,0.14-0.981,0.14c-0.544,0-1.164-0.152-1.928-0.648
	c-1.328-0.863-1.318-2.892-1.317-2.978c0.003-0.255,0.201-0.468,0.468-0.456c0.254,0.003,0.459,0.211,0.457,0.467
	c0,0.016-0.004,1.607,0.896,2.191c0.954,0.62,1.53,0.547,2.186,0.387c0.245-0.062,0.498,0.091,0.559,0.339
	C22.465,28.393,22.312,28.643,22.065,28.704z M23.541,19.955c0,0.273-0.023,0.89-0.069,1.094c-0.046,0.205-0.136,0.443-0.233,0.553
	c-0.137,0.152-0.613,0.459-0.903,0.562c-0.155,0.055-0.482,0.197-0.784,0.324c-0.15,0.062-0.305,0.125-0.463,0.188
	c-0.01,0.003-0.021,0.008-0.029,0.011c-0.047,0.018-0.11,0.043-0.182,0.074c-1.011,0.408-2.026,0.821-2.156,0.881
	c-0.275,0.137-0.753,0.396-0.91,0.614c-0.063,0.095-0.133,0.192-0.179,0.321c-0.052-0.282-0.11-0.635-0.123-0.844
	c-0.018-0.295,0.022-1.094,0.091-1.41c0.057-0.271,0.182-0.706,0.432-0.957c0.104-0.104,0.35-0.285,0.642-0.482
	c0.649-0.322,2.071-1.023,2.225-1.08c0.226-0.086,1.067-0.433,1.229-0.496c0.2-0.078,0.717-0.27,0.921-0.432
	c0.084-0.072,0.177-0.201,0.21-0.369c0.062,0.098,0.13,0.217,0.169,0.311C23.552,19.126,23.541,19.684,23.541,19.955z M17.86,17.801
	c-0.001-0.012,0.007-0.06,0.019-0.176c0.016-0.186,0.072-0.248,0.182-0.412c0.046-0.092,0.559-0.412,0.797-0.516
	c0.072-0.033,0.475-0.199,1.004-0.413c0.037,0.014,0.067,0.027,0.083,0.034c0.103,0.052,1.245,0.564,1.451,0.632
	c0.204,0.068,0.887,0.428,1.075,0.496c0.15,0.054,0.317,0.15,0.415,0.205c0.067,0.092,0.124,0.182,0.112,0.221
	c0.005,0.113-0.079,0.234-0.125,0.27c-0.117,0.102-0.656,0.318-0.845,0.388c-0.168,0.065-1.011,0.413-1.229,0.495
	c-0.078,0.031-0.37,0.17-0.731,0.346c-0.233-0.085-0.516-0.188-0.619-0.234c-0.188-0.086-0.889-0.443-1.126-0.648
	c-0.089-0.076-0.179-0.156-0.263-0.236c-0.07-0.105-0.154-0.238-0.17-0.309C17.863,17.834,17.86,17.811,17.86,17.801z
	 M23.541,12.271c0,0.274-0.023,0.888-0.069,1.093c-0.046,0.204-0.136,0.443-0.233,0.553c-0.092,0.103-0.34,0.273-0.58,0.406
	c-0.98,0.396-3.717,1.5-3.938,1.603c-0.275,0.136-0.752,0.395-0.91,0.612c-0.065,0.098-0.138,0.198-0.184,0.333
	c-0.051-0.279-0.106-0.618-0.118-0.821c-0.018-0.295,0.022-1.092,0.091-1.413c0.057-0.266,0.182-0.704,0.432-0.954
	c0.081-0.081,0.253-0.212,0.461-0.358c0.441-0.221,2.276-1.126,2.453-1.193c0.225-0.088,1.067-0.434,1.229-0.496
	c0.2-0.079,0.716-0.271,0.92-0.431c0.075-0.065,0.16-0.174,0.201-0.318c0.05,0.084,0.1,0.171,0.131,0.247
	C23.552,11.44,23.541,11.998,23.541,12.271z"/>
</svg>
