<?xml version="1.0" encoding="utf-8"?>
<!-- Generator: Adobe Illustrator 16.0.1, SVG Export Plug-In . SVG Version: 6.00 Build 0)  -->
<!DOCTYPE svg PUBLIC "-//W3C//DTD SVG 1.1//EN" "http://www.w3.org/Graphics/SVG/1.1/DTD/svg11.dtd">
<svg version="1.1" id="Layer_1" xmlns="http://www.w3.org/2000/svg" xmlns:xlink="http://www.w3.org/1999/xlink" x="0px" y="0px"
	 width="32px" height="32px" viewBox="0 0 32 32" enable-background="new 0 0 32 32" xml:space="preserve">
<path d="M5.37,32.001h20.464h0.797c2.963,0,5.369-2.403,5.369-5.37V6.17V5.374c0-2.966-2.406-5.37-5.369-5.37h-0.688H5.37
	c-2.781,0-5.067,2.112-5.344,4.82C0.01,5.004,0,5.189,0,5.374v21.257c0,0.186,0.01,0.37,0.026,0.55
	C0.302,29.889,2.588,32.001,5.37,32.001z M14.427,26.107c-1.188,0.425-1.839,0.659-2.729,1.042
	c-0.739,0.308-1.297,0.667-1.713,1.058c-0.167-0.195-0.266-0.303-0.359-0.503c-0.156-0.555,0.146-0.984,0.146-0.984
	c0.661-0.948,2.344-1.539,4.479-2.289l1.729-0.62c0,0,0.646-0.239,0.75-0.278l2.871-1.083c0.266-0.112,0.75-0.318,0.75-0.318
	c0.51-0.239,0.922-0.518,1.254-0.817c0,0,0.303,0.294,0.391,0.591c0.09,0.318-0.016,0.8-0.75,1.357c0,0-0.488,0.314-1.125,0.617
	c-0.285,0.135-1.113,0.497-1.113,0.497c-0.812,0.339-1.803,0.724-3.032,1.169L14.427,26.107z M9.651,20.73
	c0.083-0.3,0.391-0.594,0.391-0.594c0.328,0.302,0.74,0.578,1.255,0.817c0,0,0.479,0.206,0.75,0.317l2.865,1.084
	c0.104,0.041,0.75,0.278,0.75,0.278l0.854,0.308l-0.037,0.016l-0.745,0.275l-1.588,0.57c-0.558-0.216-1.062-0.416-1.505-0.604
	c0,0-0.833-0.362-1.12-0.498c-0.636-0.299-1.125-0.617-1.125-0.617C9.662,21.527,9.557,21.045,9.651,20.73z M22.016,26.529
	c-0.094,0.198-0.193,0.308-0.359,0.503c-0.416-0.394-0.975-0.753-1.713-1.06c-0.48-0.206-0.891-0.367-1.35-0.539
	c0.244-0.1,0.479-0.193,0.697-0.287c0,0,0.85-0.369,1.141-0.508c0.062-0.031,0.125-0.06,0.188-0.091
	c0.553,0.297,0.984,0.617,1.25,0.997C21.869,25.545,22.178,25.973,22.016,26.529z M22.062,20.423c0,0,0,0.195,0,0.383
	c-0.088-0.122-0.193-0.245-0.307-0.362h-0.012c-0.348-0.354-0.812-0.672-1.4-0.945c-0.6-0.283-1.229-0.516-3.307-1.286l-1.058-0.394
	l-0.854-0.307l0.781-0.292l1.588-0.567c1.693,0.65,2.855,1.166,3.578,1.59c0.34,0.185,0.615,0.356,0.803,0.628
	c0.094,0.135,0.156,0.294,0.188,0.469v0.56C22.062,20.04,22.062,20.212,22.062,20.423z M9.651,4.637
	c0.083-0.299,0.391-0.594,0.391-0.594c0.328,0.302,0.74,0.581,1.255,0.82c0,0,0.479,0.203,0.75,0.318l2.865,1.083
	c0.104,0.039,0.75,0.279,0.75,0.279l0.854,0.307l-0.037,0.013l-0.745,0.276l-1.588,0.57c-0.558-0.216-1.062-0.417-1.505-0.604
	c0,0-0.833-0.362-1.12-0.498c-0.636-0.299-1.125-0.614-1.125-0.614C9.662,5.434,9.557,4.952,9.651,4.637z M9.771,10.733
	c0.661-0.948,2.344-1.542,4.479-2.289l1.729-0.62c0,0,0.646-0.24,0.75-0.279L19.6,6.462c0.266-0.115,0.75-0.318,0.75-0.318
	c0.51-0.242,0.922-0.518,1.254-0.82c0,0,0.303,0.294,0.391,0.594c0.09,0.315-0.016,0.797-0.75,1.357c0,0-0.488,0.315-1.125,0.614
	c-0.285,0.136-1.113,0.498-1.113,0.498c-0.812,0.341-1.803,0.724-3.032,1.172l-1.547,0.56c-1.188,0.427-1.839,0.661-2.729,1.042
	c-0.739,0.307-1.297,0.667-1.713,1.06c-0.167-0.195-0.266-0.305-0.359-0.503C9.469,11.16,9.771,10.733,9.771,10.733z M22.016,10.436
	c-0.094,0.198-0.193,0.308-0.359,0.503c-0.416-0.394-0.975-0.753-1.713-1.06c-0.48-0.203-0.891-0.367-1.35-0.539
	c0.244-0.099,0.479-0.193,0.697-0.287c0,0,0.85-0.37,1.141-0.508c0.062-0.028,0.125-0.06,0.188-0.091
	c0.553,0.297,0.984,0.62,1.25,0.997C21.869,9.452,22.178,9.879,22.016,10.436z M9.578,13.355c0,0,0-0.195,0-0.383
	c0.401,0.57,1.109,1.088,2.115,1.508c0.479,0.205,0.891,0.369,1.354,0.541c-0.818,0.328-1.495,0.62-2.031,0.883
	c-0.552-0.297-0.984-0.619-1.25-0.997c-0.094-0.136-0.151-0.294-0.188-0.469l0.005-0.56C9.583,13.738,9.578,13.566,9.578,13.355z
	 M9.578,18.059c0.031-0.175,0.094-0.334,0.188-0.469c0.188-0.271,0.463-0.44,0.802-0.625c0.922-0.545,2.547-1.232,5.104-2.164
	l1.562-0.565c1.178-0.422,1.822-0.656,2.713-1.037c1.006-0.419,1.719-0.935,2.115-1.508c0,0.188,0,0.38,0,0.38
	c0,0.213,0,0.385,0,0.526v0.56c-0.031,0.174-0.094,0.333-0.188,0.469c-0.666,0.95-2.35,1.542-4.484,2.292l-1.729,0.617l-1.058,0.396
	c-2.078,0.77-2.708,1.002-3.307,1.284c-0.588,0.275-1.052,0.594-1.401,0.947H9.885c-0.114,0.117-0.219,0.24-0.307,0.362
	c0-0.188,0-0.383,0-0.383c0-0.211,0-0.383,0-0.523V18.059z"/>
</svg>
