<?xml version="1.0" encoding="utf-8"?>
<!-- Generator: Adobe Illustrator 16.0.1, SVG Export Plug-In . SVG Version: 6.00 Build 0)  -->
<!DOCTYPE svg PUBLIC "-//W3C//DTD SVG 1.1//EN" "http://www.w3.org/Graphics/SVG/1.1/DTD/svg11.dtd">
<svg version="1.1" id="Layer_1" xmlns="http://www.w3.org/2000/svg" xmlns:xlink="http://www.w3.org/1999/xlink" x="0px" y="0px"
	 width="32px" height="32px" viewBox="0 0 32 32" enable-background="new 0 0 32 32" xml:space="preserve">
<path d="M32,6.168V5.371C32,2.405,29.595,0,26.629,0h-0.687H5.371C2.589,0,0.302,2.113,0.027,4.822C0.009,5.002,0,5.186,0,5.371
	V26.63c0,0.186,0.009,0.368,0.027,0.549C0.302,29.887,2.589,32,5.371,32h20.46h0.799c2.966,0,5.37-2.404,5.37-5.37V6.168L32,6.168z
	 M10.903,26.966c-1.184,1.186-3.105,1.185-4.289,0.001c-1.186-1.186-1.186-3.106,0-4.291c1.184-1.186,3.105-1.186,4.29,0
	C12.088,23.859,12.088,25.781,10.903,26.966z M10.903,9.899c-1.184,1.184-3.105,1.184-4.289,0c-1.186-1.185-1.186-3.105,0-4.291
	c1.184-1.185,3.105-1.185,4.29,0C12.088,6.793,12.088,8.714,10.903,9.899z M13.519,9.685l3.176,1.834l0.698-1.21l1.027,3.712
	l-3.728,0.966l0.682-1.182l-3.176-1.833L13.519,9.685z M17.017,23.195l-3.728-0.966l1.026-3.712l0.699,1.21l3.176-1.834l1.321,2.287
	l-3.177,1.834L17.017,23.195z M25.387,18.334c-1.185,1.185-3.105,1.185-4.29,0c-1.186-1.185-1.186-3.106,0-4.291
	c1.185-1.185,3.105-1.185,4.29,0C26.572,15.228,26.572,17.149,25.387,18.334z"/>
</svg>
