<?xml version="1.0" encoding="utf-8"?>
<!-- Generator: Adobe Illustrator 16.0.1, SVG Export Plug-In . SVG Version: 6.00 Build 0)  -->
<!DOCTYPE svg PUBLIC "-//W3C//DTD SVG 1.1//EN" "http://www.w3.org/Graphics/SVG/1.1/DTD/svg11.dtd">
<svg version="1.1" id="Layer_1" xmlns="http://www.w3.org/2000/svg" xmlns:xlink="http://www.w3.org/1999/xlink" x="0px" y="0px"
	 width="32px" height="32px" viewBox="0 0 32 32" enable-background="new 0 0 32 32" xml:space="preserve">
<path d="M31.999,6.168V5.37c0-2.966-2.404-5.371-5.37-5.371h-0.687H5.371C2.59,0,0.302,2.113,0.027,4.821
	C0.009,5.002,0,5.185,0,5.37v21.259c0,0.186,0.009,0.368,0.027,0.549C0.302,29.886,2.59,32,5.371,32h20.46h0.798
	C29.596,32,32,29.595,32,26.629L31.999,6.168L31.999,6.168z M20.882,6.237c-0.238,0.121-0.53,0.028-0.651-0.21
	c-0.012-0.021-0.787-1.493-1.907-1.594c-1.163-0.106-1.962,0.352-2.433,1.399c-0.17,0.378-0.283,0.832-0.363,1.399
	c1.069,0.278,1.861,1.247,1.861,2.403c0,1.248-0.922,2.279-2.121,2.456l-0.002,0.046c-0.018,0.528-0.022,1.231-0.014,2.049
	c1.121,0.24,1.964,1.236,1.964,2.43c0,1.146-0.778,2.109-1.834,2.396c0.029,0.74,0.062,1.485,0.098,2.218
	c1.129,0.234,1.979,1.235,1.979,2.435c0,1.092-0.706,2.017-1.684,2.351c0.071,0.878,0.144,1.567,0.212,1.969
	c0.045,0.263-0.132,0.515-0.396,0.559c-0.027,0.006-0.056,0.008-0.083,0.008c-0.231,0-0.437-0.167-0.477-0.403
	c-0.07-0.408-0.144-1.111-0.217-2.005c-1.298-0.082-2.327-1.158-2.327-2.478c0-1.215,0.872-2.225,2.023-2.441
	c-0.034-0.708-0.066-1.429-0.094-2.144c-1.225-0.154-2.172-1.198-2.172-2.464c0-1.22,0.879-2.232,2.039-2.444
	c-0.008-0.827-0.004-1.537,0.014-2.07l0.002-0.06c-1.08-0.271-1.882-1.245-1.882-2.409c0-1.255,0.932-2.291,2.141-2.459
	c0.092-0.693,0.228-1.253,0.448-1.741c0.644-1.43,1.82-2.106,3.405-1.967c1.658,0.149,2.643,2.038,2.684,2.118
	C21.215,5.823,21.121,6.115,20.882,6.237z"/>
</svg>
