<?xml version="1.0" encoding="utf-8"?>
<!-- Generator: Adobe Illustrator 16.0.1, SVG Export Plug-In . SVG Version: 6.00 Build 0)  -->
<!DOCTYPE svg PUBLIC "-//W3C//DTD SVG 1.1//EN" "http://www.w3.org/Graphics/SVG/1.1/DTD/svg11.dtd">
<svg version="1.1" id="Layer_1" xmlns="http://www.w3.org/2000/svg" xmlns:xlink="http://www.w3.org/1999/xlink" x="0px" y="0px"
	 width="32px" height="32px" viewBox="0 0 32 32" enable-background="new 0 0 32 32" xml:space="preserve">
<path d="M31.999,6.169V5.371c0-2.966-2.404-5.371-5.37-5.371h-0.687H5.371C2.59,0,0.303,2.114,0.028,4.822
	C0.009,5.002,0,5.186,0,5.371V26.63c0,0.186,0.009,0.368,0.028,0.549c0.275,2.708,2.562,4.822,5.343,4.822h20.46h0.798
	c2.967,0,5.371-2.405,5.371-5.371L31.999,6.169L31.999,6.169z M27.622,22.295c0,0.386-0.313,0.699-0.7,0.699h-7.837
	c-0.387,0-0.699-0.313-0.699-0.699v-3.782c0-0.387,0.312-0.7,0.699-0.7h3.413l-5.812-5.812h-1.194l-5.811,5.812h3.234
	c0.387,0,0.7,0.313,0.7,0.7v3.782c0,0.386-0.313,0.699-0.7,0.699H5.077c-0.387,0-0.7-0.313-0.7-0.699v-3.782
	c0-0.387,0.313-0.7,0.7-0.7h3.099l5.81-5.812H12.17c-0.386,0-0.7-0.313-0.7-0.698V7.519c0-0.387,0.313-0.7,0.7-0.7h7.838
	c0.387,0,0.7,0.313,0.7,0.7v3.784c0,0.385-0.313,0.698-0.7,0.698h-1.816l5.811,5.812h2.92c0.387,0,0.7,0.313,0.7,0.7V22.295z"/>
</svg>
