<?xml version="1.0" encoding="utf-8"?>
<!-- Generator: Adobe Illustrator 16.0.1, SVG Export Plug-In . SVG Version: 6.00 Build 0)  -->
<!DOCTYPE svg PUBLIC "-//W3C//DTD SVG 1.1//EN" "http://www.w3.org/Graphics/SVG/1.1/DTD/svg11.dtd">
<svg version="1.1" id="Layer_1" xmlns="http://www.w3.org/2000/svg" xmlns:xlink="http://www.w3.org/1999/xlink" x="0px" y="0px"
	 width="32px" height="32px" viewBox="0 0 32 32" enable-background="new 0 0 32 32" xml:space="preserve">
<path d="M26.691,0h-0.688H5.43C2.649,0,0.333,2.105,0.056,4.813C0.041,4.993,0,5.171,0,5.356v21.257
	c0,0.186,0.041,0.379,0.056,0.559C0.333,29.879,2.649,32,5.43,32h20.464h0.797C29.654,32,32,29.58,32,26.613V6.153V5.356
	C32,2.39,29.654,0,26.691,0z M15.911,29.533c-7.482,0-13.548-6.066-13.548-13.548c0-7.482,6.065-13.548,13.548-13.548
	c7.482,0,13.547,6.065,13.547,13.548C29.458,23.467,23.393,29.533,15.911,29.533z"/>
<g>
	<path d="M6.565,13.952c0.268,0,0.496,0.039,0.684,0.117s0.341,0.182,0.459,0.31c0.118,0.128,0.204,0.273,0.258,0.438
		c0.054,0.164,0.081,0.334,0.081,0.51c0,0.173-0.027,0.342-0.081,0.508C7.913,16,7.826,16.146,7.708,16.274
		c-0.118,0.128-0.271,0.231-0.459,0.309C7.062,16.661,6.833,16.7,6.565,16.7h-0.99v1.536H4.634v-4.284H6.565z M6.308,15.969
		c0.108,0,0.212-0.008,0.312-0.024c0.101-0.016,0.188-0.047,0.265-0.093c0.076-0.046,0.137-0.111,0.183-0.195
		s0.069-0.193,0.069-0.33c0-0.136-0.023-0.245-0.069-0.33c-0.046-0.084-0.107-0.148-0.183-0.194
		c-0.076-0.046-0.164-0.077-0.265-0.093c-0.1-0.017-0.204-0.024-0.312-0.024H5.575v1.284H6.308z"/>
	<path d="M10.478,13.952l1.602,4.284h-0.978l-0.324-0.954H9.176L8.84,18.236H7.892l1.62-4.284H10.478z M10.531,16.581l-0.54-1.572
		H9.979l-0.558,1.572H10.531z"/>
	<path d="M11.713,14.744v-0.792h3.51v0.792h-1.284v3.492h-0.942v-3.492H11.713z"/>
	<path d="M19.069,13.952v0.792h-2.262v0.918h2.075v0.732h-2.075v1.05h2.31v0.792h-3.252v-4.284H19.069z"/>
	<path d="M20.84,13.952l1.788,2.874h0.012v-2.874h0.882v4.284h-0.942l-1.781-2.868h-0.013v2.868h-0.882v-4.284H20.84z"/>
	<path d="M24.163,14.744v-0.792h3.51v0.792H26.39v3.492h-0.942v-3.492H24.163z"/>
</g>
</svg>
