<?xml version="1.0" encoding="utf-8"?>
<!-- Generator: Adobe Illustrator 16.0.1, SVG Export Plug-In . SVG Version: 6.00 Build 0)  -->
<!DOCTYPE svg PUBLIC "-//W3C//DTD SVG 1.1//EN" "http://www.w3.org/Graphics/SVG/1.1/DTD/svg11.dtd">
<svg version="1.1" id="Layer_1" xmlns="http://www.w3.org/2000/svg" xmlns:xlink="http://www.w3.org/1999/xlink" x="0px" y="0px"
	 width="32px" height="32px" viewBox="0 0 32 32" enable-background="new 0 0 32 32" xml:space="preserve">
<g>
	<path d="M18.195,22.252H9.951c-0.297,0-0.538,0.24-0.538,0.537s0.24,0.538,0.538,0.538h8.245c0.297,0,0.539-0.241,0.539-0.538
		S18.492,22.252,18.195,22.252z"/>
	<path d="M9.413,15.978c0,0.297,0.24,0.538,0.538,0.538h12.726c0.297,0,0.538-0.241,0.538-0.538c0-0.297-0.241-0.538-0.538-0.538
		H9.951C9.653,15.44,9.413,15.681,9.413,15.978z"/>
	<path d="M22.677,18.666H9.951c-0.297,0-0.538,0.241-0.538,0.539c0,0.297,0.24,0.537,0.538,0.537h12.726
		c0.297,0,0.538-0.24,0.538-0.537C23.215,18.907,22.974,18.666,22.677,18.666z"/>
	<path d="M32,6.168V5.371C32,2.405,29.595,0,26.629,0h-0.687H5.371C2.589,0,0.302,2.113,0.027,4.822C0.009,5.002,0,5.186,0,5.371
		v21.258c0,0.186,0.009,0.369,0.027,0.549C0.302,29.887,2.589,32,5.371,32h20.46h0.798C29.596,32,32,29.596,32,26.629V6.168
		L32,6.168z M25.007,26.957H6.993V5.044h10.306v7.349h7.708V26.957z M19.307,10.745V5.044l5.7,5.701H19.307z"/>
</g>
</svg>
