<svg xmlns="http://www.w3.org/2000/svg" version="1.1" x="0px" y="0px" viewBox="0 0 586.8 181.4" xml:space="preserve" enable-background="new 0 0 586.8 181.4"><style type="text/css">
	.st0{fill:#FFFFFF;}
	.st1{fill:#DA0F21;}
	.st2{fill:#6DAB49;}
</style><path class="st0" d="M86.3 110.7c1.4-3.7 2.7-7.1 3.9-10.5 5-13.4 10.1-26.8 15.1-40.2 0.3-0.8 0.7-1.2 1.6-1.1 3 0.1 6 0.1 9 0 0.8 0 1 0.3 1 1 0 19.8 0 39.7 0 59.5 0 0.7-0.1 1.1-1 1 -1.9-0.1-3.8-0.1-5.6 0 -0.9 0-1.1-0.2-1.1-1.1 0-6 0-12.1 0-18.1 0-10.2 0-20.4 0-30.6 0-0.4 0-0.7 0-1.2 -0.5 0.3-0.6 0.8-0.7 1.2 -6.1 16.2-12.2 32.4-18.2 48.6 -0.4 0.9-0.8 1.3-1.8 1.2 -1.4-0.1-2.9-0.1-4.3 0 -1 0.1-1.4-0.3-1.8-1.2 -4.6-12.2-9.2-24.5-13.8-36.7 -1.6-4.4-3.3-8.7-5-13.2 -0.4 0.5-0.2 0.9-0.2 1.3 0 16.1 0 32.2 0 48.2 0 1.8 0.2 1.6-1.6 1.6 -1.8 0-3.5 0-5.3 0 -0.6 0-0.9-0.2-0.8-0.8 0-0.2 0-0.5 0-0.7 0-19.5 0-39 0-58.6 0-1.1 0.2-1.5 1.4-1.5 2.8 0.1 5.7 0.1 8.5 0 0.9 0 1.4 0.3 1.7 1.2 6 16.1 12.1 32.3 18.1 48.4C85.7 109.1 85.9 109.7 86.3 110.7z"/><path class="st0" d="M360.5 87.9c1.1 0.4 2.1 0.6 2.9 1 5.8 2.3 9.1 7.6 8.9 14.3 -0.3 9.3-6.8 16.2-16 17.1 -1.1 0.1-2.2 0.2-3.3 0.2 -9.2 0-18.5 0-27.7 0 -1 0-1.4-0.2-1.4-1.3 0-19.7 0-39.3 0-59 0-0.7-0.1-1.3 1-1.3 9.4 0.1 18.8-0.2 28.2 0.2 3.5 0.1 7.1 0.4 10.1 2.5 4.9 3.4 7 8.1 6.5 13.9 -0.5 5.5-3.2 9.5-8.3 11.9C361.2 87.5 361 87.6 360.5 87.9zM343.5 113.6C343.5 113.5 343.5 113.5 343.5 113.6c3.3 0 6.6 0 9.9 0 5.7-0.1 9.6-3.5 10.5-8.9 0.8-4.8-1-8.8-4.9-10.8 -1.8-0.9-3.8-1.4-5.8-1.5 -6.8-0.3-13.7-0.1-20.5-0.2 -0.9 0-0.9 0.4-0.8 1.1 0 6.4 0 12.8 0 19.2 0 1 0.3 1.1 1.2 1.1C336.6 113.5 340.1 113.6 343.5 113.6zM342.7 65.8c-3.6 0-6.6 0-9.6 0 -0.9 0-1.1 0.3-1.1 1.1 0 5.8 0 11.6 0 17.4 0 0.9 0.3 1.1 1.2 1.1 5.2 0 10.5 0 15.7 0 2.3 0 4.5-0.2 6.7-1 3.2-1.1 5.3-3.3 5.8-6.7 0.1-0.9 0.1-1.8 0.1-2.7 -0.1-5.1-2.5-7.9-7.5-8.8C350 65.5 346.1 65.9 342.7 65.8z"/><path class="st0" d="M167.3 87.9c1.7 0.4 3.1 0.9 4.4 1.6 4.8 2.7 7.1 6.9 7.3 12.3 0.3 10.7-7.3 18.5-18.2 18.6 -9.7 0-19.4 0-29 0 -0.9 0-1.2-0.2-1.2-1.1 0-19.8 0-39.5 0-59.3 0-0.9 0.2-1.2 1.1-1.2 9.3 0.1 18.6-0.1 28 0.2 2 0.1 4 0.3 5.9 0.7 5.8 1.3 10.3 6.6 10.8 12.6 0.6 7.3-2.8 12.7-8.6 15.2C167.7 87.6 167.6 87.7 167.3 87.9zM150.3 113.6C150.3 113.5 150.3 113.5 150.3 113.6c3.3 0 6.6 0 9.8 0 5.9-0.1 9.9-3.6 10.7-9.3 0.8-5.8-2-10-7.7-11.4 -1.3-0.3-2.6-0.5-3.9-0.5 -6.5 0-12.9 0-19.4-0.1 -0.8 0-1 0.3-1 1.1 0 6.4 0 12.8 0 19.2 0 0.8 0.2 1.1 1.1 1.1C143.3 113.5 146.8 113.6 150.3 113.6zM149.6 65.8c-3.6 0-6.6 0-9.6 0 -0.9 0-1.2 0.2-1.2 1.2 0 5.8 0 11.5 0 17.3 0 1 0.3 1.2 1.2 1.2 5.2 0 10.5 0 15.7 0 2.2 0 4.5-0.2 6.6-0.9 3.3-1.1 5.4-3.3 5.9-6.9 0.1-0.9 0.1-1.9 0.1-2.9 -0.2-4.9-2.6-7.6-7.5-8.5C156.9 65.5 152.9 65.9 149.6 65.8z"/><path class="st0" d="M271.2 89.7c0-9.8 0-19.7 0-29.5 0-1 0.2-1.3 1.3-1.3 13.3 0 26.6 0 40 0 1 0 1.4 0.2 1.3 1.2 -0.1 1.5-0.1 3 0 4.6 0.1 0.9-0.3 1.1-1.2 1.1 -10.6 0-21.2 0-31.8 0 -1.2 0-1.5 0.3-1.4 1.4 0.1 5.7 0.1 11.4 0 17 0 0.9 0.2 1.2 1.2 1.2 9.8 0 19.7 0 29.5 0 1.1 0 1.4 0.3 1.3 1.3 -0.1 1.5-0.1 3 0 4.4 0.1 0.9-0.3 1.1-1.2 1.1 -9.8 0-19.5 0-29.3 0 -1.8 0-1.6-0.2-1.6 1.5 0 6.2 0 12.4 0 18.6 0 1 0.3 1.2 1.3 1.2 10.7 0 21.4 0 32 0 1 0 1.4 0.2 1.3 1.3 -0.1 1.5-0.1 3 0 4.6 0 0.8-0.2 1.1-1.1 1.1 -3.6 0-7.3 0-10.9 0 -9.8 0-19.6 0-29.4 0 -1.2 0-1.4-0.3-1.4-1.5C271.2 109.3 271.2 99.5 271.2 89.7z"/><path class="st0" d="M2.9 89.6c0-9.8 0-19.6 0-29.4 0-1.1 0.3-1.3 1.3-1.3 13.3 0 26.6 0 40 0 1 0 1.3 0.2 1.3 1.3 -0.1 1.5-0.1 3 0 4.4 0 0.9-0.2 1.2-1.2 1.2 -6 0-11.9 0-17.9 0 -4.7 0-9.4 0-14.2 0 -0.9 0-1.2 0.2-1.2 1.1 0 5.8 0.1 11.6 0 17.4 0 1 0.4 1.2 1.2 1.2 9.8 0 19.6 0 29.4 0 1.1 0 1.5 0.3 1.4 1.4 -0.1 1.4-0.1 2.9 0 4.3 0.1 1-0.3 1.2-1.2 1.2 -8.9 0-17.8 0-26.8 0 -1.1 0-2.2 0-3.2 0 -0.6 0-0.8 0.2-0.8 0.8 0 6.6 0 13.2 0 19.8 0 1.1 0.7 0.8 1.2 0.8 10.6 0 21.1 0 31.7 0 2 0 1.7-0.3 1.7 1.7 0 1.3-0.1 2.6 0 4 0.1 1-0.3 1.2-1.3 1.2 -12.8 0-25.7 0-38.5 0 -3 0-3 0-3-3C2.9 108.2 2.9 98.9 2.9 89.6z"/><path class="st0" d="M189.7 89.7c0-9.8 0-19.7 0-29.5 0-1 0.3-1.3 1.3-1.3 1.9 0.1 3.8 0.1 5.8 0 0.9 0 1.1 0.3 1.1 1.1 0 7.5 0 15 0 22.6 0 9.8 0 19.7 0 29.5 0 1.1 0.2 1.5 1.4 1.5 10-0.1 20 0 30-0.1 1 0 1.3 0.3 1.3 1.3 -0.1 1.5-0.1 3 0 4.4 0.1 1-0.3 1.3-1.3 1.3 -12.2 0-24.3 0-36.5 0 -1 0-2.2 0.4-2.8-0.2 -0.7-0.6-0.2-1.9-0.2-2.9C189.7 108.2 189.7 98.9 189.7 89.7z"/><path class="st0" d="M391.5 89.8c0 9.8 0 19.6 0 29.4 0 1.1-0.2 1.4-1.3 1.3 -2-0.1-3.9-0.1-5.9 0 -0.8 0-1-0.2-1-1 0-2.7 0-5.4 0-8.2 0-17 0-34 0-51 0-1.1 0.3-1.5 1.4-1.5 1.8 0.1 3.7 0.1 5.5 0 1 0 1.3 0.2 1.3 1.3C391.4 70 391.5 79.9 391.5 89.8z"/><path class="st0" d="M247.8 85.4c3.7 0 7.4 0 11.2 0 0.9 0 1.3 0.2 1.2 1.2 -0.1 1.6 0 3.3 0 4.9 0 0.6-0.2 0.8-0.8 0.8 -7.8 0-15.5 0-23.3 0 -0.7 0-0.9-0.3-0.8-0.9 0-1.7 0-3.4 0-5 0-0.7 0.2-0.9 0.9-0.9C240 85.4 243.9 85.4 247.8 85.4z"/><path class="st1" d="M466.8 102.6c4.3 0 7.7 3.4 7.7 7.7 0 4.3-3.4 7.7-7.7 7.7 -4.2 0-7.6-3.4-7.7-7.6C459.1 106.2 462.6 102.7 466.8 102.6z"/><path class="st2" d="M558.3 87.1c-4.2 0-7.7-3.4-7.7-7.6 0-4.2 3.5-7.8 7.7-7.7 4.2 0 7.6 3.4 7.6 7.6C565.9 83.7 562.5 87.1 558.3 87.1z"/><path class="st2" d="M558.3 92.4c4.2 0 7.6 3.4 7.7 7.6 0 4.3-3.4 7.7-7.7 7.7 -4.2 0-7.6-3.5-7.6-7.7C550.6 95.9 554.1 92.4 558.3 92.4z"/><path class="st2" d="M448.6 87.1c-4.2 0-7.7-3.5-7.7-7.6 0-4.2 3.5-7.7 7.6-7.7 4.2 0 7.7 3.5 7.7 7.7C456.2 83.7 452.8 87.1 448.6 87.1z"/><path class="st2" d="M456.3 100c0 4.2-3.5 7.7-7.7 7.7 -4.1 0-7.6-3.6-7.6-7.7 0-4.2 3.5-7.6 7.7-7.6C452.8 92.4 456.3 95.8 456.3 100z"/><path class="st2" d="M584.2 89.8c0 4.2-3.4 7.6-7.6 7.7 -4.2 0-7.7-3.5-7.7-7.7 0.1-4.2 3.5-7.6 7.7-7.6C580.8 82.1 584.2 85.5 584.2 89.8z"/><path class="st2" d="M521.7 87.1c-4.2 0-7.6-3.5-7.6-7.7 0-4.2 3.5-7.6 7.7-7.6 4.1 0 7.7 3.5 7.7 7.6C529.4 83.7 525.9 87.2 521.7 87.1z"/><path class="st2" d="M521.7 92.4c4.2 0 7.7 3.5 7.7 7.7 0 4.1-3.5 7.6-7.7 7.6 -4.2 0-7.6-3.5-7.6-7.6C514.1 95.8 517.5 92.4 521.7 92.4z"/><path class="st2" d="M456.3 38.4c0 4.2-3.4 7.6-7.6 7.7 -4.2 0-7.7-3.4-7.7-7.6 0-4.2 3.5-7.7 7.7-7.7C452.8 30.8 456.3 34.2 456.3 38.4z"/><path class="st2" d="M456.3 141.1c0 4.2-3.4 7.6-7.6 7.7 -4.2 0-7.7-3.5-7.7-7.7 0-4.1 3.5-7.6 7.7-7.6C452.8 133.5 456.3 136.9 456.3 141.1z"/><path class="st2" d="M438 110.3c0 4.2-3.5 7.7-7.6 7.7 -4.2 0-7.7-3.5-7.7-7.7 0-4.2 3.5-7.6 7.7-7.6C434.6 102.7 438 106.1 438 110.3z"/><path class="st2" d="M540 143.8c4.2 0 7.6 3.4 7.6 7.6 0 4.2-3.4 7.7-7.6 7.7 -4.2 0-7.7-3.5-7.7-7.7C532.4 147.1 535.8 143.8 540 143.8z"/><path class="st2" d="M540 35.8c-4.2 0-7.6-3.4-7.6-7.6 0-4.1 3.4-7.6 7.6-7.7 4.2 0 7.7 3.5 7.7 7.7C547.7 32.4 544.2 35.8 540 35.8z"/><path class="st2" d="M430.3 76.8c-4.2 0-7.6-3.4-7.6-7.6 0-4.2 3.5-7.7 7.6-7.7 4.3 0 7.7 3.5 7.7 7.7C438 73.5 434.5 76.9 430.3 76.8z"/><path class="st2" d="M495.8 89.7c0-4.2 3.4-7.6 7.6-7.6 4.1 0 7.6 3.5 7.7 7.6 0 4.2-3.5 7.7-7.6 7.7C499.2 97.4 495.8 94 495.8 89.7z"/><path class="st2" d="M521.7 46.1c-4.2 0-7.6-3.5-7.6-7.7 0-4.2 3.5-7.6 7.6-7.6 4.2 0 7.6 3.5 7.7 7.6C529.4 42.6 525.9 46.1 521.7 46.1z"/><path class="st2" d="M565.9 38.4c0 4.2-3.4 7.6-7.6 7.6 -4.2 0-7.7-3.5-7.7-7.7 0-4.2 3.6-7.6 7.7-7.6C562.5 30.8 565.9 34.2 565.9 38.4z"/><path class="st2" d="M514.1 141.1c0-4.2 3.5-7.6 7.7-7.6 4.2 0 7.6 3.5 7.7 7.6 0 4.2-3.5 7.7-7.7 7.7C517.5 148.7 514.1 145.3 514.1 141.1z"/><path class="st2" d="M565.9 141.1c0 4.3-3.4 7.7-7.7 7.7 -4.2 0-7.6-3.5-7.6-7.7 0-4.2 3.5-7.6 7.6-7.6C562.5 133.5 565.9 136.9 565.9 141.1z"/><path class="st2" d="M539.9 76.8c-4.2 0-7.6-3.5-7.5-7.7 0.1-4.2 3.5-7.6 7.7-7.5 4.3 0 7.6 3.5 7.6 7.8C547.6 73.5 544.1 76.9 539.9 76.8z"/><path class="st2" d="M430.4 41c4.2 0 7.6 3.5 7.6 7.7 0 4.2-3.5 7.7-7.7 7.6 -4.2 0-7.7-3.5-7.7-7.8C422.7 44.4 426.2 41 430.4 41z"/><path class="st2" d="M430.3 138.5c-4.2 0-7.6-3.4-7.6-7.6 0-4.2 3.5-7.7 7.7-7.7 4.1 0 7.6 3.5 7.6 7.7C438 135.1 434.5 138.5 430.3 138.5z"/><path class="st2" d="M492.8 141.1c0 4.2-3.3 7.7-7.5 7.7 -4.2 0-7.7-3.4-7.7-7.5 0-4.3 3.3-7.8 7.6-7.8C489.4 133.5 492.8 136.9 492.8 141.1z"/><path class="st2" d="M539.9 138.5c-4.2 0-7.6-3.5-7.6-7.7 0-4.1 3.6-7.7 7.7-7.6 4.3 0.1 7.7 3.5 7.6 7.8C547.6 135.1 544.1 138.5 539.9 138.5z"/><path class="st2" d="M492.8 38.4c0 4.2-3.4 7.6-7.6 7.6 -4.2 0-7.6-3.5-7.6-7.7 0-4.2 3.5-7.6 7.7-7.6C489.4 30.8 492.8 34.2 492.8 38.4z"/><path class="st2" d="M474.5 151.3c0 4.3-3.4 7.8-7.7 7.7 -4.1 0-7.7-3.6-7.6-7.7 0-4.2 3.5-7.6 7.7-7.6C471.1 143.8 474.5 147.1 474.5 151.3z"/><path class="st2" d="M474.5 28.2c0 4.2-3.4 7.6-7.6 7.6 -4.2 0-7.6-3.4-7.7-7.6 0-4.1 3.6-7.7 7.7-7.7C471.1 20.5 474.5 23.9 474.5 28.2z"/><path class="st2" d="M495.8 48.6c0-4.2 3.4-7.6 7.6-7.6 4.2 0 7.6 3.5 7.7 7.6 0 4.2-3.6 7.7-7.7 7.7C499.2 56.3 495.8 52.8 495.8 48.6z"/><path class="st2" d="M503.5 76.8c-4.2 0-7.6-3.3-7.7-7.6 0-4.2 3.4-7.7 7.5-7.7 4.3 0 7.8 3.4 7.8 7.7C511.1 73.4 507.7 76.8 503.5 76.8z"/><path class="st2" d="M540.1 41c4.2 0 7.6 3.5 7.6 7.7 0 4.2-3.6 7.7-7.8 7.6 -4.1-0.1-7.6-3.6-7.5-7.8C532.4 44.4 535.9 41 540.1 41z"/><path class="st2" d="M540.1 117.9c-4.2 0-7.7-3.3-7.7-7.5 0-4.2 3.4-7.7 7.7-7.7 4.2 0 7.6 3.4 7.6 7.6C547.7 114.5 544.3 117.9 540.1 117.9z"/><path class="st2" d="M503.5 179.5c-4.3 0-7.7-3.3-7.7-7.6 0-4.2 3.5-7.6 7.6-7.6 4.2 0 7.7 3.5 7.7 7.6C511.1 176.1 507.7 179.5 503.5 179.5z"/><path class="st2" d="M495.8 110.3c0-4.2 3.4-7.6 7.6-7.6 4.3 0 7.8 3.4 7.7 7.7 0 4.2-3.5 7.6-7.7 7.6C499.3 118 495.8 114.5 495.8 110.3z"/><path class="st2" d="M495.8 151.3c0-4.3 3.5-7.6 7.8-7.5 4.1 0.1 7.5 3.5 7.5 7.7 0 4.1-3.6 7.6-7.7 7.6C499.2 159.1 495.8 155.6 495.8 151.3z"/><path class="st2" d="M565.9 120.6c0 4.2-3.5 7.6-7.7 7.6 -4.2 0-7.6-3.4-7.6-7.6 0-4.2 3.6-7.7 7.8-7.6C562.6 113 565.9 116.4 565.9 120.6z"/><path class="st2" d="M474.5 130.9c0 4.2-3.5 7.6-7.7 7.6 -4.2 0-7.6-3.5-7.6-7.7 0-4.2 3.6-7.7 7.8-7.7C471.2 123.3 474.5 126.7 474.5 130.9z"/><path class="st2" d="M495.8 130.8c0-4.2 3.5-7.6 7.7-7.6 4.2 0.1 7.7 3.6 7.6 7.7 0 4.2-3.6 7.7-7.8 7.6C499.2 138.4 495.8 135 495.8 130.8z"/><path class="st2" d="M558.3 51.3c4.2 0 7.6 3.4 7.6 7.6 0 4.2-3.4 7.7-7.6 7.7 -4.2 0-7.8-3.5-7.7-7.7C550.7 54.7 554.1 51.3 558.3 51.3z"/><path class="st2" d="M503.4 35.8c-4.2 0-7.6-3.4-7.6-7.6 0-4.2 3.4-7.6 7.6-7.7 4.1 0 7.7 3.5 7.7 7.6C511.2 32.3 507.7 35.8 503.4 35.8z"/><path class="st2" d="M474.5 89.7c0 4.2-3.4 7.7-7.6 7.7 -4.2 0-7.8-3.5-7.8-7.7 0-4.2 3.5-7.6 7.7-7.6C471.1 82.1 474.5 85.5 474.5 89.7z"/><path class="st2" d="M474.5 48.7c0 4.2-3.4 7.7-7.6 7.7 -4.2 0-7.8-3.6-7.7-7.7 0.1-4.2 3.5-7.6 7.7-7.6C471.1 41.1 474.5 44.5 474.5 48.7z"/><path class="st2" d="M584.2 69.2c0 4.2-3.4 7.6-7.6 7.6 -4.3 0-7.7-3.5-7.7-7.7 0-4.2 3.6-7.6 7.7-7.6C580.8 61.6 584.2 65 584.2 69.2z"/><path class="st2" d="M503.5 0c4.2 0 7.6 3.4 7.6 7.6 0 4.2-3.5 7.7-7.7 7.7 -4.2 0-7.6-3.5-7.5-7.7C495.8 3.3 499.2 0 503.5 0z"/><path class="st2" d="M514.1 59c0-4.2 3.4-7.6 7.6-7.6 4.3 0 7.7 3.4 7.7 7.7 0 4.1-3.5 7.6-7.7 7.6C517.6 66.6 514.1 63.1 514.1 59z"/><path class="st2" d="M448.7 51.3c4.2 0 7.6 3.5 7.6 7.6 0 4.2-3.5 7.7-7.6 7.6 -4.2 0-7.7-3.6-7.7-7.7C441 54.7 444.4 51.3 448.7 51.3z"/><path class="st2" d="M448.6 128.2c-4.2 0-7.7-3.4-7.6-7.6 0-4.2 3.6-7.7 7.8-7.7 4.2 0 7.6 3.5 7.6 7.7C456.2 124.8 452.8 128.2 448.6 128.2z"/><path class="st2" d="M521.7 128.2c-4.2 0-7.6-3.4-7.6-7.6 0-4.2 3.5-7.7 7.6-7.7 4.2 0 7.7 3.4 7.7 7.6C529.4 124.7 526 128.2 521.7 128.2z"/><path class="st2" d="M477.6 59c0-4.3 3.3-7.6 7.6-7.6 4.3 0 7.7 3.4 7.6 7.7 0 4.2-3.5 7.6-7.6 7.6C480.9 66.6 477.6 63.2 477.6 59z"/><path class="st2" d="M584.2 48.6c0 4.2-3.3 7.7-7.5 7.7 -4.1 0.1-7.7-3.4-7.7-7.6 -0.1-4.2 3.4-7.7 7.6-7.7C580.8 41 584.2 44.4 584.2 48.6z"/><path class="st2" d="M466.8 76.8c-4.2 0-7.7-3.5-7.6-7.7 0.1-4.2 3.5-7.6 7.7-7.6 4.2 0 7.7 3.5 7.6 7.8C474.5 73.5 471.1 76.9 466.8 76.8z"/><path class="st2" d="M584.2 130.9c0 4.2-3.4 7.6-7.6 7.6 -4.2 0-7.7-3.5-7.7-7.7 0.1-4.2 3.6-7.6 7.7-7.6C580.9 123.2 584.2 126.6 584.2 130.9z"/><path class="st2" d="M438 89.9c0 4.2-3.6 7.6-7.7 7.6 -4.2 0-7.6-3.5-7.6-7.7 0-4.2 3.6-7.7 7.8-7.6C434.6 82.2 438 85.7 438 89.9z"/><path class="st2" d="M540 97.4c-4.2 0-7.6-3.5-7.6-7.7 0-4.2 3.5-7.7 7.8-7.6 4.2 0.1 7.6 3.5 7.6 7.7C547.6 94 544.1 97.4 540 97.4z"/><path class="st2" d="M477.6 120.6c0-4.2 3.4-7.6 7.6-7.6 4.2 0 7.6 3.4 7.6 7.6 0 4.3-3.4 7.7-7.7 7.7C480.9 128.2 477.6 124.8 477.6 120.6z"/><path class="st2" d="M521.8 25.5c-4.2 0-7.7-3.4-7.7-7.5 0-4.3 3.4-7.7 7.7-7.7 4.2 0 7.6 3.5 7.6 7.6C529.4 22.1 526 25.5 521.8 25.5z"/><path class="st2" d="M521.8 169.3c-4.2 0-7.6-3.4-7.7-7.6 0-4.3 3.4-7.7 7.7-7.7 4.2 0 7.6 3.4 7.6 7.6C529.4 165.8 525.9 169.3 521.8 169.3z"/><path class="st2" d="M492.8 79.5c0 4.2-3.4 7.6-7.6 7.6 -4.3 0-7.7-3.4-7.7-7.7 0-4.2 3.4-7.6 7.6-7.6C489.4 71.8 492.8 75.3 492.8 79.5z"/><path class="st2" d="M492.8 100c0 4.2-3.4 7.6-7.6 7.7 -4.2 0-7.6-3.4-7.7-7.6 0-4.3 3.4-7.7 7.6-7.7C489.4 92.4 492.8 95.8 492.8 100z"/><path class="st2" d="M584.2 110.3c0 4.2-3.4 7.7-7.6 7.7 -4.2 0-7.7-3.5-7.7-7.6 0-4.2 3.4-7.6 7.6-7.6C580.8 102.7 584.2 106 584.2 110.3z"/><path class="st2" d="M477.6 161.6c0-4.2 3.4-7.6 7.6-7.6 4.3 0 7.6 3.3 7.6 7.6 0 4.3-3.4 7.7-7.7 7.7C480.9 169.3 477.6 165.9 477.6 161.6z"/><path class="st2" d="M492.8 17.9c0 4.3-3.3 7.6-7.6 7.6 -4.3 0-7.6-3.3-7.7-7.5 0-4.3 3.4-7.7 7.6-7.7C489.4 10.2 492.8 13.6 492.8 17.9z"/></svg>