<?xml version="1.0" encoding="utf-8"?>
<!-- Generator: Adobe Illustrator 16.0.1, SVG Export Plug-In . SVG Version: 6.00 Build 0)  -->
<!DOCTYPE svg PUBLIC "-//W3C//DTD SVG 1.1//EN" "http://www.w3.org/Graphics/SVG/1.1/DTD/svg11.dtd">
<svg version="1.1" id="Layer_1" xmlns="http://www.w3.org/2000/svg" xmlns:xlink="http://www.w3.org/1999/xlink" x="0px" y="0px"
	 width="32px" height="32px" viewBox="0 0 32 32" enable-background="new 0 0 32 32" xml:space="preserve">
<path d="M31.429,11.429H20.571V0.571C20.571,0.257,20.314,0,20,0h-8c-0.315,0-0.571,0.257-0.571,0.571v10.857H0.571
	C0.257,11.429,0,11.685,0,12v8c0,0.314,0.257,0.571,0.571,0.571h10.857v10.856C11.429,31.743,11.685,32,12,32h8
	c0.314,0,0.571-0.257,0.571-0.572V20.571h10.857C31.743,20.571,32,20.314,32,20v-8C32,11.685,31.743,11.429,31.429,11.429z"/>
</svg>
