<?xml version="1.0" encoding="utf-8"?>
<!-- Generator: Adobe Illustrator 16.0.1, SVG Export Plug-In . SVG Version: 6.00 Build 0)  -->
<!DOCTYPE svg PUBLIC "-//W3C//DTD SVG 1.1//EN" "http://www.w3.org/Graphics/SVG/1.1/DTD/svg11.dtd">
<svg version="1.1" id="Layer_1" xmlns="http://www.w3.org/2000/svg" xmlns:xlink="http://www.w3.org/1999/xlink" x="0px" y="0px"
	 width="32px" height="32px" viewBox="0 0 32 32" enable-background="new 0 0 32 32" xml:space="preserve">
<polygon points="9.922,19.365 9.922,13.411 5.953,13.411 5.953,19.365 0,19.365 0,23.334 5.953,23.334 5.953,29.287 9.922,29.287 
	9.922,23.334 15.875,23.334 15.875,19.365 "/>
<path fill="#010101" d="M30.762,28.254h-2.074c-1.474-4.257-7.738-22.273-8.777-23.796c-1.031-1.516-2.387-1.803-3.178-1.729
	c-0.793-0.073-2.146,0.215-3.179,1.729c-0.291,0.426-0.992,2.147-1.882,4.496v0.993v1.75v4.203l0.086,0.01h10.244
	c0.496,1.379,1.008,2.815,1.521,4.261h-5.897v1.448v1.716h7.014c0.488,1.39,0.963,2.747,1.408,4.025H11.672v0.212v1.75h-0.005v1.409
	h19.095c0.684,0,1.238-0.555,1.238-1.238S31.445,28.254,30.762,28.254z M12.609,12.746c0.784-2.145,1.474-3.987,1.979-5.261h4.286
	c0.506,1.274,1.196,3.117,1.98,5.261H12.609z"/>
</svg>
