<?xml version="1.0" encoding="utf-8"?>
<!-- Generator: Adobe Illustrator 16.0.1, SVG Export Plug-In . SVG Version: 6.00 Build 0)  -->
<!DOCTYPE svg PUBLIC "-//W3C//DTD SVG 1.1//EN" "http://www.w3.org/Graphics/SVG/1.1/DTD/svg11.dtd">
<svg version="1.1" id="Layer_1" xmlns="http://www.w3.org/2000/svg" xmlns:xlink="http://www.w3.org/1999/xlink" x="0px" y="0px"
	 width="32px" height="32px" viewBox="0 0 32 32" enable-background="new 0 0 32 32" xml:space="preserve">
<path d="M21.214,2.101c0.546,0,0.993,0.445,0.993,0.993c0,0.547-0.447,0.993-0.993,0.993h-0.993v6.667
	c0,1.092,0.461,2.752,1.024,3.687l5.895,9.789c0.564,0.935,0.625,2.5,0.136,3.478l-0.209,0.418
	c-0.488,0.978-1.782,1.776-2.873,1.776H8.307c-1.092,0-2.385-0.799-2.874-1.776l-0.209-0.418c-0.489-0.978-0.428-2.543,0.136-3.478
	l5.895-9.789c0.563-0.935,1.024-2.595,1.024-3.687V4.086h-0.993c-0.546,0-0.993-0.446-0.993-0.993c0-0.547,0.447-0.993,0.993-0.993
	h2.979h3.971H21.214 M21.214,0h-2.979h-3.971h-2.979C9.58,0,8.192,1.388,8.192,3.093c0,1.315,0.826,2.442,1.986,2.888v4.771
	c0,0.708-0.358,1.998-0.723,2.602l-5.895,9.79c-0.939,1.558-1.03,3.871-0.215,5.5l0.208,0.417C4.406,30.766,6.404,32,8.307,32
	h15.886c1.901,0,3.901-1.234,4.752-2.938l0.21-0.419c0.813-1.629,0.723-3.941-0.217-5.5l-5.895-9.788
	c-0.364-0.605-0.723-1.895-0.723-2.603V5.981c1.161-0.446,1.986-1.573,1.986-2.888C24.308,1.388,22.92,0,21.214,0L21.214,0z"/>
<path d="M25.458,24.594l-4.929-7.866H16.25h-4.279l-4.929,7.866c0,0-0.419,0.793-0.419,1.259c0,1.038,0.796,1.881,1.81,1.974
	l0.008,0.02h7.81h7.811l0.007-0.02c1.014-0.093,1.811-0.936,1.811-1.974C25.878,25.387,25.458,24.594,25.458,24.594z"/>
</svg>
