<?xml version="1.0" encoding="utf-8"?>
<!-- Generator: Adobe Illustrator 16.0.1, SVG Export Plug-In . SVG Version: 6.00 Build 0)  -->
<!DOCTYPE svg PUBLIC "-//W3C//DTD SVG 1.1//EN" "http://www.w3.org/Graphics/SVG/1.1/DTD/svg11.dtd">
<svg version="1.1" id="Layer_1" xmlns="http://www.w3.org/2000/svg" xmlns:xlink="http://www.w3.org/1999/xlink" x="0px" y="0px"
	 width="32px" height="32px" viewBox="0 0 32 32" enable-background="new 0 0 32 32" xml:space="preserve">
<g>
	<g>
		<polygon points="5.693,26.566 0,22.296 2.492,18.974 5.104,20.933 11.104,14.075 14.23,16.812 5.693,26.566 		"/>
		<g>
			<path fill="#010101" d="M4.75,30.73h26.012c0.684,0,1.238-0.555,1.238-1.238s-0.555-1.238-1.238-1.238h-2.074
				c-1.474-4.257-7.738-22.273-8.777-23.796c-1.031-1.516-2.387-1.803-3.178-1.729c-0.793-0.073-2.146,0.215-3.179,1.729
				c-0.377,0.552-1.441,3.277-2.714,6.724l0.077,0.071l1.505,1.318l0.19,0.167c0.783-2.141,1.472-3.98,1.977-5.252h4.286
				c0.506,1.274,1.196,3.117,1.98,5.261h-8.233l2.926,2.561l0.688,0.603h5.766c0.496,1.379,1.008,2.815,1.521,4.261h-9.573
				l-2.769,3.164h13.458c0.488,1.39,0.963,2.747,1.408,4.025H7.657L4.75,30.73z"/>
		</g>
	</g>
</g>
</svg>
