<?xml version="1.0" encoding="utf-8"?>
<!-- Generator: Adobe Illustrator 16.0.1, SVG Export Plug-In . SVG Version: 6.00 Build 0)  -->
<!DOCTYPE svg PUBLIC "-//W3C//DTD SVG 1.1//EN" "http://www.w3.org/Graphics/SVG/1.1/DTD/svg11.dtd">
<svg version="1.1" id="Layer_1" xmlns="http://www.w3.org/2000/svg" xmlns:xlink="http://www.w3.org/1999/xlink" x="0px" y="0px"
	 width="32px" height="32px" viewBox="0 0 32 32" enable-background="new 0 0 32 32" xml:space="preserve">
<path d="M21.807,10.22l-2.029-2.028L9.627,18.34c-1.682,1.682-1.682,4.408,0,6.089c1.681,1.682,4.408,1.682,6.09,0l12.181-12.178
	c2.804-2.802,2.804-7.346,0-10.147c-2.803-2.804-7.348-2.804-10.149,0L4.958,14.888l0.001,0.001
	c-0.009,0.01-0.019,0.019-0.027,0.026c-3.908,3.909-3.908,10.245,0,14.153c3.908,3.907,10.246,3.907,14.156,0
	c0.009-0.01,0.016-0.019,0.026-0.027l0.001,0.001l8.729-8.729l-2.03-2.028l-8.729,8.728h-0.001
	c-0.009,0.009-0.018,0.019-0.026,0.026c-2.783,2.783-7.312,2.783-10.096,0c-2.783-2.783-2.783-7.311,0-10.093
	c0.009-0.01,0.02-0.019,0.028-0.026l-0.001-0.002l12.79-12.786c1.679-1.679,4.411-1.679,6.09,0s1.679,4.411,0,6.089L13.688,22.398
	c-0.561,0.56-1.471,0.56-2.03,0s-0.56-1.471,0-2.029L21.807,10.22z"/>
</svg>
