<?xml version="1.0" encoding="utf-8"?>
<!-- Generator: Adobe Illustrator 16.0.1, SVG Export Plug-In . SVG Version: 6.00 Build 0)  -->
<!DOCTYPE svg PUBLIC "-//W3C//DTD SVG 1.1//EN" "http://www.w3.org/Graphics/SVG/1.1/DTD/svg11.dtd">
<svg version="1.1" id="Layer_1" xmlns="http://www.w3.org/2000/svg" xmlns:xlink="http://www.w3.org/1999/xlink" x="0px" y="0px"
	 width="32px" height="32px" viewBox="0 0 32 32" enable-background="new 0 0 32 32" xml:space="preserve">
<g>
	<path fill="#231F20" d="M19.51,21.857c0,0-3.436-4.582-9.467-4.582c-6.03,0-9.468,4.582-9.468,4.582c-0.1,0.134-0.1,0.351,0,0.483
		c0,0,3.438,4.583,9.468,4.583c6.031,0,9.467-4.583,9.467-4.583C19.61,22.208,19.61,21.991,19.51,21.857z M10.043,25.663
		c-1.968,0-3.564-1.595-3.564-3.564c0-1.968,1.596-3.562,3.564-3.562c1.969,0,3.564,1.595,3.564,3.562
		C13.607,24.068,12.012,25.663,10.043,25.663z"/>
	<g>
		<path d="M30.716,5.937L26.208,1.43c-0.979-0.981-2.919-1.784-4.307-1.784H6.76c-1.388,0-2.523,1.136-2.523,2.523v14.367
			c0.622-0.29,1.295-0.547,2.019-0.756V2.169c0-0.274,0.231-0.505,0.504-0.505h15.142c0.152,0,0.323,0.02,0.504,0.053v8.022h8.022
			c0.034,0.182,0.054,0.353,0.054,0.505v19.179c0,0.273-0.231,0.505-0.505,0.505H6.76c-0.273,0-0.504-0.231-0.504-0.505V28.42
			c-0.724-0.208-1.397-0.467-2.019-0.756v1.759c0,1.388,1.135,2.523,2.523,2.523h23.217c1.388,0,2.523-1.136,2.523-2.523V10.244
			C32.5,8.856,31.696,6.917,30.716,5.937z M24.425,7.721V2.565c0.137,0.095,0.258,0.193,0.357,0.292l4.507,4.507
			c0.098,0.099,0.195,0.22,0.292,0.357H24.425z"/>
	</g>
</g>
</svg>
