<?xml version="1.0" encoding="utf-8"?>
<!-- Generator: Adobe Illustrator 16.0.1, SVG Export Plug-In . SVG Version: 6.00 Build 0)  -->
<!DOCTYPE svg PUBLIC "-//W3C//DTD SVG 1.1//EN" "http://www.w3.org/Graphics/SVG/1.1/DTD/svg11.dtd">
<svg version="1.1" id="Layer_1" xmlns="http://www.w3.org/2000/svg" xmlns:xlink="http://www.w3.org/1999/xlink" x="0px" y="0px"
	 width="32px" height="32px" viewBox="0 0 32 32" enable-background="new 0 0 32 32" xml:space="preserve">
<path d="M24.585,0.187L16,8.771L7.416,0.187c-0.249-0.249-0.655-0.249-0.904,0L0.187,6.512c-0.249,0.25-0.249,0.655,0,0.904
	L8.771,16l-8.584,8.585c-0.249,0.248-0.249,0.654,0,0.903l6.325,6.325c0.249,0.248,0.655,0.248,0.904,0L16,23.229l8.583,8.584
	c0.251,0.249,0.655,0.25,0.905,0.001l6.325-6.325c0.249-0.249,0.249-0.655-0.001-0.904L23.229,16l8.585-8.584
	c0.249-0.249,0.249-0.655,0-0.904l-6.325-6.325C25.238-0.062,24.834-0.062,24.585,0.187z"/>
</svg>
