<?xml version="1.0" encoding="utf-8"?>
<!-- Generator: Adobe Illustrator 16.0.1, SVG Export Plug-In . SVG Version: 6.00 Build 0)  -->
<!DOCTYPE svg PUBLIC "-//W3C//DTD SVG 1.1//EN" "http://www.w3.org/Graphics/SVG/1.1/DTD/svg11.dtd">
<svg version="1.1" id="Layer_1" xmlns="http://www.w3.org/2000/svg" xmlns:xlink="http://www.w3.org/1999/xlink" x="0px" y="0px"
	 width="32px" height="32px" viewBox="0 0 32 32" enable-background="new 0 0 32 32" xml:space="preserve">
<path fill="#010101" d="M19.24,0.5c-6.42,0-11.704,4.959-12.217,11.245C3.209,13.232,0.5,16.943,0.5,21.275
	C0.5,26.913,5.089,31.5,10.731,31.5c4.342,0,8.061-2.718,9.543-6.54C26.553,24.433,31.5,19.159,31.5,12.752
	C31.5,5.996,26,0.5,19.24,0.5z M10.731,28.092c-3.761,0-6.821-3.058-6.821-6.816c0-2.497,1.351-4.685,3.36-5.872
	c1.029,4.64,4.696,8.299,9.342,9.316C15.428,26.735,13.236,28.092,10.731,28.092z M10.839,14.461
	c3.669,0.057,6.644,3.024,6.709,6.69C14.183,20.476,11.523,17.822,10.839,14.461z M20.962,21.146
	c-0.069-5.543-4.574-10.037-10.124-10.094c0.792-3.913,4.258-6.866,8.402-6.866c4.727,0,8.572,3.842,8.572,8.566
	C27.812,16.887,24.867,20.348,20.962,21.146z M4.004,7.77c1.927,0,3.495-1.566,3.495-3.492c0-1.925-1.567-3.492-3.495-3.492
	c-1.927,0-3.495,1.566-3.495,3.492C0.509,6.203,2.077,7.77,4.004,7.77z M4.004,2.351c1.063,0,1.928,0.865,1.928,1.927
	S5.067,6.204,4.004,6.204c-1.062,0-1.927-0.865-1.927-1.927S2.941,2.351,4.004,2.351z"/>
</svg>
