<?xml version="1.0" encoding="utf-8"?>
<!-- Generator: Adobe Illustrator 16.0.1, SVG Export Plug-In . SVG Version: 6.00 Build 0)  -->
<!DOCTYPE svg PUBLIC "-//W3C//DTD SVG 1.1//EN" "http://www.w3.org/Graphics/SVG/1.1/DTD/svg11.dtd">
<svg version="1.1" id="Layer_1" xmlns="http://www.w3.org/2000/svg" xmlns:xlink="http://www.w3.org/1999/xlink" x="0px" y="0px"
	 width="32px" height="32px" viewBox="0 0 32 32" enable-background="new 0 0 32 32" xml:space="preserve">
<path d="M27.837,21.161c-1.427-1.425-3.241-2.159-4.936-2.159h-0.91l-1.997-2l7.988-8.001c1.996-2,1.996-6.001,0-8.001L16,13.002
	L4.018,1c-1.996,2-1.996,6.001,0,8.001l7.988,8.001l-1.997,2h-0.91c-1.693,0-3.509,0.735-4.936,2.159
	c-2.551,2.545-2.896,6.327-0.771,8.448C4.33,30.544,5.59,31,6.925,31c1.694,0,3.509-0.735,4.937-2.159
	c1.675-1.671,2.397-3.875,2.096-5.792L16,21.003l2.043,2.046c-0.302,1.917,0.422,4.121,2.096,5.792
	C21.566,30.265,23.381,31,25.075,31c1.335,0,2.595-0.456,3.531-1.391C30.732,27.489,30.387,23.706,27.837,21.161z M11.032,25.423
	c-0.241,0.56-0.595,1.073-1.052,1.529c-0.456,0.456-0.974,0.81-1.535,1.051c-0.504,0.216-1.03,0.33-1.521,0.33
	c-0.473,0-1.144-0.105-1.652-0.612c-0.504-0.504-0.609-1.166-0.609-1.635c0-0.486,0.114-1.007,0.329-1.507
	c0.241-0.56,0.594-1.073,1.051-1.529s0.974-0.81,1.536-1.051c0.504-0.216,1.03-0.33,1.521-0.33c0.474,0,1.145,0.106,1.652,0.613
	c0.504,0.503,0.61,1.166,0.61,1.634C11.361,24.402,11.247,24.923,11.032,25.423z M16,19.831c-1.56,0-2.824-1.267-2.824-2.829
	S14.44,14.173,16,14.173s2.824,1.267,2.824,2.829S17.56,19.831,16,19.831z M26.727,27.72c-0.508,0.507-1.179,0.613-1.651,0.613
	c-0.491,0-1.018-0.114-1.521-0.33c-0.562-0.241-1.078-0.594-1.536-1.051c-0.457-0.456-0.81-0.97-1.051-1.529
	c-0.215-0.5-0.329-1.021-0.329-1.507c0-0.469,0.106-1.131,0.61-1.635c0.508-0.506,1.179-0.612,1.652-0.612
	c0.49,0,1.017,0.114,1.521,0.33c0.562,0.241,1.079,0.594,1.536,1.051c0.457,0.456,0.81,0.97,1.051,1.529
	c0.215,0.5,0.329,1.021,0.329,1.507C27.337,26.554,27.231,27.217,26.727,27.72z"/>
</svg>
