<?xml version="1.0" encoding="utf-8"?>
<!-- Generator: Adobe Illustrator 16.0.1, SVG Export Plug-In . SVG Version: 6.00 Build 0)  -->
<!DOCTYPE svg PUBLIC "-//W3C//DTD SVG 1.1//EN" "http://www.w3.org/Graphics/SVG/1.1/DTD/svg11.dtd">
<svg version="1.1" id="Layer_1" xmlns="http://www.w3.org/2000/svg" xmlns:xlink="http://www.w3.org/1999/xlink" x="0px" y="0px"
	 width="32px" height="32px" viewBox="0 0 32 32" enable-background="new 0 0 32 32" xml:space="preserve">
<g>
	<ellipse cx="18" cy="3.804" rx="14" ry="3.803"/>
	<path d="M18,12c-6.521,0-11.984-0.957-13.541-2.25C4.17,10.15,4,10.568,4,11c0,2.76,6.268,5,14,5s14-2.24,14-5
		c0-0.432-0.17-0.85-0.459-1.25C29.984,11.043,24.521,12,18,12z"/>
	<path d="M18,28h-6v3.512C13.82,31.822,15.85,32,18,32c7.732,0,14-2.24,14-5c0-0.432-0.17-0.85-0.459-1.25
		C29.984,27.043,24.521,28,18,28z"/>
	<path d="M18,20.25v4c7.732,0,14-2.24,14-5c0-0.432-0.17-0.85-0.459-1.25C29.984,19.293,24.521,20.25,18,20.25z"/>
	<polygon points="16,22 10,22 10,16 6,16 6,22 0,22 0,26 6,26 6,32 10,32 10,26 16,26 	"/>
</g>
</svg>
