<?xml version="1.0" encoding="utf-8"?>
<!-- Generator: Adobe Illustrator 16.0.1, SVG Export Plug-In . SVG Version: 6.00 Build 0)  -->
<!DOCTYPE svg PUBLIC "-//W3C//DTD SVG 1.1//EN" "http://www.w3.org/Graphics/SVG/1.1/DTD/svg11.dtd">
<svg version="1.1" id="Layer_1" xmlns="http://www.w3.org/2000/svg" xmlns:xlink="http://www.w3.org/1999/xlink" x="0px" y="0px"
	 width="32px" height="32px" viewBox="0 0 32 32" enable-background="new 0 0 32 32" xml:space="preserve">
<path d="M4,30c0,1.105,0.895,2,2,2h20c1.105,0,2-0.895,2-2V8H4V30z M20,12h4v16h-4V12z M14,12h4v16h-4V12z M8,12h4v16H8V12z M28,2
	h-8V0h-8v2H4C1.791,2,0,3.791,0,6h32C32,3.791,30.209,2,28,2z"/>
</svg>
