<?xml version="1.0" encoding="utf-8"?>
<!-- Generator: Adobe Illustrator 16.0.1, SVG Export Plug-In . SVG Version: 6.00 Build 0)  -->
<!DOCTYPE svg PUBLIC "-//W3C//DTD SVG 1.1//EN" "http://www.w3.org/Graphics/SVG/1.1/DTD/svg11.dtd">
<svg version="1.1" id="Layer_1" xmlns="http://www.w3.org/2000/svg" xmlns:xlink="http://www.w3.org/1999/xlink" x="0px" y="0px"
	 width="32px" height="32px" viewBox="0 0 32 32" enable-background="new 0 0 32 32" xml:space="preserve">
<path d="M29.867,5.868h-6v-4c0-1.1-0.9-2-2-2h-20c-1.1,0-2,0.9-2,2v22c0,1.1,0.9,2,2,2h8.001v4c0,1.101,0.901,2,2,2h17.998
	c1.101,0,2-0.899,2-2v-22C31.867,6.768,30.968,5.868,29.867,5.868z M12.87,22.867H2.868v-20h18v3c0,0-5.783-0.035-8.998,0
	c-2.452,0.026-2.002,3-2.002,3h19.001v20H12.869"/>
<g>
	<path d="M19.152,21.881l-0.911,3.286h-3.002l3.913-12.804h3.8l3.971,12.804h-3.116l-0.987-3.286H19.152z M22.401,19.715
		l-0.798-2.717c-0.229-0.76-0.456-1.709-0.646-2.47H20.92c-0.19,0.76-0.381,1.729-0.59,2.47l-0.76,2.717H22.401z"/>
</g>
<g>
	<polygon points="11.314,18.167 4.331,18.167 4.331,10.17 6.331,10.17 6.331,16.167 11.314,16.167 	"/>
	<g>
		<polygon points="10.497,19.959 15.333,17.167 10.497,14.375 		"/>
	</g>
</g>
<polygon points="12.917,10.819 9.869,10.819 9.869,8.868 11.87,6.854 12.917,6.854 "/>
</svg>
