<?xml version="1.0" encoding="utf-8"?>
<!-- Generator: Adobe Illustrator 16.0.1, SVG Export Plug-In . SVG Version: 6.00 Build 0)  -->
<!DOCTYPE svg PUBLIC "-//W3C//DTD SVG 1.1//EN" "http://www.w3.org/Graphics/SVG/1.1/DTD/svg11.dtd">
<svg version="1.1" id="Layer_1" xmlns="http://www.w3.org/2000/svg" xmlns:xlink="http://www.w3.org/1999/xlink" x="0px" y="0px"
	 width="32px" height="32px" viewBox="0 0 32 32" enable-background="new 0 0 32 32" xml:space="preserve">
<path d="M26.905,22.454c0.051-0.612,1.329-1.452,1.328-2.065c-0.003-0.645-1.119-1.723-1.035-2.362
	c0.067-0.506,1.003-1.259,1.033-1.771c0.055-0.93-1.202-2.748-2.065-3.097c-1.37-0.556-8.338-0.296-8.338-0.296
	c-0.682-1.189,1.213-4.129,1.733-5.399c0.765-1.86,0.636-4.328-0.331-5.594c-1.182-1.549-3.35-1.652-3.394-0.959
	c-0.324,5.026-1.286,6.421-2.574,7.415c-0.774,0.596-1.451,1.12-1.808,2.029c-2.195,5.592-3.967,7.389-4.815,7.583l-2.872,0.001
	v12.042l8.824,1.182c0,0,8.081,0.763,10.625,0c0.8-0.24,2.182-1.443,2.509-2.214c0.187-0.443-0.073-1.491,0.148-1.919
	c0.325-0.633,1.698-1.426,1.697-2.286C27.568,24.128,26.854,23.066,26.905,22.454z"/>
</svg>
