<?xml version="1.0" encoding="utf-8"?>
<!-- Generator: Adobe Illustrator 16.0.1, SVG Export Plug-In . SVG Version: 6.00 Build 0)  -->
<!DOCTYPE svg PUBLIC "-//W3C//DTD SVG 1.1//EN" "http://www.w3.org/Graphics/SVG/1.1/DTD/svg11.dtd">
<svg version="1.1" id="Layer_1" xmlns="http://www.w3.org/2000/svg" xmlns:xlink="http://www.w3.org/1999/xlink" x="0px" y="0px"
	 width="32px" height="32px" viewBox="0 0 32 32" enable-background="new 0 0 32 32" xml:space="preserve">
<path d="M25.5,13.875h-1v-4c0-4.418-3.582-8-8-8s-8,3.582-8,8v4h-1c-0.55,0-1,0.45-1,1v14c0,0.55,0.45,1,1,1h18c0.55,0,1-0.45,1-1
	v-14C26.5,14.325,26.05,13.875,25.5,13.875z M18.154,21.377l0.346,4.497h-4l0.346-4.497C14.035,20.84,13.5,19.92,13.5,18.874
	c0-1.657,1.343-3,3-3s3,1.342,3,3C19.5,19.92,18.965,20.84,18.154,21.377z M10.5,13.875v-4c0-3.314,2.686-6,6-6s6,2.686,6,6v4H10.5z
	"/>
</svg>
