<?xml version="1.0" encoding="utf-8"?>
<!-- Generator: Adobe Illustrator 16.0.1, SVG Export Plug-In . SVG Version: 6.00 Build 0)  -->
<!DOCTYPE svg PUBLIC "-//W3C//DTD SVG 1.1//EN" "http://www.w3.org/Graphics/SVG/1.1/DTD/svg11.dtd">
<svg version="1.1" id="Layer_1" xmlns="http://www.w3.org/2000/svg" xmlns:xlink="http://www.w3.org/1999/xlink" x="0px" y="0px"
	 width="32px" height="32px" viewBox="0 0 32 32" enable-background="new 0 0 32 32" xml:space="preserve">
<path d="M21.812,0.5c-5.351,0-9.688,4.337-9.688,9.688c0,0.606,0.057,1.2,0.163,1.775L0.5,23.75v5.812
	c0,1.071,0.867,1.938,1.938,1.938h1.938v-1.938H8.25v-3.875h3.875v-3.875H16l2.515-2.514c1.029,0.373,2.14,0.576,3.298,0.576
	c5.351,0,9.688-4.337,9.688-9.688S27.163,0.5,21.812,0.5z M24.715,10.191c-1.605,0-2.906-1.301-2.906-2.906s1.301-2.906,2.906-2.906
	c1.604,0,2.906,1.301,2.906,2.906S26.319,10.191,24.715,10.191z"/>
</svg>
