<?xml version="1.0" encoding="utf-8"?>
<!-- Generator: Adobe Illustrator 16.0.1, SVG Export Plug-In . SVG Version: 6.00 Build 0)  -->
<!DOCTYPE svg PUBLIC "-//W3C//DTD SVG 1.1//EN" "http://www.w3.org/Graphics/SVG/1.1/DTD/svg11.dtd">
<svg version="1.1" id="Layer_1" xmlns="http://www.w3.org/2000/svg" xmlns:xlink="http://www.w3.org/1999/xlink" x="0px" y="0px"
	 width="32px" height="32px" viewBox="0 0 32 32" enable-background="new 0 0 32 32" xml:space="preserve">
<path d="M32,8l-8-8v6c-4.087,0-7.211,0.975-9.552,2.982c-0.164,0.141-0.321,0.283-0.475,0.43c0.86,1.193,1.522,2.422,2.118,3.597
	C17.604,11.184,19.782,10,24,10v6l0,0v6c-6.764,0-8.285-3.042-10.211-6.895c-1.072-2.144-2.181-4.36-4.237-6.123
	C7.211,6.975,4.087,6,0,6v4c6.764,0,8.285,3.042,10.211,6.895c1.072,2.144,2.181,4.36,4.237,6.123C16.789,25.025,19.913,26,24,26v6
	l8-8l-8-8L32,8z M0,22v4c4.087,0,7.211-0.975,9.552-2.982c0.164-0.141,0.321-0.283,0.475-0.43c-0.86-1.193-1.522-2.422-2.118-3.597
	C6.396,20.816,4.218,22,0,22z"/>
</svg>
