<?xml version="1.0" encoding="utf-8"?>
<!-- Generator: Adobe Illustrator 16.0.1, SVG Export Plug-In . SVG Version: 6.00 Build 0)  -->
<!DOCTYPE svg PUBLIC "-//W3C//DTD SVG 1.1//EN" "http://www.w3.org/Graphics/SVG/1.1/DTD/svg11.dtd">
<svg version="1.1" id="Layer_1" xmlns="http://www.w3.org/2000/svg" xmlns:xlink="http://www.w3.org/1999/xlink" x="0px" y="0px"
	 width="32px" height="32px" viewBox="0 0 32 32" enable-background="new 0 0 32 32" xml:space="preserve">
<g>
	<path d="M31.367,14.102l-0.734-2.203C30.285,10.855,29.1,10,28,10h-2V2c0-1.1-0.9-2-2-2H8C6.9,0,6,0.9,6,2v8H4
		c-1.1,0-2.285,0.855-2.633,1.898l-0.734,2.203C0.285,15.145,0,16.898,0,18v6c0,1.1,0.9,2,2,2h2.75v-5c0-0.275,0.225-0.5,0.5-0.5
		h21.5c0.275,0,0.5,0.225,0.5,0.5v5H30c1.1,0,2-0.9,2-2v-6C32,16.898,31.715,15.145,31.367,14.102z M8,2h16v12H8V2z"/>
	<path d="M8,22H6v8c0,1.098,0.9,2,2,2h16c1.1,0,2-0.902,2-2v-8h-2H8z"/>
</g>
</svg>
