<?xml version="1.0" encoding="utf-8"?>
<!-- Generator: Adobe Illustrator 16.0.0, SVG Export Plug-In . SVG Version: 6.00 Build 0)  -->
<!DOCTYPE svg PUBLIC "-//W3C//DTD SVG 1.1//EN" "http://www.w3.org/Graphics/SVG/1.1/DTD/svg11.dtd">
<svg version="1.1" id="Layer_1" xmlns="http://www.w3.org/2000/svg" xmlns:xlink="http://www.w3.org/1999/xlink" x="0px" y="0px"
	 width="64px" height="64px" viewBox="0 0 64 64" enable-background="new 0 0 64 64" xml:space="preserve">
<path d="M34.584,31.109l-2.1-2.104l-0.396-0.392c-0.435-0.435-1.293-0.792-1.908-0.792H1.676C0.754,27.821,0,28.578,0,29.498v32.417
	c0,0.92,0.754,1.677,1.676,1.677h32.417c0.922,0,1.677-0.757,1.677-1.677V33.97v-0.56c0-0.617-0.355-1.475-0.79-1.909L34.584,31.109
	z M27.82,58.623c0,0.548-0.446,0.994-0.994,0.994H8.941c-0.547,0-0.993-0.446-0.993-0.994v-9.936c0-0.548,0.446-0.994,0.993-0.994
	h17.885c0.548,0,0.994,0.446,0.994,0.994V58.623z M27.82,42.726c0,0.547-0.446,0.993-0.994,0.993H8.941
	c-0.547,0-0.993-0.446-0.993-0.993V32.79c0-0.547,0.446-0.994,0.993-0.994h17.885c0.548,0,0.994,0.446,0.994,0.994V42.726z"/>
<rect x="19.869" y="34.28" width="3.975" height="6.955"/>
<path d="M56.477,12.385l-8.874-8.873C45.674,1.58,41.855,0,39.123,0H9.315C6.583,0,4.347,2.235,4.347,4.968V24.5h3.975V4.968
	c0-0.54,0.454-0.994,0.993-0.994h29.808c0.301,0,0.637,0.039,0.993,0.104v15.793H55.91c0.067,0.357,0.104,0.695,0.104,0.994v37.757
	c0,0.539-0.455,0.994-0.994,0.994H39.75v3.975h15.271c2.733,0,4.969-2.236,4.969-4.969V20.866
	C59.989,18.133,58.407,14.316,56.477,12.385z M44.091,15.898V5.748c0.27,0.188,0.509,0.38,0.703,0.575l8.873,8.872
	c0.193,0.195,0.385,0.433,0.575,0.703H44.091z"/>
</svg>
