<?xml version="1.0" encoding="utf-8"?>
<!-- Generator: Adobe Illustrator 16.0.1, SVG Export Plug-In . SVG Version: 6.00 Build 0)  -->
<!DOCTYPE svg PUBLIC "-//W3C//DTD SVG 1.1//EN" "http://www.w3.org/Graphics/SVG/1.1/DTD/svg11.dtd">
<svg version="1.1" id="Layer_1" xmlns="http://www.w3.org/2000/svg" xmlns:xlink="http://www.w3.org/1999/xlink" x="0px" y="0px"
	 width="32px" height="32px" viewBox="0 0 32 32" enable-background="new 0 0 32 32" xml:space="preserve">
<path d="M30.539,26.88l-7.344-6.245c-0.759-0.684-1.57-0.997-2.227-0.967c1.733-2.029,2.781-4.664,2.781-7.543
	c0-6.42-5.205-11.625-11.625-11.625S0.5,5.705,0.5,12.125S5.705,23.75,12.125,23.75c2.879,0,5.514-1.047,7.544-2.78
	c-0.03,0.655,0.282,1.467,0.967,2.227l6.245,7.344c1.069,1.188,2.815,1.288,3.882,0.223C31.828,29.696,31.727,27.949,30.539,26.88z
	 M12.125,19.875c-4.28,0-7.75-3.47-7.75-7.75s3.47-7.75,7.75-7.75s7.75,3.47,7.75,7.75S16.405,19.875,12.125,19.875z"/>
</svg>
