<?xml version="1.0" encoding="utf-8"?>
<!-- Generator: Adobe Illustrator 16.0.1, SVG Export Plug-In . SVG Version: 6.00 Build 0)  -->
<!DOCTYPE svg PUBLIC "-//W3C//DTD SVG 1.1//EN" "http://www.w3.org/Graphics/SVG/1.1/DTD/svg11.dtd">
<svg version="1.1" id="Layer_1" xmlns="http://www.w3.org/2000/svg" xmlns:xlink="http://www.w3.org/1999/xlink" x="0px" y="0px"
	 width="32px" height="32px" viewBox="0 0 32 32" enable-background="new 0 0 32 32" xml:space="preserve">
<path d="M31.36,18.121C31.452,17.428,31.5,16.72,31.5,16c0-0.719-0.048-1.427-0.14-2.121l-2.402-0.199
	c-0.216-1.25-0.599-2.44-1.131-3.544l1.826-1.595c-0.666-1.255-1.494-2.409-2.456-3.431l-2.059,1.273
	c-0.878-0.864-1.874-1.604-2.963-2.193l0.556-2.381c-1.239-0.609-2.571-1.055-3.97-1.31l-0.93,2.26
	C17.233,2.675,16.622,2.628,16,2.628s-1.233,0.046-1.832,0.132l-0.93-2.26c-1.397,0.255-2.73,0.701-3.97,1.311l0.555,2.38
	C8.735,4.781,7.738,5.521,6.859,6.384L4.801,5.111c-0.962,1.023-1.79,2.175-2.455,3.431l1.826,1.595
	c-0.531,1.104-0.915,2.295-1.13,3.544l-2.402,0.199C0.548,14.573,0.5,15.281,0.5,16c0,0.72,0.048,1.428,0.14,2.121l2.401,0.198
	c0.216,1.25,0.599,2.44,1.13,3.545l-1.826,1.595c0.665,1.255,1.494,2.408,2.456,3.429l2.059-1.273
	c0.878,0.865,1.874,1.604,2.963,2.192l-0.555,2.382c1.24,0.609,2.572,1.055,3.97,1.31l0.93-2.26c0.598,0.086,1.21,0.131,1.832,0.131
	c0.623,0,1.233-0.046,1.833-0.131l0.929,2.262c1.398-0.255,2.73-0.7,3.971-1.309l-0.556-2.382c1.088-0.59,2.084-1.328,2.964-2.193
	l2.059,1.273c0.961-1.022,1.79-2.175,2.455-3.429l-1.826-1.596c0.532-1.104,0.915-2.295,1.131-3.543L31.36,18.121z M16,20.56
	c-2.478,0-4.487-2.042-4.487-4.56c0-2.519,2.01-4.56,4.487-4.56s4.487,2.042,4.487,4.56C20.487,18.518,18.478,20.56,16,20.56z"/>
</svg>
