<?xml version="1.0" encoding="utf-8"?>
<!-- Generator: Adobe Illustrator 16.0.1, SVG Export Plug-In . SVG Version: 6.00 Build 0)  -->
<!DOCTYPE svg PUBLIC "-//W3C//DTD SVG 1.1//EN" "http://www.w3.org/Graphics/SVG/1.1/DTD/svg11.dtd">
<svg version="1.1" id="Layer_1" xmlns="http://www.w3.org/2000/svg" xmlns:xlink="http://www.w3.org/1999/xlink" x="0px" y="0px"
	 width="32px" height="32px" viewBox="0 0 32 32" enable-background="new 0 0 32 32" xml:space="preserve">
<path d="M26.656,21.812c-1.367,0-2.601,0.567-3.481,1.478l-13.048-6.524c0.039-0.249,0.061-0.505,0.061-0.766
	s-0.022-0.518-0.061-0.766L23.175,8.71c0.881,0.91,2.114,1.478,3.481,1.478c2.675,0,4.844-2.169,4.844-4.844S29.331,0.5,26.656,0.5
	s-4.844,2.169-4.844,4.844c0,0.261,0.021,0.518,0.061,0.766L8.825,12.634c-0.881-0.91-2.114-1.478-3.481-1.478
	C2.669,11.156,0.5,13.326,0.5,16c0,2.675,2.169,4.844,4.844,4.844c1.367,0,2.601-0.567,3.481-1.478l13.048,6.522
	c-0.039,0.25-0.061,0.507-0.061,0.768c0,2.675,2.169,4.844,4.844,4.844s4.844-2.169,4.844-4.844S29.331,21.812,26.656,21.812z"/>
</svg>
