<?xml version="1.0" encoding="utf-8"?>
<!-- Generator: Adobe Illustrator 16.0.1, SVG Export Plug-In . SVG Version: 6.00 Build 0)  -->
<!DOCTYPE svg PUBLIC "-//W3C//DTD SVG 1.1//EN" "http://www.w3.org/Graphics/SVG/1.1/DTD/svg11.dtd">
<svg version="1.1" id="Layer_1" xmlns="http://www.w3.org/2000/svg" xmlns:xlink="http://www.w3.org/1999/xlink" x="0px" y="0px"
	 width="32px" height="32px" viewBox="0 0 32 32" enable-background="new 0 0 32 32" xml:space="preserve">
<path d="M30.466,12.69L30.466,12.69c-0.754-0.754-1.987-0.754-2.74,0l-0.843,0.843c-1.333,1.332-3.603,3.341-3.603,0.53V4.375
	c0-1.065-0.872-1.938-1.938-1.938s-1.938,0.872-1.938,1.938v9.688c0,0.535-0.435,0.969-0.969,0.969s-0.969-0.434-0.969-0.969V2.438
	c0-1.065-0.872-1.938-1.938-1.938s-1.938,0.872-1.938,1.938v11.625c0,0.535-0.434,0.969-0.969,0.969s-0.969-0.434-0.969-0.969V4.375
	c0-1.065-0.872-1.938-1.938-1.938S7.78,3.31,7.78,4.375v9.688c0,0.535-0.434,0.969-0.969,0.969s-0.969-0.434-0.969-0.969V8.25
	c0-1.065-0.872-1.938-1.938-1.938S1.968,7.185,1.968,8.25v5.812v3.875c0,3.875,1.938,13.562,11.625,13.562S25.014,20.882,29.896,16
	l0.569-0.569C31.22,14.676,31.22,13.444,30.466,12.69z"/>
</svg>
