<?xml version="1.0" encoding="utf-8"?>
<!-- Generator: Adobe Illustrator 16.0.1, SVG Export Plug-In . SVG Version: 6.00 Build 0)  -->
<!DOCTYPE svg PUBLIC "-//W3C//DTD SVG 1.1//EN" "http://www.w3.org/Graphics/SVG/1.1/DTD/svg11.dtd">
<svg version="1.1" id="Layer_1" xmlns="http://www.w3.org/2000/svg" xmlns:xlink="http://www.w3.org/1999/xlink" x="0px" y="0px"
	 width="32px" height="32px" viewBox="0 0 32 32" enable-background="new 0 0 32 32" xml:space="preserve">
<path d="M16,0.5C7.439,0.5,0.5,7.439,0.5,16S7.439,31.5,16,31.5S31.5,24.561,31.5,16S24.561,0.5,16,0.5z M16,29.562
	C8.509,29.562,2.438,23.491,2.438,16C2.438,8.509,8.509,2.438,16,2.438c7.491,0,13.562,6.072,13.562,13.562
	C29.562,23.491,23.491,29.562,16,29.562z"/>
<path d="M16,0.5C7.439,0.5,0.5,7.439,0.5,16S7.439,31.5,16,31.5S31.5,24.561,31.5,16S24.561,0.5,16,0.5z M16,27.625
	C9.58,27.625,4.375,22.42,4.375,16S9.58,4.375,16,4.375S27.625,9.58,27.625,16S22.42,27.625,16,27.625z M10.188,16
	c0,3.21,2.603,5.812,5.812,5.812S21.812,19.21,21.812,16S19.21,10.188,16,10.188S10.188,12.79,10.188,16z"/>
</svg>
