<?xml version="1.0" encoding="utf-8"?>
<!-- Generator: Adobe Illustrator 16.0.1, SVG Export Plug-In . SVG Version: 6.00 Build 0)  -->
<!DOCTYPE svg PUBLIC "-//W3C//DTD SVG 1.1//EN" "http://www.w3.org/Graphics/SVG/1.1/DTD/svg11.dtd">
<svg version="1.1" id="Layer_1" xmlns="http://www.w3.org/2000/svg" xmlns:xlink="http://www.w3.org/1999/xlink" x="0px" y="0px"
	 width="32px" height="32px" viewBox="0 0 32 32" enable-background="new 0 0 32 32" xml:space="preserve">
<path d="M30.184,21.166c-1.416-1.411-3.467-1.959-5.388-1.663l-9.179-9.181c0.083-0.244,0.141-0.49,0.141-0.702V5.174
	c0-0.545-0.4-1.193-0.889-1.433L8.072,0.339C7.583,0.098,6.871,0.212,6.484,0.598l-0.741,0.74c-0.387,0.387-0.387,1.021,0,1.402
	l3.956,3.956c0.385,0.383,0.385,1.015,0,1.402L7.886,9.912c-0.386,0.385-1.015,0.385-1.401,0L2.528,5.956
	c-0.385-0.383-1.017-0.383-1.402,0L0.387,6.695C0,7.079-0.116,7.797,0.128,8.281l3.399,6.8c0.247,0.485,0.892,0.885,1.437,0.885
	l4.446,0.002c0.213,0,0.46-0.059,0.706-0.142l9.49,9.491c-0.067,1.676,0.519,3.373,1.792,4.652c1.175,1.171,2.735,1.816,4.395,1.816
	c1.656,0,3.219-0.646,4.398-1.82C32.604,27.541,32.604,23.595,30.184,21.166z M27.67,27.445c-1.007,1.004-2.757,0.993-3.753,0.006
	c-1.033-1.038-1.033-2.728-0.004-3.761c0.502-0.5,1.169-0.776,1.879-0.776c0.707,0,1.376,0.276,1.872,0.771
	C28.698,24.724,28.698,26.413,27.67,27.445z"/>
</svg>
