<?xml version="1.0" encoding="utf-8"?>
<!-- Generator: Adobe Illustrator 16.0.1, SVG Export Plug-In . SVG Version: 6.00 Build 0)  -->
<!DOCTYPE svg PUBLIC "-//W3C//DTD SVG 1.1//EN" "http://www.w3.org/Graphics/SVG/1.1/DTD/svg11.dtd">
<svg version="1.1" xmlns="http://www.w3.org/2000/svg" xmlns:xlink="http://www.w3.org/1999/xlink" x="0px" y="0px" width="32px"
	 height="32px" viewBox="0 0 32 32" enable-background="new 0 0 32 32" xml:space="preserve">
<g id="Layer_1" display="none">
	<path display="inline" d="M26.114-11.621c1.085,0,1.974,0.886,1.974,1.973s-0.889,1.973-1.974,1.973h-1.973V5.573
		c0,2.169,0.915,5.468,2.035,7.325L37.891,32.35c1.12,1.857,1.241,4.969,0.27,6.91l-0.415,0.832
		c-0.972,1.941-3.542,3.529-5.711,3.529H0.466c-2.169,0-4.739-1.588-5.71-3.529l-0.416-0.832c-0.971-1.941-0.85-5.053,0.27-6.91
		L6.323,12.898c1.12-1.857,2.035-5.156,2.035-7.325V-7.675H6.385c-1.085,0-1.973-0.886-1.973-1.973s0.888-1.973,1.973-1.973h5.919
		h7.891H26.114 M26.114-15.795h-5.919h-7.891H6.385c-3.39,0-6.147,2.758-6.147,6.147c0,2.614,1.64,4.853,3.946,5.74v9.481
		c0,1.408-0.711,3.969-1.436,5.17L-8.967,30.197c-1.866,3.096-2.046,7.693-0.426,10.93l0.414,0.83
		c1.692,3.385,5.664,5.838,9.445,5.838h31.568c3.78,0,7.753-2.453,9.444-5.836l0.416-0.834c1.618-3.236,1.438-7.832-0.43-10.93
		L29.752,10.745c-0.726-1.203-1.437-3.764-1.437-5.172v-9.481c2.307-0.887,3.947-3.125,3.947-5.74
		C32.263-13.038,29.505-15.795,26.114-15.795L26.114-15.795z"/>
	<path display="inline" d="M34.548,33.078l-9.795-15.631H16.25H7.747l-9.795,15.631c0,0-0.833,1.576-0.833,2.501
		c0,2.062,1.583,3.737,3.596,3.923l0.016,0.037h15.52h15.521l0.015-0.037c2.014-0.186,3.598-1.86,3.598-3.923
		C35.383,34.654,34.548,33.078,34.548,33.078z"/>
</g>
<g id="Layer_2">
	<polygon points="29.45,14.724 29.45,10.912 29.45,9.217 27.756,9.217 16.6,9.217 16.6,5.404 19.338,5.404 19.338,1.95 12.168,1.95 
		12.168,5.404 14.906,5.404 14.906,9.217 4.619,9.217 2.925,9.217 2.925,10.912 2.925,14.724 0.188,14.724 0.188,18.179 
		7.356,18.179 7.356,14.724 4.619,14.724 4.619,10.912 14.906,10.912 14.906,23.852 12.168,23.852 12.168,27.306 19.338,27.306 
		19.338,23.852 16.6,23.852 16.6,10.912 27.756,10.912 27.756,14.724 25.019,14.724 25.019,18.179 32.188,18.179 32.188,14.724 	"/>
</g>
</svg>
