<?xml version="1.0" encoding="utf-8"?>
<!-- Generator: Adobe Illustrator 16.0.1, SVG Export Plug-In . SVG Version: 6.00 Build 0)  -->
<!DOCTYPE svg PUBLIC "-//W3C//DTD SVG 1.1//EN" "http://www.w3.org/Graphics/SVG/1.1/DTD/svg11.dtd">
<svg version="1.1" id="Layer_1" xmlns="http://www.w3.org/2000/svg" xmlns:xlink="http://www.w3.org/1999/xlink" x="0px" y="0px"
	 width="32px" height="32px" viewBox="0 0 32 32" enable-background="new 0 0 32 32" xml:space="preserve">
<path d="M24,1.75c-4.418,0-8,3.582-8,8v4H1c-0.55,0-1,0.45-1,1v14c0,0.55,0.45,1,1,1h18c0.55,0,1-0.45,1-1v-14c0-0.55-0.45-1-1-1h-1
	v-4c0-3.314,2.686-6,6-6s6,2.686,6,6v4h2v-4C32,5.332,28.418,1.75,24,1.75z M11.654,21.253L12,25.75H8l0.346-4.497
	C7.535,20.716,7,19.796,7,18.75c0-1.657,1.343-3,3-3s3,1.343,3,3C13,19.796,12.465,20.716,11.654,21.253z"/>
</svg>
