<?xml version="1.0" encoding="utf-8"?>
<!-- Generator: Adobe Illustrator 16.0.1, SVG Export Plug-In . SVG Version: 6.00 Build 0)  -->
<!DOCTYPE svg PUBLIC "-//W3C//DTD SVG 1.1//EN" "http://www.w3.org/Graphics/SVG/1.1/DTD/svg11.dtd">
<svg version="1.1" id="Layer_1" xmlns="http://www.w3.org/2000/svg" xmlns:xlink="http://www.w3.org/1999/xlink" x="0px" y="0px"
	 width="32px" height="32px" viewBox="0 0 32 32" enable-background="new 0 0 32 32" xml:space="preserve">
<path fill="#010101" d="M30.501,28.807h-2.174c-1.544-4.461-8.108-23.341-9.198-24.938c-1.081-1.588-2.501-1.889-3.33-1.812
	c-0.832-0.077-2.249,0.225-3.331,1.812c-1.089,1.597-7.653,20.477-9.196,24.938H1.096c-0.717,0-1.298,0.581-1.298,1.298
	c0,0.716,0.581,1.298,1.298,1.298h29.405c0.717,0,1.298-0.582,1.298-1.298C31.799,29.388,31.218,28.807,30.501,28.807z
	 M18.044,7.042c0.53,1.335,1.254,3.267,2.075,5.513h-8.641c0.821-2.248,1.545-4.179,2.075-5.513H18.044z M21.321,15.87
	c0.52,1.445,1.057,2.95,1.593,4.465H8.683c0.537-1.515,1.074-3.02,1.594-4.465H21.321z M24.085,23.65
	c0.512,1.457,1.009,2.88,1.475,4.22H6.038c0.466-1.34,0.963-2.763,1.475-4.22H24.085z"/>
</svg>
