<?xml version="1.0" encoding="utf-8"?>
<!-- Generator: Adobe Illustrator 16.0.1, SVG Export Plug-In . SVG Version: 6.00 Build 0)  -->
<!DOCTYPE svg PUBLIC "-//W3C//DTD SVG 1.1//EN" "http://www.w3.org/Graphics/SVG/1.1/DTD/svg11.dtd">
<svg version="1.1" id="Layer_1" xmlns="http://www.w3.org/2000/svg" xmlns:xlink="http://www.w3.org/1999/xlink" x="0px" y="0px"
	 width="32px" height="32px" viewBox="0 0 32 32" enable-background="new 0 0 32 32" xml:space="preserve">
<g>
	<path d="M20,16.917c-0.886-0.233-1.85-0.45-2.774-0.686c-0.587-0.15-1.938-0.596-2.096-1.346c0.022-2.58,1.043-2.617,1.566-3.684
		c0.522-1.066,1.421-3.701,0.522-8.002C16.542-0.031,11.999,0,11.999,0S7.457-0.031,6.78,3.199c-0.898,4.301,0,6.936,0.522,8.002
		c0.521,1.066,1.543,1.104,1.566,3.684c-0.157,0.75-1.509,1.195-2.096,1.346c-2.284,0.582-4.844,1.055-5.732,1.902
		c-0.853,0.814-1.564,2.668-0.521,3.734C1.563,22.934,6.78,24,11.999,24c0.67,0,1.34-0.02,2.001-0.051V20h6V16.917z"/>
	<polygon points="26,22 26,16 22,16 22,22 16,22 16,26 22,26 22,32 26,32 26,26 32,26 32,22 	"/>
</g>
</svg>
