<?xml version="1.0" encoding="utf-8"?>
<!-- Generator: Adobe Illustrator 16.0.1, SVG Export Plug-In . SVG Version: 6.00 Build 0)  -->
<!DOCTYPE svg PUBLIC "-//W3C//DTD SVG 1.1//EN" "http://www.w3.org/Graphics/SVG/1.1/DTD/svg11.dtd">
<svg version="1.1" id="Layer_1" xmlns="http://www.w3.org/2000/svg" xmlns:xlink="http://www.w3.org/1999/xlink" x="0px" y="0px"
	 width="32px" height="32px" viewBox="0 0 32 32" enable-background="new 0 0 32 32" xml:space="preserve">
<path d="M31.63,17.455l-2.012-1.996c-0.493-0.49-1.306-0.49-1.801,0.002l-0.896,0.889l-0.478,0.473l3.81,3.773l0.479-0.473
	l0.897-0.889C32.123,18.742,32.123,17.943,31.63,17.455z"/>
<polygon points="14.93,32 18.806,31.512 15.423,28.16 "/>
<path d="M22.511,17.788c-1.139-0.641-3.291-1.06-5.245-1.558c-0.586-0.15-1.938-0.596-2.096-1.346
	c0.024-2.58,1.045-2.617,1.566-3.684c0.523-1.066,1.421-3.701,0.523-8.001C16.582-0.031,12.04,0,12.04,0s-0.015,0-0.021,0
	s-0.021,0-0.021,0S7.457-0.031,6.78,3.199c-0.898,4.301,0,6.936,0.522,8.002c0.521,1.066,1.543,1.104,1.566,3.684
	c-0.158,0.75-1.509,1.195-2.096,1.346c-2.284,0.582-4.844,1.055-5.732,1.902c-0.852,0.814-1.564,2.668-0.521,3.734
	c0.941,0.962,5.279,1.921,9.95,2.101c0.019,0.001,0.039,0.001,0.058,0.002c0.488,0.018,0.979,0.03,1.471,0.03
	c0.007,0,0.014,0,0.021,0s0.014,0,0.021,0c0.492,0,0.983-0.013,1.471-0.03c0.02-0.001,0.039-0.001,0.059-0.002
	c1-0.039,1.982-0.114,2.921-0.217L22.511,17.788z"/>
<polygon points="16.637,26.535 20.448,30.311 28.828,22.012 25.016,18.236 "/>
</svg>
