<?xml version="1.0" encoding="utf-8"?>
<!-- Generator: Adobe Illustrator 16.0.1, SVG Export Plug-In . SVG Version: 6.00 Build 0)  -->
<!DOCTYPE svg PUBLIC "-//W3C//DTD SVG 1.1//EN" "http://www.w3.org/Graphics/SVG/1.1/DTD/svg11.dtd">
<svg version="1.1" id="Layer_1" xmlns="http://www.w3.org/2000/svg" xmlns:xlink="http://www.w3.org/1999/xlink" x="0px" y="0px"
	 width="32px" height="32px" viewBox="0 0 32 32" enable-background="new 0 0 32 32" xml:space="preserve">
<path fill="#010101" d="M16,7.32C5.831,7.32,0.5,14.812,0.5,16s5.331,8.68,15.5,8.68c10.168,0,15.5-7.492,15.5-8.68
	S26.168,7.32,16,7.32z M16,22.677c-3.805,0-6.889-2.988-6.889-6.677c0-3.688,3.084-6.677,6.889-6.677
	c3.805,0,6.889,2.989,6.889,6.677C22.889,19.688,19.805,22.677,16,22.677z M16,16c-0.631-0.692,1.028-3.338,0-3.338
	c-1.902,0-3.445,1.495-3.445,3.338s1.542,3.339,3.445,3.339s3.444-1.495,3.444-3.339C19.444,15.153,16.536,16.589,16,16z"/>
</svg>
