<?xml version="1.0" encoding="utf-8"?>
<!-- Generator: Adobe Illustrator 16.0.1, SVG Export Plug-In . SVG Version: 6.00 Build 0)  -->
<!DOCTYPE svg PUBLIC "-//W3C//DTD SVG 1.1//EN" "http://www.w3.org/Graphics/SVG/1.1/DTD/svg11.dtd">
<svg version="1.1" id="Layer_1" xmlns="http://www.w3.org/2000/svg" xmlns:xlink="http://www.w3.org/1999/xlink" x="0px" y="0px"
	 width="32px" height="32px" viewBox="0 0 32 32" enable-background="new 0 0 32 32" xml:space="preserve">
<path d="M30.538,26.879l-7.343-6.245c-0.76-0.684-1.571-0.997-2.227-0.967c1.733-2.029,2.781-4.664,2.781-7.543
	C23.75,5.705,18.545,0.5,12.125,0.5C5.706,0.5,0.5,5.705,0.5,12.124c0,6.42,5.205,11.625,11.625,11.625
	c2.879,0,5.514-1.048,7.544-2.78c-0.03,0.655,0.282,1.467,0.967,2.227l6.245,7.343c1.069,1.188,2.815,1.289,3.882,0.224
	C31.828,29.695,31.728,27.948,30.538,26.879z M12.125,19.874c-4.28,0-7.75-3.47-7.75-7.75s3.47-7.75,7.75-7.75s7.75,3.47,7.75,7.75
	S16.405,19.874,12.125,19.874z M13.958,6.624h-3.667v3.667H6.625v3.667h3.667v3.667h3.667v-3.667h3.667v-3.667h-3.667V6.624z"/>
</svg>
