<svg id="Layer_1" xmlns="//www.w3.org/2000/svg" viewBox="0 0 842 595"><style>.st0{fill:#EF7C0C;} .st1{fill:#4E4949;}</style><g id="oEHblm.tif"><path class="st0" d="M738 5.2c1.6.4 3.2 1 4.8 1.2 19 3.5 33.2 19 35.2 38.3 2.3 22-12.5 43-35.2 47-16.6 3-30.5-2.2-41.6-15l-2.4-3-2 .8-25 13.8c-2.3 1.3-2.3 1.4-1.7 4 3.5 18-7.3 34.6-25 38.2-10.3 2-19.5-.4-27.5-7l-2-1.8-.6-.2-2.2 1-19.6 12c-1.7 1-2 2-2 4 1.4 10.4-2.2 19-11.2 25-9 5.6-18.2 5.4-27.2 0-2-1.3-3.2-1.3-5 0-6.5 4.7-13.3 9.2-20 13.8-1.6 1-2.3 2.2-2.2 4.3.7 9.5-5.7 17-13.5 19-4 1-8 1-11.7-.8-2-1-3.2-.5-4.8.7-29.5 22-58 45.5-84.4 71.3-2.4 2.4-2.4 2.4-1 5.5 12 29.4 22 59.4 30 90.2 4 15.7 7.6 31.6 9.5 47.8.6 5.2 1 10.6.8 15.8-.2 11-4 20.4-11 28.5-7 8-15.5 10.8-25.7 8.4l-3-1.2c-2.7-1.5-3.3-4.3-1.3-6.7.8-1 2-1.6 3-2.2 6.5-3.7 9.8-9.4 10.8-16.6 1-6 .4-12-.2-18-3.6-32-12-63.2-21-94-3.3-11-7-21.7-10.5-32.5-.2-.7-.6-1.4-1-2h-.8l-17.3 19-14.7 17.7v1h2.4c5 0 9.8 0 14.7.2 3.8 0 6.7 2.5 7.7 6s-.3 7-3.2 9.2c-1.7 1.2-3.5 1.5-5.6 1.5h-27c-2.4 0-4 .6-5.4 2.5-6.2 8.8-12.6 17.5-19 26.3l-1.8 3.3h52.3c1.4 0 2.8 0 4 .4 4 1 6.5 5 6 9s-3.8 7-8 7.3h-62c-2.3 0-3.7.7-4.8 2.8-5 9-10 18-14.7 27l-1.6 3.7c1.5 0 2.6.3 3.7.3H373c1.4 0 3 0 4.3.6 3.8 1.3 6 5 5.4 9-.6 4-3.8 7-7.8 7.2h-88.3c-1.8-.2-2.8.6-3.5 2.4-7.2 19.6-12 39.6-11 60.6 1.2 20.8 8 39.3 23 54 3.2 3 6.6 5.8 10.3 8 4.3 2.6 4 7.5 1.3 10.3-2 2-4.4 3-7.2 3.5-3.3.4-6.5 0-9.5-1-17.8-7.2-33.2-17.4-44.3-33.5-7-10.4-11-22-12.6-34.4-2-18 .7-35.5 5.7-52.8 6.3-21.5 16-41.5 27-60.8 18-30.8 39.6-59 63.5-85.2 15.7-17.3 32.3-33.7 50-49 2-1.7 2-1.7 1-4.7-9-23.3-18.8-46.4-29.7-69-13.3-27.7-28-54.5-45-80.2-13.2-20.2-27.7-39.3-44.2-57-1.4-1.6-2.5-3.4-3.5-5.2-.4-.6-.3-1.8 0-2.4.7-1 2-.8 2.7-.3 2 1 4 2.2 5.5 3.7 14.6 14 28.2 29.2 41 45 30 36.8 55.3 77 76.7 119.4 5 10 9.7 20.2 14.5 30.3.4 1 1 1.7 1.5 3 1-.7 1.6-1 2.2-1.6 26.6-22.4 55-42.4 84-61.5.7-.4 1.2-.8 1.8-1 1.2-.8 1.5-1.7 1.2-3-.7-4-.2-7.6 1.6-11.2 4.8-9.7 17-13.3 26-7.5 2.3 1.4 3.6 1 5.6 0 6-4 12.4-7.7 18.6-11.4l3-1.8c-3.5-8-3.8-15.8.2-23.5 2.5-4.8 6.3-8.5 11.2-11 5.7-2.7 11.7-3 17.8-1.6 6 1.6 11 5.4 14.8 10.8l23-12.8c-5-9.7-6-19.5-1.8-29.4 3-7 8-12.3 14.7-16 12-6.4 33-5.4 44.3 14.7 9.5-5 19-9.7 28.8-14.7l-1.4-3.2c-11-25 3-53.8 29.8-60.2l7-1.6c2-.4 4-.4 5.8-.4z"/><path class="st1" d="M5.4 329.8c.4-.8 1-1.5 1-2.3 5-22 10-44 15.2-66 1.2-5.2 3-10.2 5.2-15 5-11.2 14-16.8 25.8-18.2 3.3-.4 6.6-.6 10-.6h79.6c5 0 9.8.3 14.5 1.6 8.5 2.4 12.7 7.8 13.2 16.6 0 4.2-.3 8.5-1.3 12.7l-9 40-1 2.8H47.4c-.3.8-.7 1.4-.8 2-2 8.4-4 16.8-5.7 25.2-.4 1.8-.6 3.7-.6 5.5 0 2.8 1 4.2 3.8 4.8 1.2.3 2.5.4 3.8.4h84.6c5.5 0 11-1 16.3-1.7l2-.2-7.4 18H31.5c-4.4 0-8.8-.2-13-1.5-6-1.8-10.5-5-12-11.4 0-.6-.7-1-1-1.6v-11.2zM51.2 285h76.4l.6-1.5c2.4-10 4.8-20.2 7-30.3.4-1.4.5-3 .5-4.4 0-2.4-1-3.7-3.3-4.2-1.8-.4-3.7-.7-5.5-.7-9.3-.2-18.5 0-27.7 0H69.6c-6.6 0-10 2.6-11.3 8.7l-6.8 30-.3 2.3zM213.3 355.5h-41.8c0-.6 0-1 .3-1.4 5-12.6 8.3-25.8 11.2-39 8-38 16.3-76 24.5-113.8 1.8-8.5 3.6-17 5-25.6.8-3.7.8-7.6 1-11.4v-3.4c2.5-.7 36.8-.8 39.7 0l-2.3 11L217 327.4c-1.4 6.7-2.4 13.5-3.4 20.3-.4 2.4-.3 5-.5 7.8zM557.6 227.8h32.7c.6 3.7-.8 7.2-.5 11.2.5-.5 1-.7 1-1 4.5-7.2 11.3-10.2 19.4-10.3 11-.2 22 0 33 0 1 0 1.8 0 2.4 1l7 12.8-5.8 7c-1.2 1.5-2.6 2-4.4 1.7-13.7-2-27.5-1.8-41.4-1.7-9 0-12.2 2.6-14.2 11.5l-8 35.3c-3 14-6.3 28-9.2 42-1 5-1.2 10.2-1.7 15.3l-.3 2.8h-39.2c0-.6 0-1 .3-1.5 4.2-10 6.6-20.4 9-30.8l17-74.7c1.4-6.2 2.6-12.5 2.4-19l.4-1.7zM484 227.8h37c0 1-.2 1.6-.3 2.4l-22.8 101c-1.8 7.7-3.5 15.4-3.5 23.3 0 .3 0 .5-.3 1h-39v-1c5.4-12.8 8.5-26 11.5-39.5l13.4-58.4c2-8.8 4-17.6 3.7-26.7l.3-2.2zM266.6 227.8h37l-.5 3c-7.5 33.7-15 67.4-22.7 101-1.7 7.5-3.3 14.8-3.2 22.4 0 .4 0 .7-.2 1.3h-39.2v-1c5.3-12.2 8.4-25 11.3-37.8 4.4-20 9.2-39.8 13.6-59.8 2-9 4-18 3.6-27 0-.7.3-1.4.4-2.2zM291.7 164.5c10.3 0 18.4 8 18.4 18.5 0 10.2-8 18.3-18.2 18.3s-18.3-8-18.4-18.2c0-10.3 8-18.5 18.3-18.5z"/></g></svg>
